<?xml version="1.0" standalone="no"?>
<!DOCTYPE svg PUBLIC "-//W3C//DTD SVG 20010904//EN"
 "http://www.w3.org/TR/2001/REC-SVG-20010904/DTD/svg10.dtd">
<svg version="1.0" xmlns="http://www.w3.org/2000/svg"
 width="16.000000pt" height="16.000000pt" viewBox="0 0 16.000000 16.000000"
 preserveAspectRatio="xMidYMid meet">
<g transform="translate(0.000000,16.000000) scale(0.010526,-0.010526)"
fill="#000000" stroke="none">
<path d="M228 1442 c-14 -3 -7 -19 39 -92 l57 -88 200 -4 c220 -5 241 -10 290
-68 28 -34 42 -114 31 -185 -13 -88 -96 -145 -212 -145 -24 0 -43 -2 -43 -5 0
-3 23 -37 51 -76 l52 -71 42 5 c204 25 297 134 297 345 0 84 -2 103 -18 167
-11 44 -61 118 -99 144 -33 23 -111 55 -162 67 -29 7 -495 13 -525 6z"/>
<path d="M229 730 c9 -14 117 -171 240 -348 l225 -322 123 0 c97 0 122 3 117
13 -9 14 -307 432 -332 464 -9 12 -48 67 -87 120 l-69 98 -117 0 -116 0 16
-25z"/>
<path d="M1080 175 l0 -115 115 0 115 0 0 115 0 115 -115 0 -115 0 0 -115z"/>
</g>
</svg>
