<?xml version="1.0" encoding="UTF-8" standalone="no"?>
<svg width="121px" height="16px" viewBox="0 0 121 16" version="1.1" xmlns="http://www.w3.org/2000/svg" xmlns:xlink="http://www.w3.org/1999/xlink">
    <!-- Generator: Sketch 43.1 (39012) - http://www.bohemiancoding.com/sketch -->
    <title>Group 79</title>
    <desc>Created with Sketch.</desc>
    <defs></defs>
    <g id="Page-1" stroke="none" stroke-width="1" fill="none" fill-rule="evenodd">
        <g id="Group-79" fill="#4A4A4A">
            <g id="Group-15">
                <g id="Group-14" transform="translate(16.000000, 5.500000) scale(-1, 1) translate(-16.000000, -5.500000) ">
                    <polygon id="Line" fill-rule="nonzero" points="0 6.5 26.5 6.5 26.5 5 0 5"></polygon>
                    <polygon id="Triangle-4" transform="translate(28.750000, 5.500000) rotate(90.000000) translate(-28.750000, -5.500000) " points="28.75 2.5 34 8.5 23.5 8.5"></polygon>
                </g>
            </g>
            <path d="M52.7295765,12 L52.7295765,1.328 L50.8575765,1.328 L50.8575765,5.68 L45.3055765,5.68 L45.3055765,1.328 L43.4335765,1.328 L43.4335765,12 L45.3055765,12 L45.3055765,7.328 L50.8575765,7.328 L50.8575765,12 L52.7295765,12 Z M58.4366823,12.192 C55.9726823,12.192 54.4686823,10.336 54.4686823,8.128 C54.4686823,5.904 55.9726823,4.08 58.4366823,4.08 C60.9006823,4.08 62.4046823,5.904 62.4046823,8.128 C62.4046823,10.336 60.9006823,12.192 58.4366823,12.192 Z M58.4366823,10.704 C59.8766823,10.704 60.6606823,9.504 60.6606823,8.128 C60.6606823,6.768 59.8766823,5.568 58.4366823,5.568 C57.0126823,5.568 56.2126823,6.768 56.2126823,8.128 C56.2126823,9.504 57.0126823,10.704 58.4366823,10.704 Z M75.2637882,12 L75.2637882,6.416 C75.2637882,4.848 74.4477882,4.08 73.0397882,4.08 C71.8717882,4.08 70.8477882,4.8 70.4157882,5.488 C70.1597882,4.656 69.4557882,4.08 68.3037882,4.08 C67.1197882,4.08 66.1117882,4.848 65.7757882,5.312 L65.7757882,4.272 L64.0957882,4.272 L64.0957882,12 L65.7757882,12 L65.7757882,6.592 C66.1277882,6.096 66.8157882,5.568 67.5677882,5.568 C68.4797882,5.568 68.8317882,6.128 68.8317882,6.96 L68.8317882,12 L70.5117882,12 L70.5117882,6.592 C70.8477882,6.08 71.5517882,5.568 72.3037882,5.568 C73.2157882,5.568 73.5837882,6.128 73.5837882,6.96 L73.5837882,12 L75.2637882,12 Z M81.0028941,12.192 C78.6668941,12.192 76.9548941,10.576 76.9548941,8.128 C76.9548941,5.888 78.5868941,4.08 80.8748941,4.08 C83.1948941,4.08 84.6668941,5.84 84.6668941,8.272 L84.6668941,8.688 L78.7148941,8.688 C78.8428941,9.84 79.7068941,10.816 81.1628941,10.816 C81.9308941,10.816 82.8108941,10.512 83.3708941,9.952 L84.1388941,11.056 C83.3548941,11.792 82.2188941,12.192 81.0028941,12.192 Z M83.0508941,7.488 C83.0028941,6.576 82.3788941,5.456 80.8588941,5.456 C79.4348941,5.456 78.7628941,6.56 78.6988941,7.488 L83.0508941,7.488 Z M90.47,12.192 C89.494,12.192 88.63,11.744 87.99,10.928 L87.99,14.944 L86.31,14.944 L86.31,4.272 L87.99,4.272 L87.99,5.328 C88.566,4.56 89.462,4.08 90.47,4.08 C92.47,4.08 93.894,5.584 93.894,8.128 C93.894,10.672 92.47,12.192 90.47,12.192 Z M89.974,10.704 C91.302,10.704 92.166,9.632 92.166,8.128 C92.166,6.624 91.302,5.568 89.974,5.568 C89.19,5.568 88.374,6.016 87.99,6.592 L87.99,9.648 C88.358,10.224 89.19,10.704 89.974,10.704 Z M101.969106,12 L100.289106,12 L100.289106,11.152 C99.7131059,11.824 98.8011059,12.192 97.7771059,12.192 C96.5291059,12.192 95.1051059,11.328 95.1051059,9.632 C95.1051059,7.84 96.5131059,7.104 97.7771059,7.104 C98.8331059,7.104 99.7131059,7.44 100.289106,8.096 L100.289106,6.944 C100.289106,6.048 99.5371059,5.504 98.4811059,5.504 C97.6171059,5.504 96.8491059,5.824 96.1931059,6.496 L95.4891059,5.328 C96.3851059,4.464 97.5051059,4.08 98.7371059,4.08 C100.465106,4.08 101.969106,4.8 101.969106,6.864 L101.969106,12 Z M98.4491059,11.04 C99.1691059,11.04 99.8891059,10.768 100.289106,10.24 L100.289106,9.056 C99.8891059,8.528 99.1691059,8.256 98.4491059,8.256 C97.5051059,8.256 96.7851059,8.816 96.7851059,9.648 C96.7851059,10.496 97.5051059,11.04 98.4491059,11.04 Z M107.276212,15.136 C105.964212,15.136 104.988212,14.848 104.028212,13.984 L104.812212,12.768 C105.452212,13.488 106.252212,13.76 107.276212,13.76 C108.380212,13.76 109.564212,13.248 109.564212,11.6 L109.564212,10.72 C108.972212,11.504 108.092212,12.016 107.084212,12.016 C105.116212,12.016 103.660212,10.592 103.660212,8.048 C103.660212,5.536 105.084212,4.08 107.084212,4.08 C108.060212,4.08 108.940212,4.512 109.564212,5.344 L109.564212,4.272 L111.244212,4.272 L111.244212,11.6 C111.244212,14.384 109.164212,15.136 107.276212,15.136 Z M107.580212,10.512 C108.364212,10.512 109.180212,10.048 109.564212,9.488 L109.564212,6.592 C109.180212,6.032 108.364212,5.568 107.580212,5.568 C106.236212,5.568 105.388212,6.56 105.388212,8.048 C105.388212,9.536 106.236212,10.512 107.580212,10.512 Z M116.983318,12.192 C114.647318,12.192 112.935318,10.576 112.935318,8.128 C112.935318,5.888 114.567318,4.08 116.855318,4.08 C119.175318,4.08 120.647318,5.84 120.647318,8.272 L120.647318,8.688 L114.695318,8.688 C114.823318,9.84 115.687318,10.816 117.143318,10.816 C117.911318,10.816 118.791318,10.512 119.351318,9.952 L120.119318,11.056 C119.335318,11.792 118.199318,12.192 116.983318,12.192 Z M119.031318,7.488 C118.983318,6.576 118.359318,5.456 116.839318,5.456 C115.415318,5.456 114.743318,6.56 114.679318,7.488 L119.031318,7.488 Z" id="Homepage"></path>
        </g>
    </g>
</svg>