<?xml version="1.0" encoding="UTF-8"?>
<svg width="427px" height="112px" viewBox="0 0 427 112" version="1.1" xmlns="http://www.w3.org/2000/svg" xmlns:xlink="http://www.w3.org/1999/xlink">
    <!-- Generator: Sketch 44.1 (41455) - http://www.bohemiancoding.com/sketch -->
    <title>hewlett-packard-enterprise-seeklogo.com</title>
    <desc>Created with Sketch.</desc>
    <defs></defs>
    <g id="Page-1" stroke="none" stroke-width="1" fill="none" fill-rule="evenodd">
        <g id="hewlett-packard-enterprise-seeklogo.com" fill="#FFFFFF">
            <polyline id="Fill-2" points="35.456 3.267 35.456 43.788 27.009 43.788 27.009 26.762 8.662 26.762 8.662 43.788 0.215 43.788 0.215 3.267 8.662 3.267 8.662 19.37 27.009 19.37 27.009 3.267 35.456 3.267"></polyline>
            <path d="M49.182,25.573 L60.335,25.573 C60.137,22.406 58.355,20.162 55.121,20.162 C52.416,20.162 50.105,21.878 49.182,25.573 Z M48.918,30.919 C49.578,35.736 53.076,37.717 57.432,37.717 C60.665,37.717 62.975,36.99 65.879,35.142 L65.879,41.874 C63.436,43.656 60.137,44.448 56.178,44.448 C47.202,44.448 41.064,38.64 41.064,29.269 C41.064,20.03 46.872,13.629 54.924,13.629 C63.503,13.629 67.925,19.568 67.925,28.279 L67.925,30.919 L48.918,30.919 L48.918,30.919 Z" id="Fill-3"></path>
            <polyline id="Fill-4" points="99.733 33.096 105.013 14.289 112.933 14.289 103.957 43.788 96.434 43.788 91.616 25.706 86.799 43.788 79.275 43.788 70.3 14.289 78.483 14.289 83.763 33.096 88.58 14.289 94.85 14.289 99.733 33.096"></polyline>
            <path d="M142.936,25.573 L154.089,25.573 C153.891,22.406 152.109,20.162 148.875,20.162 C146.17,20.162 143.859,21.878 142.936,25.573 Z M142.672,30.919 C143.332,35.736 146.83,37.717 151.186,37.717 C154.419,37.717 156.729,36.99 159.633,35.142 L159.633,41.874 C157.19,43.656 153.891,44.448 149.932,44.448 C140.956,44.448 134.818,38.64 134.818,29.269 C134.818,20.03 140.626,13.629 148.678,13.629 C157.257,13.629 161.679,19.568 161.679,28.279 L161.679,30.919 L142.672,30.919 L142.672,30.919 Z" id="Fill-5"></path>
            <path d="M235.778,10.461 L228.189,10.461 L228.189,22.538 L235.778,22.538 C240.134,22.538 242.246,20.03 242.246,16.532 C242.246,12.902 240.134,10.461 235.778,10.461 Z M228.189,29.731 L228.189,43.788 L219.808,43.788 L219.808,3.267 L236.307,3.267 C244.886,3.267 250.562,7.887 250.562,16.532 C250.562,25.111 244.886,29.731 236.307,29.731 L228.189,29.731 L228.189,29.731 Z" id="Fill-6"></path>
            <path d="M270.623,33.625 C269.897,32.041 267.72,31.051 265.41,31.051 C262.836,31.051 260.196,32.173 260.196,34.68 C260.196,37.255 262.836,38.31 265.41,38.31 C267.72,38.31 269.897,37.32 270.623,35.736 L270.623,33.625 Z M270.623,25.376 C270.623,22.538 268.182,20.756 264.024,20.756 C261.055,20.756 258.282,21.614 255.973,23.132 L255.973,16.07 C258.085,14.751 261.912,13.629 265.806,13.629 C273.923,13.629 278.477,17.786 278.477,24.979 L278.477,43.788 L270.623,43.788 L270.623,42.204 C269.634,43.194 266.729,44.316 263.496,44.316 C257.557,44.316 252.607,40.885 252.607,34.747 C252.607,29.137 257.557,25.309 264.024,25.309 C266.598,25.309 269.436,26.168 270.623,27.025 L270.623,25.376 L270.623,25.376 Z" id="Fill-7"></path>
            <path d="M299.342,13.629 C302.312,13.629 305.215,14.289 307.327,15.938 L307.327,23.395 C305.347,21.614 302.971,20.756 300.331,20.756 C295.976,20.756 292.544,23.792 292.544,29.071 C292.544,34.285 295.976,37.386 300.331,37.386 C302.971,37.386 305.347,36.463 307.327,34.747 L307.327,42.138 C305.215,43.788 302.312,44.448 299.342,44.448 C290.96,44.448 284.427,38.509 284.427,29.071 C284.427,19.568 290.96,13.629 299.342,13.629" id="Fill-8"></path>
            <polyline id="Fill-9" points="342.381 43.788 332.812 43.788 322.187 30.193 322.187 43.788 314.003 43.788 314.003 0.891 322.187 0.891 322.187 25.97 332.283 14.289 342.117 14.289 329.842 27.817 342.381 43.788"></polyline>
            <path d="M361.585,33.625 C360.859,32.041 358.682,31.051 356.372,31.051 C353.798,31.051 351.158,32.173 351.158,34.68 C351.158,37.255 353.798,38.31 356.372,38.31 C358.682,38.31 360.859,37.32 361.585,35.736 L361.585,33.625 Z M361.585,25.376 C361.585,22.538 359.144,20.756 354.986,20.756 C352.017,20.756 349.244,21.614 346.935,23.132 L346.935,16.07 C349.047,14.751 352.874,13.629 356.768,13.629 C364.885,13.629 369.438,17.786 369.438,24.979 L369.438,43.788 L361.585,43.788 L361.585,42.204 C360.596,43.194 357.691,44.316 354.458,44.316 C348.519,44.316 343.569,40.885 343.569,34.747 C343.569,29.137 348.519,25.309 354.986,25.309 C357.56,25.309 360.397,26.168 361.585,27.025 L361.585,25.376 L361.585,25.376 Z" id="Fill-10"></path>
            <path d="M395.121,22.34 C393.999,21.679 392.547,21.349 391.029,21.349 C388.258,21.349 386.014,22.802 385.42,25.508 L385.42,43.788 L377.236,43.788 L377.236,14.289 L385.42,14.289 L385.42,17.192 C386.674,15.081 389.115,13.629 392.02,13.629 C393.405,13.629 394.659,13.892 395.121,14.156 L395.121,22.34" id="Fill-11"></path>
            <path d="M418.616,24.187 C417.692,22.208 415.448,20.756 413.073,20.756 C408.651,20.756 406.012,24.319 406.012,29.071 C406.012,33.757 408.651,37.32 413.073,37.32 C415.515,37.32 417.692,35.934 418.616,33.888 L418.616,24.187 Z M418.616,41.346 C417.297,42.929 414.393,44.448 411.225,44.448 C402.646,44.448 397.828,37.518 397.828,29.071 C397.828,20.624 402.646,13.629 411.225,13.629 C414.393,13.629 417.297,15.146 418.616,16.73 L418.616,0.891 L426.865,0.891 L426.865,43.788 L418.616,43.788 L418.616,41.346 L418.616,41.346 Z" id="Fill-12"></path>
            <path d="M130.431,38.755 C127.965,38.755 126.464,37.406 126.415,34.788 L126.538,34.788 L126.538,3.557 L118.354,3.557 L118.354,35.19 C118.354,41.856 122.512,45.684 128.781,45.684 C130.695,45.684 132.147,45.421 133.335,44.891 L133.335,37.962 C132.477,38.557 131.421,38.755 130.431,38.755" id="Fill-13"></path>
            <path d="M197.871,22.224 L205.319,22.224 L205.319,15.558 L197.871,15.558 L197.871,3.557 L189.688,3.557 L189.688,15.558 L177.871,15.558 L177.871,3.557 L169.688,3.557 L169.688,15.558 L164.319,15.558 L164.319,22.224 L169.688,22.224 L169.688,35.19 C169.688,41.856 173.846,45.684 180.115,45.684 C182.028,45.684 183.48,45.421 184.668,44.891 L184.668,37.962 C183.811,38.557 182.755,38.755 181.765,38.755 C179.298,38.755 177.797,37.406 177.748,34.788 L177.871,34.788 L177.871,22.224 L189.688,22.224 L189.688,35.19 C189.688,41.856 193.845,45.684 200.114,45.684 C202.028,45.684 203.481,45.421 204.669,44.891 L204.669,37.962 C203.81,38.557 202.755,38.755 201.765,38.755 C199.298,38.755 197.797,37.406 197.748,34.788 L197.871,34.788 L197.871,22.224" id="Fill-14"></path>
            <polyline id="Fill-15" points="26.676 59.865 26.676 64.52 5.862 64.52 5.862 77.421 24.748 77.421 24.748 82.076 5.862 82.076 5.862 95.973 26.676 95.973 26.676 100.695 0.676 100.695 0.676 59.865 26.676 59.865"></polyline>
            <path d="M34.523,71.17 L39.511,71.17 L39.511,74.894 C41.24,72.566 44.432,70.572 48.222,70.572 C54.939,70.572 58.596,74.894 58.596,81.344 L58.596,100.695 L53.542,100.695 L53.542,82.142 C53.542,78.019 51.48,75.16 47.025,75.16 C43.567,75.16 40.575,77.487 39.511,80.679 L39.511,100.695 L34.523,100.695 L34.523,71.17" id="Fill-16"></path>
            <path d="M90.716,82.874 L105.943,82.874 C105.744,78.551 103.55,74.828 98.762,74.828 C94.839,74.828 91.647,77.421 90.716,82.874 Z M90.449,86.797 C90.649,93.646 94.972,96.905 100.357,96.905 C103.683,96.905 106.077,96.107 108.736,94.112 L108.736,98.7 C106.343,100.562 103.284,101.294 99.76,101.294 C91.248,101.294 85.529,95.509 85.529,86.199 C85.529,77.022 90.849,70.572 98.695,70.572 C106.675,70.572 110.798,76.357 110.798,85.002 L110.798,86.797 L90.449,86.797 L90.449,86.797 Z" id="Fill-17"></path>
            <path d="M132.743,76.157 C131.945,75.626 130.682,75.359 129.418,75.359 C126.293,75.359 123.566,77.421 122.569,80.879 L122.569,100.695 L117.582,100.695 L117.582,71.17 L122.569,71.17 L122.569,75.027 C123.832,72.5 126.625,70.572 129.884,70.572 C131.147,70.572 132.211,70.771 132.743,71.037 L132.743,76.157" id="Fill-18"></path>
            <path d="M142.915,91.918 C144.444,94.976 147.37,96.771 150.495,96.771 C156.147,96.771 159.473,92.183 159.473,85.932 C159.473,79.681 156.147,75.093 150.495,75.093 C147.37,75.093 144.444,76.888 142.915,79.948 L142.915,91.918 Z M142.915,112 L137.928,112 L137.928,71.17 L142.915,71.17 L142.915,74.628 C144.444,72.5 147.569,70.572 151.227,70.572 C159.938,70.572 164.526,77.754 164.526,85.932 C164.526,94.112 159.938,101.294 151.227,101.294 C147.569,101.294 144.444,99.365 142.915,97.237 L142.915,112 L142.915,112 Z" id="Fill-19"></path>
            <path d="M187.472,76.157 C186.674,75.626 185.411,75.359 184.147,75.359 C181.021,75.359 178.295,77.421 177.298,80.879 L177.298,100.695 L172.311,100.695 L172.311,71.17 L177.298,71.17 L177.298,75.027 C178.562,72.5 181.354,70.572 184.612,70.572 C185.876,70.572 186.94,70.771 187.472,71.037 L187.472,76.157" id="Fill-20"></path>
            <path d="M193.657,100.695 L198.645,100.695 L198.645,71.17 L193.657,71.17 L193.657,100.695 Z M196.117,65.451 C194.389,65.451 192.926,63.988 192.926,62.26 C192.926,60.464 194.389,59.067 196.117,59.067 C197.913,59.067 199.376,60.464 199.376,62.26 C199.376,63.988 197.913,65.451 196.117,65.451 L196.117,65.451 Z" id="Fill-21"></path>
            <path d="M205.826,93.048 C208.553,95.575 211.944,97.038 215.535,97.038 C218.794,97.038 221.653,95.841 221.653,92.915 C221.653,90.72 219.99,89.523 217.397,88.659 L213.341,87.262 C208.886,85.8 205.893,83.672 205.893,78.884 C205.893,73.697 210.481,70.572 216.333,70.572 C219.658,70.572 222.717,71.503 225.111,73.165 L225.111,78.352 C222.65,76.291 219.924,74.828 216.333,74.828 C213.274,74.828 210.747,76.157 210.747,78.684 C210.747,81.078 212.344,81.876 215.136,82.874 L219.658,84.403 C224.113,85.932 226.574,88.526 226.574,92.716 C226.574,98.168 221.72,101.294 215.535,101.294 C211.679,101.294 208.021,100.096 205.826,98.368 L205.826,93.048" id="Fill-22"></path>
            <path d="M236.748,82.874 L251.976,82.874 C251.776,78.551 249.582,74.828 244.794,74.828 C240.87,74.828 237.679,77.421 236.748,82.874 Z M236.481,86.797 C236.681,93.646 241.004,96.905 246.39,96.905 C249.715,96.905 252.108,96.107 254.769,94.112 L254.769,98.7 C252.375,100.562 249.315,101.294 245.791,101.294 C237.279,101.294 231.561,95.509 231.561,86.199 C231.561,77.022 236.881,70.572 244.728,70.572 C252.707,70.572 256.83,76.357 256.83,85.002 L256.83,86.797 L236.481,86.797 L236.481,86.797 Z" id="Fill-23"></path>
            <path d="M79.05,96.905 C76.124,96.905 74.196,95.044 74.196,91.518 L74.196,88.968 L74.319,88.968 L74.319,75.392 L82.152,75.392 L82.152,71.225 L74.319,71.225 L74.319,63.892 L69.275,63.892 L69.275,71.225 L62.486,71.225 L62.486,75.392 L69.275,75.392 L69.275,91.919 C69.275,97.837 73.132,101.294 78.318,101.294 C79.915,101.294 81.045,101.094 82.176,100.63 L82.176,96.106 C81.245,96.706 80.114,96.905 79.05,96.905" id="Fill-24"></path>
        </g>
    </g>
</svg>