<?xml version="1.0" encoding="UTF-8"?>
<svg width="223px" height="44px" viewBox="0 0 223 44" version="1.1" xmlns="http://www.w3.org/2000/svg" xmlns:xlink="http://www.w3.org/1999/xlink">
    <!-- Generator: Sketch 44.1 (41455) - http://www.bohemiancoding.com/sketch -->
    <title>mcafee-logo</title>
    <desc>Created with Sketch.</desc>
    <defs>
        <polygon id="path-1" points="222.655057 37.097078 222.655057 10.8016185 165.627062 10.8016185 165.627062 37.097078 222.655057 37.097078"></polygon>
    </defs>
    <g id="Page-1" stroke="none" stroke-width="1" fill="none" fill-rule="evenodd">
        <g id="mcafee-logo">
            <path d="M0,0.0696119403 L0.0512024169,0.0696119403 C6.53100302,3.00185075 13.0188882,5.91176119 19.4845408,8.86895522 C19.405716,11.7237015 19.405716,14.5843582 19.4818459,17.4397612 C15.6396435,15.7638209 11.8398852,13.992 8.0151994,12.2753433 C8.0488852,18.211403 8.0151994,24.1441791 8.03473716,30.0802388 C11.8513384,31.8080597 15.6820876,33.514209 19.4845408,35.2748657 C19.4138006,38.1414328 19.3747251,41.0099701 19.5155317,43.8732537 C13.0020453,40.954806 6.5134864,37.9838209 0.0053897281,35.0574925 C0,23.3948657 0.0114531722,11.7322388 0,0.0696119403" id="Fill-1" fill="#FFFFFF"></path>
            <path d="M38.8451178,0.0696119403 L38.9495438,0.0696119403 C38.9549335,11.7486567 38.9892931,23.4277015 38.9353958,35.1067463 C32.4387523,37.981194 25.9899426,40.9521791 19.5155317,43.8732537 C19.3747251,41.0099701 19.4138006,38.1414328 19.4845408,35.2748657 C23.3125952,33.5358806 27.1433444,31.7975522 30.9801571,30.0776119 C31.0023897,24.1389254 30.9767885,18.2028657 30.9943051,12.2641791 C27.1574924,13.9893731 23.3523444,15.7861493 19.4818459,17.4397612 C19.405716,14.5843582 19.405716,11.7237015 19.4845408,8.86895522 C25.9306556,5.92292537 32.4246042,3.07080597 38.8451178,0.0696119403" id="Fill-2" fill="#FFFFFF"></path>
            <path d="M54.0326979,1.91958209 C59.2418701,5.68453731 64.3910816,9.53289552 69.5753263,13.3306866 C74.7676556,9.53289552 79.9128248,5.676 85.1307553,1.91104478 C85.1475982,13.6235821 85.1132387,25.3354627 85.1004381,37.043403 C82.4614924,37.0269851 79.8265891,37.043403 77.1916858,37.0355224 C77.1876435,30.3593433 77.1964018,23.6831642 77.1876435,17.0076418 C74.6389758,18.8352836 72.1111934,20.6970746 69.5625257,22.5207761 C67.0259849,20.6760597 64.4941601,18.827403 61.9454924,16.9991045 C61.9279758,23.6752836 61.9710937,30.3468657 61.9239335,37.0230448 C59.2890302,37.0020299 56.6541269,37.0184478 54.0198973,37.0059701 C54.0279819,25.3105075 54.0023807,13.6150448 54.0326979,1.91958209" id="Fill-3" fill="#FFFFFF"></path>
            <path d="M131.003405,15.9614925 C129.896489,18.6599403 128.759257,21.353791 127.6611,24.0555224 C129.874931,24.0640597 132.093477,24.0640597 134.312024,24.0555224 C133.226668,21.353791 132.115036,18.6553433 131.003405,15.9614925 Z M125.707997,2.12907463 C128.171776,2.12053731 130.638924,2.13695522 133.106073,2.11659701 C138.08416,13.7529552 142.997571,25.4149254 147.945341,37.0604776 C145.164915,37.0644179 142.379773,37.0644179 139.594631,37.0644179 C138.774719,35.0732537 137.968281,33.0827463 137.140284,31.0955224 C133.016468,31.1040597 128.892653,31.0994627 124.764121,31.0994627 C123.940166,33.0781493 123.129012,35.0568358 122.313816,37.0355224 C119.537432,37.0355224 116.765764,37.0394627 113.989381,37.0355224 C118.550438,26.941791 123.103411,16.8441194 127.6611,6.75104478 C127.012985,5.20776119 126.356112,3.66841791 125.707997,2.12907463 L125.707997,2.12907463 Z" id="Fill-4" fill="#FFFFFF"></path>
            <path d="M157.840882,2.72734328 C160.870583,1.81516418 164.221647,2.04107463 167.148269,3.2080597 C166.161275,5.37062687 165.127121,7.5121791 164.132042,9.67080597 C162.754293,9.14346269 161.024864,8.49134328 159.694949,9.46985075 C158.094199,10.770806 158.767915,13.0128358 158.63452,14.7780896 C160.21371,14.7780896 161.7929,14.7780896 163.372091,14.7780896 C163.368048,16.9866269 163.389607,19.1991045 163.350532,21.4076418 C161.7801,21.4122388 160.204952,21.4076418 158.63452,21.4122388 C158.630477,26.6285373 158.63452,31.8441791 158.630477,37.0604776 C156.197015,37.0644179 153.764227,37.0644179 151.330764,37.0604776 C151.326722,31.8362985 151.330764,26.6114627 151.330764,21.3872836 C150.262251,21.3787463 149.198453,21.3872836 148.133982,21.3787463 C148.133982,19.1787463 148.133982,16.9826866 148.133982,14.7820299 C149.207211,14.7741493 150.28381,14.7820299 151.357039,14.7780896 C151.357039,12.4900896 151.176483,10.1055522 152.112275,7.94758209 C153.068952,5.46716418 155.244381,3.50489552 157.840882,2.72734328" id="Fill-6" fill="#FFFFFF"></path>
            <path d="M96.3737281,11.782806 C100.158665,10.2940299 104.625402,10.2145672 108.35442,11.9128358 C110.916562,13.0758806 112.847432,15.1839403 114.401021,17.4338507 C112.396716,18.6093731 110.375568,19.7638806 108.367894,20.9269254 C107.114782,18.8773134 105.06736,17.0076418 102.449973,17.1120597 C98.6481934,16.8986269 95.2277372,20.2367164 95.4426526,23.9386269 C95.3220574,27.5860299 98.724997,30.7940896 102.454015,30.593791 C105.046474,30.6686567 107.122867,28.8410149 108.35442,26.7828657 C110.358725,27.9419701 112.367073,29.0964776 114.362619,30.2634627 C112.950511,32.5639403 110.929363,34.5380299 108.423139,35.6800597 C103.432924,38.0311045 96.9915257,37.3198806 92.7949486,33.7394627 C89.3792085,30.8275821 87.6666224,26.1642388 88.4050151,21.8010149 C89.0874894,17.4299104 92.1508761,13.4561194 96.3737281,11.782806" id="Fill-8" fill="#FFFFFF"></path>
            <mask id="mask-2" fill="white">
                <use xlink:href="#path-1"></use>
            </mask>
            <g id="Clip-10"></g>
            <path d="M173.349151,20.6465075 C177.18529,20.6714627 181.022103,20.6675224 184.858242,20.6511045 C183.820045,18.5548657 181.717378,16.9157015 179.249556,16.9281791 C176.679329,16.7272239 174.301785,18.3631045 173.349151,20.6465075 Z M168.397338,15.9076418 C172.701036,10.2644776 181.81574,9.09355224 187.488429,13.4272239 C191.724082,16.3509254 193.35919,21.6506269 192.989994,26.5234627 C186.377471,26.5234627 179.768991,26.5359403 173.160511,26.5155821 C174.216224,29.5686567 177.679124,31.538806 180.927782,30.8151045 C182.485414,30.5602985 183.798486,29.6441791 184.965363,28.6571343 C186.944066,29.7065672 188.926139,30.7527164 190.900127,31.8192239 C188.819018,34.0238209 186.218474,35.8350448 183.219091,36.6047164 C177.850921,38.0186269 171.529444,36.2573134 168.242384,31.7561791 C164.697964,27.1933134 164.76264,20.4041791 168.397338,15.9076418 L168.397338,15.9076418 Z" id="Fill-9" fill="#FFFFFF" mask="url(#mask-2)"></path>
            <path d="M203.018257,20.6714627 C206.855069,20.7010149 210.695251,20.6970746 214.532063,20.6760597 C213.446033,18.4044776 211.055689,16.7482388 208.425502,16.944597 C206.009556,16.9281791 203.923731,18.5548657 203.018257,20.6714627 Z M197.363085,16.9196418 C200.795668,11.3605373 208.747538,9.2439403 214.695103,12.0172537 C218.098042,13.5231045 220.805707,16.4592836 221.90858,19.9484179 C222.642257,22.0643582 222.672574,24.3195224 222.651015,26.5234627 C216.042535,26.5490746 209.429338,26.4774925 202.820858,26.5615522 C203.872529,29.4517612 207.047752,31.4008955 210.180532,30.8991642 C211.892444,30.7152836 213.36923,29.7610746 214.635142,28.6735522 C216.604414,29.7111642 218.561559,30.7691343 220.539589,31.798209 C218.123644,34.5590448 214.703187,36.550209 210.982927,36.9849552 C206.391553,37.5497313 201.426266,35.9729552 198.444399,32.4339104 C194.706622,28.1928358 194.234347,21.613194 197.363085,16.9196418 L197.363085,16.9196418 Z" id="Fill-11" fill="#FFFFFF" mask="url(#mask-2)"></path>
        </g>
    </g>
</svg>