<?xml version="1.0" encoding="UTF-8"?>
<svg width="95px" height="29px" viewBox="0 0 95 29" version="1.1" xmlns="http://www.w3.org/2000/svg" xmlns:xlink="http://www.w3.org/1999/xlink">
    <!-- Generator: Sketch 44.1 (41455) - http://www.bohemiancoding.com/sketch -->
    <title>riverbed</title>
    <desc>Created with Sketch.</desc>
    <defs></defs>
    <g id="Page-1" stroke="none" stroke-width="1" fill="none" fill-rule="evenodd">
        <g id="riverbed" fill="#FFFFFF">
            <path d="M0.351397849,8.32869643 L4.36438172,8.32869643 L4.36438172,10.4803929 C6.01666667,9.00605357 7.3527957,8.08841071 9.67467742,8.08841071 L9.67467742,12.3969821 C9.28037634,12.2364464 8.88658602,12.1566964 8.45448925,12.1566964 C6.76287634,12.1566964 4.36438172,13.2343571 4.36438172,16.5439821 L4.36438172,28.5515357 L0.351397849,28.5515357 L0.351397849,8.32869643" id="Fill-1"></path>
            <path d="M11.2861022,2.18639286 C11.2861022,1.06730357 12.1886022,0.15225 13.2933602,0.15225 C14.394543,0.15225 15.3006183,1.06730357 15.3006183,2.18639286 C15.3006183,3.30496429 14.394543,4.2195 13.2933602,4.2195 C12.1886022,4.2195 11.2861022,3.30496429 11.2861022,2.18639286" id="Fill-2"></path>
            <polygon id="Fill-3" points="11.2850806 28.5499821 15.3006183 28.5499821 15.3006183 8.32766071 11.2850806 8.32766071"></polygon>
            <polyline id="Fill-4" points="25.6448925 28.5515357 22.1043548 28.5515357 16.9125538 8.32817857 21.1604839 8.32817857 23.8358065 21.2507857 23.9139516 21.2507857 26.5892742 8.32817857 30.8382258 8.32817857 25.6448925 28.5515357"></polyline>
            <path d="M35.2434677,16.7858214 L39.1788172,16.7858214 L39.1788172,14.4699643 C39.1788172,12.9547143 38.4300538,12.1566964 37.2098656,12.1566964 C35.9912097,12.1566964 35.2434677,12.9547143 35.2434677,14.4699643 L35.2434677,16.7858214 Z M35.2434677,19.9753036 L35.2434677,22.7266786 C35.2434677,24.0031964 35.9912097,24.7225 37.2098656,24.7225 C38.7451882,24.7225 39.0996505,23.566125 39.1788172,22.6868036 L43.1907796,22.6868036 C43.1907796,24.3625893 42.5998387,25.9182321 41.5768011,26.9958929 C40.515457,28.111875 39.0582796,28.7902679 37.2098656,28.7902679 C34.7705108,28.7902679 32.9226075,27.6323393 31.9777151,25.8783571 C31.4291667,24.8410893 31.2315054,23.4061071 31.2315054,21.7722679 L31.2315054,15.1074464 C31.2315054,13.4736071 31.4291667,12.0370714 31.9777151,10.9992857 C32.9226075,9.24530357 34.7705108,8.08841071 37.2098656,8.08841071 C40.9102688,8.08841071 43.1907796,10.8403036 43.1907796,14.39125 L43.1907796,19.9753036 L35.2434677,19.9753036 L35.2434677,19.9753036 Z" id="Fill-5"></path>
            <path d="M44.8287634,8.32869643 L48.8417473,8.32869643 L48.8417473,10.4803929 C50.4950538,9.00605357 51.8301613,8.08841071 54.1525538,8.08841071 L54.1525538,12.3969821 C53.7592742,12.2364464 53.3649731,12.1566964 52.9333871,12.1566964 C51.2427957,12.1566964 48.8417473,13.2343571 48.8417473,16.5439821 L48.8417473,28.5515357 L44.8287634,28.5515357 L44.8287634,8.32869643" id="Fill-6"></path>
            <path d="M63.7506183,14.55075 C63.7506183,13.2752679 63.3175,12.1566964 61.7842204,12.1566964 C60.6431989,12.1566964 59.7784946,13.0738214 59.7784946,14.3498214 L59.7784946,22.2093393 C59.7784946,23.68575 60.5650538,24.7225 61.7842204,24.7225 C63.1617204,24.7225 63.7506183,23.6049643 63.7506183,21.9690536 L63.7506183,14.55075 Z M55.7665323,0.151732143 L59.7784946,0.151732143 L59.7784946,10.1624286 L59.8576613,10.1624286 C60.7208333,8.84603571 61.9803495,8.08685714 63.5534677,8.08685714 C65.4820699,8.08685714 66.4668011,8.84603571 67.1338441,9.92369643 C67.6445968,10.7605536 67.7636022,11.9179643 67.7636022,14.8303929 L67.7636022,22.5278214 C67.7636022,24.7608214 67.5674731,25.9985 67.0934946,26.8752321 C66.3871237,28.191625 65.2062634,28.7902679 63.5938172,28.7902679 C61.5870699,28.7902679 60.8010215,27.8736607 59.7784946,26.71625 L59.7784946,28.5515357 L55.7665323,28.5515357 L55.7665323,0.151732143 L55.7665323,0.151732143 Z" id="Fill-7"></path>
            <path d="M73.4007796,16.7858214 L77.336129,16.7858214 L77.336129,14.4699643 C77.336129,12.9547143 76.5863441,12.1566964 75.3666667,12.1566964 C74.1480108,12.1566964 73.4007796,12.9547143 73.4007796,14.4699643 L73.4007796,16.7858214 Z M73.4007796,19.9753036 L73.4007796,22.7266786 C73.4007796,24.0031964 74.1480108,24.7225 75.3666667,24.7225 C76.9030108,24.7225 77.2579839,23.566125 77.336129,22.6868036 L81.3486022,22.6868036 C81.3486022,24.3625893 80.7586828,25.9182321 79.7341129,26.9958929 C78.6727688,28.111875 77.2181452,28.7902679 75.3666667,28.7902679 C72.9283333,28.7902679 71.0799194,27.6323393 70.1360484,25.8783571 C69.5849462,24.8410893 69.3888172,23.4061071 69.3888172,21.7722679 L69.3888172,15.1074464 C69.3888172,13.4736071 69.5849462,12.0370714 70.1360484,10.9992857 C71.0799194,9.24530357 72.9283333,8.08841071 75.3666667,8.08841071 C79.0655376,8.08841071 81.3486022,10.8403036 81.3486022,14.39125 L81.3486022,19.9753036 L73.4007796,19.9753036 L73.4007796,19.9753036 Z" id="Fill-8"></path>
            <path d="M86.9934409,21.9690536 C86.9934409,23.6049643 87.5828495,24.7225 88.9588172,24.7225 C90.1800269,24.7225 90.9670968,23.68575 90.9670968,22.2083036 L90.9670968,14.3493036 C90.9670968,13.0722679 90.099328,12.1561786 88.9588172,12.1561786 C87.4270699,12.1561786 86.9934409,13.2737143 86.9934409,14.55075 L86.9934409,21.9690536 Z M90.9670968,26.71625 C89.9445699,27.8715893 89.1564785,28.7902679 87.1481989,28.7902679 C85.5362634,28.7902679 84.357957,28.191625 83.6505645,26.8752321 C83.1760753,25.9985 82.980457,24.7618571 82.980457,22.5288571 L82.980457,14.8303929 C82.980457,11.9179643 83.0994624,10.7610714 83.6086828,9.92317857 C84.2777688,8.84655357 85.2619892,8.08789286 87.1911022,8.08789286 C88.7611559,8.08789286 90.0216935,8.84655357 90.8858871,10.1619107 L90.9670968,10.1619107 L90.9670968,0.151214286 L94.9780376,0.151214286 L94.9780376,28.5499821 L90.9670968,28.5499821 L90.9670968,26.71625 L90.9670968,26.71625 Z" id="Fill-9"></path>
        </g>
    </g>
</svg>