<?xml version="1.0" encoding="UTF-8" standalone="no"?>
<svg width="99px" height="78px" viewBox="0 0 99 78" version="1.1" xmlns="http://www.w3.org/2000/svg" xmlns:xlink="http://www.w3.org/1999/xlink">
    <!-- Generator: Sketch 42 (36781) - http://www.bohemiancoding.com/sketch -->
    <title>Group 45</title>
    <desc>Created with Sketch.</desc>
    <defs></defs>
    <g id="Page-1" stroke="none" stroke-width="1" fill="none" fill-rule="evenodd">
        <g id="Group-45">
            <path d="M83.9138274,11.4281735 C74.7457962,4.05668106 62.5834525,0 49.6222836,0 C36.6608583,0 24.4987709,4.05668106 15.3307397,11.4281735 C-2.38825846,25.6756167 -3.61905422,48.4820797 12.275413,63.8679908 C10.716217,66.3906363 8.21463296,69.3263706 4.50250579,70.7942378 C2.7179673,71.5029202 -0.27907697,74.0448069 0.0209180076,75.6198447 C0.320912985,77.1948825 3.84647447,77.4397328 5.8153375,77.6868852 C6.73772932,77.8027315 8.05056104,77.9179594 9.64974953,77.9179594 C13.9368975,77.9179594 20.2536664,77.109509 26.7137419,73.3669734 C33.9121409,76.4830734 41.7881058,78 49.6022873,78 C62.15302,78 74.5814679,74.0923525 83.9338237,66.572651 C93.1015985,59.2009524 98.14681,49.4226608 98.14681,39 C98.14681,28.5783699 93.0805768,18.7990476 83.9138274,11.4281735 Z" id="Path" fill="#00FF78"></path>
            <path d="M30.897,46 L28.769,46 L27.985,43.936 L23.089,43.936 L22.305,46 L20.177,46 L24.369,35.328 L26.705,35.328 L30.897,46 Z M27.457,42.288 L25.537,37.2 L23.617,42.288 L27.457,42.288 Z M39.247,46 L39.247,44.352 L34.543,44.352 L34.543,35.328 L32.671,35.328 L32.671,46 L39.247,46 Z M46.157,46.192 C42.957,46.192 40.701,43.856 40.701,40.672 C40.701,37.488 42.957,35.152 46.157,35.152 C49.341,35.152 51.613,37.488 51.613,40.672 C51.613,43.856 49.341,46.192 46.157,46.192 Z M46.157,44.528 C48.301,44.528 49.693,42.864 49.693,40.672 C49.693,38.464 48.301,36.816 46.157,36.816 C43.997,36.816 42.621,38.464 42.621,40.672 C42.621,42.864 43.997,44.528 46.157,44.528 Z M63.451,46 L63.451,35.328 L61.579,35.328 L61.579,39.68 L56.027,39.68 L56.027,35.328 L54.155,35.328 L54.155,46 L56.027,46 L56.027,41.328 L61.579,41.328 L61.579,46 L63.451,46 Z M76.089,46 L73.961,46 L73.177,43.936 L68.281,43.936 L67.497,46 L65.369,46 L69.561,35.328 L71.897,35.328 L76.089,46 Z M72.649,42.288 L70.729,37.2 L68.809,42.288 L72.649,42.288 Z" id="Aloha" fill="#040404"></path>
        </g>
    </g>
</svg>