<?xml version="1.0" encoding="UTF-8" standalone="no"?>
<svg width="35px" height="26px" viewBox="0 0 35 26" version="1.1" xmlns="http://www.w3.org/2000/svg" xmlns:xlink="http://www.w3.org/1999/xlink">
    <!-- Generator: Sketch 43.1 (39012) - http://www.bohemiancoding.com/sketch -->
    <title>left-arrow</title>
    <desc>Created with Sketch.</desc>
    <defs>
        <polygon id="path-1" points="34.8853846 0.0298120301 0.0830769231 0.0298120301 0.0830769231 25.9989004 34.8853846 25.9989004 34.8853846 0.0298120301"></polygon>
    </defs>
    <g id="Page-1" stroke="none" stroke-width="1" fill="none" fill-rule="evenodd">
        <g id="left-arrow">
            <mask id="mask-2" fill="white">
                <use xlink:href="#path-1"></use>
            </mask>
            <g id="Clip-2"></g>
            <path d="M11.3801538,0.41981203 C11.8716923,-0.102142857 12.6456923,-0.102142857 13.1372308,0.41981203 C13.6135385,0.924172932 13.6135385,1.75988722 13.1372308,2.26424812 L4.22446154,11.7019549 L33.6364615,11.7019549 C34.3232308,11.7019549 34.8853846,12.2810902 34.8853846,13.0024436 C34.8853846,13.7296617 34.3232308,14.3249248 33.6364615,14.3249248 L4.22446154,14.3249248 L13.1372308,23.7465038 C13.6135385,24.2669925 13.6135385,25.1100376 13.1372308,25.6085338 C12.6456923,26.1290226 11.8716923,26.1290226 11.3801538,25.6085338 L0.357230769,13.936391 C-0.119076923,13.4320301 -0.119076923,12.5963158 0.357230769,12.0919549 L11.3801538,0.41981203 Z" id="Fill-1" fill="#7FCEF5" mask="url(#mask-2)"></path>
        </g>
    </g>
</svg>