<?xml version="1.0" encoding="UTF-8" standalone="no"?>
<svg width="16px" height="34px" viewBox="0 0 16 34" version="1.1" xmlns="http://www.w3.org/2000/svg" xmlns:xlink="http://www.w3.org/1999/xlink">
    <!-- Generator: Sketch 42 (36781) - http://www.bohemiancoding.com/sketch -->
    <title>down-arrow</title>
    <desc>Created with Sketch.</desc>
    <defs></defs>
    <g id="Page-1" stroke="none" stroke-width="1" fill="none" fill-rule="evenodd">
        <g id="Desktop-Copy-3" transform="translate(-132.000000, -3182.000000)" fill-rule="nonzero" fill="#0000FF">
            <g id="down-arrow" transform="translate(132.000000, 3182.000000)">
                <g id="Fill-1">
                    <g id="Page-1">
                        <g id="down-arrow">
                            <path d="M15.644549,25.5869558 C15.5356863,25.337823 15.337098,25.2144602 15.0503529,25.2144602 L10.4705882,25.2144602 L10.4705882,0.739274336 C10.4705882,0.556035398 10.4094118,0.40559292 10.2867451,0.287946903 C10.1640784,0.17060177 10.0072157,0.111628319 9.81615686,0.111628319 L5.88956863,0.111628319 C5.6985098,0.111628319 5.54290196,0.17060177 5.41898039,0.287946903 C5.29662745,0.40559292 5.23545098,0.556035398 5.23545098,0.739274336 L5.23545098,25.2144602 L0.655686275,25.2144602 C0.382431373,25.2144602 0.185098039,25.3390265 0.0624313725,25.5869558 C-0.0464313725,25.834885 -0.0122352941,26.0641593 0.164078431,26.2732743 L7.424,33.803823 C7.56015686,33.9341062 7.72298039,34 7.91435294,34 C8.09192157,34 8.24878431,33.9341062 8.38494118,33.803823 L15.5416471,26.2732743 C15.7192157,26.0641593 15.7537255,25.834885 15.644549,25.5869558 Z" id="Fill-1"></path>
                        </g>
                    </g>
                </g>
            </g>
        </g>
    </g>
</svg>