<?xml version="1.0" encoding="UTF-8" standalone="no"?>
<svg width="42px" height="42px" viewBox="0 0 42 42" version="1.1" xmlns="http://www.w3.org/2000/svg" xmlns:xlink="http://www.w3.org/1999/xlink">
    <!-- Generator: Sketch 42 (36781) - http://www.bohemiancoding.com/sketch -->
    <title>Group 32</title>
    <desc>Created with Sketch.</desc>
    <defs></defs>
    <g id="Page-1" stroke="none" stroke-width="1" fill="none" fill-rule="evenodd">
        <g id="Mobile-Copy" transform="translate(-166.000000, -4590.000000)">
            <g id="Group-10" transform="translate(104.000000, 4591.000000)">
                <g id="Group-32" transform="translate(63.000000, 0.000000)">
                    <circle id="Oval-2" stroke="#000000" stroke-width="1.79999995" cx="20" cy="20" r="20"></circle>
                    <path d="M30.2697624,15.0467451 C29.2504752,13.3176863 27.8679703,11.9489608 26.1211089,10.9394412 C24.3749307,9.93014706 22.4677525,9.42527451 20.3995743,9.42527451 C18.331396,9.42527451 16.4242178,9.93014706 14.6780396,10.9394412 C12.9309505,11.9480588 11.5484455,13.3176863 10.5291584,15.0467451 C9.50964356,16.7767059 9,18.6651863 9,20.7130882 C9,22.7600882 9.50964356,24.6485686 10.5291584,26.3785294 C11.5484455,28.1075882 12.9309505,29.4772157 14.6771287,30.4858333 C16.4242178,31.4951275 18.331396,32 20.3995743,32 C22.4677525,32 24.3749307,31.4951275 26.1211089,30.4858333 C27.8672871,29.4772157 29.2504752,28.1075882 30.2697624,26.3785294 C31.2883663,24.6485686 31.7980099,22.7600882 31.7980099,20.7130882 C31.7980099,18.6651863 31.2883663,16.7758039 30.2697624,15.0467451 Z M20.3995743,11.0715784 C22.8528317,11.0715784 24.995703,11.875 26.8254554,13.4816176 L26.6405446,13.7386765 C26.5658515,13.8417255 26.3807129,14.0399314 26.0837624,14.3341961 C25.787495,14.6275588 25.4627624,14.9076176 25.1113861,15.1718922 C24.7600099,15.4361667 24.2831584,15.7374216 23.6792376,16.0756569 C23.0753168,16.4138922 22.4329109,16.7106373 21.7497426,16.9652157 C20.6120396,14.8873235 19.3950891,13.0164314 18.0982079,11.3507353 C18.8802079,11.1640294 19.6469505,11.0715784 20.3995743,11.0715784 Z M12.7708614,14.7306078 C13.7200099,13.5449804 14.8779802,12.6342255 16.2436337,11.9974412 C17.4701485,13.6137549 18.6773069,15.4659314 19.8648812,17.5526176 C16.8564356,18.3366471 13.8586931,18.728549 10.8707426,18.728549 C11.1872772,17.2488824 11.820802,15.9162353 12.7708614,14.7306078 Z M11.3154851,24.1887941 C10.8805347,23.0868235 10.662604,21.9278039 10.662604,20.7130882 C10.662604,20.5757647 10.6678416,20.4727157 10.6776337,20.4039412 C14.2599406,20.4039412 17.5894752,19.948451 20.6662376,19.0367941 C20.983,19.6447157 21.2453366,20.1881471 21.453703,20.6691176 C21.4136238,20.6885098 21.3494059,20.7103824 21.2605941,20.7351863 C21.1706436,20.7588627 21.1066535,20.776451 21.0665743,20.7861471 L20.5177624,20.9773627 C20.1415644,21.1146863 19.6496832,21.3489706 19.0412079,21.6829216 C18.4327327,22.0157451 17.7869109,22.4130588 17.1037426,22.8728333 C16.4214851,23.3335098 15.716,23.9439118 14.9893366,24.7031373 C14.2615347,25.4623627 13.6505545,26.2781863 13.1559406,27.1501569 C12.3641485,26.2781863 11.7504356,25.2907647 11.3154851,24.1887941 Z M20.3995743,30.3536961 C18.0840891,30.3536961 16.0159109,29.619049 14.1948119,28.1497549 L14.417297,28.3109804 C14.7641188,27.5562647 15.2730792,26.8313137 15.9464554,26.1363529 C16.6198317,25.4404902 17.2674752,24.8794706 17.8909802,24.4530686 C18.5144851,24.0266667 19.1924158,23.6250686 19.9245446,23.248049 C20.6566733,22.8701275 21.1556139,22.6306569 21.4234158,22.5276078 C21.6903069,22.4245588 21.9036832,22.3433824 22.0619505,22.2854314 L22.0913267,22.2703235 L22.120703,22.2703235 C23.0903465,24.788598 23.7833069,27.2286275 24.1986733,29.5899608 C22.9719307,30.0991176 21.7053366,30.3536961 20.3995743,30.3536961 Z M28.5930396,25.9230392 C27.86,27.044402 26.9447822,27.9736471 25.8469307,28.7082941 C25.4404455,26.4542941 24.8080594,24.157 23.9470396,21.8150588 C25.9154752,21.511098 27.9392475,21.6529314 30.0172178,22.2412353 C29.7992871,23.5732059 29.3251683,24.801 28.5930396,25.9230392 Z M29.9878416,20.580049 C29.8883267,20.5606569 29.7646733,20.5387843 29.6159703,20.5139804 C29.4684059,20.4903039 29.2878218,20.4603137 29.0742178,20.4260392 C28.8617525,20.3915392 28.6242376,20.3599706 28.3616733,20.3308824 C28.1002475,20.3017941 27.8201485,20.2745098 27.5229703,20.2497059 C27.226703,20.2251275 26.9099406,20.2057353 26.5738218,20.1908529 C26.2365644,20.1766471 25.8958911,20.1687549 25.5490693,20.1687549 C25.2029307,20.1687549 24.8392574,20.1793529 24.458505,20.1987451 C24.0777525,20.2181373 23.7095248,20.2524118 23.3526832,20.3017941 C23.3233069,20.2524118 23.2859604,20.1714608 23.2415545,20.0587157 C23.1971485,19.9459706 23.1650396,19.8605098 23.1454554,19.8014314 C22.956901,19.3901373 22.7398812,18.924951 22.4916634,18.4054216 C23.1748317,18.130549 23.8252079,17.8150882 24.4441584,17.4574608 C25.0624257,17.1000588 25.5570396,16.7809902 25.928,16.5018333 C26.2989604,16.2226765 26.6503366,15.9266078 26.9821287,15.6131765 C27.3139208,15.2995196 27.5282079,15.0810196 27.6279505,14.9585784 C27.7265545,14.8361373 27.8208317,14.716402 27.9098713,14.5984706 L27.924901,14.5842647 C29.3695743,16.3284314 30.1071683,18.3366471 30.1363168,20.6100392 L29.9878416,20.580049 Z" id="dribbble-logo" fill="#0000FF"></path>
                </g>
            </g>
        </g>
    </g>
</svg>