<?xml version="1.0" encoding="UTF-8" standalone="no"?>
<svg width="43px" height="42px" viewBox="0 0 43 42" version="1.1" xmlns="http://www.w3.org/2000/svg" xmlns:xlink="http://www.w3.org/1999/xlink">
    <!-- Generator: Sketch 43.1 (39012) - http://www.bohemiancoding.com/sketch -->
    <title>Group 16</title>
    <desc>Created with Sketch.</desc>
    <defs></defs>
    <g id="Page-1" stroke="none" stroke-width="1" fill="none" fill-rule="evenodd">
        <g id="March-14th-2017" transform="translate(-1233.000000, -5367.000000)">
            <g id="Group-55" transform="translate(1169.000000, 5368.000000)">
                <g id="Group-16" transform="translate(65.333333, 0.000000)">
                    <circle id="Oval-2" stroke="#000000" stroke-width="1.79999995" cx="20" cy="20" r="20"></circle>
                    <path d="M5,21.1587458 C5,22.4745733 5.12276796,23.6651919 5.36865787,24.730318 C5.61454778,25.7952315 5.95495627,26.7205435 6.38974175,27.5064666 C6.82473963,28.292248 7.37762023,28.98352 8.04880836,29.5797865 C8.72006728,30.1763365 9.44824976,30.6637719 10.2328602,31.0423763 C11.0174706,31.4209098 11.9133085,31.7286145 12.9199491,31.9654195 C13.9269437,32.2022245 14.9548952,32.3678462 16.0045117,32.4625682 C17.0537742,32.5572902 18.2070424,32.6046512 19.4645998,32.6046512 C20.7312196,32.6046512 21.8895147,32.5572902 22.9387772,32.4625682 C23.9880396,32.3678462 25.0185399,32.2019409 26.0302074,31.9654195 C27.0418748,31.7286145 27.9421023,31.4211934 28.7316688,31.0423763 C29.5210228,30.6637719 30.2536658,30.1763365 30.9298099,29.5797865 C31.6057417,28.98352 32.1635783,28.292248 32.6030366,27.5064666 C33.0424949,26.7207562 33.3854522,25.7952315 33.6310589,24.730318 C33.876878,23.6651919 34,22.4745733 34,21.1587458 C34,18.8107605 33.2151064,16.7801222 31.6458855,15.0666184 C31.7310584,14.839243 31.8090097,14.5814517 31.8798102,14.2925355 C31.9508938,14.0039737 32.0170214,13.5921882 32.0784054,13.0571082 C32.1397894,12.5223118 32.1162836,11.9047045 32.0076049,11.2040028 C31.8989263,10.5033011 31.697853,9.78877397 31.4046684,9.05957058 L31.1919839,9.01688896 C31.0407542,8.98867088 30.7926695,8.99583175 30.4475173,9.03822977 C30.1023652,9.08091138 29.700502,9.16620372 29.2422107,9.29389408 C28.7837071,9.42179713 28.1926651,9.66803178 27.4694386,10.0325271 C26.7462122,10.3969516 25.9829127,10.8536874 25.1792569,11.4028765 C23.799144,11.0239885 21.903604,10.8348281 19.4927784,10.8348281 C17.0913692,10.8348281 15.2007852,11.0239885 13.8204599,11.4028765 C13.0167333,10.8536874 12.248761,10.3969516 11.5161181,10.0325271 C10.783546,9.66803178 10.1996548,9.42179713 9.76465691,9.29389408 C9.32987144,9.16620372 8.92333534,9.08339287 8.54526101,9.04546154 C8.16690348,9.0075302 7.92823521,8.99583175 7.828973,9.01001169 C7.72971079,9.02412073 7.65168871,9.04071126 7.59497756,9.05957058 C7.30186376,9.78877397 7.10107373,10.5033011 6.99239506,11.2040028 C6.88364559,11.9047045 6.85992744,12.5223118 6.92159462,13.0571082 C6.9829786,13.5921882 7.04903541,14.0039737 7.11983584,14.2925355 C7.19091948,14.5814517 7.26894156,14.839243 7.35383128,15.0666184 C5.78461043,16.7801222 5,18.8107605 5,21.1587458 Z M8.5593503,24.7231572 C8.5593503,23.3599687 9.17864171,22.1100779 10.4170829,20.9740521 C10.7857408,20.6330954 11.2160658,20.3752332 11.7074917,20.2002528 C12.1989883,20.0249178 12.7545593,19.9255164 13.3737799,19.9019777 C13.9930713,19.8781554 14.5862374,19.8828348 15.1534905,19.9160868 C15.7207436,19.9493387 16.4201811,19.9941473 17.2523694,20.050938 C18.0842745,20.1077287 18.8027573,20.1362303 19.4076054,20.1362303 C20.0127368,20.1362303 20.7312196,20.1077287 21.5631247,20.050938 C22.395313,19.9941473 23.0947505,19.9493387 23.6620036,19.9160868 C24.2292567,19.8828348 24.8224935,19.8781554 25.4417142,19.9019777 C26.0609348,19.9255164 26.6162226,20.0249178 27.1080024,20.2002528 C27.5997114,20.3752332 28.0297533,20.6330954 28.3984111,20.9740521 C29.6369232,22.0912895 30.2561438,23.3408967 30.2561438,24.7231572 C30.2561438,25.5373693 30.1546159,26.2591282 29.9510647,26.8889302 C29.7477966,27.5183778 29.4878174,28.0462969 29.1711271,28.4722623 C28.8545075,28.8981568 28.4150492,29.2604542 27.852469,29.5584457 C27.2899595,29.8567207 26.7415393,30.0862939 26.2074917,30.2472362 C25.6731608,30.4081076 24.9878126,30.5338837 24.1512346,30.6235718 C23.3143735,30.7136144 22.5676413,30.7681363 21.9105424,30.7869956 C21.2533728,30.8058549 20.4192729,30.8154973 19.4076054,30.8154973 C18.3962212,30.8154973 17.5618381,30.8058549 16.9047392,30.7869956 C16.2478528,30.7681363 15.5008374,30.7136144 14.6642595,30.6235718 C13.8276815,30.5338837 13.1420501,30.4081076 12.6080024,30.2472362 C12.0739547,30.0862939 11.5255345,29.8567207 10.9630251,29.5584457 C10.4004448,29.2604542 9.96098652,28.8981568 9.64436697,28.4722623 C9.32767662,28.0460133 9.06741422,27.5183778 8.86414617,26.8889302 C8.66087812,26.2591282 8.5593503,25.5370857 8.5593503,24.7231572 Z M23.1249115,24.4367933 C23.1249115,25.9406468 23.9363553,27.1594835 24.9375443,27.1594835 C25.9383792,27.1594835 26.749823,25.9406468 26.749823,24.4367933 C26.749823,22.9332234 25.9383792,21.7143158 24.9375443,21.7143158 C23.9363553,21.7143158 23.1249115,22.9332234 23.1249115,24.4367933 Z M12.249823,24.4367933 C12.249823,25.9406468 13.06155,27.1594835 14.0624557,27.1594835 C15.0633615,27.1594835 15.8750885,25.9406468 15.8750885,24.4367933 C15.8750885,22.9332234 15.0633615,21.7143158 14.0624557,21.7143158 C13.06155,21.7143158 12.249823,22.9332234 12.249823,24.4367933 Z" id="Fill-1" fill="#0000FF"></path>
                </g>
            </g>
        </g>
    </g>
</svg>