<?xml version="1.0" encoding="UTF-8" standalone="no"?>
<svg width="42px" height="42px" viewBox="0 0 42 42" version="1.1" xmlns="http://www.w3.org/2000/svg" xmlns:xlink="http://www.w3.org/1999/xlink">
    <!-- Generator: Sketch 42 (36781) - http://www.bohemiancoding.com/sketch -->
    <title>Group 31</title>
    <desc>Created with Sketch.</desc>
    <defs></defs>
    <g id="Page-1" stroke="none" stroke-width="1" fill="none" fill-rule="evenodd">
        <g id="Mobile-Copy" transform="translate(-103.000000, -4590.000000)">
            <g id="Group-10" transform="translate(104.000000, 4591.000000)">
                <g id="Group-31">
                    <circle id="Oval-2" stroke="#000000" stroke-width="1.79999995" cx="20" cy="20" r="20"></circle>
                    <path d="M32,21.6334 L32,30 L27.2840556,30 L27.2840556,22.1944 C27.2840556,20.2338857 26.6026667,18.8956571 24.8958333,18.8956571 C23.5923333,18.8956571 22.81775,19.7967143 22.4764444,20.6694857 C22.3523889,20.9812571 22.32,21.4146571 22.32,21.8518286 L22.32,30 L17.6031389,30 C17.6031389,30 17.6663889,16.7789429 17.6031389,15.4102286 L22.32,15.4102286 L22.32,17.4776 C22.3105278,17.4936286 22.2973889,17.5096571 22.2891389,17.5253714 L22.32,17.5253714 L22.32,17.4776 C22.9466944,16.4857143 24.0650278,15.0676571 26.5702778,15.0676571 C29.6738056,15.0676571 32,17.1523143 32,21.6334 Z M12.6687222,8.37682857 C11.0550833,8.37682857 10,9.46582857 10,10.8974 C10,12.2981714 11.0251389,13.4189143 12.6066944,13.4189143 L12.6378611,13.4189143 C14.2826667,13.4189143 15.3053611,12.2981714 15.3053611,10.8974 C15.2745,9.46582857 14.2826667,8.37682857 12.6687222,8.37682857 Z M10.2805,30 L14.9952222,30 L14.9952222,15.4102286 L10.2805,15.4102286 L10.2805,30 Z" id="linkedin-logo" fill="#0000FF"></path>
                </g>
            </g>
        </g>
    </g>
</svg>