<?xml version="1.0" encoding="UTF-8" standalone="no"?>
<svg width="156px" height="46px" viewBox="0 0 156 46" version="1.1" xmlns="http://www.w3.org/2000/svg" xmlns:xlink="http://www.w3.org/1999/xlink">
    <!-- Generator: Sketch 42 (36781) - http://www.bohemiancoding.com/sketch -->
    <title>logo</title>
    <desc>Created with Sketch.</desc>
    <defs></defs>
    <g id="Page-1" stroke="none" stroke-width="1" fill="none" fill-rule="evenodd" fill-opacity="0">
        <g id="Desktop-Copy-6" transform="translate(-32.000000, -19.000000)" fill="#040404">
            <g id="logo" transform="translate(32.000000, 19.000000)">
                <polygon id="Rectangle-7" points="1.77635684e-15 22 8.18181818 22 25.4545455 44.95 16.8181818 44.95"></polygon>
                <path d="M4.56587318,6.94466107 L0.433575492,0.468250709 C1.88173916,0.411291692 9.06288825,0.136128655 12.6420455,0.136128655 C26.3778445,0.136128655 30,4.82224446 30,14.0983064 C30,22.5812293 25.991507,26.1678472 17.7822876,26.7191687 L13.722549,21.2389536 C14.1039397,21.2777565 14.484372,21.2978044 14.8609423,21.2978044 C19.679345,21.2978044 23.4044527,20.1596888 23.4044527,14.1591218 C23.4044527,8.15855486 20.2072203,6.9063034 13.3163265,6.9063034 C12.8417759,6.9063034 12.3912099,6.92241135 11.9635756,6.95366817 L11.9666048,6.94350014 L4.56587318,6.94466107 Z" id="Combined-Shape"></path>
                <rect id="Rectangle-5" x="31" y="38" width="6" height="7"></rect>
                <path d="M67.4065,44.288 C70.2865,44.288 72.5665,43.112 74.1985,41.288 L74.1985,35.144 L66.5665,35.144 L66.5665,38.12 L70.7905,38.12 L70.7905,40.04 C70.1425,40.64 68.8225,41.264 67.4065,41.264 C64.4785,41.264 62.3665,39.032 62.3665,36.008 C62.3665,32.984 64.4785,30.752 67.4065,30.752 C69.0865,30.752 70.4545,31.712 71.1985,32.84 L74.0065,31.304 C72.8065,29.408 70.7185,27.728 67.4065,27.728 C62.7025,27.728 58.8625,30.944 58.8625,36.008 C58.8625,41.048 62.7025,44.288 67.4065,44.288 Z M83.3395,44.288 C79.5235,44.288 77.2195,41.48 77.2195,38.192 C77.2195,34.904 79.5235,32.12 83.3395,32.12 C87.1795,32.12 89.4835,34.904 89.4835,38.192 C89.4835,41.48 87.1795,44.288 83.3395,44.288 Z M83.3395,41.576 C85.2595,41.576 86.3155,40.016 86.3155,38.192 C86.3155,36.392 85.2595,34.832 83.3395,34.832 C81.4435,34.832 80.3875,36.392 80.3875,38.192 C80.3875,40.016 81.4435,41.576 83.3395,41.576 Z M108.9415,44 L100.2535,44 L100.2535,27.992 L108.6775,27.992 C111.7255,27.992 113.2855,29.936 113.2855,32.072 C113.2855,34.064 112.0375,35.432 110.5255,35.744 C112.2535,36.008 113.5975,37.664 113.5975,39.656 C113.5975,42.08 112.0135,44 108.9415,44 Z M107.9335,34.352 C109.0855,34.352 109.8055,33.704 109.8055,32.672 C109.8055,31.688 109.0855,30.992 107.9335,30.992 L103.6615,30.992 L103.6615,34.352 L107.9335,34.352 Z M108.0775,41 C109.3495,41 110.1175,40.328 110.1175,39.176 C110.1175,38.168 109.3975,37.352 108.0775,37.352 L103.6615,37.352 L103.6615,41 L108.0775,41 Z M127.2505,44 L124.1785,44 L124.1785,42.776 C123.3865,43.736 122.0185,44.288 120.5065,44.288 C118.6585,44.288 116.4985,43.04 116.4985,40.448 C116.4985,37.712 118.6585,36.704 120.5065,36.704 C122.0665,36.704 123.4105,37.208 124.1785,38.12 L124.1785,36.656 C124.1785,35.48 123.1705,34.712 121.6345,34.712 C120.4105,34.712 119.2585,35.192 118.2985,36.08 L117.0985,33.944 C118.5145,32.672 120.3385,32.12 122.1625,32.12 C124.8265,32.12 127.2505,33.176 127.2505,36.512 L127.2505,44 Z M121.7305,42.224 C122.7145,42.224 123.6745,41.888 124.1785,41.216 L124.1785,39.776 C123.6745,39.104 122.7145,38.744 121.7305,38.744 C120.5305,38.744 119.5465,39.392 119.5465,40.496 C119.5465,41.6 120.5305,42.224 121.7305,42.224 Z M136.7755,44.288 C139.1515,44.288 140.5915,43.232 141.3595,42.176 L139.3675,40.304 C138.8155,41.096 137.9755,41.576 136.9195,41.576 C135.0715,41.576 133.7755,40.208 133.7755,38.192 C133.7755,36.176 135.0715,34.832 136.9195,34.832 C137.9755,34.832 138.8155,35.264 139.3675,36.08 L141.3595,34.208 C140.5915,33.152 139.1515,32.12 136.7755,32.12 C133.2235,32.12 130.6315,34.64 130.6315,38.192 C130.6315,41.768 133.2235,44.288 136.7755,44.288 Z M155.8045,44 L151.0765,37.664 L155.6605,32.408 L151.9165,32.408 L147.5245,37.568 L147.5245,27.992 L144.4765,27.992 L144.4765,44 L147.5245,44 L147.5245,41.024 L148.9165,39.536 L151.9885,44 L155.8045,44 Z" id="Go-Back"></path>
            </g>
        </g>
    </g>
</svg>