<?xml version="1.0" encoding="UTF-8" standalone="no"?>
<svg width="681px" height="403px" viewBox="0 0 681 403" version="1.1" xmlns="http://www.w3.org/2000/svg" xmlns:xlink="http://www.w3.org/1999/xlink">
    <!-- Generator: Sketch 42 (36781) - http://www.bohemiancoding.com/sketch -->
    <title>Group 41</title>
    <desc>Created with Sketch.</desc>
    <defs></defs>
    <g id="Page-1" stroke="none" stroke-width="1" fill="none" fill-rule="evenodd">
        <g id="Desktop-Copy-4" transform="translate(-506.000000, -390.000000)">
            <g id="Group-41" transform="translate(506.000000, 390.000000)">
                <g id="Group-37" transform="translate(26.000000, 39.000000)">
                    <polyline id="Fill-149" fill="#FFFFFF" points="19.5708623 31.5639393 26.5660546 19.4372218 568.897656 332.761842 561.899846 344.88856 19.5708623 31.5639393"></polyline>
                    <polyline id="Fill-1048" fill="#7237A5" points="35.4487969 40.7801398 35.4487969 57.3525345 70.3514553 37.185874 70.3514553 20.6082399 35.4487969 40.7801398"></polyline>
                    <polyline id="Fill-1049" fill="#B180FF" points="35.4487969 40.7801398 0.535666622 20.6082399 35.4487969 0.444199116 70.3514553 20.6082399 35.4487969 40.7801398"></polyline>
                    <polyline id="Fill-1050" fill="#8252CE" points="35.4487969 40.7801398 35.4487969 57.3525345 0.535666622 37.185874 0.535666622 20.6082399 35.4487969 40.7801398"></polyline>
                    <polyline id="Fill-1051" fill="#7237A5" points="462.181705 290.256767 462.181705 306.829162 497.089599 286.665121 497.089599 270.092726 462.181705 290.256767"></polyline>
                    <polyline id="Fill-1052" fill="#B180FF" points="462.181705 290.256767 427.27381 270.092726 462.181705 249.923446 497.089599 270.092726 462.181705 290.256767"></polyline>
                    <polyline id="Fill-1053" fill="#8252CE" points="462.181705 290.256767 462.181705 306.829162 427.27381 286.665121 427.27381 270.092726 462.181705 290.256767"></polyline>
                    <polyline id="Fill-1054" fill="#265291" points="153.928214 109.403749 153.928214 121.564523 179.5502 106.768304 179.5502 94.5996707 153.928214 109.403749"></polyline>
                    <polyline id="Fill-1055" fill="#3BA9E0" points="153.928214 109.403749 128.306228 94.5996707 153.928214 79.7982116 179.5502 94.5996707 153.928214 109.403749"></polyline>
                    <polyline id="Fill-1056" fill="#1B7DBB" points="153.928214 109.403749 153.928214 121.564523 128.306228 106.768304 128.306228 94.5996707 153.928214 109.403749"></polyline>
                    <polyline id="Fill-1057" fill="#265291" points="306.846516 198.065917 306.846516 210.226691 332.468502 195.430471 332.468502 183.261838 306.846516 198.065917"></polyline>
                    <polyline id="Fill-1058" fill="#45A9E0" points="306.846516 198.065917 281.22453 183.261838 306.846516 168.460379 332.468502 183.261838 306.846516 198.065917"></polyline>
                    <polyline id="Fill-1059" fill="#1B7DBB" points="306.846516 198.065917 306.846516 210.226691 281.22453 195.430471 281.22453 183.261838 306.846516 198.065917"></polyline>
                    <g id="Group-2" transform="translate(552.360281, 329.015544)">
                        <polyline id="Fill-1061" fill="#45A9E0" points="21.3338471 24.2335706 0.775126977 12.2740308 21.3338471 0.312374276 41.8925672 12.2740308 21.3338471 24.2335706"></polyline>
                        <polyline id="Fill-1062" fill="#1B7DBB" points="21.3338471 24.2335706 21.3338471 34.0594438 0.775126977 22.099904 0.775126977 12.2740308 21.3338471 24.2335706"></polyline>
                        <polyline id="Fill-1060" fill="#265291" points="21.3338471 24.2335706 21.3338471 34.0594438 41.8925672 22.099904 41.8925672 12.2740308 21.3338471 24.2335706"></polyline>
                    </g>
                </g>
                <path d="M485.988,272 L485.988,259.994 L483.414,259.994 L483.414,264.71 L477.744,264.71 L477.744,259.994 L475.188,259.994 L475.188,272 L477.744,272 L477.744,266.942 L483.414,266.942 L483.414,272 L485.988,272 Z M495.078,272.216 C497.706,272.216 499.236,270.758 500.082,269.264 L497.886,268.202 C497.382,269.174 496.302,269.948 495.078,269.948 C492.882,269.948 491.298,268.274 491.298,266.006 C491.298,263.738 492.882,262.064 495.078,262.064 C496.302,262.064 497.382,262.838 497.886,263.81 L500.082,262.73 C499.236,261.218 497.706,259.796 495.078,259.796 C491.46,259.796 488.67,262.298 488.67,266.006 C488.67,269.696 491.46,272.216 495.078,272.216 Z M505.068,272 L505.068,259.994 L502.512,259.994 L502.512,272 L505.068,272 Z M519.702,272.216 C522.33,272.216 523.86,270.758 524.706,269.264 L522.51,268.202 C522.006,269.174 520.926,269.948 519.702,269.948 C517.506,269.948 515.922,268.274 515.922,266.006 C515.922,263.738 517.506,262.064 519.702,262.064 C520.926,262.064 522.006,262.838 522.51,263.81 L524.706,262.73 C523.86,261.218 522.33,259.796 519.702,259.796 C516.084,259.796 513.294,262.298 513.294,266.006 C513.294,269.696 516.084,272.216 519.702,272.216 Z M532.842,272.216 C529.206,272.216 526.56,269.624 526.56,266.006 C526.56,262.388 529.206,259.796 532.842,259.796 C536.46,259.796 539.106,262.388 539.106,266.006 C539.106,269.624 536.46,272.216 532.842,272.216 Z M532.842,269.948 C535.056,269.948 536.478,268.238 536.478,266.006 C536.478,263.756 535.056,262.064 532.842,262.064 C530.61,262.064 529.188,263.756 529.188,266.006 C529.188,268.238 530.61,269.948 532.842,269.948 Z M547.224,272.216 C550.878,272.216 552.642,270.164 552.642,267.194 L552.642,259.994 L550.032,259.994 L550.032,267.122 C550.032,268.796 549.078,269.948 547.224,269.948 C545.37,269.948 544.398,268.796 544.398,267.122 L544.398,259.994 L541.806,259.994 L541.806,267.194 C541.806,270.164 543.57,272.216 547.224,272.216 Z M565.656,272 L562.704,272 L560.346,267.734 L558.474,267.734 L558.474,272 L555.918,272 L555.918,259.994 L561.534,259.994 C564.036,259.994 565.584,261.632 565.584,263.864 C565.584,265.97 564.234,267.122 562.938,267.428 L565.656,272 Z M561.174,265.484 C562.182,265.484 562.956,264.872 562.956,263.846 C562.956,262.856 562.182,262.244 561.174,262.244 L558.474,262.244 L558.474,265.484 L561.174,265.484 Z M572.676,272.216 C575.898,272.216 577.482,270.56 577.482,268.364 C577.482,263.882 570.588,265.16 570.588,263.27 C570.588,262.55 571.2,262.082 572.28,262.082 C573.504,262.082 574.8,262.496 575.772,263.396 L577.194,261.488 C576.006,260.39 574.422,259.814 572.514,259.814 C569.688,259.814 567.96,261.47 567.96,263.468 C567.96,267.986 574.872,266.528 574.872,268.616 C574.872,269.318 574.206,269.948 572.784,269.948 C571.128,269.948 569.814,269.192 568.968,268.31 L567.564,270.308 C568.698,271.442 570.354,272.216 572.676,272.216 Z M588.588,272 L588.588,269.75 L582.648,269.75 L582.648,267.014 L588.462,267.014 L588.462,264.764 L582.648,264.764 L582.648,262.244 L588.588,262.244 L588.588,259.994 L580.092,259.994 L580.092,272 L588.588,272 Z M595.77,272.216 C598.992,272.216 600.576,270.56 600.576,268.364 C600.576,263.882 593.682,265.16 593.682,263.27 C593.682,262.55 594.294,262.082 595.374,262.082 C596.598,262.082 597.894,262.496 598.866,263.396 L600.288,261.488 C599.1,260.39 597.516,259.814 595.608,259.814 C592.782,259.814 591.054,261.47 591.054,263.468 C591.054,267.986 597.966,266.528 597.966,268.616 C597.966,269.318 597.3,269.948 595.878,269.948 C594.222,269.948 592.908,269.192 592.062,268.31 L590.658,270.308 C591.792,271.442 593.448,272.216 595.77,272.216 Z" id="HCI-COURSES" fill="#FFFFFF"></path>
                <path d="M21.73,18 L21.73,15.75 L16.654,15.75 L16.654,5.994 L14.08,5.994 L14.08,18 L21.73,18 Z M32.79775,18 L32.79775,15.75 L26.85775,15.75 L26.85775,13.014 L32.67175,13.014 L32.67175,10.764 L26.85775,10.764 L26.85775,8.244 L32.79775,8.244 L32.79775,5.994 L24.30175,5.994 L24.30175,18 L32.79775,18 Z M46.8355,18 L43.9375,18 L43.1815,15.966 L38.0335,15.966 L37.2775,18 L34.3795,18 L39.0055,5.994 L42.2095,5.994 L46.8355,18 Z M42.4795,13.716 L40.6075,8.55 L38.7355,13.716 L42.4795,13.716 Z M58.53325,18 L55.58125,18 L53.22325,13.734 L51.35125,13.734 L51.35125,18 L48.79525,18 L48.79525,5.994 L54.41125,5.994 C56.91325,5.994 58.46125,7.632 58.46125,9.864 C58.46125,11.97 57.11125,13.122 55.81525,13.428 L58.53325,18 Z M54.05125,11.484 C55.05925,11.484 55.83325,10.872 55.83325,9.846 C55.83325,8.856 55.05925,8.244 54.05125,8.244 L51.35125,8.244 L51.35125,11.484 L54.05125,11.484 Z M71.959,18 L71.959,5.994 L69.403,5.994 L69.403,13.536 L63.841,5.994 L61.213,5.994 L61.213,18 L63.769,18 L63.769,10.17 L69.493,18 L71.959,18 Z M80.52475,18 L80.52475,8.244 L84.01675,8.244 L84.01675,5.994 L74.44075,5.994 L74.44075,8.244 L77.95075,8.244 L77.95075,18 L80.52475,18 Z M97.80025,18.216 C100.42825,18.216 101.95825,16.758 102.80425,15.264 L100.60825,14.202 C100.10425,15.174 99.02425,15.948 97.80025,15.948 C95.60425,15.948 94.02025,14.274 94.02025,12.006 C94.02025,9.738 95.60425,8.064 97.80025,8.064 C99.02425,8.064 100.10425,8.838 100.60825,9.81 L102.80425,8.73 C101.95825,7.218 100.42825,5.796 97.80025,5.796 C94.18225,5.796 91.39225,8.298 91.39225,12.006 C91.39225,15.696 94.18225,18.216 97.80025,18.216 Z M110.884,18.216 C107.248,18.216 104.602,15.624 104.602,12.006 C104.602,8.388 107.248,5.796 110.884,5.796 C114.502,5.796 117.148,8.388 117.148,12.006 C117.148,15.624 114.502,18.216 110.884,18.216 Z M110.884,15.948 C113.098,15.948 114.52,14.238 114.52,12.006 C114.52,9.756 113.098,8.064 110.884,8.064 C108.652,8.064 107.23,9.756 107.23,12.006 C107.23,14.238 108.652,15.948 110.884,15.948 Z M124.54375,18 L119.79175,18 L119.79175,5.994 L124.52575,5.994 C128.28775,5.994 130.89775,8.388 130.89775,11.988 C130.89775,15.624 128.28775,18 124.54375,18 Z M124.52575,15.75 C126.90175,15.75 128.28775,14.04 128.28775,11.988 C128.28775,9.882 126.99175,8.244 124.54375,8.244 L122.34775,8.244 L122.34775,15.75 L124.52575,15.75 Z M136.1155,18 L136.1155,5.994 L133.5595,5.994 L133.5595,18 L136.1155,18 Z M150.08125,18 L150.08125,5.994 L147.52525,5.994 L147.52525,13.536 L141.96325,5.994 L139.33525,5.994 L139.33525,18 L141.89125,18 L141.89125,10.17 L147.61525,18 L150.08125,18 Z M159.133,18.216 C161.293,18.216 163.003,17.334 164.227,15.966 L164.227,11.358 L158.503,11.358 L158.503,13.59 L161.671,13.59 L161.671,15.03 C161.185,15.48 160.195,15.948 159.133,15.948 C156.937,15.948 155.353,14.274 155.353,12.006 C155.353,9.738 156.937,8.064 159.133,8.064 C160.393,8.064 161.419,8.784 161.977,9.63 L164.083,8.478 C163.183,7.056 161.617,5.796 159.133,5.796 C155.605,5.796 152.725,8.208 152.725,12.006 C152.725,15.786 155.605,18.216 159.133,18.216 Z" id="LEARNT-CODING" fill="#FFFFFF"></path>
                <path d="M590.106039,349.251295 L590.106039,337.245295 L587.550039,337.245295 L587.550039,349.251295 L590.106039,349.251295 Z M604.128039,349.251295 L604.128039,337.245295 L601.572039,337.245295 L601.572039,344.787295 L596.010039,337.245295 L593.382039,337.245295 L593.382039,349.251295 L595.938039,349.251295 L595.938039,341.421295 L601.662039,349.251295 L604.128039,349.251295 Z M612.15604,349.251295 L607.40404,349.251295 L607.40404,337.245295 L612.13804,337.245295 C615.90004,337.245295 618.51004,339.639295 618.51004,343.239295 C618.51004,346.875295 615.90004,349.251295 612.15604,349.251295 Z M612.13804,347.001295 C614.51404,347.001295 615.90004,345.291295 615.90004,343.239295 C615.90004,341.133295 614.60404,339.495295 612.15604,339.495295 L609.96004,339.495295 L609.96004,347.001295 L612.13804,347.001295 Z M626.64604,349.467295 C630.30004,349.467295 632.06404,347.415295 632.06404,344.445295 L632.06404,337.245295 L629.45404,337.245295 L629.45404,344.373295 C629.45404,346.047295 628.50004,347.199295 626.64604,347.199295 C624.79204,347.199295 623.82004,346.047295 623.82004,344.373295 L623.82004,337.245295 L621.22804,337.245295 L621.22804,344.445295 C621.22804,347.415295 622.99204,349.467295 626.64604,349.467295 Z M639.624041,349.467295 C642.846041,349.467295 644.430041,347.811295 644.430041,345.615295 C644.430041,341.133295 637.536041,342.411295 637.536041,340.521295 C637.536041,339.801295 638.148041,339.333295 639.228041,339.333295 C640.452041,339.333295 641.748041,339.747295 642.720041,340.647295 L644.142041,338.739295 C642.954041,337.641295 641.370041,337.065295 639.462041,337.065295 C636.636041,337.065295 634.908041,338.721295 634.908041,340.719295 C634.908041,345.237295 641.820041,343.779295 641.820041,345.867295 C641.820041,346.569295 641.154041,347.199295 639.732041,347.199295 C638.076041,347.199295 636.762041,346.443295 635.916041,345.561295 L634.512041,347.559295 C635.646041,348.693295 637.302041,349.467295 639.624041,349.467295 Z M652.152041,349.251295 L652.152041,339.495295 L655.644041,339.495295 L655.644041,337.245295 L646.068041,337.245295 L646.068041,339.495295 L649.578041,339.495295 L649.578041,349.251295 L652.152041,349.251295 Z M667.920042,349.251295 L664.968042,349.251295 L662.610042,344.985295 L660.738042,344.985295 L660.738042,349.251295 L658.182042,349.251295 L658.182042,337.245295 L663.798042,337.245295 C666.300042,337.245295 667.848042,338.883295 667.848042,341.115295 C667.848042,343.221295 666.498042,344.373295 665.202042,344.679295 L667.920042,349.251295 Z M663.438042,342.735295 C664.446042,342.735295 665.220042,342.123295 665.220042,341.097295 C665.220042,340.107295 664.446042,339.495295 663.438042,339.495295 L660.738042,339.495295 L660.738042,342.735295 L663.438042,342.735295 Z M676.236042,349.251295 L676.236042,344.337295 L680.826042,337.245295 L677.928042,337.245295 L674.958042,342.051295 L671.988042,337.245295 L669.072042,337.245295 L673.680042,344.337295 L673.680042,349.251295 L676.236042,349.251295 Z" id="INDUSTRY" fill="#FFFFFF"></path>
                <path d="M183.313174,102.761658 L183.313174,100.511658 L177.373174,100.511658 L177.373174,97.7756578 L183.187174,97.7756578 L183.187174,95.5256577 L177.373174,95.5256577 L177.373174,93.0056576 L183.313174,93.0056576 L183.313174,90.7556576 L174.817174,90.7556576 L174.817174,102.761658 L183.313174,102.761658 Z M196.957175,102.761658 L196.957175,90.7556576 L194.401175,90.7556576 L194.401175,98.2976579 L188.839175,90.7556576 L186.211174,90.7556576 L186.211174,102.761658 L188.767175,102.761658 L188.767175,94.9316577 L194.491175,102.761658 L196.957175,102.761658 Z M206.065175,102.977658 C208.225175,102.977658 209.935175,102.095658 211.159175,100.727658 L211.159175,96.1196578 L205.435175,96.1196578 L205.435175,98.3516579 L208.603175,98.3516579 L208.603175,99.7916579 C208.117175,100.241658 207.127175,100.709658 206.065175,100.709658 C203.869175,100.709658 202.285175,99.0356579 202.285175,96.7676578 C202.285175,94.4996577 203.869175,92.8256576 206.065175,92.8256576 C207.325175,92.8256576 208.351175,93.5456577 208.909175,94.3916577 L211.015175,93.2396577 C210.115175,91.8176576 208.549175,90.5576575 206.065175,90.5576575 C202.537175,90.5576575 199.657175,92.9696576 199.657175,96.7676578 C199.657175,100.547658 202.537175,102.977658 206.065175,102.977658 Z M216.649176,102.761658 L216.649176,90.7556576 L214.093176,90.7556576 L214.093176,102.761658 L216.649176,102.761658 Z M230.671176,102.761658 L230.671176,90.7556576 L228.115176,90.7556576 L228.115176,98.2976579 L222.553176,90.7556576 L219.925176,90.7556576 L219.925176,102.761658 L222.481176,102.761658 L222.481176,94.9316577 L228.205176,102.761658 L230.671176,102.761658 Z M242.443177,102.761658 L242.443177,100.511658 L236.503176,100.511658 L236.503176,97.7756578 L242.317177,97.7756578 L242.317177,95.5256577 L236.503176,95.5256577 L236.503176,93.0056576 L242.443177,93.0056576 L242.443177,90.7556576 L233.947176,90.7556576 L233.947176,102.761658 L242.443177,102.761658 Z M253.837177,102.761658 L253.837177,100.511658 L247.897177,100.511658 L247.897177,97.7756578 L253.711177,97.7756578 L253.711177,95.5256577 L247.897177,95.5256577 L247.897177,93.0056576 L253.837177,93.0056576 L253.837177,90.7556576 L245.341177,90.7556576 L245.341177,102.761658 L253.837177,102.761658 Z M266.473178,102.761658 L263.521178,102.761658 L261.163177,98.4956579 L259.291177,98.4956579 L259.291177,102.761658 L256.735177,102.761658 L256.735177,90.7556576 L262.351178,90.7556576 C264.853178,90.7556576 266.401178,92.3936576 266.401178,94.6256577 C266.401178,96.7316578 265.051178,97.8836578 263.755178,98.1896578 L266.473178,102.761658 Z M261.991178,96.2456578 C262.999178,96.2456578 263.773178,95.6336577 263.773178,94.6076577 C263.773178,93.6176577 262.999178,93.0056576 261.991178,93.0056576 L259.291177,93.0056576 L259.291177,96.2456578 L261.991178,96.2456578 Z M271.765178,102.761658 L271.765178,90.7556576 L269.209178,90.7556576 L269.209178,102.761658 L271.765178,102.761658 Z M285.787178,102.761658 L285.787178,90.7556576 L283.231178,90.7556576 L283.231178,98.2976579 L277.669178,90.7556576 L275.041178,90.7556576 L275.041178,102.761658 L277.597178,102.761658 L277.597178,94.9316577 L283.321178,102.761658 L285.787178,102.761658 Z M294.895179,102.977658 C297.055179,102.977658 298.765179,102.095658 299.989179,100.727658 L299.989179,96.1196578 L294.265179,96.1196578 L294.265179,98.3516579 L297.433179,98.3516579 L297.433179,99.7916579 C296.947179,100.241658 295.957179,100.709658 294.895179,100.709658 C292.699179,100.709658 291.115179,99.0356579 291.115179,96.7676578 C291.115179,94.4996577 292.699179,92.8256576 294.895179,92.8256576 C296.155179,92.8256576 297.181179,93.5456577 297.739179,94.3916577 L299.845179,93.2396577 C298.945179,91.8176576 297.379179,90.5576575 294.895179,90.5576575 C291.367179,90.5576575 288.487179,92.9696576 288.487179,96.7676578 C288.487179,100.547658 291.367179,102.977658 294.895179,102.977658 Z" id="ENGINEERING" fill="#FFFFFF"></path>
                <path d="M326.078759,190.253305 C329.73276,190.253305 331.49676,188.201305 331.49676,185.231305 L331.49676,178.031305 L328.88676,178.031305 L328.88676,185.159305 C328.88676,186.833305 327.93276,187.985305 326.078759,187.985305 C324.224759,187.985305 323.252759,186.833305 323.252759,185.159305 L323.252759,178.031305 L320.660759,178.031305 L320.660759,185.231305 C320.660759,188.201305 322.424759,190.253305 326.078759,190.253305 Z M345.66276,190.037305 L341.30676,183.863305 L345.39276,178.031305 L342.31476,178.031305 L339.59676,182.135305 L336.84276,178.031305 L333.80076,178.031305 L337.88676,183.881305 L333.53076,190.037305 L336.57276,190.037305 L339.59676,185.645305 L342.60276,190.037305 L345.66276,190.037305 Z M357.974761,190.037305 L353.222761,190.037305 L353.222761,178.031305 L357.956761,178.031305 C361.718761,178.031305 364.328761,180.425305 364.328761,184.025305 C364.328761,187.661305 361.718761,190.037305 357.974761,190.037305 Z M357.956761,187.787305 C360.332761,187.787305 361.718761,186.077305 361.718761,184.025305 C361.718761,181.919305 360.422761,180.281305 357.974761,180.281305 L355.778761,180.281305 L355.778761,187.787305 L357.956761,187.787305 Z M375.542761,190.037305 L375.542761,187.787305 L369.602761,187.787305 L369.602761,185.051305 L375.416761,185.051305 L375.416761,182.801305 L369.602761,182.801305 L369.602761,180.281305 L375.542761,180.281305 L375.542761,178.031305 L367.046761,178.031305 L367.046761,190.037305 L375.542761,190.037305 Z M385.010762,190.037305 L389.636762,178.031305 L386.738762,178.031305 L383.408762,187.247305 L380.078762,178.031305 L377.180762,178.031305 L381.806762,190.037305 L385.010762,190.037305 Z M399.734762,190.037305 L399.734762,178.031305 L397.178762,178.031305 L397.178762,190.037305 L399.734762,190.037305 Z M413.756763,190.037305 L413.756763,178.031305 L411.200763,178.031305 L411.200763,185.573305 L405.638763,178.031305 L403.010763,178.031305 L403.010763,190.037305 L405.566763,190.037305 L405.566763,182.207305 L411.290763,190.037305 L413.756763,190.037305 Z M422.378763,190.037305 L422.378763,180.281305 L425.870763,180.281305 L425.870763,178.031305 L416.294763,178.031305 L416.294763,180.281305 L419.804763,180.281305 L419.804763,190.037305 L422.378763,190.037305 Z M436.904764,190.037305 L436.904764,187.787305 L430.964764,187.787305 L430.964764,185.051305 L436.778764,185.051305 L436.778764,182.801305 L430.964764,182.801305 L430.964764,180.281305 L436.904764,180.281305 L436.904764,178.031305 L428.408764,178.031305 L428.408764,190.037305 L436.904764,190.037305 Z M449.540764,190.037305 L446.588764,190.037305 L444.230764,185.771305 L442.358764,185.771305 L442.358764,190.037305 L439.802764,190.037305 L439.802764,178.031305 L445.418764,178.031305 C447.920764,178.031305 449.468764,179.669305 449.468764,181.901305 C449.468764,184.007305 448.118764,185.159305 446.822764,185.465305 L449.540764,190.037305 Z M445.058764,183.521305 C446.066764,183.521305 446.840764,182.909305 446.840764,181.883305 C446.840764,180.893305 446.066764,180.281305 445.058764,180.281305 L442.358764,180.281305 L442.358764,183.521305 L445.058764,183.521305 Z M463.022765,190.037305 L463.022765,178.031305 L460.466765,178.031305 L460.466765,185.573305 L454.904765,178.031305 L452.276765,178.031305 L452.276765,190.037305 L454.832765,190.037305 L454.832765,182.207305 L460.556765,190.037305 L463.022765,190.037305 Z M470.582765,190.253305 C473.804765,190.253305 475.388765,188.597305 475.388765,186.401305 C475.388765,181.919305 468.494765,183.197305 468.494765,181.307305 C468.494765,180.587305 469.106765,180.119305 470.186765,180.119305 C471.410765,180.119305 472.706765,180.533305 473.678765,181.433305 L475.100765,179.525305 C473.912765,178.427305 472.328765,177.851305 470.420765,177.851305 C467.594765,177.851305 465.866765,179.507305 465.866765,181.505305 C465.866765,186.023305 472.778765,184.565305 472.778765,186.653305 C472.778765,187.355305 472.112765,187.985305 470.690765,187.985305 C469.034765,187.985305 467.720765,187.229305 466.874765,186.347305 L465.470765,188.345305 C466.604765,189.479305 468.260765,190.253305 470.582765,190.253305 Z M488.798766,190.037305 L488.798766,178.031305 L486.224766,178.031305 L486.224766,182.747305 L480.554766,182.747305 L480.554766,178.031305 L477.998766,178.031305 L477.998766,190.037305 L480.554766,190.037305 L480.554766,184.979305 L486.224766,184.979305 L486.224766,190.037305 L488.798766,190.037305 Z M494.612766,190.037305 L494.612766,178.031305 L492.056766,178.031305 L492.056766,190.037305 L494.612766,190.037305 Z M500.444766,190.037305 L497.888766,190.037305 L497.888766,178.031305 L503.504767,178.031305 C506.114767,178.031305 507.536767,179.795305 507.536767,181.901305 C507.536767,183.989305 506.096767,185.753305 503.504767,185.753305 L500.444766,185.753305 L500.444766,190.037305 Z M503.144767,183.503305 C504.152767,183.503305 504.926767,182.891305 504.926767,181.901305 C504.926767,180.893305 504.152767,180.281305 503.144767,180.281305 L500.444766,180.281305 L500.444766,183.503305 L503.144767,183.503305 Z M514.322767,190.253305 C517.544767,190.253305 519.128767,188.597305 519.128767,186.401305 C519.128767,181.919305 512.234767,183.197305 512.234767,181.307305 C512.234767,180.587305 512.846767,180.119305 513.926767,180.119305 C515.150767,180.119305 516.446767,180.533305 517.418767,181.433305 L518.840767,179.525305 C517.652767,178.427305 516.068767,177.851305 514.160767,177.851305 C511.334767,177.851305 509.606767,179.507305 509.606767,181.505305 C509.606767,186.023305 516.518767,184.565305 516.518767,186.653305 C516.518767,187.355305 515.852767,187.985305 514.430767,187.985305 C512.774767,187.985305 511.460767,187.229305 510.614767,186.347305 L509.210767,188.345305 C510.344767,189.479305 512.000767,190.253305 514.322767,190.253305 Z" id="UX-DEV-INTERNSHIPS" fill="#FFFFFF"></path>
                <path d="M1.53825,4.64963675 C1.81825,6.59948442 2.09825,7.05319897 2.09825,9.00117178 C2.09825,10.201078 0,11.2491212 0,11.2491212 L0,12.7508788 C0,12.7508788 2.09825,13.7970471 2.09825,14.9988282 C2.09825,16.946801 1.81825,17.4005156 1.53825,19.3484884 C1.12175,22.4982423 2.66,24 4.06,24 L7,24 L7,20.9964846 C7,20.9964846 4.47825,21.2964612 4.47825,19.494727 C4.47825,18.1485821 4.75825,18.1485821 5.03825,15.1450668 C5.18175,13.7970471 4.34,12.7508788 3.5,11.9953129 C4.34,11.2491212 5.18175,10.3491915 5.03825,9.00117178 C4.62175,5.99765643 4.47825,5.99765643 4.47825,4.64963675 C4.47825,2.84977736 7,3.00351535 7,3.00351535 L7,0 L4.06,0 C2.52175,0 1.12175,1.50175768 1.53825,4.64963675 Z" id="Fill-1" fill="#FFFFFF"></path>
                <path d="M172.53825,5.64963675 C172.81825,7.59948442 173.09825,8.05319897 173.09825,10.0011718 C173.09825,11.201078 171,12.2491212 171,12.2491212 L171,13.7508788 C171,13.7508788 173.09825,14.7970471 173.09825,15.9988282 C173.09825,17.946801 172.81825,18.4005156 172.53825,20.3484884 C172.12175,23.4982423 173.66,25 175.06,25 L178,25 L178,21.9964846 C178,21.9964846 175.47825,22.2964612 175.47825,20.494727 C175.47825,19.1485821 175.75825,19.1485821 176.03825,16.1450668 C176.18175,14.7970471 175.34,13.7508788 174.5,12.9953129 C175.34,12.2491212 176.18175,11.3491915 176.03825,10.0011718 C175.62175,6.99765643 175.47825,6.99765643 175.47825,5.64963675 C175.47825,3.84977736 178,4.00351535 178,4.00351535 L178,1 L175.06,1 C173.52175,1 172.12175,2.50175768 172.53825,5.64963675 Z" id="Fill-1" fill="#FFFFFF" transform="translate(174.500000, 13.000000) scale(-1, 1) translate(-174.500000, -13.000000) "></path>
            </g>
        </g>
    </g>
</svg>