<?xml version="1.0" encoding="UTF-8" standalone="no"?>
<svg width="44px" height="45px" viewBox="0 0 44 45" version="1.1" xmlns="http://www.w3.org/2000/svg" xmlns:xlink="http://www.w3.org/1999/xlink">
    <!-- Generator: Sketch 43.1 (39012) - http://www.bohemiancoding.com/sketch -->
    <title>Group 2</title>
    <desc>Created with Sketch.</desc>
    <defs></defs>
    <g id="Page-1" stroke="none" stroke-width="1" fill="none" fill-rule="evenodd">
        <g id="Group-2" fill="#737373">
            <path d="M1.56852747,23.7785408 C2.31507692,24.747103 4.42901099,27.3572961 7.42101099,29.9356223 C10.8423736,32.8847639 16.1484835,36.3997854 22.0019341,36.3997854 C27.8544176,36.3997854 33.1614945,32.8847639 36.5828571,29.9356223 C39.5738901,27.3572961 41.6878242,24.7480687 42.4343736,23.7785408 C41.6887912,22.8099785 39.5738901,20.2007511 36.5828571,17.6224249 C33.1614945,14.6732833 27.8544176,11.1582618 22.0019341,11.1582618 C16.1397802,11.1582618 10.824,14.6839056 7.3978022,17.6417382 C4.41353846,20.218133 2.31217582,22.8128755 1.56852747,23.7785408 Z M22.0019341,37.7517167 C19.2168791,37.7517167 16.3302857,37.0293991 13.4204835,35.6050429 C11.116044,34.4771459 8.79226374,32.9069742 6.51296703,30.9389485 C2.64483516,27.6006438 0.271736264,24.3106223 0.172131868,24.1725322 C0.00386813187,23.9369099 0.00386813187,23.6211373 0.172131868,23.385515 C0.271736264,23.2474249 2.64483516,19.9574034 6.51296703,16.6190987 C8.79226374,14.651073 11.116044,13.0809013 13.4204835,11.9530043 C16.3302857,10.5286481 19.2168791,9.80633047 22.0019341,9.80633047 C24.786989,9.80633047 27.6735824,10.5286481 30.5824176,11.9530043 C32.8868571,13.0809013 35.2116044,14.651073 37.4909011,16.6190987 C41.3580659,19.9574034 43.7321319,23.2474249 43.8317363,23.385515 C44,23.6211373 44,23.9369099 43.8317363,24.1725322 C43.7321319,24.3106223 41.3580659,27.6006438 37.4909011,30.9389485 C35.2116044,32.9069742 32.8868571,34.4771459 30.5824176,35.6050429 C27.6735824,37.0293991 24.786989,37.7517167 22.0019341,37.7517167 L22.0019341,37.7517167 Z" id="Fill-13"></path>
            <path d="M22.0019341,15.951824 C17.6792967,15.951824 14.1631648,19.4629828 14.1631648,23.7785408 C14.1631648,28.0950644 17.6792967,31.6062232 22.0019341,31.6062232 C26.3236044,31.6062232 29.8397363,28.0950644 29.8397363,23.7785408 C29.8397363,19.4629828 26.3236044,15.951824 22.0019341,15.951824 Z M22.0019341,32.9581545 C16.9327473,32.9581545 12.8093187,28.8405579 12.8093187,23.7785408 C12.8093187,18.7174893 16.9327473,14.5998927 22.0019341,14.5998927 C27.0701538,14.5998927 31.1935824,18.7174893 31.1935824,23.7785408 C31.1935824,28.8405579 27.0701538,32.9581545 22.0019341,32.9581545 L22.0019341,32.9581545 Z" id="Fill-14"></path>
            <path d="M22.0019341,21.4483906 C20.7148132,21.4483906 19.6675165,22.494206 19.6675165,23.7785408 C19.6675165,25.0638412 20.7148132,26.1096567 22.0019341,26.1096567 C23.2890549,26.1096567 24.3353846,25.0638412 24.3353846,23.7785408 C24.3353846,22.494206 23.2890549,21.4483906 22.0019341,21.4483906 Z M22.0019341,27.461588 C19.9682637,27.461588 18.3136703,25.8093348 18.3136703,23.7785408 C18.3136703,21.7487124 19.9682637,20.0964592 22.0019341,20.0964592 C24.0356044,20.0964592 25.6892308,21.7487124 25.6892308,23.7785408 C25.6892308,25.8093348 24.0356044,27.461588 22.0019341,27.461588 L22.0019341,27.461588 Z" id="Fill-15"></path>
            <path d="M22.0019341,5.02918455 C21.6276923,5.02918455 21.325011,4.72693133 21.325011,4.35321888 L21.325011,0.744527897 C21.325011,0.370815451 21.6276923,0.0685622318 22.0019341,0.0685622318 C22.3761758,0.0685622318 22.6788571,0.370815451 22.6788571,0.744527897 L22.6788571,4.35321888 C22.6788571,4.72693133 22.3761758,5.02918455 22.0019341,5.02918455" id="Fill-16"></path>
            <path d="M3.70276923,13.7008584 C3.52967033,13.7008584 3.35657143,13.6342275 3.22408791,13.502897 L0.436131868,10.7179185 C0.171164835,10.4542918 0.171164835,10.0265021 0.436131868,9.76287554 C0.700131868,9.49828326 1.12852747,9.49828326 1.39349451,9.76190987 L4.18145055,12.5468884 C4.44545055,12.810515 4.44545055,13.2383047 4.18145055,13.5019313 C4.04896703,13.6342275 3.87586813,13.7008584 3.70276923,13.7008584" id="Fill-17"></path>
            <path d="M11.9128791,7.74656652 C11.6604835,7.74656652 11.4177582,7.6055794 11.3017143,7.36319742 L9.52430769,3.66469957 C9.36281319,3.32864807 9.50496703,2.925 9.84246154,2.76276824 C10.178989,2.60150215 10.5832088,2.74345494 10.7456703,3.0804721 L12.5221099,6.77800429 C12.6836044,7.11502146 12.5414505,7.51866953 12.2049231,7.67993562 C12.1101538,7.72532189 12.0105495,7.74656652 11.9128791,7.74656652" id="Fill-18"></path>
            <path d="M40.3001319,13.7008584 C40.127033,13.7008584 39.9539341,13.6342275 39.8214505,13.5019313 C39.5574505,13.2383047 39.5574505,12.810515 39.8224176,12.5468884 L42.6103736,9.76190987 C42.8743736,9.49828326 43.3027692,9.49828326 43.5677363,9.76287554 C43.8317363,10.0265021 43.8317363,10.4542918 43.5677363,10.7179185 L40.7788132,13.502897 C40.6472967,13.6342275 40.4741978,13.7008584 40.3001319,13.7008584" id="Fill-19"></path>
            <path d="M32.090989,7.74656652 C31.9923516,7.74656652 31.8927473,7.72532189 31.7989451,7.67993562 C31.4614505,7.51866953 31.3192967,7.11502146 31.4807912,6.77800429 L33.2581978,3.0804721 C33.4196923,2.74345494 33.8239121,2.60150215 34.1614066,2.76276824 C34.4979341,2.925 34.6400879,3.32864807 34.4785934,3.66469957 L32.7021538,7.36319742 C32.5851429,7.6055794 32.3433846,7.74656652 32.090989,7.74656652" id="Fill-20"></path>
            <path d="M43.0890549,38.045279 C42.915956,38.045279 42.7418901,37.9796137 42.6103736,37.8482833 L39.8214505,35.0633047 C39.5574505,34.7996781 39.5574505,34.3718884 39.8214505,34.1072961 C40.0864176,33.8436695 40.5148132,33.8436695 40.7788132,34.1072961 L43.5677363,36.891309 C43.8317363,37.1559013 43.8317363,37.583691 43.5677363,37.8482833 C43.4352527,37.9796137 43.2621538,38.045279 43.0890549,38.045279" id="Fill-22"></path>
            <path d="M33.8683956,44.9140558 C33.616,44.9140558 33.3742418,44.772103 33.2581978,44.529721 L31.4807912,40.8321888 C31.3192967,40.4951717 31.4614505,40.0915236 31.7989451,39.9302575 C32.1354725,39.7689914 32.5396923,39.9099785 32.7021538,40.2469957 L34.4785934,43.9445279 C34.6400879,44.2815451 34.4979341,44.6851931 34.1614066,44.8464592 C34.0666374,44.8918455 33.967033,44.9140558 33.8683956,44.9140558" id="Fill-23"></path>
            <path d="M0.914813187,38.045279 C0.741714286,38.045279 0.567648352,37.9796137 0.436131868,37.8482833 C0.171164835,37.583691 0.171164835,37.1559013 0.436131868,36.891309 L3.22408791,34.1072961 C3.48808791,33.8436695 3.91745055,33.8436695 4.18145055,34.1072961 C4.44545055,34.3718884 4.44545055,34.7996781 4.18145055,35.0633047 L1.39349451,37.8482833 C1.26101099,37.9796137 1.08791209,38.045279 0.914813187,38.045279" id="Fill-24"></path>
            <path d="M10.1345055,44.9140558 C10.0368352,44.9140558 9.93626374,44.8918455 9.84246154,44.8464592 C9.50496703,44.6851931 9.36281319,44.2815451 9.52430769,43.9445279 L11.3017143,40.2469957 C11.4632088,39.9099785 11.8674286,39.7689914 12.2049231,39.9302575 C12.5414505,40.0915236 12.6836044,40.4951717 12.5221099,40.8321888 L10.7456703,44.529721 C10.6286593,44.772103 10.3869011,44.9140558 10.1345055,44.9140558" id="Fill-25"></path>
        </g>
    </g>
</svg>