<?xml version="1.0" encoding="UTF-8" standalone="no"?>
<svg width="44px" height="43px" viewBox="0 0 44 43" version="1.1" xmlns="http://www.w3.org/2000/svg" xmlns:xlink="http://www.w3.org/1999/xlink">
    <!-- Generator: Sketch 43.1 (39012) - http://www.bohemiancoding.com/sketch -->
    <title>Group 88</title>
    <desc>Created with Sketch.</desc>
    <defs></defs>
    <g id="Page-1" stroke="none" stroke-width="1" fill="none" fill-rule="evenodd">
        <g id="Group-88" fill="#737373">
            <path d="M27.2901171,41.6492661 L42.6242603,41.6492661 L42.6242603,41.1953348 C41.1343688,41.0164701 39.9241302,40.5292639 39.020269,39.7432506 C38.0152364,38.8682816 36.954846,37.080969 35.7789675,34.2789135 L21.9795748,1.33481153 L21.8287722,1.33481153 L7.88334924,33.9283348 C6.61202603,36.9382395 5.4666898,38.8984102 4.3820564,39.9180155 C3.84393926,40.4340155 2.86801735,40.8267361 1.3362256,41.1380333 L1.3362256,41.6492661 L13.1709848,41.6492661 L13.1709848,41.1993392 C11.4109848,41.0301996 10.2828286,40.7106075 9.64907592,40.2050953 C8.90269848,39.611867 8.52378308,38.8940244 8.52378308,38.0718758 C8.52378308,37.2031996 8.87120174,35.9756497 9.58417354,34.3188625 L12.3081649,27.9913792 C12.413154,27.7464412 12.6546291,27.5875987 12.9218742,27.5875987 L27.0963644,27.5875987 C27.364564,27.5875987 27.6079479,27.7486341 27.7119826,27.996337 L30.139141,33.7622461 C30.9704642,35.7368137 31.3751497,37.1659202 31.3751497,38.1309889 C31.3751497,38.9783082 30.9971887,39.7304745 30.2832625,40.306255 C29.6867332,40.7869778 28.7046074,41.0839734 27.2901171,41.2086829 L27.2901171,41.6492661 Z M43.2923731,42.9840776 L26.6220043,42.9840776 C26.2535879,42.9840776 25.9538915,42.6852705 25.9538915,42.3166718 L25.9538915,40.5852306 C25.9538915,40.2293126 26.2335445,39.9361308 26.5895531,39.9185876 C28.3915488,39.8301086 29.1360174,39.5156652 29.4433492,39.2675809 C29.8499436,38.9402661 30.0389241,38.5791996 30.0389241,38.1309889 C30.0389241,37.5996386 29.842308,36.5001353 28.9069501,34.2797716 L26.6525466,28.9224102 L13.3618742,28.9224102 L10.8125466,34.8463038 C10.025128,36.6727073 9.86000868,37.6084102 9.86000868,38.0718758 C9.86000868,38.3274922 9.92395662,38.7184013 10.4813536,39.161082 C10.7476443,39.3729357 11.5426985,39.7525942 13.88682,39.9194457 C14.2361475,39.9444257 14.5072104,40.2350333 14.5072104,40.5852306 L14.5072104,42.3166718 C14.5072104,42.6852705 14.2084685,42.9840776 13.8390976,42.9840776 L0.668112798,42.9840776 C0.299123644,42.9840776 0,42.6852705 0,42.3166718 L0,40.5852306 C0,40.2613481 0.232789588,39.984184 0.552052061,39.9279313 C2.56708026,39.5726807 3.2397744,39.1629889 3.46149241,38.9504678 C4.39923644,38.0688248 5.47146204,36.2050466 6.65306725,33.4067095 L20.7741085,0.405115299 C20.8790976,0.159414634 21.1205727,0 21.3878178,0 L22.4243471,0 C22.6935011,0 22.936885,0.161512195 23.0409197,0.40978714 L37.0121128,33.7632949 C38.0906377,36.3360488 39.0622646,38.0094257 39.8974056,38.7367073 C40.6972321,39.4322395 41.8530672,39.8301086 43.3324599,39.918969 C43.6846508,39.9402306 43.9604859,40.2321729 43.9604859,40.5852306 L43.9604859,42.3166718 C43.9604859,42.6852705 43.6607896,42.9840776 43.2923731,42.9840776 L43.2923731,42.9840776 Z" id="Fill-165"></path>
            <path d="M15.2115922,24.3551619 L25.2065597,24.3551619 L20.2739783,12.6133969 L15.2115922,24.3551619 Z M26.2115922,25.6899734 L14.1960607,25.6899734 C13.9717657,25.6899734 13.7617874,25.5769911 13.6386638,25.3894501 C13.5145857,25.2019091 13.4935879,24.9647894 13.5823514,24.758561 L19.6679046,10.6436918 C19.7738482,10.3987539 20.0143688,10.2402927 20.2816139,10.2402927 L20.2844772,10.2402927 C20.5526768,10.2415322 20.7941518,10.4025676 20.8972321,10.6494124 L26.8281649,24.7642816 C26.9140651,24.9703193 26.8921128,25.2059135 26.7680347,25.3920244 C26.6449111,25.5781353 26.4358872,25.6899734 26.2115922,25.6899734 L26.2115922,25.6899734 Z" id="Fill-166"></path>
        </g>
    </g>
</svg>