<?xml version="1.0" encoding="UTF-8" standalone="no"?>
<svg width="44px" height="38px" viewBox="0 0 44 38" version="1.1" xmlns="http://www.w3.org/2000/svg" xmlns:xlink="http://www.w3.org/1999/xlink">
    <!-- Generator: Sketch 43.1 (39012) - http://www.bohemiancoding.com/sketch -->
    <title>Group 89</title>
    <desc>Created with Sketch.</desc>
    <defs></defs>
    <g id="Page-1" stroke="none" stroke-width="1" fill="none" fill-rule="evenodd">
        <g id="Group-89">
            <g id="Group-3" fill="#737373">
                <path d="M22.0016698,28.3054466 C21.3846679,28.3054466 20.8828843,27.8078867 20.8828843,27.1969063 C20.8828843,26.585098 21.3846679,26.0875381 22.0016698,26.0875381 C22.6186717,26.0875381 23.1204554,26.585098 23.1204554,27.1969063 C23.1204554,27.8078867 22.6186717,28.3054466 22.0016698,28.3054466" id="Fill-55"></path>
                <path d="M3.26368121,1.31551198 C2.18664137,1.31551198 1.31081594,2.18479303 1.31081594,3.25276688 L1.31081594,28.4958606 C1.31081594,29.5638344 2.18664137,30.4322876 3.26368121,30.4322876 L40.7396584,30.4322876 C41.8158634,30.4322876 42.6925237,29.5638344 42.6925237,28.4958606 L42.6925237,3.25276688 C42.6925237,2.18479303 41.8158634,1.31551198 40.7396584,1.31551198 L3.26368121,1.31551198 Z M3.26368121,31.6741176 C1.49616698,31.6741176 0.0584440228,30.2484967 0.0584440228,28.4958606 L0.0584440228,3.25276688 C0.0584440228,1.50013072 1.49616698,0.0736819172 3.26368121,0.0736819172 L40.7396584,0.0736819172 C42.5071727,0.0736819172 43.9448956,1.50013072 43.9448956,3.25276688 L43.9448956,28.4958606 C43.9448956,30.2484967 42.5071727,31.6741176 40.7396584,31.6741176 L3.26368121,31.6741176 Z" id="Fill-56"></path>
                <path d="M17.2276281,36.8078431 L26.7757116,36.8078431 L25.8247438,31.7138562 L18.1777609,31.7138562 L17.2276281,36.8078431 Z M27.4795446,37.9668845 L27.4778748,37.9668845 L16.5254649,37.9668845 C16.3518027,37.9668845 16.1873245,37.890719 16.0762808,37.7582571 C15.9652372,37.6257952 15.918482,37.4511111 15.9502087,37.2822222 L17.1174194,31.028366 C17.1683491,30.7535076 17.4096395,30.5548148 17.6918406,30.5548148 L26.3114991,30.5548148 C26.5928653,30.5548148 26.8349905,30.7535076 26.8859203,31.028366 L28.0439469,37.2375163 C28.0573055,37.2855338 28.0639848,37.3360349 28.0639848,37.3873638 C28.0639848,37.707756 27.8026565,37.9668845 27.4795446,37.9668845 L27.4795446,37.9668845 Z" id="Fill-57"></path>
                <path d="M29.3514231,37.9668845 L14.6519165,37.9668845 C14.3288046,37.9668845 14.0674763,37.707756 14.0674763,37.3873638 C14.0674763,37.0677996 14.3288046,36.8078431 14.6519165,36.8078431 L29.3514231,36.8078431 C29.6737002,36.8078431 29.9358634,37.0677996 29.9358634,37.3873638 C29.9358634,37.707756 29.6737002,37.9668845 29.3514231,37.9668845" id="Fill-58"></path>
                <path d="M43.3187097,24.1925054 L0.684629981,24.1925054 C0.361518027,24.1925054 0.100189753,23.9333769 0.100189753,23.6129847 C0.100189753,23.2925926 0.361518027,23.0334641 0.684629981,23.0334641 L43.3187097,23.0334641 C43.6409867,23.0334641 43.9031499,23.2925926 43.9031499,23.6129847 C43.9031499,23.9333769 43.6409867,24.1925054 43.3187097,24.1925054" id="Fill-59"></path>
            </g>
            <path d="M2.5,23.5 L11,14 L17,18 L27,7 L28,8 L33,3 L33,3 C34.7171894,4.88890836 39.1918425,9.81102675 43,14 L36.1092465,6.42017114" id="Line" stroke="#737373" stroke-linecap="square"></path>
            <circle id="Oval-7" fill="#737373" cx="5" cy="20.5" r="1.5"></circle>
            <circle id="Oval-7-Copy" fill="#737373" cx="11" cy="14.5" r="1.5"></circle>
            <circle id="Oval-7-Copy" fill="#737373" cx="23.5" cy="10.5" r="1.5"></circle>
            <circle id="Oval-7-Copy" fill="#737373" cx="35.5" cy="5.5" r="1.5"></circle>
        </g>
    </g>
</svg>