<?xml version="1.0" encoding="UTF-8" standalone="no"?>
<svg width="44px" height="34px" viewBox="0 0 44 34" version="1.1" xmlns="http://www.w3.org/2000/svg" xmlns:xlink="http://www.w3.org/1999/xlink">
    <!-- Generator: Sketch 43.1 (39012) - http://www.bohemiancoding.com/sketch -->
    <title>Group</title>
    <desc>Created with Sketch.</desc>
    <defs></defs>
    <g id="Page-1" stroke="none" stroke-width="1" fill="none" fill-rule="evenodd">
        <g id="Group" fill="#737373">
            <path d="M6.21325046,16.0294988 C5.66393419,16.0294988 5.21701645,15.5783294 5.21701645,15.024105 C5.21701645,14.4698807 5.66393419,14.0195227 6.21325046,14.0195227 C6.76264717,14.0195227 7.2095649,14.4698807 7.2095649,15.024105 C7.2095649,15.5783294 6.76264717,16.0294988 6.21325046,16.0294988" id="Fill-26"></path>
            <path d="M40.608702,30.0360382 L37.7716271,30.0360382 C37.4603291,30.0360382 37.2085558,29.7820525 37.2085558,29.4680191 C37.2085558,29.1547971 37.4603291,28.9 37.7716271,28.9 L40.608702,28.9 C41.8506764,28.9 42.8609872,27.8808115 42.8609872,26.6279236 L42.8609872,3.4202864 C42.8609872,2.16821002 41.8506764,1.14821002 40.608702,1.14821002 L3.44575503,1.14821002 C2.20386106,1.14821002 1.19346984,2.16821002 1.19346984,3.4202864 L1.19346984,26.6279236 C1.19346984,27.8808115 2.20386106,28.9 3.44575503,28.9 L33.9330896,28.9 C34.2435832,28.9 34.4961609,29.1547971 34.4961609,29.4680191 C34.4961609,29.7820525 34.2435832,30.0360382 33.9330896,30.0360382 L3.44575503,30.0360382 C1.5829543,30.0360382 0.0673272395,28.5072554 0.0673272395,26.6279236 L0.0673272395,3.4202864 C0.0673272395,1.54176611 1.5829543,0.0121718377 3.44575503,0.0121718377 L40.608702,0.0121718377 C42.4716636,0.0121718377 43.9871298,1.54176611 43.9871298,3.4202864 L43.9871298,26.6279236 C43.9871298,28.5072554 42.4716636,30.0360382 40.608702,30.0360382" id="Fill-27"></path>
            <path d="M39.4825594,25.9787589 L33.7488848,25.9787589 C33.4375868,25.9787589 33.1858135,25.7247733 33.1858135,25.4107399 C33.1858135,25.0975179 33.4375868,24.8427208 33.7488848,24.8427208 L38.9194881,24.8427208 L38.9194881,5.20548926 L12.1711883,5.20548926 L12.1711883,24.8427208 L29.9119561,24.8427208 C30.2224497,24.8427208 30.4750274,25.0975179 30.4750274,25.4107399 C30.4750274,25.7247733 30.2224497,25.9787589 29.9119561,25.9787589 L11.608117,25.9787589 C11.296819,25.9787589 11.0450457,25.7247733 11.0450457,25.4107399 L11.0450457,4.63747017 C11.0450457,4.32424821 11.296819,4.06945107 11.608117,4.06945107 L39.4825594,4.06945107 C39.793053,4.06945107 40.0456307,4.32424821 40.0456307,4.63747017 L40.0456307,25.4107399 C40.0456307,25.7247733 39.793053,25.9787589 39.4825594,25.9787589" id="Fill-28"></path>
            <path d="M6.21325046,12.8721241 C5.03707495,12.8721241 4.0801755,13.8377566 4.0801755,15.024105 C4.0801755,16.2104535 5.03707495,17.1760859 6.21325046,17.1760859 C7.3895064,17.1760859 8.34632541,16.2104535 8.34632541,15.024105 C8.34632541,13.8377566 7.3895064,12.8721241 6.21325046,12.8721241 Z M6.21325046,18.3121241 C4.41608775,18.3121241 2.95403291,16.8368974 2.95403291,15.024105 C2.95403291,13.2113126 4.41608775,11.7360859 6.21325046,11.7360859 C8.01009141,11.7360859 9.47246801,13.2113126 9.47246801,15.024105 C9.47246801,16.8368974 8.01009141,18.3121241 6.21325046,18.3121241 L6.21325046,18.3121241 Z" id="Fill-29"></path>
            <path d="M7.36030713,5.20548926 L5.06619378,5.20548926 C4.75521755,5.20548926 4.50312249,4.95150358 4.50312249,4.63747017 C4.50312249,4.32424821 4.75521755,4.06945107 5.06619378,4.06945107 L7.36030713,4.06945107 C7.6713638,4.06945107 7.92321755,4.32424821 7.92321755,4.63747017 C7.92321755,4.95150358 7.6713638,5.20548926 7.36030713,5.20548926" id="Fill-30"></path>
            <path d="M7.36030713,7.77293556 L5.06619378,7.77293556 C4.75521755,7.77293556 4.50312249,7.51813842 4.50312249,7.20491647 C4.50312249,6.89088305 4.75521755,6.63689737 5.06619378,6.63689737 L7.36030713,6.63689737 C7.6713638,6.63689737 7.92321755,6.89088305 7.92321755,7.20491647 C7.92321755,7.51813842 7.6713638,7.77293556 7.36030713,7.77293556" id="Fill-31"></path>
            <path d="M7.36030713,10.3403819 L5.06619378,10.3403819 C4.75521755,10.3403819 4.50312249,10.0855847 4.50312249,9.77236277 C4.50312249,9.45832936 4.75521755,9.20434368 5.06619378,9.20434368 L7.36030713,9.20434368 C7.6713638,9.20434368 7.92321755,9.45832936 7.92321755,9.77236277 C7.92321755,10.0855847 7.6713638,10.3403819 7.36030713,10.3403819" id="Fill-32"></path>
            <path d="M7.36030713,20.8446778 L5.06619378,20.8446778 C4.75521755,20.8446778 4.50312249,20.5898807 4.50312249,20.2766587 C4.50312249,19.9626253 4.75521755,19.7086396 5.06619378,19.7086396 L7.36030713,19.7086396 C7.6713638,19.7086396 7.92321755,19.9626253 7.92321755,20.2766587 C7.92321755,20.5898807 7.6713638,20.8446778 7.36030713,20.8446778" id="Fill-33"></path>
            <path d="M7.36030713,23.4113126 L5.06619378,23.4113126 C4.75521755,23.4113126 4.50312249,23.157327 4.50312249,22.8432936 C4.50312249,22.5300716 4.75521755,22.2752745 5.06619378,22.2752745 L7.36030713,22.2752745 C7.6713638,22.2752745 7.92321755,22.5300716 7.92321755,22.8432936 C7.92321755,23.157327 7.6713638,23.4113126 7.36030713,23.4113126" id="Fill-34"></path>
            <path d="M7.36030713,25.9787589 L5.06619378,25.9787589 C4.75521755,25.9787589 4.50312249,25.7247733 4.50312249,25.4107399 C4.50312249,25.0975179 4.75521755,24.8427208 5.06619378,24.8427208 L7.36030713,24.8427208 C7.6713638,24.8427208 7.92321755,25.0975179 7.92321755,25.4107399 C7.92321755,25.7247733 7.6713638,25.9787589 7.36030713,25.9787589" id="Fill-35"></path>
            <path d="M26.8496527,21.5189976 L38.0000731,32.7673986 C38.0555759,32.823389 38.1207313,32.832315 38.1545155,32.832315 C38.1882998,32.832315 38.2526508,32.823389 38.3081536,32.7673986 L39.1221938,31.9462053 C39.2074589,31.8610024 39.2074589,31.721432 39.1221938,31.6354177 L27.9725777,20.3870167 L25.8835832,19.4124582 L26.8496527,21.5189976 Z M38.1545155,33.9683532 C37.7949543,33.9683532 37.4579159,33.8271599 37.2037294,33.5707399 L25.9825229,22.2509308 C25.9358684,22.2038663 25.8980622,22.1486874 25.8699086,22.0878282 L24.6070201,19.3329356 C24.4767093,19.0497375 24.4976234,18.7235322 24.6633272,18.4622434 C24.8314442,18.1968974 25.1161974,18.0386635 25.4242779,18.0386635 C25.5553931,18.0386635 25.6840951,18.0670644 25.8055576,18.1238663 L28.535649,19.3986635 C28.5959781,19.426253 28.6506764,19.4652029 28.6981353,19.5122673 L39.9185375,30.8320764 C40.4429982,31.3611456 40.4429982,32.2212888 39.9185375,32.7495465 L39.1044973,33.5707399 C38.8511152,33.8271599 38.5132724,33.9683532 38.1545155,33.9683532 L38.1545155,33.9683532 Z" id="Fill-36"></path>
        </g>
    </g>
</svg>