<?xml version="1.0" encoding="UTF-8" standalone="no"?>
<svg width="44px" height="49px" viewBox="0 0 44 49" version="1.1" xmlns="http://www.w3.org/2000/svg" xmlns:xlink="http://www.w3.org/1999/xlink">
    <!-- Generator: Sketch 43.1 (39012) - http://www.bohemiancoding.com/sketch -->
    <title>Group</title>
    <desc>Created with Sketch.</desc>
    <defs></defs>
    <g id="Page-1" stroke="none" stroke-width="1" fill="none" fill-rule="evenodd">
        <g id="Group" fill="#737373">
            <path d="M41.9097634,16.6718015 C41.5435699,16.6718015 41.2473978,16.3759133 41.2473978,16.0109152 L41.2473978,12.8962524 L41.2426667,12.8962524 C40.8764731,12.8962524 40.5803011,12.6003642 40.5803011,12.2353661 C40.5803011,11.870368 40.8764731,11.5744798 41.2426667,11.5744798 L41.9097634,11.5744798 C42.2750108,11.5744798 42.572129,11.870368 42.572129,12.2353661 L42.572129,16.0109152 C42.572129,16.3759133 42.2750108,16.6718015 41.9097634,16.6718015" id="Fill-155"></path>
            <path d="M37.6923871,16.6689692 C37.3261935,16.6689692 37.0300215,16.3730809 37.0300215,16.0080829 L37.0300215,12.2353661 C37.0300215,11.870368 37.3261935,11.5744798 37.6923871,11.5744798 L38.2828387,11.5744798 C38.648086,11.5744798 38.9452043,11.870368 38.9452043,12.2353661 C38.9452043,12.5761002 38.6868817,12.8565992 38.3547527,12.8923815 L38.3547527,16.0080829 C38.3547527,16.3730809 38.0576344,16.6689692 37.6923871,16.6689692" id="Fill-156"></path>
            <path d="M41.2067097,2.09689788 C39.5962151,3.34852216 36.9287742,5.90124277 36.9287742,9.07453565 C36.9287742,10.6334721 38.1995699,11.9018073 39.7627527,11.9018073 C41.3249892,11.9018073 42.5957849,10.6334721 42.5957849,9.07453565 C42.5957849,8.54771484 42.3819355,8.02023314 42.1113118,7.35236031 C41.6334624,6.17267823 41.0070538,4.625921 41.2067097,2.09689788 Z M39.7627527,13.22358 C37.4690753,13.22358 35.604043,11.3623353 35.604043,9.07453565 C35.604043,3.7944316 41.4763871,0.268319846 41.7261935,0.120753372 C41.9504516,-0.0111406551 42.2305376,-0.000566473988 42.4434409,0.147944123 C42.6563441,0.296549133 42.7623226,0.555522158 42.7150108,0.81034104 C42.1406452,3.89583044 42.8058495,5.5377553 43.3395269,6.85697881 C43.6385376,7.5942447 43.9205161,8.29063006 43.9205161,9.07453565 C43.9205161,11.3623353 42.0554839,13.22358 39.7627527,13.22358 L39.7627527,13.22358 Z" id="Fill-157"></path>
            <path d="M26.3924301,47.5958054 C24.7563871,47.5958054 23.0503226,47.3695934 21.3035699,46.9119769 C15.8485161,45.4825742 10.6404301,41.9570289 6.64068817,36.9848035 C2.64094624,32.0119171 0.317935484,26.1762909 0.0993548387,20.5528092 C-0.122064516,14.8552139 1.83664516,10.050948 5.61591398,7.02484393 C7.7231828,5.33741233 10.6233978,4.24071869 13.7828817,3.93671098 C14.7338495,3.84579191 15.6848172,4.16169557 16.3926022,4.80332177 C17.0975484,5.44249326 17.5015914,6.35262813 17.5015914,7.30043353 C17.4996989,13.5749827 19.4044731,14.5090039 20.8380215,14.6656339 C22.0264946,14.7953565 23.2499785,14.369368 24.376,13.433553 C25.8947097,12.1706936 27.8042151,11.5785395 29.7544086,11.768025 C31.6620215,11.9528844 33.3784946,12.8717996 34.5868387,14.3554894 L34.7070108,14.5042832 C35.780043,15.8379518 36.7461505,17.2540424 37.5788387,18.7146956 C37.7595699,19.031921 37.6488602,19.4354393 37.3309247,19.6159557 C37.0129892,19.7963776 36.608,19.685632 36.4272688,19.3683121 C35.6295914,17.9684605 34.7032258,16.6109056 33.6756129,15.3332235 L33.5573333,15.1874509 C32.576086,13.9818054 31.1784946,13.2340597 29.6257204,13.0835665 C28.0322581,12.9294855 26.468129,13.4140096 25.223828,14.449052 C23.8148817,15.6200482 22.247914,16.1492293 20.6941935,15.9795703 C19.0127312,15.7958439 17.7864086,14.8182987 17.0492903,13.0742197 C16.4616774,11.6855087 16.175914,9.79678998 16.1768602,7.3002447 C16.1768602,6.71583237 15.9365161,6.17636031 15.5012473,5.78143353 C15.0697634,5.38981118 14.4897204,5.19664355 13.9087312,5.25244123 C11.0047312,5.53190173 8.35337634,6.52747977 6.4448172,8.05573218 C-0.723870968,13.796474 -0.172215054,26.4028805 7.67397849,36.1574682 C15.520172,45.9107341 27.736086,49.1755125 34.9057204,43.4348651 C35.7705806,42.741973 36.5408172,41.9330482 37.1956129,41.0307495 C37.4094624,40.7351445 37.823914,40.6688671 38.120086,40.8828054 C38.4162581,41.0968382 38.4824946,41.5099865 38.2686452,41.8056859 C37.5447742,42.8037187 36.6922151,43.6986532 35.7346237,44.465659 C33.1495054,46.5353661 29.9351398,47.5958054 26.3924301,47.5958054" id="Fill-158"></path>
            <path d="M38.7020215,15.6124952 C38.1768602,16.1159017 37.0309677,18.4816859 37.5163871,29.5265125 C37.823914,36.5351175 38.6490323,44.0282466 38.9896774,46.9245337 C39.0341505,47.3071869 39.3606022,47.595711 39.7466667,47.595711 C40.1317849,47.595711 40.4572903,47.308131 40.5036559,46.9267996 C40.8291613,44.2444509 41.6249462,37.2730443 41.9655914,30.486025 C42.451957,20.8288709 41.7659355,17.0462408 41.0297634,15.6124952 L38.7020215,15.6124952 Z M39.7466667,48.9174836 C38.687828,48.9174836 37.7974194,48.1268748 37.6744086,47.0784258 C37.331871,44.1677881 36.5020215,36.636422 36.1926022,29.5843873 C35.6541935,17.306158 37.0498925,15.027894 38.1475269,14.3823969 C38.2487742,14.3223507 38.3651613,14.2907225 38.4834409,14.2907225 L41.4082581,14.2907225 C41.6287312,14.2907225 41.8340645,14.400052 41.9570753,14.5824566 C43.2941075,16.5629441 43.7293763,21.7867784 43.2884301,30.5523025 C42.9449462,37.3813353 42.1463226,44.389657 41.8189247,47.0858844 C41.692129,48.1300848 40.8007742,48.9174836 39.7466667,48.9174836 L39.7466667,48.9174836 Z" id="Fill-159"></path>
            <path d="M27.72,36.8521541 C26.488,36.8521541 25.4849892,37.852736 25.4849892,39.0825511 C25.4849892,40.3122717 26.488,41.3128536 27.72,41.3128536 C28.9529462,41.3128536 29.9550108,40.3122717 29.9550108,39.0825511 C29.9550108,37.852736 28.9529462,36.8521541 27.72,36.8521541 Z M27.72,42.6346262 C25.7575054,42.6346262 24.1602581,41.0411349 24.1602581,39.0825511 C24.1602581,37.1238728 25.7575054,35.5303815 27.72,35.5303815 C29.6834409,35.5303815 31.2797419,37.1238728 31.2797419,39.0825511 C31.2797419,41.0411349 29.6834409,42.6346262 27.72,42.6346262 L27.72,42.6346262 Z" id="Fill-160"></path>
            <path d="M17.6264946,33.2417322 C16.3944946,33.2417322 15.3914839,34.2423141 15.3914839,35.4720347 C15.3914839,36.7018497 16.3944946,37.7024316 17.6264946,37.7024316 C18.8594409,37.7024316 19.8624516,36.7018497 19.8624516,35.4720347 C19.8624516,34.2423141 18.8594409,33.2417322 17.6264946,33.2417322 Z M17.6264946,39.0242042 C15.664,39.0242042 14.0667527,37.4307129 14.0667527,35.4720347 C14.0667527,33.5134509 15.664,31.9199595 17.6264946,31.9199595 C19.5899355,31.9199595 21.1871828,33.5134509 21.1871828,35.4720347 C21.1871828,37.4307129 19.5899355,39.0242042 17.6264946,39.0242042 L17.6264946,39.0242042 Z" id="Fill-161"></path>
            <path d="M10.6905806,24.9568613 C9.45763441,24.9568613 8.45462366,25.9574432 8.45462366,27.1871638 C8.45462366,28.4169788 9.45763441,29.4175607 10.6905806,29.4175607 C11.9225806,29.4175607 12.9255914,28.4169788 12.9255914,27.1871638 C12.9255914,25.9574432 11.9225806,24.9568613 10.6905806,24.9568613 Z M10.6905806,30.7393333 C8.72713978,30.7393333 7.12989247,29.145842 7.12989247,27.1871638 C7.12989247,25.22858 8.72713978,23.6350886 10.6905806,23.6350886 C12.6530753,23.6350886 14.2503226,25.22858 14.2503226,27.1871638 C14.2503226,29.145842 12.6530753,30.7393333 10.6905806,30.7393333 L10.6905806,30.7393333 Z" id="Fill-162"></path>
            <path d="M9.21634409,14.1858304 C7.98339785,14.1858304 6.9803871,15.1864123 6.9803871,16.4162274 C6.9803871,17.6460424 7.98339785,18.6465299 9.21634409,18.6465299 C10.4483441,18.6465299 11.4513548,17.6460424 11.4513548,16.4162274 C11.4513548,15.1864123 10.4483441,14.1858304 9.21634409,14.1858304 Z M9.21634409,19.9683025 C7.25290323,19.9683025 5.65565591,18.3749056 5.65565591,16.4162274 C5.65565591,14.4575491 7.25290323,12.8640578 9.21634409,12.8640578 C11.1788387,12.8640578 12.776086,14.4575491 12.776086,16.4162274 C12.776086,18.3749056 11.1788387,19.9683025 9.21634409,19.9683025 L9.21634409,19.9683025 Z" id="Fill-163"></path>
            <path d="M28.6624516,18.6256647 C28.3984516,18.6256647 28.1410753,18.6716435 27.8997849,18.7624682 C26.3309247,19.3528285 25.7442581,21.6564894 26.5911398,23.8977437 C27.2875699,25.7410501 28.776,27.0284566 30.2104946,27.0284566 C30.4744946,27.0284566 30.731871,26.9823834 30.9731613,26.8916532 C31.6970323,26.6192736 32.2392258,25.9605588 32.5013333,25.0368285 C32.7823656,24.0409672 32.7047742,22.8760135 32.2818065,21.7563776 C31.5853763,19.9130713 30.0969462,18.6256647 28.6624516,18.6256647 Z M30.2104946,28.3502293 C28.2054194,28.3502293 26.2523871,26.7483353 25.3515699,24.3641407 C24.2463656,21.4409461 25.1803011,18.3732062 27.4323441,17.5256667 C27.824086,17.3784778 28.2375914,17.3038921 28.6624516,17.3038921 C30.6675269,17.3038921 32.6205591,18.9057861 33.5213763,21.2899807 C34.0436989,22.6720829 34.1345376,24.1303757 33.775914,25.3961618 C33.3964731,26.7338902 32.5675699,27.7042601 31.4406022,28.1283603 C31.0488602,28.2756435 30.6353548,28.3502293 30.2104946,28.3502293 L30.2104946,28.3502293 Z" id="Fill-164"></path>
        </g>
    </g>
</svg>