<?xml version="1.0" encoding="UTF-8" standalone="no"?>
<svg width="37px" height="21px" viewBox="0 0 37 21" version="1.1" xmlns="http://www.w3.org/2000/svg" xmlns:xlink="http://www.w3.org/1999/xlink">
    <!-- Generator: Sketch 42 (36781) - http://www.bohemiancoding.com/sketch -->
    <title>prescription</title>
    <desc>Created with Sketch.</desc>
    <defs>
        <polygon id="path-1" points="0.00541463415 0.0087721519 0.00541463415 20.9115696 36.9640829 20.9115696 36.9640829 0.0087721519 0.00541463415 0.0087721519"></polygon>
    </defs>
    <g id="Page-1" stroke="none" stroke-width="1" fill="none" fill-rule="evenodd">
        <g id="prescription">
            <g id="Group-3">
                <mask id="mask-2" fill="white">
                    <use xlink:href="#path-1"></use>
                </mask>
                <g id="Clip-2"></g>
                <path d="M36.2276024,0.0087721519 L0.736390244,0.0087721519 C0.329570732,0.0087721519 0,0.332455696 0,0.731810127 L0,20.188443 C0,20.5875316 0.329570732,20.9115696 0.736390244,20.9115696 L36.2276024,20.9115696 C36.634061,20.9115696 36.9640829,20.5875316 36.9640829,20.188443 L36.9640829,0.731810127 C36.9640829,0.332455696 36.634061,0.0087721519 36.2276024,0.0087721519 Z M1.47278049,19.4654051 L35.4912122,19.4654051 L35.4912122,1.45493671 L1.47278049,1.45493671 L1.47278049,19.4654051 Z" id="Fill-1" fill="#000000" mask="url(#mask-2)"></path>
            </g>
            <path d="M33.2573146,5.4681519 L31.8616927,5.4681519 L31.8616927,4.09792405 C31.8616927,3.69848101 31.532122,3.37479747 31.1253024,3.37479747 L28.3792707,3.37479747 C27.9728122,3.37479747 27.6427902,3.69848101 27.6427902,4.09792405 L27.6427902,5.4681519 L26.2472585,5.4681519 C25.8408,5.4681519 25.511139,5.79183544 25.511139,6.19092405 L25.511139,8.88751899 C25.511139,9.28660759 25.8408,9.61029114 26.2472585,9.61029114 L27.6427902,9.61029114 L27.6427902,10.980519 C27.6427902,11.379962 27.9728122,11.7036456 28.3792707,11.7036456 L31.1253024,11.7036456 C31.532122,11.7036456 31.8616927,11.379962 31.8616927,10.980519 L31.8616927,9.61029114 L33.2573146,9.61029114 C33.6637732,9.61029114 33.9937951,9.28660759 33.9937951,8.88751899 L33.9937951,6.19092405 C33.9937951,5.79183544 33.6637732,5.4681519 33.2573146,5.4681519 Z M32.5209244,8.16448101 L31.1253024,8.16448101 C30.7188439,8.16448101 30.3889122,8.48816456 30.3889122,8.88751899 L30.3889122,10.2578354 L29.115661,10.2578354 L29.115661,8.88751899 C29.115661,8.48816456 28.7857293,8.16448101 28.3792707,8.16448101 L26.9836488,8.16448101 L26.9836488,6.91396203 L28.3792707,6.91396203 C28.7857293,6.91396203 29.115661,6.59036709 29.115661,6.19127848 L29.115661,4.82096203 L30.3889122,4.82096203 L30.3889122,6.19127848 C30.3889122,6.59036709 30.7188439,6.91396203 31.1253024,6.91396203 L32.5209244,6.91396203 L32.5209244,8.16448101 Z" id="Fill-4" fill="#000000"></path>
            <path d="M22.6339829,3.8663038 L4.78608537,3.8663038 C4.37962683,3.8663038 4.04969512,4.19034177 4.04969512,4.58943038 C4.04969512,4.98843038 4.37962683,5.31246835 4.78608537,5.31246835 L22.6339829,5.31246835 C23.0403512,5.31246835 23.3703732,4.98843038 23.3703732,4.58943038 C23.3703732,4.19034177 23.0403512,3.8663038 22.6339829,3.8663038 Z" id="Fill-5" fill="#000000"></path>
            <path d="M22.6339829,7.86055696 L4.78608537,7.86055696 C4.37962683,7.86055696 4.04969512,8.18459494 4.04969512,8.58368354 C4.04969512,8.98303797 4.37962683,9.30672152 4.78608537,9.30672152 L22.6339829,9.30672152 C23.0403512,9.30672152 23.3703732,8.98303797 23.3703732,8.58368354 C23.3703732,8.18459494 23.0403512,7.86055696 22.6339829,7.86055696 Z" id="Fill-6" fill="#000000"></path>
            <path d="M22.6339829,11.8552532 L4.78608537,11.8552532 C4.37962683,11.8552532 4.04969512,12.1788481 4.04969512,12.5782911 C4.04969512,12.9773797 4.37962683,13.3009747 4.78608537,13.3009747 L22.6339829,13.3009747 C23.0403512,13.3009747 23.3703732,12.9773797 23.3703732,12.5782911 C23.3703732,12.1788481 23.0403512,11.8552532 22.6339829,11.8552532 Z" id="Fill-7" fill="#000000"></path>
            <path d="M22.6191829,16.0270759 L19.7090878,16.0270759 C19.3027195,16.0270759 18.9730585,16.3506709 18.9730585,16.7501139 C18.9730585,17.1492025 19.3027195,17.4731519 19.7090878,17.4731519 L22.6191829,17.4731519 C23.0259122,17.4731519 23.3555732,17.1492025 23.3555732,16.7501139 C23.3555732,16.3510253 23.0259122,16.0270759 22.6191829,16.0270759 Z" id="Fill-8" fill="#000000"></path>
            <path d="M16.9739756,16.0270759 L16.1257732,16.0270759 C15.7190439,16.0270759 15.3893829,16.3506709 15.3893829,16.7501139 C15.3893829,17.1492025 15.7190439,17.4731519 16.1257732,17.4731519 L16.9739756,17.4731519 C17.3804341,17.4731519 17.7103659,17.1492025 17.7103659,16.7501139 C17.7103659,16.3510253 17.3804341,16.0270759 16.9739756,16.0270759 Z" id="Fill-9" fill="#000000"></path>
        </g>
    </g>
</svg>