<?xml version="1.0" encoding="UTF-8" standalone="no"?>
<svg width="43px" height="43px" viewBox="0 0 43 43" version="1.1" xmlns="http://www.w3.org/2000/svg" xmlns:xlink="http://www.w3.org/1999/xlink">
    <!-- Generator: Sketch 43.1 (39012) - http://www.bohemiancoding.com/sketch -->
    <title>expand</title>
    <desc>Created with Sketch.</desc>
    <defs>
        <polygon id="path-1" points="0.00658163265 0.0612722646 0.00658163265 42.8906947 42.9296862 42.8906947 42.9296862 0.0612722646"></polygon>
    </defs>
    <g id="Page-1" stroke="none" stroke-width="1" fill="none" fill-rule="evenodd">
        <g id="expand">
            <g id="Group-4">
                <mask id="mask-2" fill="white">
                    <use xlink:href="#path-1"></use>
                </mask>
                <g id="Clip-2"></g>
                <path d="M41.8504082,0.0612722646 L1.07938776,0.0612722646 C0.482433673,0.0612722646 0.00855612245,0.542478372 0.00855612245,1.12937913 L0.00855612245,20.6312468 C0.00855612245,21.2265725 0.491428571,21.6993537 1.07938776,21.6993537 C1.66723724,21.6993537 2.15877551,21.2176005 2.15877551,20.6312468 L2.15877551,2.20602036 L40.7885714,2.20602036 L40.7885714,40.7375216 L22.1932653,40.7375216 C21.5964209,40.7375216 21.1138776,41.2187277 21.1138776,41.8141628 C21.1138776,42.4090509 21.5964209,42.8906947 22.1932653,42.8906947 L41.8504082,42.8906947 C42.4472526,42.8906947 42.9296862,42.4090509 42.9296862,41.8141628 L42.9296862,1.13791349 C42.9296862,0.542478372 42.4472526,0.0612722646 41.8504082,0.0612722646 Z" id="Fill-1" fill="#737373" mask="url(#mask-2)"></path>
                <path d="M0,41.8809257 C0,42.4762514 0.482433673,42.9574576 1.07083163,42.9574576 L16.0238622,42.9574576 C16.6208163,42.9574576 17.1036888,42.4762514 17.1036888,41.8809257 L17.1036888,26.9743685 C17.1036888,26.3790428 16.6208163,25.8977273 16.0238622,25.8977273 L1.07938776,25.8977273 C0.482433673,25.8977273 0.00855612245,26.3790428 0.00855612245,26.9743685 L0.00855612245,41.8809257 L0,41.8809257 Z M2.15021939,40.8132565 L14.9534694,40.8132565 L14.9534694,28.0420377 L2.15021939,28.0420377 L2.15021939,40.8132565 Z" id="Fill-3" fill="#737373" mask="url(#mask-2)"></path>
            </g>
            <path d="M19.5606122,23.370883 C19.7710051,23.5811781 20.0431556,23.6863257 20.3241913,23.6863257 C20.604898,23.6863257 20.8769388,23.5811781 21.0873316,23.370883 L33.2505179,11.230112 L33.2505179,18.2241221 C33.2505179,18.8194478 33.7330612,19.3007634 34.3299056,19.3007634 C34.9263112,19.3007634 35.4092934,18.8194478 35.4092934,18.2241221 L35.4092934,8.64814249 C35.4092934,8.05281679 34.9263112,7.57161069 34.3299056,7.57161069 L24.7205026,7.57161069 C24.1240969,7.57161069 23.6412245,8.05281679 23.6412245,8.64814249 C23.6412245,9.24357761 24.1240969,9.72478372 24.7205026,9.72478372 L31.7323546,9.72478372 L19.5606122,21.8565827 C19.1393878,22.2767354 19.1393878,22.9507303 19.5606122,23.370883 Z" id="Fill-5" fill="#737373"></path>
        </g>
    </g>
</svg>