<?xml version="1.0" encoding="UTF-8" standalone="no"?>
<svg width="44px" height="43px" viewBox="0 0 44 43" version="1.1" xmlns="http://www.w3.org/2000/svg" xmlns:xlink="http://www.w3.org/1999/xlink">
    <!-- Generator: Sketch 43.1 (39012) - http://www.bohemiancoding.com/sketch -->
    <title>grid (1)</title>
    <desc>Created with Sketch.</desc>
    <defs></defs>
    <g id="Page-1" stroke="none" stroke-width="1" fill="none" fill-rule="evenodd">
        <g id="grid-(1)" fill="#737373">
            <path d="M22,25.5056493 C21.4969989,25.5056493 21.0893045,25.9124597 21.0893045,26.4141169 L21.0893045,29.8275844 C21.0893045,30.3293549 21.4969989,30.736052 22,30.736052 C22.5030011,30.736052 22.9106955,30.3293549 22.9106955,29.8275844 L22.9106955,26.4141169 C22.9106955,25.9124597 22.5030011,25.5056493 22,25.5056493" id="Fill-1"></path>
            <path d="M22,17.0820687 C22.5030011,17.0820687 22.9106955,16.6753717 22.9106955,16.1736011 L22.9106955,12.7601336 C22.9106955,12.2583631 22.5030011,11.8516661 22,11.8516661 C21.4969989,11.8516661 21.0893045,12.2583631 21.0893045,12.7601336 L21.0893045,16.1736011 C21.0893045,16.6753717 21.4969989,17.0820687 22,17.0820687" id="Fill-2"></path>
            <path d="M22,32.3326976 C21.4969989,32.3326976 21.0893045,32.739508 21.0893045,33.2411652 L21.0893045,36.654746 C21.0893045,37.1564032 21.4969989,37.5631002 22,37.5631002 C22.5030011,37.5631002 22.9106955,37.1564032 22.9106955,36.654746 L22.9106955,33.2411652 C22.9106955,32.739508 22.5030011,32.3326976 22,32.3326976" id="Fill-3"></path>
            <path d="M22,10.2550204 C22.5030011,10.2550204 22.9106955,9.84832339 22.9106955,9.34655285 L22.9106955,5.93308536 C22.9106955,5.43131482 22.5030011,5.02461779 22,5.02461779 C21.4969989,5.02461779 21.0893045,5.43131482 21.0893045,5.93308536 L21.0893045,9.34655285 C21.0893045,9.84832339 21.4969989,10.2550204 22,10.2550204" id="Fill-4"></path>
            <path d="M10.0233944,20.3855048 L6.60144217,20.3855048 C6.09844109,20.3855048 5.69074668,20.7922018 5.69074668,21.2939723 C5.69074668,21.7956296 6.09844109,22.2023266 6.60144217,22.2023266 L10.0233944,22.2023266 C10.5263955,22.2023266 10.9339763,21.7956296 10.9339763,21.2939723 C10.9339763,20.7922018 10.5263955,20.3855048 10.0233944,20.3855048" id="Fill-5"></path>
            <path d="M16.8671853,20.3855048 L13.4451194,20.3855048 C12.9421184,20.3855048 12.5344239,20.7922018 12.5344239,21.2939723 C12.5344239,21.7956296 12.9421184,22.2023266 13.4451194,22.2023266 L16.8671853,22.2023266 C17.3701863,22.2023266 17.7777672,21.7956296 17.7777672,21.2939723 C17.7777672,20.7922018 17.3701863,20.3855048 16.8671853,20.3855048" id="Fill-6"></path>
            <path d="M23.7109761,20.3855048 L22.9106955,20.3855048 L22.9106955,19.5871819 C22.9106955,19.0855247 22.5030011,18.6787144 22,18.6787144 C21.4969989,18.6787144 21.0893045,19.0855247 21.0893045,19.5871819 L21.0893045,20.3855048 L20.2890239,20.3855048 C19.7860228,20.3855048 19.378442,20.7922018 19.378442,21.2939723 C19.378442,21.7956296 19.7860228,22.2023266 20.2890239,22.2023266 L21.0893045,22.2023266 L21.0893045,23.0006494 C21.0893045,23.50242 21.4969989,23.909117 22,23.909117 C22.5030011,23.909117 22.9106955,23.50242 22.9106955,23.0006494 L22.9106955,22.2023266 L23.7109761,22.2023266 C24.2139772,22.2023266 24.621558,21.7956296 24.621558,21.2939723 C24.621558,20.7922018 24.2138636,20.3855048 23.7109761,20.3855048" id="Fill-7"></path>
            <path d="M37.3984442,20.3855048 L33.9763784,20.3855048 C33.4733773,20.3855048 33.0657965,20.7922018 33.0657965,21.2939723 C33.0657965,21.7956296 33.4733773,22.2023266 33.9763784,22.2023266 L37.3984442,22.2023266 C37.9014453,22.2023266 38.3091397,21.7956296 38.3091397,21.2939723 C38.3091397,20.7922018 37.9014453,20.3855048 37.3984442,20.3855048" id="Fill-8"></path>
            <path d="M30.5546534,20.3855048 L27.1327011,20.3855048 C26.6297001,20.3855048 26.2221193,20.7922018 26.2221193,21.2939723 C26.2221193,21.7956296 26.6297001,22.2023266 27.1327011,22.2023266 L30.5546534,22.2023266 C31.0576545,22.2023266 31.4653489,21.7956296 31.4653489,21.2939723 C31.4653489,20.7922018 31.0576545,20.3855048 30.5546534,20.3855048" id="Fill-9"></path>
            <path d="M22.7058185,41.1823526 L22.7058185,40.273885 C22.7058185,39.7722278 22.2981241,39.3654174 21.795123,39.3654174 C21.2921219,39.3654174 20.8844275,39.7722278 20.8844275,40.273885 L20.8844275,41.1823526 L1.82127739,41.1823526 L1.82127739,22.4079981 L2.97484016,22.4079981 C3.47784124,22.4079981 3.88542205,22.0013011 3.88542205,21.4996439 C3.88542205,20.9978733 3.47784124,20.5911763 2.97484016,20.5911763 L1.82127739,20.5911763 L1.82127739,1.81682184 L20.8844275,1.81682184 L20.8844275,2.72528941 C20.8844275,3.22694664 21.2921219,3.63375699 21.795123,3.63375699 C22.2981241,3.63375699 22.7058185,3.22694664 22.7058185,2.72528941 L22.7058185,1.81682184 L41.7689687,1.81682184 L41.7689687,20.5911763 L40.6154059,20.5911763 C40.1124048,20.5911763 39.704824,20.9978733 39.704824,21.4996439 C39.704824,22.0013011 40.1124048,22.4079981 40.6154059,22.4079981 L41.7689687,22.4079981 L41.7689687,41.1823526 L22.7058185,41.1823526 Z M42.6796642,0 L0.910581897,0 C0.407580819,0 0,0.406697035 0,0.908467576 L0,42.0908201 C0,42.5924774 0.407580819,42.9991744 0.910581897,42.9991744 L42.6796642,42.9991744 C43.1826652,42.9991744 43.590246,42.5924774 43.590246,42.0908201 L43.590246,0.908467576 C43.590246,0.406697035 43.1826652,0 42.6796642,0 L42.6796642,0 Z" id="Fill-10"></path>
        </g>
    </g>
</svg>