<?xml version="1.0" encoding="UTF-8" standalone="no"?>
<svg width="31px" height="31px" viewBox="0 0 31 31" version="1.1" xmlns="http://www.w3.org/2000/svg" xmlns:xlink="http://www.w3.org/1999/xlink">
    <!-- Generator: Sketch 42 (36781) - http://www.bohemiancoding.com/sketch -->
    <title>check</title>
    <desc>Created with Sketch.</desc>
    <defs>
        <polygon id="path-1" points="0.00474489796 31 31 31 31 0 0.00474489796 0"></polygon>
    </defs>
    <g id="Page-1" stroke="none" stroke-width="1" fill="none" fill-rule="evenodd">
        <g id="check">
            <g id="Group-3">
                <mask id="mask-2" fill="white">
                    <use xlink:href="#path-1"></use>
                </mask>
                <g id="Clip-2"></g>
                <path d="M15.5,31 C24.0602704,31 31,24.0602704 31,15.5 C31,6.93972959 24.0602704,0 15.5,0 C6.93972959,0 0,6.93972959 0,15.5 C0,24.0602704 6.93972959,31 15.5,31 Z M15.5,1.9375 C22.9784337,1.9375 29.0625,8.02156633 29.0625,15.5 C29.0625,22.9784337 22.9784337,29.0625 15.5,29.0625 C8.02156633,29.0625 1.9375,22.9784337 1.9375,15.5 C1.9375,8.02156633 8.02156633,1.9375 15.5,1.9375 Z" id="Fill-1" fill="#000000" mask="url(#mask-2)"></path>
            </g>
            <polygon id="Fill-4" fill="#000000" points="22.6844082 10.7254464 21.2538214 9.41783163 12.8133597 18.6512449 9.79346939 15.0894872 8.31559184 16.3420612 12.758398 21.5821684"></polygon>
        </g>
    </g>
</svg>