<?xml version="1.0" encoding="UTF-8" standalone="no"?>
<svg width="471px" height="195px" viewBox="0 0 471 195" version="1.1" xmlns="http://www.w3.org/2000/svg" xmlns:xlink="http://www.w3.org/1999/xlink">
    <!-- Generator: Sketch 43.1 (39012) - http://www.bohemiancoding.com/sketch -->
    <title>Group 42</title>
    <desc>Created with Sketch.</desc>
    <defs></defs>
    <g id="Page-1" stroke="none" stroke-width="1" fill="none" fill-rule="evenodd">
        <g id="Artboard-2" transform="translate(-1713.000000, -675.000000)">
            <g id="Group-42" transform="translate(1713.000000, 675.000000)">
                <path d="M357.5,26.066838 L372,26.066838" id="Line" stroke="#979797" stroke-width="0.5" stroke-linecap="square"></path>
                <path d="M161.52,63.6632391 L161.52,62.7729563 L157.8,62.7729563 L157.8,55.6386632 L156.804,55.6386632 L156.804,63.6632391 L161.52,63.6632391 Z M164.84,63.8076093 C163.076,63.8076093 161.972,62.4360925 161.972,60.7517738 C161.972,59.067455 163.076,57.7079692 164.84,57.7079692 C166.604,57.7079692 167.708,59.067455 167.708,60.7517738 C167.708,62.4360925 166.604,63.8076093 164.84,63.8076093 Z M164.84,63.0015424 C166.076,63.0015424 166.76,61.9428278 166.76,60.7517738 C166.76,59.5727506 166.076,58.514036 164.84,58.514036 C163.604,58.514036 162.92,59.5727506 162.92,60.7517738 C162.92,61.9428278 163.604,63.0015424 164.84,63.0015424 Z M171.244,66.0212853 C170.272,66.0212853 169.6,65.8287918 168.904,65.1430334 L169.36,64.4933676 C169.84,65.0588175 170.416,65.2753728 171.244,65.2753728 C172.204,65.2753728 173.116,64.8061697 173.116,63.5790231 L173.116,62.7007712 C172.684,63.2902828 171.976,63.7354242 171.16,63.7354242 C169.648,63.7354242 168.58,62.6045244 168.58,60.7277121 C168.58,58.8629306 169.636,57.7079692 171.16,57.7079692 C171.94,57.7079692 172.648,58.0929563 173.116,58.7305913 L173.116,57.8523393 L174.016,57.8523393 L174.016,63.5790231 C174.016,65.4197429 172.66,66.0212853 171.244,66.0212853 Z M171.388,62.9293573 C172.096,62.9293573 172.792,62.4962468 173.116,61.9909512 L173.116,59.4404113 C172.792,58.9471465 172.096,58.514036 171.388,58.514036 C170.212,58.514036 169.516,59.4404113 169.516,60.7277121 C169.516,62.002982 170.212,62.9293573 171.388,62.9293573 Z M176.016,57.0222108 C176.352,57.0222108 176.616,56.7575321 176.616,56.4206684 C176.616,56.0838046 176.352,55.8070951 176.016,55.8070951 C175.68,55.8070951 175.404,56.0838046 175.404,56.4206684 C175.404,56.7575321 175.68,57.0222108 176.016,57.0222108 Z M176.46,63.6632391 L176.46,57.8523393 L175.56,57.8523393 L175.56,63.6632391 L176.46,63.6632391 Z M182.816,63.6632391 L182.816,59.5847815 C182.816,58.3215424 182.18,57.7079692 180.98,57.7079692 C180.104,57.7079692 179.312,58.2012339 178.904,58.6944987 L178.904,57.8523393 L178.004,57.8523393 L178.004,63.6632391 L178.904,63.6632391 L178.904,59.4163496 C179.252,58.9471465 179.912,58.514036 180.62,58.514036 C181.4,58.514036 181.928,58.826838 181.928,59.861491 L181.928,63.6632391 L182.816,63.6632391 Z" id="Login" fill="#979797"></path>
                <path d="M32.06,101.760925 L32.06,93.7363496 L31.064,93.7363496 L31.064,100.004422 L26.456,93.7363496 L25.436,93.7363496 L25.436,101.760925 L26.432,101.760925 L26.432,95.3605141 L31.1,101.760925 L32.06,101.760925 Z M36.268,101.905296 C34.54,101.905296 33.304,100.666118 33.304,98.8494602 C33.304,97.1651414 34.504,95.8056555 36.16,95.8056555 C37.912,95.8056555 38.944,97.1771722 38.944,98.9216452 L38.944,99.1502314 L34.264,99.1502314 C34.336,100.245039 35.092,101.159383 36.34,101.159383 C37.012,101.159383 37.672,100.894704 38.14,100.41347 L38.572,101.002982 C37.984,101.580463 37.204,101.905296 36.268,101.905296 Z M38.056,98.4765039 C38.044,97.6223136 37.468,96.5515681 36.148,96.5515681 C34.912,96.5515681 34.3,97.5982519 34.252,98.4765039 L38.056,98.4765039 Z M46.068,101.760925 L47.916,95.9500257 L46.968,95.9500257 L45.552,100.581902 L44.04,95.9500257 L43.26,95.9500257 L41.736,100.581902 L40.32,95.9500257 L39.384,95.9500257 L41.232,101.760925 L42.132,101.760925 L43.644,97.0929563 L45.156,101.760925 L46.068,101.760925 Z M54.844,101.905296 C57.016,101.905296 58.12,100.630026 58.12,98.6329049 L58.12,93.7363496 L57.112,93.7363496 L57.112,98.620874 C57.112,100.088638 56.32,101.015013 54.844,101.015013 C53.368,101.015013 52.588,100.088638 52.588,98.620874 L52.588,93.7363496 L51.58,93.7363496 L51.58,98.6449357 C51.58,100.617995 52.684,101.905296 54.844,101.905296 Z M61.5479999,101.905296 C63.0359999,101.905296 63.8159999,101.12329 63.8159999,100.148792 C63.8159999,97.8869923 60.2279999,98.7171208 60.2279999,97.4538817 C60.2279999,96.9365553 60.7199999,96.5395373 61.5119999,96.5395373 C62.2679999,96.5395373 62.8919999,96.8523393 63.2399999,97.273419 L63.6599999,96.6478149 C63.2039999,96.1786118 62.5079999,95.8056555 61.5119999,95.8056555 C60.1319999,95.8056555 59.3639999,96.563599 59.3639999,97.4779434 C59.3639999,99.6314653 62.9519999,98.7652442 62.9519999,100.172853 C62.9519999,100.750334 62.4599999,101.171414 61.5719999,101.171414 C60.7799999,101.171414 60.0479999,100.786427 59.6639999,100.341285 L59.2079999,100.990951 C59.7959999,101.604524 60.5879999,101.905296 61.5479999,101.905296 Z M67.6519999,101.905296 C65.9239999,101.905296 64.6879999,100.666118 64.6879999,98.8494602 C64.6879999,97.1651414 65.8879999,95.8056555 67.5439999,95.8056555 C69.2959999,95.8056555 70.3279999,97.1771722 70.3279999,98.9216452 L70.3279999,99.1502314 L65.6479999,99.1502314 C65.7199999,100.245039 66.4759999,101.159383 67.7239999,101.159383 C68.3959999,101.159383 69.0559999,100.894704 69.5239999,100.41347 L69.9559999,101.002982 C69.3679999,101.580463 68.5879999,101.905296 67.6519999,101.905296 Z M69.4399999,98.4765039 C69.4279999,97.6223136 68.8519999,96.5515681 67.5319999,96.5515681 C66.2959999,96.5515681 65.6839999,97.5982519 65.6359999,98.4765039 L69.4399999,98.4765039 Z M72.4239999,101.760925 L72.4239999,97.6463753 C72.6879999,97.1771722 73.4439999,96.72 74.0079999,96.72 C74.1399999,96.72 74.2479999,96.7320308 74.3559999,96.7440617 L74.3559999,95.8176864 C73.5639999,95.8176864 72.8919999,96.2748586 72.4239999,96.876401 L72.4239999,95.9500257 L71.5239999,95.9500257 L71.5239999,101.760925 L72.4239999,101.760925 Z" id="New-User" fill="#979797"></path>
                <path d="M153.028,137.997841 C155.188,137.997841 155.98,136.794756 155.98,135.639794 C155.98,132.644113 151.24,133.678766 151.24,131.874139 C151.24,131.116195 151.936,130.598869 152.884,130.598869 C153.76,130.598869 154.6,130.887609 155.2,131.561337 L155.8,130.827455 C155.128,130.117635 154.18,129.696555 152.968,129.696555 C151.384,129.696555 150.208,130.6109 150.208,131.934293 C150.208,134.797635 154.948,133.642674 154.948,135.711979 C154.948,136.337584 154.492,137.107558 153.064,137.107558 C151.936,137.107558 151.072,136.554139 150.556,135.952596 L149.956,136.722571 C150.616,137.468483 151.648,137.997841 153.028,137.997841 Z M157.632,131.212442 C157.968,131.212442 158.232,130.947763 158.232,130.6109 C158.232,130.274036 157.968,129.997326 157.632,129.997326 C157.296,129.997326 157.02,130.274036 157.02,130.6109 C157.02,130.947763 157.296,131.212442 157.632,131.212442 Z M158.076,137.85347 L158.076,132.042571 L157.176,132.042571 L157.176,137.85347 L158.076,137.85347 Z M161.948,140.211517 C160.976,140.211517 160.304,140.019023 159.608,139.333265 L160.064,138.683599 C160.544,139.249049 161.12,139.465604 161.948,139.465604 C162.908,139.465604 163.82,138.996401 163.82,137.769254 L163.82,136.891003 C163.388,137.480514 162.68,137.925656 161.864,137.925656 C160.352,137.925656 159.284,136.794756 159.284,134.917943 C159.284,133.053162 160.34,131.898201 161.864,131.898201 C162.644,131.898201 163.352,132.283188 163.82,132.920823 L163.82,132.042571 L164.72,132.042571 L164.72,137.769254 C164.72,139.609974 163.364,140.211517 161.948,140.211517 Z M162.092,137.119589 C162.8,137.119589 163.496,136.686478 163.82,136.181183 L163.82,133.630643 C163.496,133.137378 162.8,132.704267 162.092,132.704267 C160.916,132.704267 160.22,133.630643 160.22,134.917943 C160.22,136.193213 160.916,137.119589 162.092,137.119589 Z M171.076,137.85347 L171.076,133.775013 C171.076,132.511774 170.44,131.898201 169.24,131.898201 C168.364,131.898201 167.572,132.391465 167.164,132.88473 L167.164,132.042571 L166.264,132.042571 L166.264,137.85347 L167.164,137.85347 L167.164,133.606581 C167.512,133.137378 168.172,132.704267 168.88,132.704267 C169.66,132.704267 170.188,133.017069 170.188,134.051722 L170.188,137.85347 L171.076,137.85347 Z M178.784,137.997841 C180.956,137.997841 182.06,136.722571 182.06,134.72545 L182.06,129.828895 L181.052,129.828895 L181.052,134.713419 C181.052,136.181183 180.26,137.107558 178.784,137.107558 C177.308,137.107558 176.528,136.181183 176.528,134.713419 L176.528,129.828895 L175.52,129.828895 L175.52,134.737481 C175.52,136.71054 176.624,137.997841 178.784,137.997841 Z M186.496,137.997841 C185.704,137.997841 185.02,137.612853 184.54,136.975219 L184.54,140.067147 L183.64,140.067147 L183.64,132.042571 L184.54,132.042571 L184.54,132.908792 C184.96,132.31928 185.68,131.898201 186.496,131.898201 C188.02,131.898201 189.076,133.053162 189.076,134.942005 C189.076,136.818817 188.02,137.997841 186.496,137.997841 Z M186.268,137.191774 C187.432,137.191774 188.128,136.229306 188.128,134.942005 C188.128,133.654704 187.432,132.704267 186.268,132.704267 C185.56,132.704267 184.852,133.125347 184.54,133.630643 L184.54,136.253368 C184.852,136.758663 185.56,137.191774 186.268,137.191774 Z" id="Sign-Up" fill="#979797"></path>
                <path d="M153.028,137.997841 C155.188,137.997841 155.98,136.794756 155.98,135.639794 C155.98,132.644113 151.24,133.678766 151.24,131.874139 C151.24,131.116195 151.936,130.598869 152.884,130.598869 C153.76,130.598869 154.6,130.887609 155.2,131.561337 L155.8,130.827455 C155.128,130.117635 154.18,129.696555 152.968,129.696555 C151.384,129.696555 150.208,130.6109 150.208,131.934293 C150.208,134.797635 154.948,133.642674 154.948,135.711979 C154.948,136.337584 154.492,137.107558 153.064,137.107558 C151.936,137.107558 151.072,136.554139 150.556,135.952596 L149.956,136.722571 C150.616,137.468483 151.648,137.997841 153.028,137.997841 Z M157.632,131.212442 C157.968,131.212442 158.232,130.947763 158.232,130.6109 C158.232,130.274036 157.968,129.997326 157.632,129.997326 C157.296,129.997326 157.02,130.274036 157.02,130.6109 C157.02,130.947763 157.296,131.212442 157.632,131.212442 Z M158.076,137.85347 L158.076,132.042571 L157.176,132.042571 L157.176,137.85347 L158.076,137.85347 Z M161.948,140.211517 C160.976,140.211517 160.304,140.019023 159.608,139.333265 L160.064,138.683599 C160.544,139.249049 161.12,139.465604 161.948,139.465604 C162.908,139.465604 163.82,138.996401 163.82,137.769254 L163.82,136.891003 C163.388,137.480514 162.68,137.925656 161.864,137.925656 C160.352,137.925656 159.284,136.794756 159.284,134.917943 C159.284,133.053162 160.34,131.898201 161.864,131.898201 C162.644,131.898201 163.352,132.283188 163.82,132.920823 L163.82,132.042571 L164.72,132.042571 L164.72,137.769254 C164.72,139.609974 163.364,140.211517 161.948,140.211517 Z M162.092,137.119589 C162.8,137.119589 163.496,136.686478 163.82,136.181183 L163.82,133.630643 C163.496,133.137378 162.8,132.704267 162.092,132.704267 C160.916,132.704267 160.22,133.630643 160.22,134.917943 C160.22,136.193213 160.916,137.119589 162.092,137.119589 Z M171.076,137.85347 L171.076,133.775013 C171.076,132.511774 170.44,131.898201 169.24,131.898201 C168.364,131.898201 167.572,132.391465 167.164,132.88473 L167.164,132.042571 L166.264,132.042571 L166.264,137.85347 L167.164,137.85347 L167.164,133.606581 C167.512,133.137378 168.172,132.704267 168.88,132.704267 C169.66,132.704267 170.188,133.017069 170.188,134.051722 L170.188,137.85347 L171.076,137.85347 Z M178.784,137.997841 C180.956,137.997841 182.06,136.722571 182.06,134.72545 L182.06,129.828895 L181.052,129.828895 L181.052,134.713419 C181.052,136.181183 180.26,137.107558 178.784,137.107558 C177.308,137.107558 176.528,136.181183 176.528,134.713419 L176.528,129.828895 L175.52,129.828895 L175.52,134.737481 C175.52,136.71054 176.624,137.997841 178.784,137.997841 Z M186.496,137.997841 C185.704,137.997841 185.02,137.612853 184.54,136.975219 L184.54,140.067147 L183.64,140.067147 L183.64,132.042571 L184.54,132.042571 L184.54,132.908792 C184.96,132.31928 185.68,131.898201 186.496,131.898201 C188.02,131.898201 189.076,133.053162 189.076,134.942005 C189.076,136.818817 188.02,137.997841 186.496,137.997841 Z M186.268,137.191774 C187.432,137.191774 188.128,136.229306 188.128,134.942005 C188.128,133.654704 187.432,132.704267 186.268,132.704267 C185.56,132.704267 184.852,133.125347 184.54,133.630643 L184.54,136.253368 C184.852,136.758663 185.56,137.191774 186.268,137.191774 Z" id="Sign-Up" fill="#979797"></path>
                <path d="M268.672,110.784062 L265.936,110.784062 L265.936,102.759486 L268.672,102.759486 C271.168,102.759486 272.776,104.503959 272.776,106.777789 C272.776,109.06365 271.168,110.784062 268.672,110.784062 Z M268.672,109.893779 C270.616,109.893779 271.744,108.498201 271.744,106.777789 C271.744,105.045347 270.652,103.649769 268.672,103.649769 L266.932,103.649769 L266.932,109.893779 L268.672,109.893779 Z M278.568,110.784062 L277.668,110.784062 L277.668,110.122365 C277.2,110.651722 276.528,110.928432 275.748,110.928432 C274.776,110.928432 273.732,110.266735 273.732,109.003496 C273.732,107.692134 274.764,107.090591 275.748,107.090591 C276.54,107.090591 277.2,107.343239 277.668,107.872596 L277.668,106.825913 C277.668,106.055938 277.044,105.610797 276.204,105.610797 C275.508,105.610797 274.944,105.851414 274.428,106.416864 L274.008,105.79126 C274.632,105.141594 275.376,104.828792 276.324,104.828792 C277.56,104.828792 278.568,105.382211 278.568,106.78982 L278.568,110.784062 Z M276.084,110.278766 C276.708,110.278766 277.32,110.038149 277.668,109.556915 L277.668,108.450077 C277.32,107.980874 276.708,107.740257 276.084,107.740257 C275.232,107.740257 274.644,108.269614 274.644,109.003496 C274.644,109.749409 275.232,110.278766 276.084,110.278766 Z M281.972,110.928432 C283.46,110.928432 284.24,110.146427 284.24,109.171928 C284.24,106.910129 280.652,107.740257 280.652,106.477018 C280.652,105.959692 281.144,105.562674 281.936,105.562674 C282.692,105.562674 283.316,105.875476 283.664,106.296555 L284.084,105.670951 C283.628,105.201748 282.932,104.828792 281.936,104.828792 C280.556,104.828792 279.788,105.586735 279.788,106.50108 C279.788,108.654602 283.376,107.78838 283.376,109.19599 C283.376,109.77347 282.884,110.19455 281.996,110.19455 C281.204,110.19455 280.472,109.809563 280.088,109.364422 L279.632,110.014087 C280.22,110.627661 281.012,110.928432 281.972,110.928432 Z M290.272,110.784062 L290.272,106.681542 C290.272,105.418303 289.636,104.828792 288.424,104.828792 C287.548,104.828792 286.756,105.322057 286.36,105.815321 L286.36,102.759486 L285.46,102.759486 L285.46,110.784062 L286.36,110.784062 L286.36,106.537172 C286.696,106.067969 287.368,105.634859 288.064,105.634859 C288.856,105.634859 289.372,105.923599 289.372,106.958252 L289.372,110.784062 L290.272,110.784062 Z M292.716,109.208021 C293.028,109.713316 293.736,110.122365 294.456,110.122365 C295.62,110.122365 296.316,109.171928 296.316,107.884627 C296.316,106.597326 295.62,105.634859 294.456,105.634859 C293.736,105.634859 293.028,106.067969 292.716,106.573265 L292.716,109.208021 Z M292.716,110.784062 L291.816,110.784062 L291.816,102.759486 L292.716,102.759486 L292.716,105.851414 C293.184,105.213779 293.892,104.828792 294.672,104.828792 C296.196,104.828792 297.252,106.019846 297.252,107.884627 C297.252,109.77347 296.184,110.928432 294.672,110.928432 C293.856,110.928432 293.148,110.507352 292.716,109.917841 L292.716,110.784062 Z M300.992,110.928432 C299.228,110.928432 298.124,109.556915 298.124,107.872596 C298.124,106.188278 299.228,104.828792 300.992,104.828792 C302.756,104.828792 303.86,106.188278 303.86,107.872596 C303.86,109.556915 302.756,110.928432 300.992,110.928432 Z M300.992,110.122365 C302.228,110.122365 302.912,109.06365 302.912,107.872596 C302.912,106.693573 302.228,105.634859 300.992,105.634859 C299.756,105.634859 299.072,106.693573 299.072,107.872596 C299.072,109.06365 299.756,110.122365 300.992,110.122365 Z M309.592,110.784062 L308.692,110.784062 L308.692,110.122365 C308.224,110.651722 307.552,110.928432 306.772,110.928432 C305.8,110.928432 304.756,110.266735 304.756,109.003496 C304.756,107.692134 305.788,107.090591 306.772,107.090591 C307.564,107.090591 308.224,107.343239 308.692,107.872596 L308.692,106.825913 C308.692,106.055938 308.068,105.610797 307.228,105.610797 C306.532,105.610797 305.968,105.851414 305.452,106.416864 L305.032,105.79126 C305.656,105.141594 306.4,104.828792 307.348,104.828792 C308.584,104.828792 309.592,105.382211 309.592,106.78982 L309.592,110.784062 Z M307.108,110.278766 C307.732,110.278766 308.344,110.038149 308.692,109.556915 L308.692,108.450077 C308.344,107.980874 307.732,107.740257 307.108,107.740257 C306.256,107.740257 305.668,108.269614 305.668,109.003496 C305.668,109.749409 306.256,110.278766 307.108,110.278766 Z M312.048,110.784062 L312.048,106.669512 C312.312,106.200308 313.068,105.743136 313.632,105.743136 C313.764,105.743136 313.872,105.755167 313.98,105.767198 L313.98,104.840823 C313.188,104.840823 312.516,105.297995 312.048,105.899537 L312.048,104.973162 L311.148,104.973162 L311.148,110.784062 L312.048,110.784062 Z M319.952,110.784062 L319.052,110.784062 L319.052,109.917841 C318.62,110.507352 317.912,110.928432 317.096,110.928432 C315.584,110.928432 314.516,109.77347 314.516,107.884627 C314.516,106.019846 315.584,104.828792 317.096,104.828792 C317.876,104.828792 318.584,105.213779 319.052,105.851414 L319.052,102.759486 L319.952,102.759486 L319.952,110.784062 Z M317.324,110.122365 C318.032,110.122365 318.74,109.701285 319.052,109.19599 L319.052,106.573265 C318.74,106.067969 318.032,105.634859 317.324,105.634859 C316.148,105.634859 315.452,106.597326 315.452,107.884627 C315.452,109.171928 316.148,110.122365 317.324,110.122365 Z" id="Dashboard" fill="#979797"></path>
                <path d="M398.172,23.5604113 L395.436,23.5604113 L395.436,15.5358355 L398.172,15.5358355 C400.668,15.5358355 402.276,17.2803085 402.276,19.5541388 C402.276,21.84 400.668,23.5604113 398.172,23.5604113 Z M398.172,22.6701285 C400.116,22.6701285 401.244,21.2745501 401.244,19.5541388 C401.244,17.8216967 400.152,16.4261183 398.172,16.4261183 L396.432,16.4261183 L396.432,22.6701285 L398.172,22.6701285 Z M406.172,23.7047815 C404.444,23.7047815 403.208,22.4656041 403.208,20.648946 C403.208,18.9646272 404.408,17.6051414 406.064,17.6051414 C407.816,17.6051414 408.848,18.9766581 408.848,20.7211311 L408.848,20.9497172 L404.168,20.9497172 C404.24,22.0445244 404.996,22.9588689 406.244,22.9588689 C406.916,22.9588689 407.576,22.6941902 408.044,22.2129563 L408.476,22.8024679 C407.888,23.3799486 407.108,23.7047815 406.172,23.7047815 Z M407.96,20.2759897 C407.948,19.4217995 407.372,18.351054 406.052,18.351054 C404.816,18.351054 404.204,19.3977378 404.156,20.2759897 L407.96,20.2759897 Z M414.568,23.5604113 L413.668,23.5604113 L413.668,22.8987147 C413.2,23.428072 412.528,23.7047815 411.748,23.7047815 C410.776,23.7047815 409.732,23.0430848 409.732,21.7798458 C409.732,20.4684833 410.764,19.8669409 411.748,19.8669409 C412.54,19.8669409 413.2,20.1195887 413.668,20.648946 L413.668,19.6022622 C413.668,18.8322879 413.044,18.3871465 412.204,18.3871465 C411.508,18.3871465 410.944,18.6277635 410.428,19.1932134 L410.008,18.5676093 C410.632,17.9179434 411.376,17.6051414 412.324,17.6051414 C413.56,17.6051414 414.568,18.1585604 414.568,19.5661697 L414.568,23.5604113 Z M412.084,23.0551157 C412.708,23.0551157 413.32,22.8144987 413.668,22.3332648 L413.668,21.2264267 C413.32,20.7572237 412.708,20.5166067 412.084,20.5166067 C411.232,20.5166067 410.644,21.045964 410.644,21.7798458 C410.644,22.5257584 411.232,23.0551157 412.084,23.0551157 Z M418.68,23.7047815 C419.736,23.7047815 420.36,23.271671 420.804,22.6941902 L420.204,22.1407712 C419.82,22.6580977 419.328,22.8987147 418.728,22.8987147 C417.504,22.8987147 416.724,21.9362468 416.724,20.648946 C416.724,19.3616452 417.504,18.4112082 418.728,18.4112082 C419.328,18.4112082 419.82,18.6277635 420.204,19.1571208 L420.804,18.6157326 C420.36,18.0382519 419.736,17.6051414 418.68,17.6051414 C416.952,17.6051414 415.788,18.9285347 415.788,20.648946 C415.788,22.3693573 416.952,23.7047815 418.68,23.7047815 Z M423.296,23.7047815 C423.812,23.7047815 424.136,23.5483805 424.364,23.3318252 L424.1,22.6460668 C423.98,22.7784062 423.752,22.8987147 423.488,22.8987147 C423.104,22.8987147 422.912,22.5859126 422.912,22.1528021 L422.912,18.5435476 L424.088,18.5435476 L424.088,17.7495116 L422.912,17.7495116 L422.912,16.1614396 L422,16.1614396 L422,17.7495116 L421.04,17.7495116 L421.04,18.5435476 L422,18.5435476 L422,22.3452956 C422,23.2115167 422.432,23.7047815 423.296,23.7047815 Z M425.548,16.919383 C425.884,16.919383 426.148,16.6547044 426.148,16.3178406 C426.148,15.9809769 425.884,15.7042674 425.548,15.7042674 C425.212,15.7042674 424.936,15.9809769 424.936,16.3178406 C424.936,16.6547044 425.212,16.919383 425.548,16.919383 Z M425.992,23.5604113 L425.992,17.7495116 L425.092,17.7495116 L425.092,23.5604113 L425.992,23.5604113 Z M430.068,23.5604113 L432.48,17.7495116 L431.508,17.7495116 L429.576,22.5137275 L427.656,17.7495116 L426.672,17.7495116 L429.084,23.5604113 L430.068,23.5604113 Z M437.684,23.5604113 L436.784,23.5604113 L436.784,22.8987147 C436.316,23.428072 435.644,23.7047815 434.864,23.7047815 C433.892,23.7047815 432.848,23.0430848 432.848,21.7798458 C432.848,20.4684833 433.88,19.8669409 434.864,19.8669409 C435.656,19.8669409 436.316,20.1195887 436.784,20.648946 L436.784,19.6022622 C436.784,18.8322879 436.16,18.3871465 435.32,18.3871465 C434.624,18.3871465 434.06,18.6277635 433.544,19.1932134 L433.124,18.5676093 C433.748,17.9179434 434.492,17.6051414 435.44,17.6051414 C436.676,17.6051414 437.684,18.1585604 437.684,19.5661697 L437.684,23.5604113 Z M435.2,23.0551157 C435.824,23.0551157 436.436,22.8144987 436.784,22.3332648 L436.784,21.2264267 C436.436,20.7572237 435.824,20.5166067 435.2,20.5166067 C434.348,20.5166067 433.76,21.045964 433.76,21.7798458 C433.76,22.5257584 434.348,23.0551157 435.2,23.0551157 Z M440.716,23.7047815 C441.232,23.7047815 441.556,23.5483805 441.784,23.3318252 L441.52,22.6460668 C441.4,22.7784062 441.172,22.8987147 440.908,22.8987147 C440.524,22.8987147 440.332,22.5859126 440.332,22.1528021 L440.332,18.5435476 L441.508,18.5435476 L441.508,17.7495116 L440.332,17.7495116 L440.332,16.1614396 L439.42,16.1614396 L439.42,17.7495116 L438.46,17.7495116 L438.46,18.5435476 L439.42,18.5435476 L439.42,22.3452956 C439.42,23.2115167 439.852,23.7047815 440.716,23.7047815 Z M445.14,23.7047815 C443.412,23.7047815 442.176,22.4656041 442.176,20.648946 C442.176,18.9646272 443.376,17.6051414 445.032,17.6051414 C446.784,17.6051414 447.816,18.9766581 447.816,20.7211311 L447.816,20.9497172 L443.136,20.9497172 C443.208,22.0445244 443.964,22.9588689 445.212,22.9588689 C445.884,22.9588689 446.544,22.6941902 447.012,22.2129563 L447.444,22.8024679 C446.856,23.3799486 446.076,23.7047815 445.14,23.7047815 Z M446.928,20.2759897 C446.916,19.4217995 446.34,18.351054 445.02,18.351054 C443.784,18.351054 443.172,19.3977378 443.124,20.2759897 L446.928,20.2759897 Z M403.076,38.0976864 L403.076,33.9951671 C403.076,32.731928 402.44,32.1424165 401.228,32.1424165 C400.352,32.1424165 399.56,32.6356812 399.164,33.128946 L399.164,30.0731105 L398.264,30.0731105 L398.264,38.0976864 L399.164,38.0976864 L399.164,33.8507969 C399.5,33.3815938 400.172,32.9484833 400.868,32.9484833 C401.66,32.9484833 402.176,33.2372237 402.176,34.2718766 L402.176,38.0976864 L403.076,38.0976864 Z M407.248,38.2420566 C405.52,38.2420566 404.284,37.0028792 404.284,35.1862211 C404.284,33.5019023 405.484,32.1424165 407.14,32.1424165 C408.892,32.1424165 409.924,33.5139332 409.924,35.2584062 L409.924,35.4869923 L405.244,35.4869923 C405.316,36.5817995 406.072,37.496144 407.32,37.496144 C407.992,37.496144 408.652,37.2314653 409.12,36.7502314 L409.552,37.3397429 C408.964,37.9172237 408.184,38.2420566 407.248,38.2420566 Z M409.036,34.8132648 C409.024,33.9590746 408.448,32.888329 407.128,32.888329 C405.892,32.888329 405.28,33.9350129 405.232,34.8132648 L409.036,34.8132648 Z M412.02,38.0976864 L412.02,30.0731105 L411.12,30.0731105 L411.12,38.0976864 L412.02,38.0976864 Z M416.42,38.2420566 C415.628,38.2420566 414.944,37.8570694 414.464,37.2194344 L414.464,40.3113625 L413.564,40.3113625 L413.564,32.2867866 L414.464,32.2867866 L414.464,33.1530077 C414.884,32.5634961 415.604,32.1424165 416.42,32.1424165 C417.944,32.1424165 419,33.2973779 419,35.1862211 C419,37.0630334 417.944,38.2420566 416.42,38.2420566 Z M416.192,37.4359897 C417.356,37.4359897 418.052,36.4735219 418.052,35.1862211 C418.052,33.8989203 417.356,32.9484833 416.192,32.9484833 C415.484,32.9484833 414.776,33.369563 414.464,33.8748586 L414.464,36.4975835 C414.776,37.0028792 415.484,37.4359897 416.192,37.4359897 Z M425.58,38.2420566 C426.636,38.2420566 427.26,37.808946 427.704,37.2314653 L427.104,36.6780463 C426.72,37.1953728 426.228,37.4359897 425.628,37.4359897 C424.404,37.4359897 423.624,36.4735219 423.624,35.1862211 C423.624,33.8989203 424.404,32.9484833 425.628,32.9484833 C426.228,32.9484833 426.72,33.1650386 427.104,33.6943959 L427.704,33.1530077 C427.26,32.575527 426.636,32.1424165 425.58,32.1424165 C423.852,32.1424165 422.688,33.4658098 422.688,35.1862211 C422.688,36.9066324 423.852,38.2420566 425.58,38.2420566 Z M433.532,38.0976864 L433.532,32.2867866 L432.632,32.2867866 L432.632,36.5577378 C432.296,37.0269409 431.624,37.4359897 430.928,37.4359897 C430.136,37.4359897 429.62,37.1352185 429.62,36.1125964 L429.62,32.2867866 L428.72,32.2867866 L428.72,36.3893059 C428.72,37.6405141 429.356,38.2420566 430.568,38.2420566 C431.432,38.2420566 432.188,37.7848843 432.632,37.2795887 L432.632,38.0976864 L433.532,38.0976864 Z M437.704,38.2420566 C435.976,38.2420566 434.74,37.0028792 434.74,35.1862211 C434.74,33.5019023 435.94,32.1424165 437.596,32.1424165 C439.348,32.1424165 440.38,33.5139332 440.38,35.2584062 L440.38,35.4869923 L435.7,35.4869923 C435.772,36.5817995 436.528,37.496144 437.776,37.496144 C438.448,37.496144 439.108,37.2314653 439.576,36.7502314 L440.008,37.3397429 C439.42,37.9172237 438.64,38.2420566 437.704,38.2420566 Z M439.492,34.8132648 C439.48,33.9590746 438.904,32.888329 437.584,32.888329 C436.348,32.888329 435.736,33.9350129 435.688,34.8132648 L439.492,34.8132648 Z M443.424,38.2420566 C444.912,38.2420566 445.692,37.4600514 445.692,36.4855527 C445.692,34.2237532 442.104,35.0538817 442.104,33.7906427 C442.104,33.2733162 442.596,32.8762982 443.388,32.8762982 C444.144,32.8762982 444.768,33.1891003 445.116,33.6101799 L445.536,32.9845758 C445.08,32.5153728 444.384,32.1424165 443.388,32.1424165 C442.008,32.1424165 441.24,32.9003599 441.24,33.8147044 C441.24,35.9682262 444.828,35.1020051 444.828,36.5096144 C444.828,37.0870951 444.336,37.5081748 443.448,37.5081748 C442.656,37.5081748 441.924,37.1231877 441.54,36.6780463 L441.084,37.3277121 C441.672,37.9412853 442.464,38.2420566 443.424,38.2420566 Z" id="Deactivate-help-cues" fill="#979797"></path>
                <path d="M397.636,105.269923 L399.928,97.245347 L398.812,97.245347 L397.048,103.934499 L395.212,97.245347 L394.384,97.245347 L392.548,103.934499 L390.772,97.245347 L389.668,97.245347 L391.948,105.269923 L393.028,105.269923 L394.792,98.7973265 L396.556,105.269923 L397.636,105.269923 Z M404.784,105.269923 L403.884,105.269923 L403.884,104.608226 C403.416,105.137584 402.744,105.414293 401.964,105.414293 C400.992,105.414293 399.948,104.752596 399.948,103.489357 C399.948,102.177995 400.98,101.576452 401.964,101.576452 C402.756,101.576452 403.416,101.8291 403.884,102.358458 L403.884,101.311774 C403.884,100.541799 403.26,100.096658 402.42,100.096658 C401.724,100.096658 401.16,100.337275 400.644,100.902725 L400.224,100.277121 C400.848,99.627455 401.592,99.314653 402.54,99.314653 C403.776,99.314653 404.784,99.868072 404.784,101.275681 L404.784,105.269923 Z M402.3,104.764627 C402.924,104.764627 403.536,104.52401 403.884,104.042776 L403.884,102.935938 C403.536,102.466735 402.924,102.226118 402.3,102.226118 C401.448,102.226118 400.86,102.755476 400.86,103.489357 C400.86,104.23527 401.448,104.764627 402.3,104.764627 Z M407.24,105.269923 L407.24,97.245347 L406.34,97.245347 L406.34,105.269923 L407.24,105.269923 Z M413.884,105.269923 L411.304,102.093779 L413.872,99.4590231 L412.732,99.4590231 L409.684,102.550951 L409.684,97.245347 L408.784,97.245347 L408.784,105.269923 L409.684,105.269923 L409.684,103.609666 L410.656,102.659229 L412.732,105.269923 L413.884,105.269923 Z M416.172,105.414293 C416.688,105.414293 417.012,105.257892 417.24,105.041337 L416.976,104.355578 C416.856,104.487918 416.628,104.608226 416.364,104.608226 C415.98,104.608226 415.788,104.295424 415.788,103.862314 L415.788,100.253059 L416.964,100.253059 L416.964,99.4590231 L415.788,99.4590231 L415.788,97.8709512 L414.876,97.8709512 L414.876,99.4590231 L413.916,99.4590231 L413.916,100.253059 L414.876,100.253059 L414.876,104.054807 C414.876,104.921028 415.308,105.414293 416.172,105.414293 Z M422.792,105.269923 L422.792,101.167404 C422.792,99.9041645 422.156,99.314653 420.944,99.314653 C420.068,99.314653 419.276,99.8079177 418.88,100.301183 L418.88,97.245347 L417.98,97.245347 L417.98,105.269923 L418.88,105.269923 L418.88,101.023033 C419.216,100.55383 419.888,100.12072 420.584,100.12072 C421.376,100.12072 421.892,100.40946 421.892,101.444113 L421.892,105.269923 L422.792,105.269923 Z M425.236,105.269923 L425.236,101.155373 C425.5,100.68617 426.256,100.228997 426.82,100.228997 C426.952,100.228997 427.06,100.241028 427.168,100.253059 L427.168,99.3266838 C426.376,99.3266838 425.704,99.783856 425.236,100.385398 L425.236,99.4590231 L424.336,99.4590231 L424.336,105.269923 L425.236,105.269923 Z M430.572,105.414293 C428.808,105.414293 427.704,104.042776 427.704,102.358458 C427.704,100.674139 428.808,99.314653 430.572,99.314653 C432.336,99.314653 433.44,100.674139 433.44,102.358458 C433.44,104.042776 432.336,105.414293 430.572,105.414293 Z M430.572,104.608226 C431.808,104.608226 432.492,103.549512 432.492,102.358458 C432.492,101.179434 431.808,100.12072 430.572,100.12072 C429.336,100.12072 428.652,101.179434 428.652,102.358458 C428.652,103.549512 429.336,104.608226 430.572,104.608226 Z M439.46,105.269923 L439.46,99.4590231 L438.56,99.4590231 L438.56,103.729974 C438.224,104.199177 437.552,104.608226 436.856,104.608226 C436.064,104.608226 435.548,104.307455 435.548,103.284833 L435.548,99.4590231 L434.648,99.4590231 L434.648,103.561542 C434.648,104.812751 435.284,105.414293 436.496,105.414293 C437.36,105.414293 438.116,104.957121 438.56,104.451825 L438.56,105.269923 L439.46,105.269923 Z M443.332,107.627969 C442.36,107.627969 441.688,107.435476 440.992,106.749717 L441.448,106.100051 C441.928,106.665501 442.504,106.882057 443.332,106.882057 C444.292,106.882057 445.204,106.412853 445.204,105.185707 L445.204,104.307455 C444.772,104.896967 444.064,105.342108 443.248,105.342108 C441.736,105.342108 440.668,104.211208 440.668,102.334396 C440.668,100.469614 441.724,99.314653 443.248,99.314653 C444.028,99.314653 444.736,99.6996401 445.204,100.337275 L445.204,99.4590231 L446.104,99.4590231 L446.104,105.185707 C446.104,107.026427 444.748,107.627969 443.332,107.627969 Z M443.476,104.536041 C444.184,104.536041 444.88,104.102931 445.204,103.597635 L445.204,101.047095 C444.88,100.55383 444.184,100.12072 443.476,100.12072 C442.3,100.12072 441.604,101.047095 441.604,102.334396 C441.604,103.609666 442.3,104.536041 443.476,104.536041 Z M452.472,105.269923 L452.472,101.167404 C452.472,99.9041645 451.836,99.314653 450.624,99.314653 C449.748,99.314653 448.956,99.8079177 448.56,100.301183 L448.56,97.245347 L447.66,97.245347 L447.66,105.269923 L448.56,105.269923 L448.56,101.023033 C448.896,100.55383 449.568,100.12072 450.264,100.12072 C451.056,100.12072 451.572,100.40946 451.572,101.444113 L451.572,105.269923 L452.472,105.269923 Z" id="Walkthrough" fill="#979797"></path>
                <path d="M396.516,166.426735 L395.376,166.426735 L394.668,164.634139 L390.684,164.634139 L389.976,166.426735 L388.836,166.426735 L392.064,158.402159 L393.3,158.402159 L396.516,166.426735 Z M394.38,163.755887 L392.676,159.424781 L390.984,163.755887 L394.38,163.755887 Z M399.824,166.571105 C400.88,166.571105 401.504,166.137995 401.948,165.560514 L401.348,165.007095 C400.964,165.524422 400.472,165.765039 399.872,165.765039 C398.648,165.765039 397.868,164.802571 397.868,163.51527 C397.868,162.227969 398.648,161.277532 399.872,161.277532 C400.472,161.277532 400.964,161.494087 401.348,162.023445 L401.948,161.482057 C401.504,160.904576 400.88,160.471465 399.824,160.471465 C398.096,160.471465 396.932,161.794859 396.932,163.51527 C396.932,165.235681 398.096,166.571105 399.824,166.571105 Z M404.44,166.571105 C404.956,166.571105 405.28,166.414704 405.508,166.198149 L405.244,165.512391 C405.124,165.64473 404.896,165.765039 404.632,165.765039 C404.248,165.765039 404.056,165.452237 404.056,165.019126 L404.056,161.409871 L405.232,161.409871 L405.232,160.615835 L404.056,160.615835 L404.056,159.027763 L403.144,159.027763 L403.144,160.615835 L402.184,160.615835 L402.184,161.409871 L403.144,161.409871 L403.144,165.21162 C403.144,166.077841 403.576,166.571105 404.44,166.571105 Z M406.692,159.785707 C407.028,159.785707 407.292,159.521028 407.292,159.184165 C407.292,158.847301 407.028,158.570591 406.692,158.570591 C406.356,158.570591 406.08,158.847301 406.08,159.184165 C406.08,159.521028 406.356,159.785707 406.692,159.785707 Z M407.136,166.426735 L407.136,160.615835 L406.236,160.615835 L406.236,166.426735 L407.136,166.426735 Z M411.212,166.426735 L413.624,160.615835 L412.652,160.615835 L410.72,165.380051 L408.8,160.615835 L407.816,160.615835 L410.228,166.426735 L411.212,166.426735 Z M418.828,166.426735 L417.928,166.426735 L417.928,165.765039 C417.46,166.294396 416.788,166.571105 416.008,166.571105 C415.036,166.571105 413.992,165.909409 413.992,164.64617 C413.992,163.334807 415.024,162.733265 416.008,162.733265 C416.8,162.733265 417.46,162.985913 417.928,163.51527 L417.928,162.468586 C417.928,161.698612 417.304,161.25347 416.464,161.25347 C415.768,161.25347 415.204,161.494087 414.688,162.059537 L414.268,161.433933 C414.892,160.784267 415.636,160.471465 416.584,160.471465 C417.82,160.471465 418.828,161.024884 418.828,162.432494 L418.828,166.426735 Z M416.344,165.92144 C416.968,165.92144 417.58,165.680823 417.928,165.199589 L417.928,164.092751 C417.58,163.623548 416.968,163.382931 416.344,163.382931 C415.492,163.382931 414.904,163.912288 414.904,164.64617 C414.904,165.392082 415.492,165.92144 416.344,165.92144 Z M421.86,166.571105 C422.376,166.571105 422.7,166.414704 422.928,166.198149 L422.664,165.512391 C422.544,165.64473 422.316,165.765039 422.052,165.765039 C421.668,165.765039 421.476,165.452237 421.476,165.019126 L421.476,161.409871 L422.652,161.409871 L422.652,160.615835 L421.476,160.615835 L421.476,159.027763 L420.564,159.027763 L420.564,160.615835 L419.604,160.615835 L419.604,161.409871 L420.564,161.409871 L420.564,165.21162 C420.564,166.077841 420.996,166.571105 421.86,166.571105 Z M426.284,166.571105 C424.556,166.571105 423.32,165.331928 423.32,163.51527 C423.32,161.830951 424.52,160.471465 426.176,160.471465 C427.928,160.471465 428.96,161.842982 428.96,163.587455 L428.96,163.816041 L424.28,163.816041 C424.352,164.910848 425.108,165.825193 426.356,165.825193 C427.028,165.825193 427.688,165.560514 428.156,165.07928 L428.588,165.668792 C428,166.246272 427.22,166.571105 426.284,166.571105 Z M428.072,163.142314 C428.06,162.288123 427.484,161.217378 426.164,161.217378 C424.928,161.217378 424.316,162.264062 424.268,163.142314 L428.072,163.142314 Z M437.832,166.426735 L437.832,162.324216 C437.832,161.060977 437.196,160.471465 435.984,160.471465 C435.108,160.471465 434.316,160.96473 433.92,161.457995 L433.92,158.402159 L433.02,158.402159 L433.02,166.426735 L433.92,166.426735 L433.92,162.179846 C434.256,161.710643 434.928,161.277532 435.624,161.277532 C436.416,161.277532 436.932,161.566272 436.932,162.600925 L436.932,166.426735 L437.832,166.426735 Z M442.004,166.571105 C440.276,166.571105 439.04,165.331928 439.04,163.51527 C439.04,161.830951 440.24,160.471465 441.896,160.471465 C443.648,160.471465 444.68,161.842982 444.68,163.587455 L444.68,163.816041 L440,163.816041 C440.072,164.910848 440.828,165.825193 442.076,165.825193 C442.748,165.825193 443.408,165.560514 443.876,165.07928 L444.308,165.668792 C443.72,166.246272 442.94,166.571105 442.004,166.571105 Z M443.792,163.142314 C443.78,162.288123 443.204,161.217378 441.884,161.217378 C440.648,161.217378 440.036,162.264062 439.988,163.142314 L443.792,163.142314 Z M446.776,166.426735 L446.776,158.402159 L445.876,158.402159 L445.876,166.426735 L446.776,166.426735 Z M451.176,166.571105 C450.384,166.571105 449.7,166.186118 449.22,165.548483 L449.22,168.640411 L448.32,168.640411 L448.32,160.615835 L449.22,160.615835 L449.22,161.482057 C449.64,160.892545 450.36,160.471465 451.176,160.471465 C452.7,160.471465 453.756,161.626427 453.756,163.51527 C453.756,165.392082 452.7,166.571105 451.176,166.571105 Z M450.948,165.765039 C452.112,165.765039 452.808,164.802571 452.808,163.51527 C452.808,162.227969 452.112,161.277532 450.948,161.277532 C450.24,161.277532 449.532,161.698612 449.22,162.203907 L449.22,164.826632 C449.532,165.331928 450.24,165.765039 450.948,165.765039 Z M412.768,181.10838 C413.824,181.10838 414.448,180.67527 414.892,180.097789 L414.292,179.54437 C413.908,180.061697 413.416,180.302314 412.816,180.302314 C411.592,180.302314 410.812,179.339846 410.812,178.052545 C410.812,176.765244 411.592,175.814807 412.816,175.814807 C413.416,175.814807 413.908,176.031362 414.292,176.56072 L414.892,176.019332 C414.448,175.441851 413.824,175.00874 412.768,175.00874 C411.04,175.00874 409.876,176.332134 409.876,178.052545 C409.876,179.772956 411.04,181.10838 412.768,181.10838 Z M420.72,180.96401 L420.72,175.153111 L419.82,175.153111 L419.82,179.424062 C419.484,179.893265 418.812,180.302314 418.116,180.302314 C417.324,180.302314 416.808,180.001542 416.808,178.97892 L416.808,175.153111 L415.908,175.153111 L415.908,179.25563 C415.908,180.506838 416.544,181.10838 417.756,181.10838 C418.62,181.10838 419.376,180.651208 419.82,180.145913 L419.82,180.96401 L420.72,180.96401 Z M424.892,181.10838 C423.164,181.10838 421.928,179.869203 421.928,178.052545 C421.928,176.368226 423.128,175.00874 424.784,175.00874 C426.536,175.00874 427.568,176.380257 427.568,178.12473 L427.568,178.353316 L422.888,178.353316 C422.96,179.448123 423.716,180.362468 424.964,180.362468 C425.636,180.362468 426.296,180.097789 426.764,179.616555 L427.196,180.206067 C426.608,180.783548 425.828,181.10838 424.892,181.10838 Z M426.68,177.679589 C426.668,176.825398 426.092,175.754653 424.772,175.754653 C423.536,175.754653 422.924,176.801337 422.876,177.679589 L426.68,177.679589 Z M430.612,181.10838 C432.1,181.10838 432.88,180.326375 432.88,179.351877 C432.88,177.090077 429.292,177.920206 429.292,176.656967 C429.292,176.13964 429.784,175.742622 430.576,175.742622 C431.332,175.742622 431.956,176.055424 432.304,176.476504 L432.724,175.8509 C432.268,175.381697 431.572,175.00874 430.576,175.00874 C429.196,175.00874 428.428,175.766684 428.428,176.681028 C428.428,178.83455 432.016,177.968329 432.016,179.375938 C432.016,179.953419 431.524,180.374499 430.636,180.374499 C429.844,180.374499 429.112,179.989512 428.728,179.54437 L428.272,180.194036 C428.86,180.807609 429.652,181.10838 430.612,181.10838 Z" id="Activate-help-cues" fill="#979797"></path>
                <rect id="Rectangle-27" stroke="#979797" stroke-width="0.5" x="120.25" y="34.8386889" width="98.5" height="51.6336761" rx="8.54999977"></rect>
                <rect id="Rectangle-27" stroke="#979797" stroke-width="0.5" x="0.25" y="70.9312339" width="98.5" height="51.6336761" rx="8.54999977"></rect>
                <rect id="Rectangle-27" stroke="#979797" stroke-width="0.5" x="243.75" y="79.9543702" width="98.5" height="51.6336761" rx="8.54999977"></rect>
                <rect id="Rectangle-27" stroke="#979797" stroke-width="0.5" x="120.25" y="107.023779" width="98.5" height="51.6336761" rx="8.54999977"></rect>
                <path d="M218.728261,58.9010283 L228.771739,58.9010283" id="Line" stroke="#979797" stroke-width="0.5" stroke-linecap="square"></path>
                <path d="M109.508844,58.3997429 L119.771739,58.3997429" id="Line" stroke="#979797" stroke-width="0.5" stroke-linecap="square"></path>
                <path d="M109.5,135.347044 L119.762895,135.347044" id="Line" stroke="#979797" stroke-width="0.5" stroke-linecap="square"></path>
                <path d="M99.2282609,96.9987147 L109.271739,96.9987147" id="Line" stroke="#979797" stroke-width="0.5" stroke-linecap="square"></path>
                <path d="M218.728261,135.597686 L228.771739,135.597686" id="Line" stroke="#979797" stroke-width="0.5" stroke-linecap="square"></path>
                <path d="M229,100.257069 L243.5,100.257069" id="Line" stroke="#979797" stroke-width="0.5" stroke-linecap="square"></path>
                <path d="M357.5,159.910026 L372,159.910026" id="Line" stroke="#979797" stroke-width="0.5" stroke-linecap="square"></path>
                <path d="M342.5,100.257069 L357,100.257069" id="Line" stroke="#979797" stroke-width="0.5" stroke-linecap="square"></path>
                <path d="M357.5,100.257069 L372,100.257069" id="Line" stroke="#979797" stroke-width="0.5" stroke-linecap="square"></path>
                <path d="M229,58.8581578 L229,135.606448" id="Line" stroke="#979797" stroke-width="0.5" stroke-linecap="square"></path>
                <path d="M109.5,58.6503856 L109.5,135.347044" id="Line" stroke="#979797" stroke-width="0.5" stroke-linecap="square"></path>
                <path d="M357.5,26.0658993 L357.5,159.910026" id="Line" stroke="#979797" stroke-width="0.5" stroke-linecap="square"></path>
                <rect id="Rectangle-27" stroke="#979797" stroke-width="0.5" x="372.25" y="74.4402314" width="98.5" height="51.6336761" rx="8.54999977"></rect>
                <rect id="Rectangle-27" stroke="#979797" stroke-width="0.5" x="372.25" y="0.25" width="98.5" height="51.6336761" rx="8.54999977"></rect>
                <rect id="Rectangle-27" stroke="#979797" stroke-width="0.5" x="372.25" y="143.116324" width="98.5" height="51.6336761" rx="8.54999977"></rect>
            </g>
        </g>
    </g>
</svg>