<?xml version="1.0" encoding="UTF-8" standalone="no"?>
<svg width="27px" height="31px" viewBox="0 0 27 31" version="1.1" xmlns="http://www.w3.org/2000/svg" xmlns:xlink="http://www.w3.org/1999/xlink">
    <!-- Generator: Sketch 42 (36781) - http://www.bohemiancoding.com/sketch -->
    <title>drugs</title>
    <desc>Created with Sketch.</desc>
    <defs>
        <polygon id="path-1" points="0.0405 0.395744681 0.0405 30.9986809 27 30.9986809 27 0.395744681 0.0405 0.395744681"></polygon>
    </defs>
    <g id="Page-1" stroke="none" stroke-width="1" fill="none" fill-rule="evenodd">
        <g id="drugs">
            <mask id="mask-2" fill="white">
                <use xlink:href="#path-1"></use>
            </mask>
            <g id="Clip-2"></g>
            <path d="M27,0.395744681 L5.4,0.395744681 L5.4,7.78231915 L6.48135,7.78231915 L6.48135,21.6208511 C6.02505,21.5456596 5.55525,21.4994894 5.0652,21.5021277 C2.328075,21.5410426 0.17955,22.8390851 0.015525,24.5038511 L0,24.5091277 L0,27.9019787 C0.0081,28.5180213 0.29025,29.1050426 0.812025,29.605 C1.73475,30.4809149 3.30615,30.9986809 5.033475,30.9986809 L5.149575,30.9986809 C6.1803,30.9861489 7.127325,30.7928936 7.92045,30.4736596 L24.3,30.4736596 C25.161975,30.4736596 25.91865,29.7778085 25.91865,28.9869787 L25.91865,7.78231915 L27,7.78231915 L27,0.395744681 Z M22.140675,6.72897872 L23.21865,6.72897872 L23.21865,1.45238298 L22.140675,1.45238298 L22.140675,6.72897872 Z M9.18135,6.72897872 L10.259325,6.72897872 L10.259325,1.45238298 L9.18135,1.45238298 L9.18135,6.72897872 Z M11.340675,6.72897872 L12.41865,6.72897872 L12.41865,1.45238298 L11.340675,1.45238298 L11.340675,6.72897872 Z M13.5,6.72897872 L14.58135,6.72897872 L14.58135,1.45238298 L13.5,1.45238298 L13.5,6.72897872 Z M15.659325,6.72897872 L16.740675,6.72897872 L16.740675,1.45238298 L15.659325,1.45238298 L15.659325,6.72897872 Z M17.81865,6.72897872 L18.9,6.72897872 L18.9,1.45238298 L17.81865,1.45238298 L17.81865,6.72897872 Z M19.98135,6.72897872 L21.059325,6.72897872 L21.059325,1.45238298 L19.98135,1.45238298 L19.98135,6.72897872 Z M6.48135,6.72897872 L8.1,6.72897872 L8.1,1.45238298 L6.48135,1.45238298 L6.48135,6.72897872 Z M6.23835,26.6784681 C6.12765,26.6962766 6.01695,26.7114468 5.90625,26.7272766 C5.8617,26.7325532 5.813775,26.7351915 5.769225,26.7398085 C5.68755,26.7477234 5.608575,26.7556383 5.528925,26.7609149 C5.4,26.7708085 5.268375,26.7760851 5.136075,26.7787234 C4.867425,26.7813617 4.6062,26.7681702 4.350375,26.7450851 C4.32945,26.7424468 4.308525,26.7424468 4.2876,26.7398085 C4.0554,26.7167234 3.8313,26.6784681 3.6126,26.6316383 L7.401375,22.9320851 C7.409475,22.9347234 7.4223,22.9373617 7.4304,22.9426383 C7.47225,22.9578085 7.512075,22.975617 7.5519,22.9914468 C7.59105,23.006617 7.625475,23.0250851 7.6626,23.0402553 C7.7625,23.0837872 7.8624,23.1279787 7.957575,23.1767872 C7.9812,23.1899787 8.004825,23.2025106 8.03115,23.2157021 C8.16885,23.2928723 8.297775,23.3753191 8.413875,23.4604043 C8.419275,23.4656809 8.424,23.4676596 8.4321,23.4729362 C8.559,23.5712128 8.6751,23.6767447 8.7723,23.7849149 L8.814825,23.8337234 C8.862075,23.8904468 8.903925,23.9471702 8.93835,24.0065319 C8.95455,24.029617 8.970075,24.0553404 8.9856,24.0810638 C9.020025,24.1457021 9.04635,24.2096809 9.07065,24.2743191 C9.078075,24.2974043 9.088875,24.3185106 9.094275,24.3415957 C9.1179,24.4266809 9.133425,24.5111064 9.133425,24.5961915 C9.133425,24.5988298 9.136125,24.5988298 9.136125,24.6014681 L9.1206,24.738 C9.025425,25.6297447 7.82865,26.4001277 6.267375,26.6731915 C6.25725,26.6758298 6.24915,26.6758298 6.23835,26.6784681 Z M8.640675,22.3345106 C8.632575,22.3318723 8.621775,22.3265957 8.61435,22.3213191 C8.60085,22.3160426 8.59275,22.3087872 8.582625,22.3008723 C8.5536,22.2876809 8.521875,22.2751489 8.49285,22.2619574 C8.3214,22.169617 8.137125,22.0845319 7.94475,22.0073617 C7.860375,21.9763617 7.778025,21.9427234 7.691625,21.9143617 C7.6464,21.8965532 7.60725,21.8780851 7.559325,21.8629149 L7.559325,12.4870638 L8.640675,12.4870638 L8.640675,22.3345106 Z M5.080725,22.558766 L5.184,22.558766 C5.5269,22.558766 5.8563,22.5891064 6.1776,22.6332979 L2.4705,26.2556809 C2.3706,26.2095106 2.264625,26.1705957 2.172825,26.1191489 C1.97505,26.0083404 1.716525,25.8381702 1.500525,25.6139149 C1.492425,25.6066596 1.481625,25.5987447 1.4742,25.5908298 C1.458,25.570383 1.442475,25.5499362 1.426275,25.5314681 C1.2393,25.3078723 1.1205,25.0651489 1.094175,24.8105532 L1.088775,24.6199362 C1.18395,23.519766 2.963925,22.5871277 5.080725,22.558766 Z M5.136075,29.9453404 C3.66525,29.9710638 2.29635,29.543 1.566,28.8478085 C1.2474,28.546383 1.083375,28.2212128 1.08135,27.8914255 L1.08135,26.6679149 C1.102275,26.6830851 1.1259,26.6989149 1.146825,26.7140851 C1.218375,26.7655319 1.28925,26.8176383 1.3635,26.8664468 C1.428975,26.9099787 1.497825,26.9515319 1.566,26.9924255 C1.589625,27.005617 1.611225,27.0207872 1.63485,27.0339787 C1.647675,27.0438723 1.666575,27.0491489 1.6821,27.0570638 C2.117475,27.2964894 2.623725,27.4897447 3.182625,27.621 C3.19275,27.6236383 3.20625,27.6289149 3.21705,27.6315532 C3.4884,27.6935532 3.77055,27.7423617 4.065525,27.776 C4.09725,27.7812766 4.128975,27.7832553 4.1607,27.7858936 C4.413825,27.811617 4.67505,27.8274468 4.941,27.8300851 C4.972725,27.8300851 5.00175,27.8353617 5.033475,27.8353617 C5.0733,27.8353617 5.11245,27.8353617 5.149575,27.8327234 C5.34735,27.8300851 5.539725,27.8195319 5.7294,27.8043617 C5.77935,27.8017234 5.827275,27.7938085 5.874525,27.7885319 C6.01965,27.776 6.162075,27.7575319 6.3018,27.7370851 C6.34635,27.7291702 6.391575,27.7219149 6.436125,27.714 C6.58395,27.6882766 6.729075,27.6599149 6.8715,27.6289149 C6.900525,27.621 6.92955,27.616383 6.955875,27.6084681 C7.124625,27.5669149 7.287975,27.5207447 7.448625,27.4692979 C8.139825,27.2476809 8.73315,26.9357021 9.191475,26.5544681 L9.191475,26.6316383 C9.191475,27.0287021 9.191475,27.3611277 9.188775,27.5570213 L9.18135,27.7938085 C9.18135,27.8683404 9.17055,27.9435319 9.152325,28.0180638 C9.149625,28.0358723 9.141525,28.0543404 9.136125,28.0747872 C9.1206,28.1288723 9.1017,28.1829574 9.075375,28.2370426 C9.06795,28.2601277 9.05175,28.2832128 9.041625,28.3062979 C9.014625,28.355766 8.9883,28.4045745 8.95725,28.4507447 C8.93835,28.4764681 8.917425,28.5048298 8.8992,28.5305532 C8.867475,28.5721064 8.83305,28.613 8.795925,28.6545532 C8.7696,28.6855532 8.740575,28.7139149 8.70885,28.7442553 C8.677125,28.7778936 8.640675,28.8088936 8.60355,28.8425319 C8.5644,28.8761702 8.524575,28.9117872 8.48205,28.9454255 C8.455725,28.963234 8.4294,28.9843404 8.403075,29.0021489 C7.6545,29.5456383 6.444225,29.9268723 5.136075,29.9453404 Z M24.840675,14.6438723 L19.440675,14.6438723 L19.440675,15.6972128 L24.840675,15.6972128 L24.840675,16.7538511 L19.440675,16.7538511 L19.440675,17.8071915 L24.840675,17.8071915 L24.840675,18.8638298 L19.440675,18.8638298 L19.440675,19.9204681 L24.840675,19.9204681 L24.840675,20.9738085 L19.440675,20.9738085 L19.440675,22.0304468 L24.840675,22.0304468 L24.840675,23.0837872 L19.440675,23.0837872 L19.440675,24.1404255 L24.840675,24.1404255 L24.840675,26.2504043 L17.28135,26.2504043 L17.28135,12.5305957 L24.840675,12.5305957 L24.840675,14.6438723 Z M24.840675,11.4772553 L16.2,11.4772553 L16.2,27.3070426 L24.840675,27.3070426 L24.840675,28.9869787 C24.840675,29.1980426 24.566625,29.4170213 24.3,29.4170213 L9.547875,29.4170213 C9.771975,29.180234 9.94815,28.9249787 10.06965,28.6519149 C10.07235,28.644 10.07505,28.6334468 10.08045,28.6261915 C10.1277,28.5101064 10.16685,28.3940213 10.195875,28.2733191 C10.201275,28.2475957 10.209375,28.2212128 10.214775,28.1954894 C10.2411,28.064234 10.259325,27.9329787 10.259325,27.7990851 L10.259325,27.7964468 L10.2465,27.7964468 C10.264725,27.616383 10.272825,27.3301277 10.272825,26.8585319 C10.275525,26.3869362 10.267425,25.73 10.259325,24.8052766 L10.19385,24.158234 L10.159425,24.1635106 C10.156725,24.158234 10.156725,24.1555957 10.154025,24.1509787 C10.145925,24.1094255 10.1358,24.0685319 10.125,24.0269787 C10.095975,23.932 10.05885,23.8363617 10.017,23.7433617 C10.0035,23.7176383 9.996075,23.6892766 9.979875,23.6609149 C9.921825,23.5428511 9.85095,23.426766 9.769275,23.3133191 C9.755775,23.2928723 9.73485,23.2724255 9.71865,23.2513191 L9.71865,11.4330638 L7.559325,11.4330638 L7.559325,7.78231915 L24.840675,7.78231915 L24.840675,11.4772553 Z M24.3,6.72897872 L25.91865,6.72897872 L25.91865,1.45238298 L24.3,1.45238298 L24.3,6.72897872 Z" id="Fill-1" fill="#000000" mask="url(#mask-2)"></path>
        </g>
    </g>
</svg>