<?xml version="1.0" encoding="UTF-8" standalone="no"?>
<svg width="30px" height="28px" viewBox="0 0 30 28" version="1.1" xmlns="http://www.w3.org/2000/svg" xmlns:xlink="http://www.w3.org/1999/xlink">
    <!-- Generator: Sketch 42 (36781) - http://www.bohemiancoding.com/sketch -->
    <title>conversations-about-medicine-and-health</title>
    <desc>Created with Sketch.</desc>
    <defs>
        <polygon id="path-1" points="15.0569492 0.488727273 0.122033898 0.488727273 0.122033898 27.9959273 29.9918644 27.9959273 29.9918644 0.488727273"></polygon>
    </defs>
    <g id="Page-1" stroke="none" stroke-width="1" fill="none" fill-rule="evenodd">
        <g id="conversations-about-medicine-and-health">
            <mask id="mask-2" fill="white">
                <use xlink:href="#path-1"></use>
            </mask>
            <g id="Clip-2"></g>
            <path d="M8.00135593,16.2949818 L10.4644068,16.2949818 L10.4644068,18.7610182 C10.4644068,19.2151273 10.8284746,19.5714909 11.2738983,19.5714909 L15.380339,19.5714909 C15.8257627,19.5714909 16.1918644,19.2151273 16.1918644,18.7610182 L16.1918644,16.2949818 L18.6549153,16.2949818 C19.100339,16.2949818 19.4644068,15.9284364 19.4644068,15.4763636 L19.4644068,11.3792 C19.4644068,10.9250909 19.100339,10.5687273 18.6549153,10.5687273 L16.1918644,10.5687273 L16.1918644,8.10269091 C16.1918644,7.64858182 15.8257627,7.28203636 15.380339,7.28203636 L11.2738983,7.28203636 C10.8284746,7.28203636 10.4644068,7.64858182 10.4644068,8.10269091 L10.4644068,10.5687273 L8.00135593,10.5687273 C7.5559322,10.5687273 7.18983051,10.9250909 7.18983051,11.3792 L7.18983051,15.4763636 C7.18983051,15.9284364 7.5559322,16.2949818 8.00135593,16.2949818 Z M8.81898305,12.1896727 L11.2738983,12.1896727 C11.7274576,12.1896727 12.0915254,11.8251636 12.0915254,11.3792 L12.0915254,8.91316364 L14.5627119,8.91316364 L14.5627119,11.3792 C14.5627119,11.8251636 14.9288136,12.1896727 15.380339,12.1896727 L17.8372881,12.1896727 L17.8372881,14.6638545 L15.380339,14.6638545 C14.9288136,14.6638545 14.5627119,15.0304 14.5627119,15.4763636 L14.5627119,17.9424 L12.0915254,17.9424 L12.0915254,15.4763636 C12.0915254,15.0304 11.7274576,14.6638545 11.2738983,14.6638545 L8.81898305,14.6638545 L8.81898305,12.1896727 Z" id="Fill-1" fill="#000000" mask="url(#mask-2)"></path>
            <path d="M29.1742373,0.488727273 L6.58576271,0.488727273 C6.14237288,0.488727273 5.77627119,0.855272727 5.77627119,1.30123636 L5.77627119,4.30690909 L0.809491525,4.30690909 C0.366101695,4.30690909 0,4.6816 0,5.12756364 L0,21.3614545 C0,21.8155636 0.366101695,22.1821091 0.809491525,22.1821091 L5.9979661,22.1821091 L5.9979661,27.1854545 C5.9979661,27.4949818 6.17288136,27.7739636 6.44338983,27.9165091 C6.56338983,27.9714909 6.68135593,27.9959273 6.80949153,27.9959273 C6.98440678,27.9959273 7.15932203,27.9490909 7.30169492,27.8370909 L14.8332203,22.1739636 L25.8447458,22.1739636 C26.2901695,22.1739636 26.6542373,21.8155636 26.6542373,21.3614545 L26.6542373,16.1768727 L29.1742373,16.1768727 C29.6257627,16.1768727 29.9918644,15.8103273 29.9918644,15.3562182 L29.9918644,1.30123636 C29.9918644,0.847127273 29.6257627,0.488727273 29.1742373,0.488727273 Z M25.0271186,20.5428364 L14.5627119,20.5428364 C14.3877966,20.5428364 14.2210169,20.6059636 14.0786441,20.7098182 L7.61898305,25.5543273 L7.61898305,21.3614545 C7.61898305,20.9175273 7.25288136,20.5509818 6.80949153,20.5509818 L1.62915254,20.5509818 L1.62915254,5.93803636 L25.0271186,5.93803636 L25.0271186,20.5428364 Z M28.3627119,14.5457455 L26.6542373,14.5457455 L26.6542373,5.12756364 C26.6542373,4.6816 26.2901695,4.30690909 25.8447458,4.30690909 L7.40542373,4.30690909 L7.40542373,2.11985455 L28.3627119,2.11985455 L28.3627119,14.5457455 Z" id="Fill-3" fill="#000000" mask="url(#mask-2)"></path>
        </g>
    </g>
</svg>