<?xml version="1.0" encoding="UTF-8" standalone="no"?>
<svg width="43px" height="43px" viewBox="0 0 43 43" version="1.1" xmlns="http://www.w3.org/2000/svg" xmlns:xlink="http://www.w3.org/1999/xlink">
    <!-- Generator: Sketch 43.1 (39012) - http://www.bohemiancoding.com/sketch -->
    <title>list</title>
    <desc>Created with Sketch.</desc>
    <defs>
        <polygon id="path-1" points="0 42.94625 43 42.94625 43 0 0 0"></polygon>
    </defs>
    <g id="Page-1" stroke="none" stroke-width="1" fill="none" fill-rule="evenodd">
        <g id="list">
            <path d="M16.7897083,12.185125 L33.685125,12.185125 C34.0801875,12.185125 34.3982083,11.862625 34.3982083,11.4675625 C34.3982083,11.0716042 34.0801875,10.75 33.685125,10.75 L16.7897083,10.75 C16.3946458,10.75 16.0721458,11.0716042 16.0721458,11.4675625 C16.0721458,11.862625 16.3946458,12.185125 16.7897083,12.185125 Z" id="Fill-1" fill="#737373"></path>
            <path d="M16.7897083,22.935125 L33.685125,22.935125 C34.0801875,22.935125 34.3982083,22.612625 34.3982083,22.2175625 C34.3982083,21.8216042 34.0801875,21.5 33.685125,21.5 L16.7897083,21.5 C16.3946458,21.5 16.0721458,21.8216042 16.0721458,22.2175625 C16.0721458,22.612625 16.3946458,22.935125 16.7897083,22.935125 Z" id="Fill-2" fill="#737373"></path>
            <g id="Group-6">
                <mask id="mask-2" fill="white">
                    <use xlink:href="#path-1"></use>
                </mask>
                <g id="Clip-4"></g>
                <path d="M16.7897083,33.685125 L33.685125,33.685125 C34.0801875,33.685125 34.3982083,33.362625 34.3982083,32.9675625 C34.3982083,32.5716042 34.0801875,32.25 33.685125,32.25 L16.7897083,32.25 C16.3946458,32.25 16.0721458,32.5716042 16.0721458,32.9675625 C16.0721458,33.362625 16.3946458,33.685125 16.7897083,33.685125 Z" id="Fill-3" fill="#737373" mask="url(#mask-2)"></path>
                <path d="M42.2824375,0 L0.7175625,0 C0.321604167,0 0,0.321604167 0,0.7175625 L0,42.2824375 C0,42.6783958 0.321604167,43 0.7175625,43 L42.2824375,43 C42.6783958,43 43,42.6783958 43,42.2824375 L43,0.7175625 C43,0.321604167 42.6783958,0 42.2824375,0 Z M1.435125,41.564875 L41.564875,41.564875 L41.564875,1.435125 L1.435125,1.435125 L1.435125,41.564875 Z" id="Fill-5" fill="#737373" mask="url(#mask-2)"></path>
            </g>
            <polygon id="Fill-7" fill="#737373" points="8.95833333 13.2377292 10.6971458 12.324875 12.4404375 13.2377292 12.1080833 11.3027292 13.5145417 9.927625 11.5687917 9.648125 10.6971458 7.88422917 9.82997917 9.648125 7.88422917 9.927625 9.2906875 11.3027292"></polygon>
            <polygon id="Fill-8" fill="#737373" points="8.95833333 24.04775 10.6971458 23.134 12.4404375 24.04775 12.1080833 22.11275 13.5145417 20.7403333 11.5687917 20.45725 10.6971458 18.6933542 9.82997917 20.45725 7.88422917 20.7403333 9.2906875 22.11275"></polygon>
            <polygon id="Fill-9" fill="#737373" points="8.95833333 35.1157708 10.6971458 34.2029167 12.4404375 35.1157708 12.1080833 33.1771875 13.5145417 31.8056667 11.5687917 31.5225833 10.6971458 29.7622708 9.82997917 31.5225833 7.88422917 31.8056667 9.2906875 33.1771875"></polygon>
        </g>
    </g>
</svg>