<?xml version="1.0" encoding="UTF-8" standalone="no"?>
<svg width="32px" height="33px" viewBox="0 0 32 33" version="1.1" xmlns="http://www.w3.org/2000/svg" xmlns:xlink="http://www.w3.org/1999/xlink">
    <!-- Generator: Sketch 43.1 (39012) - http://www.bohemiancoding.com/sketch -->
    <title>Group 98</title>
    <desc>Created with Sketch.</desc>
    <defs></defs>
    <g id="Page-1" stroke="none" stroke-width="1" fill="none" fill-rule="evenodd">
        <g id="Group-98" transform="translate(-1.000000, -1.000000)">
            <path d="M13.5824118,18.165 L10.2183529,22.5283333 L10.2144706,22.5341667 C10.1154706,22.6625 10.0766471,22.8219444 10.0960588,22.9716667 L10.1096471,23.0416667 L18.0878824,15.0519444 L16.6902353,15.0538889 L13.5824118,18.165 Z M10.5677647,23.5569444 L19.0604118,15.0519444 L20.4580588,15.05 L17.9481176,17.5641667 L17.3948824,17.5661111 C17.2667647,17.5661111 17.1561176,17.6244444 17.0842941,17.7177778 L14.6694706,20.8463889 L11.3558824,24.1655556 L10.5677647,23.5569444 Z M18.9245294,17.5622222 L20.3221765,17.5602778 L22.8301765,15.0480556 L21.4325294,15.0480556 L18.9245294,17.5622222 Z M21.2985882,17.5583333 L31.4975294,7.34027778 L31.4975294,8.73833333 L28.9274118,11.3127778 C28.8866471,11.1319444 28.7216471,10.9997222 28.5294706,11.0055556 C28.3897059,11.0094444 28.2674118,11.0911111 28.2014118,11.2038889 L27.1007647,13.1405556 L22.6942941,17.5563889 L21.2985882,17.5583333 Z M23.6707059,17.5544444 L24.5947059,17.5525 L25.8137647,15.4058333 L23.6707059,17.5544444 Z M28.9662353,12.25 L28.9914706,12.9402778 L29.6961176,12.915 L31.4975294,11.1105556 L31.4975294,9.7125 L28.9662353,12.25 Z M30.7055294,12.88 L31.4975294,12.8508333 L31.4975294,12.0866667 L30.7055294,12.88 Z M31.4975294,6.36416667 L31.4975294,4.96611111 L25.4294118,11.0444444 L23.6144118,14.2605556 L31.4975294,6.36416667 Z M31.4975294,3.99 L31.4975294,3.20833333 L30.1697647,3.92388889 L24.1152353,9.98861111 L24.1327059,10.0236111 L25.5866471,9.31194444 C25.6972941,9.25555556 25.8351176,9.25555556 25.9496471,9.32166667 C26.0001176,9.34888889 26.0389412,9.38583333 26.07,9.42666667 L31.4975294,3.99 Z M28.0635882,5.05555556 L25.0508824,6.67916667 L23.3368235,8.39611111 L23.7949412,9.33333333 L28.0635882,5.05555556 L28.0635882,5.05555556 Z" id="Fill-126" fill="#F24B35"></path>
            <path d="M9.59329412,22.0538889 L15.4789412,14.42 C15.5604706,14.3169444 15.6827647,14.2625 15.8050588,14.2683333 L22.7137059,14.2625 L24.7946471,10.5738889 L24.1268824,10.9025 C23.9308235,10.9977778 23.6959412,10.9161111 23.6008235,10.7216667 L22.1585294,7.77194444 C22.0653529,7.58138889 22.1391176,7.35388889 22.3235294,7.25277778 L31.7052353,2.20305556 C31.8974118,2.1 32.1361765,2.17194444 32.2390588,2.3625 C32.2701176,2.42277778 32.2856471,2.48694444 32.2856471,2.54916667 L32.2856471,13.23 C32.2856471,13.4477778 32.109,13.6247222 31.8915882,13.6247222 L31.8741176,13.6227778 L28.6265294,13.7394444 C28.4110588,13.7472222 28.2285882,13.5780556 28.2208235,13.3602778 L28.2014118,12.7963889 L25.1634706,18.1397222 C25.0897059,18.2719444 24.9499412,18.3438889 24.8082353,18.3380556 L17.5870588,18.3497222 L12.8117647,24.5427778 C12.5788235,24.8441667 12.2449412,25.0211111 11.8955294,25.0677778 C11.5461176,25.1125 11.1792353,25.0230556 10.8802941,24.7916667 L9.84176471,23.9886111 L9.84176471,23.9866667 C9.54088235,23.7552778 9.36423529,23.4227778 9.31958824,23.0708333 C9.27494118,22.7227778 9.36229412,22.3533333 9.59329412,22.0538889 Z M32.5942941,27.9261111 L6.41170588,27.9261111 L6.41170588,1.70138889 C6.41170588,1.48361111 6.23505882,1.30666667 6.01764706,1.30666667 C5.80023529,1.30666667 5.62358824,1.48361111 5.62358824,1.70138889 L5.62358824,27.9261111 L1.41123529,27.9261111 C1.19382353,27.9261111 1.01717647,28.1030556 1.01717647,28.3208333 C1.01717647,28.5405556 1.19382353,28.7155556 1.41123529,28.7155556 L5.62358824,28.7155556 L5.62358824,32.935 C5.62358824,33.1527778 5.80023529,33.3297222 6.01764706,33.3297222 C6.23505882,33.3297222 6.41170588,33.1527778 6.41170588,32.935 L6.41170588,28.7155556 L32.5942941,28.7155556 C32.8117059,28.7155556 32.9883529,28.5405556 32.9883529,28.3208333 C32.9883529,28.1030556 32.8117059,27.9261111 32.5942941,27.9261111 Z M15.9817059,15.0538889 L10.2183529,22.5283333 L10.2144706,22.5341667 C10.1154706,22.6625 10.0766471,22.8219444 10.0960588,22.9716667 C10.1154706,23.1213889 10.1911765,23.2633333 10.3192941,23.3644444 L10.3212353,23.3663889 L11.3597647,24.1675 C11.4878824,24.2686111 11.6470588,24.3055556 11.7984706,24.2880556 C11.9479412,24.2686111 12.0896471,24.1927778 12.1905882,24.0625 L17.0842941,17.7177778 C17.1561176,17.6244444 17.2667647,17.5661111 17.3948824,17.5661111 L24.5947059,17.5525 L28.2033529,11.2038889 C28.2674118,11.0911111 28.3897059,11.0094444 28.5314118,11.0055556 C28.7468824,10.9997222 28.9293529,11.1688889 28.9371176,11.3847222 L28.9914706,12.9402778 L31.4975294,12.8508333 L31.4975294,3.20833333 L23.0301176,7.76805556 L24.1327059,10.0236111 L25.5866471,9.31194444 C25.6992353,9.25555556 25.8351176,9.25555556 25.9515882,9.32166667 C26.1398824,9.42861111 26.2058824,9.66777778 26.1010588,9.85638889 L23.2921765,14.8322222 C23.2281176,14.9605556 23.0961176,15.0480556 22.9427647,15.0480556 L15.9817059,15.0538889 L15.9817059,15.0538889 Z" id="Fill-127" fill="#403E3B"></path>
        </g>
    </g>
</svg>