<?xml version="1.0" encoding="UTF-8" standalone="no"?>
<svg width="32px" height="32px" viewBox="0 0 32 32" version="1.1" xmlns="http://www.w3.org/2000/svg" xmlns:xlink="http://www.w3.org/1999/xlink">
    <!-- Generator: Sketch 43.1 (39012) - http://www.bohemiancoding.com/sketch -->
    <title>Group 97</title>
    <desc>Created with Sketch.</desc>
    <defs></defs>
    <g id="Page-1" stroke="none" stroke-width="1" fill="none" fill-rule="evenodd">
        <g id="Group-97" transform="translate(-1.000000, -1.000000)">
            <path d="M23.9987647,30.3095294 C24.4724118,30.063 24.9324706,29.7892941 25.377,29.4922941 C25.9690588,29.0962941 26.532,28.6575882 27.06,28.182 L28.1684118,27.0735882 C28.6459412,26.5455882 29.0827059,25.9826471 29.4787059,25.3905882 C29.9581765,24.6762353 30.3755294,23.9152941 30.7249412,23.1213529 L24.0045882,29.8417059 L23.9987647,30.3095294 Z M31.3053529,21.5664706 L24.0201176,28.8517059 L24.0356471,27.8597647 C24.0375882,27.7432941 23.9890588,27.6404118 23.9094706,27.5685882 L31.7498824,19.7281765 L31.6877647,20.0581765 C31.5848824,20.5725882 31.4587059,21.0753529 31.3053529,21.5664706 Z M31.9012941,18.6022941 L23.2494706,27.2541176 L22.2808235,26.8270588 L31.9692353,17.1386471 L31.9692353,17.1580588 C31.9692353,17.6452941 31.9459412,18.1286471 31.9012941,18.6022941 Z M31.9401176,16.1932941 L21.6033529,26.5300588 L20.6347059,26.1049412 L31.8061765,14.9334706 C31.8682941,15.3488824 31.9129412,15.7681765 31.9401176,16.1932941 Z M31.6567059,14.1084706 C31.5771176,13.7299412 31.4839412,13.3591765 31.3791176,12.9922941 L27.1997647,17.1697059 L27.72,17.1735882 C27.918,17.1697059 28.0927059,17.3152941 28.1179412,17.5152353 L28.1334706,17.6317059 L31.6567059,14.1084706 Z M31.1422941,12.2546471 C31.0510588,11.9945294 30.954,11.7382941 30.8491765,11.4878824 L30.8414118,11.4684706 L30.7501765,11.2510588 L24.9887647,17.0124706 L25.1654118,17.16 L26.2311176,17.1638824 L31.1422941,12.2546471 Z M30.4395882,10.5852353 C30.2881765,10.2765882 30.1251176,9.97570588 29.9523529,9.68064706 L23.6920588,15.939 L24.4549412,16.5718235 L30.4395882,10.5852353 Z M29.5796471,9.07888235 L29.4787059,8.92552941 C29.3272941,8.69841176 29.1681176,8.47517647 29.0050588,8.25582353 L20.1358235,17.1250588 L21.3956471,17.2628824 L29.5796471,9.07888235 Z M28.4751176,7.81129412 L21.8440588,14.4423529 L21.9003529,12.9903529 L27.1454118,7.74723529 L28.4751176,7.81129412 Z M26.2155882,7.70064706 L21.9411176,11.9770588 L21.9411176,11.9421176 L24.1579412,9.68841176 C24.2491765,9.59523529 24.2841176,9.46905882 24.2647059,9.34870588 L24.1035882,8.41888235 L24.8858824,7.63658824 L26.2155882,7.70064706 Z M26.7707647,18.9924706 L19.9572353,25.806 L18.9885882,25.3808824 L24.7674706,19.602 L26.7707647,18.9924706 Z M23.3659412,20.0290588 L23.3620588,20.031 L21.285,20.7162353 L19.0390588,22.9602353 L18.1713529,25.0217647 L18.3130588,25.0838824 L23.3659412,20.0290588 Z M19.8310588,21.1957059 L19.7747647,21.2131765 L19.7475882,21.2791765 L19.8310588,21.1957059 L19.8310588,21.1957059 Z" id="Fill-70" fill="#7CB74C"></path>
            <path d="M17.3696471,2.33329412 L17.1444706,2.33329412 C16.7348824,2.33329412 16.3272353,2.34882353 15.9273529,2.37988235 L7.09305882,11.2141765 L8.93717647,10.7638235 L13.0214118,6.67958824 L13.3164706,5.15770588 C13.3514118,4.98105882 13.497,4.85488235 13.6697647,4.83935294 L15.0130588,4.68988235 L17.3696471,2.33329412 Z M14.8208824,2.51188235 L5.80411765,11.5286471 L5.71288235,11.5519412 C5.55952941,11.5888235 5.43723529,11.7169412 5.41588235,11.8819412 L5.41005882,11.9246471 L2.49829412,14.8344706 C2.52935294,14.6422941 2.56429412,14.4501176 2.60117647,14.2598824 C2.68270588,13.8483529 2.77976471,13.4407059 2.89623529,13.0427647 L13.0291765,2.90788235 C13.4290588,2.79529412 13.8347647,2.69629412 14.2462941,2.61282353 C14.4365294,2.57594118 14.6287059,2.54294118 14.8208824,2.51188235 Z M11.5402941,3.42423529 L3.41258824,11.55 L3.43976471,11.4878824 L3.43976471,11.4859412 C3.81247059,10.5852353 4.27252941,9.72917647 4.80829412,8.92747059 C4.93447059,8.73723529 5.06452941,8.55282353 5.19847059,8.37035294 L8.35482353,5.214 C8.53729412,5.07811765 8.72558824,4.94805882 8.91388235,4.82188235 C9.71364706,4.28805882 10.5697059,3.82605882 11.4742941,3.45141176 L11.5402941,3.42423529 Z M2.36629412,15.9409412 C2.33523529,16.3427647 2.31776471,16.7465294 2.31776471,17.1580588 L2.31970588,17.3812941 L5.05482353,14.6461765 L5.26447059,13.0447059 L2.36629412,15.9409412 Z M2.36241176,18.3130588 L4.90923529,15.7662353 L4.85682353,16.1777647 C4.83352941,16.3252941 4.89758824,16.4767059 5.02958824,16.5621176 L5.31882353,16.7523529 L2.50994118,19.5612353 C2.44394118,19.1516471 2.39347059,18.7362353 2.36241176,18.3130588 Z M2.66717647,20.3784706 L5.90894118,17.1367059 L6.71258824,17.6588824 L6.732,17.7093529 L2.95835294,21.483 C2.84770588,21.12 2.75064706,20.7531176 2.66717647,20.3784706 Z M3.201,22.2148235 C3.27670588,22.4225294 3.35629412,22.6282941 3.43976471,22.8301765 L3.60282353,23.2087059 L7.39005882,19.4195294 L7.00182353,18.414 L3.201,22.2148235 Z M3.91729412,23.8667647 C4.07064706,24.1734706 4.23758824,24.4724118 4.41423529,24.7674706 L8.05005882,21.1297059 L7.66182353,20.1222353 L3.91729412,23.8667647 Z M4.79082353,25.3614706 L8.32182353,21.8324118 L8.71005882,22.8398824 L5.37317647,26.1767647 C5.17711765,25.9205294 4.98688235,25.6584706 4.80829412,25.3886471 L4.79082353,25.3614706 Z M5.808,26.7164118 L8.97988235,23.5425882 L9.06917647,23.7716471 L6.02541176,26.9687647 L5.808,26.7164118 Z M10.2261176,10.4493529 L12.7884706,7.88894118 L12.4526471,9.61852941 L12.0721765,9.999 L10.2261176,10.4493529 Z M15.9855882,4.68988235 L17.3152941,3.36017647 L17.193,4.88011765 L16.0865294,5.98464706 L16.1389412,5.03929412 C16.1408824,5.01405882 16.1408824,4.98688235 16.1389412,4.95970588 C16.1253529,4.84905882 16.0690588,4.75394118 15.9855882,4.68988235 Z M17.0687647,5.97688235 L17.1056471,5.94 L17.1037059,5.95941176 L17.0687647,5.97688235 L17.0687647,5.97688235 Z" id="Fill-71" fill="#7CB74C"></path>
            <path d="M27.4346471,6.48352941 C27.1978235,6.25447059 26.9532353,6.03317647 26.7028235,5.82158824 L25.6351765,6.88729412 L26.9648824,6.95329412 L27.4346471,6.48352941 Z M26.1631765,5.38676471 L24.7072941,6.84264706 L23.5309412,6.78441176 C23.496,6.78052941 23.4591176,6.78247059 23.4222353,6.78829412 C23.3950588,6.79217647 23.3698235,6.79994118 23.3445882,6.80964706 L25.3498235,4.80441176 L25.377,4.82188235 C25.6448824,5.00241176 25.9069412,5.19070588 26.1631765,5.38676471 Z M24.7538824,4.42588235 C24.4607647,4.25117647 24.1598824,4.08617647 23.8531765,3.93088235 L8.26941176,19.5146471 L8.65764706,20.5221176 L24.7538824,4.42588235 Z M23.1951176,3.61641176 L7.99764706,18.8119412 L7.60941176,17.8064118 L22.2012353,3.21458824 C22.4011765,3.28641176 22.5991765,3.36211765 22.7971765,3.44364706 L22.8165882,3.45141176 C22.9427647,3.50576471 23.0689412,3.56011765 23.1951176,3.61641176 Z M21.4694118,2.97194118 L7.31435294,17.1250588 C7.29494118,17.1056471 7.27164706,17.0862353 7.24641176,17.0707059 L7.24641176,17.0687647 L6.47576471,16.5679412 L12.2915294,10.7541176 L12.8234118,10.6240588 C12.9787059,10.5852353 13.0893529,10.461 13.1184706,10.3154118 L13.2116471,9.83594118 L15.5002941,7.54535294 C15.5332941,7.557 15.5682353,7.56476471 15.6051176,7.56670588 C15.6847059,7.57058824 15.7623529,7.55117647 15.8283529,7.51235294 L17.6608235,6.55341176 C17.7831176,6.48741176 17.8588235,6.36511765 17.8685294,6.23505882 L17.8704706,6.23505882 L17.9636471,5.08005882 L20.3648824,2.68270588 C20.7395294,2.76423529 21.1083529,2.86129412 21.4694118,2.97194118 Z M19.5457059,2.52547059 L18.051,4.02017647 L18.1752353,2.50023529 L18.2994706,2.376 C18.7207059,2.40705882 19.1361176,2.45752941 19.5457059,2.52547059 Z M15.2537647,6.81935294 L13.4445882,8.62658824 L13.7804118,6.897 L15.2188235,5.45664706 L15.3294706,5.445 L15.2537647,6.81935294 Z M14.1201176,5.58088235 L14.0152941,5.68764706 L14.0327647,5.59058824 L14.1201176,5.58088235 Z M11.0045294,11.0685882 L5.88758824,16.1835882 L5.66435294,16.0399412 L5.81964706,14.8577647 L9.15652941,11.5189412 L11.0045294,11.0685882 Z M7.86758824,11.8334118 L6.15935294,12.2507647 L5.96523529,13.7377059 L7.86758824,11.8334118 Z M8.92747059,21.2267647 L23.1232941,7.03094118 C23.0961176,7.095 23.0883529,7.16876471 23.1,7.24252941 L23.2785882,8.26941176 L9.31570588,22.2322941 L8.92747059,21.2267647 Z M9.58747059,22.935 L23.4241765,9.10023529 L23.4552353,9.28270588 L21.2752941,11.4995294 C21.2092941,11.5674706 21.1665882,11.6587059 21.1627059,11.7615882 L21.1238824,12.7942941 L9.86894118,24.0492353 C9.92717647,23.9424706 9.933,23.8162941 9.88447059,23.7056471 L9.58747059,22.935 Z M6.95911765,27.9335294 L21.0831176,13.8075882 L21.0578824,14.4850588 L18.8895882,17.1619412 C18.8391176,17.2201765 18.8041765,17.2939412 18.7964118,17.3774118 C18.7925294,17.4142941 18.7925294,17.4511765 18.8002941,17.4880588 L7.69870588,28.5877059 C7.44635294,28.3780588 7.19788235,28.1587059 6.95911765,27.9335294 Z M8.24417647,29.0186471 L19.4234118,17.8394118 L20.6832353,17.9752941 L9.06335294,29.5932353 L8.91388235,29.4942353 C8.68676471,29.3408824 8.46352941,29.1817059 8.24417647,29.0186471 Z M9.66511765,29.9659412 L21.5625882,18.0684706 L22.0731176,18.1247647 C22.2225882,18.1461176 22.3778824,18.0801176 22.4632941,17.9422941 L23.2863529,16.6222941 L23.8958824,17.1289412 L21.0675882,19.9572353 L19.3593529,20.5221176 L19.3593529,20.5240588 C19.2564706,20.5570588 19.1671765,20.6347059 19.1225294,20.7434118 L18.2781176,22.7486471 L10.5716471,30.4551176 C10.2649412,30.3017647 9.96211765,30.1387059 9.66511765,29.9659412 Z M11.2374706,30.7637647 L11.4723529,30.8627647 C11.7247059,30.9675882 11.979,31.0665882 12.2391176,31.1558824 L17.7151765,25.6798235 L17.5035882,25.5866471 C17.3055882,25.4992941 17.2143529,25.2682941 17.2997647,25.0702941 L17.3055882,25.0567059 L17.5695882,24.4316471 L11.2374706,30.7637647 Z M12.9767647,31.3927059 C13.3455882,31.4994706 13.7163529,31.5926471 14.0948824,31.6702941 L19.3612941,26.4019412 L18.3926471,25.9768235 L12.9767647,31.3927059 Z M14.9198824,31.8197647 C15.3352941,31.8818824 15.7545882,31.9265294 16.1797059,31.9537059 L21.0074118,27.126 L20.0387647,26.7008824 L14.9198824,31.8197647 Z M17.1231176,31.9828235 L17.1444706,31.9828235 C17.6317059,31.9828235 18.1150588,31.9595294 18.5887059,31.9148824 L22.6535294,27.8500588 L21.6829412,27.4249412 L17.1231176,31.9828235 Z M19.7145882,31.7634706 L20.0445882,31.7013529 C20.559,31.6004118 21.0617647,31.4703529 21.5528824,31.3189412 L23.2242353,29.6495294 L23.2455882,28.2324706 L19.7145882,31.7634706 Z M23.1097059,30.7385294 L23.2087059,30.6375882 L23.2087059,30.6938824 L23.1097059,30.7385294 Z M22.5215294,19.4797059 L24.4297059,17.5715294 L24.7713529,17.8549412 L24.7732941,17.8549412 C24.8412353,17.9092941 24.9266471,17.9422941 25.0217647,17.9442353 L25.4488235,17.9461765 L24.5461765,18.8488235 L23.1562941,19.272 C23.1427059,19.2758824 23.1291176,19.2778235 23.1155294,19.2836471 L22.5215294,19.4797059 Z M25.9457647,18.4237059 L27.3861176,17.9869412 L27.3822353,17.9558824 L26.4194118,17.9500588 L25.9457647,18.4237059 Z M27.8947059,6.996 L27.9451765,6.99988235 L27.9199412,6.97270588 L27.8947059,6.996 L27.8947059,6.996 Z" id="Fill-72" fill="#ECECEC"></path>
            <path d="M4.85682353,16.1661176 C4.86458824,16.1098235 4.884,16.0574118 4.917,16.0069412 L4.85682353,16.1661176 Z M23.5309412,6.77276471 C23.7017647,6.79023529 23.8473529,6.92029412 23.8764706,7.09694118 L23.5309412,6.77276471 Z M6.02735294,26.9551765 L9.06917647,23.7580588 L6.71452941,17.6472353 L5.03152941,16.5504706 C4.89952941,16.4650588 4.83547059,16.3117059 4.85682353,16.1661176 L5.41588235,11.8702941 C5.43723529,11.7033529 5.55952941,11.5752353 5.71482353,11.5383529 L12.3944118,9.90776471 L13.3184118,5.14605882 C13.3514118,4.96941176 13.4989412,4.84323529 13.6697647,4.82770588 L15.7060588,4.59864706 C15.9215294,4.57729412 16.1156471,4.73064706 16.1389412,4.94611765 C16.1408824,4.97523529 16.1428235,5.00047059 16.1389412,5.02764706 L16.0574118,6.49323529 L17.1037059,5.94582353 L17.3987647,2.34105882 L17.4007059,2.32164706 C17.3152941,2.31970588 17.2298824,2.31970588 17.1464118,2.31970588 C16.1525294,2.31970588 15.1838824,2.41676471 14.2482353,2.60311765 C13.2854118,2.79141176 12.3575294,3.07482353 11.4742941,3.43976471 C10.5716471,3.81441176 9.71364706,4.27447059 8.91388235,4.81023529 C8.10441176,5.35182353 7.34929412,5.973 6.66017647,6.66017647 L6.66017647,6.66211765 C5.97105882,7.35317647 5.34988235,8.10635294 4.81023529,8.91388235 C4.27447059,9.71558824 3.81441176,10.5735882 3.44170588,11.4742941 L3.44170588,11.4762353 C3.07676471,12.3594706 2.79335294,13.2854118 2.60311765,14.2462941 C2.41676471,15.1819412 2.31970588,16.1525294 2.31970588,17.1444706 C2.31970588,18.1383529 2.41676471,19.1089412 2.60117647,20.0445882 C2.79335294,21.0074118 3.07676471,21.9372353 3.44170588,22.8185294 C3.81441176,23.7192353 4.27252941,24.5752941 4.80829412,25.377 C5.181,25.9302353 5.58670588,26.4582353 6.02735294,26.9551765 Z M18.1849412,2.35464706 C18.1849412,2.37017647 18.1849412,2.38570588 18.183,2.40123529 L17.8724118,6.22341176 L17.8704706,6.22341176 C17.8607647,6.35347059 17.7850588,6.47576471 17.6608235,6.53982353 L15.8283529,7.49876471 C15.7642941,7.53758824 15.6866471,7.557 15.6070588,7.55311765 C15.3896471,7.54147059 15.2246471,7.35705882 15.2362941,7.13964706 L15.3294706,5.43335294 L14.0347059,5.577 L13.1184706,10.3037647 C13.0912941,10.4493529 12.9806471,10.5735882 12.8253529,10.6104706 L6.16129412,12.2391176 L5.66629412,16.0282941 L7.24641176,17.0571176 C7.31435294,17.0998235 7.36870588,17.1658235 7.39976471,17.2454118 L9.88641176,23.694 C9.94658824,23.8337647 9.92135294,24.0007059 9.81070588,24.1191176 L6.56311765,27.5317059 L6.66017647,27.6287647 C7.34735294,28.3178824 8.10441176,28.9390588 8.91582353,29.4806471 C9.71558824,30.0183529 10.5735882,30.4784118 11.4742941,30.8511176 C12.3555882,31.2160588 13.2834706,31.4994706 14.2443529,31.6897059 C15.1819412,31.8741176 16.1525294,31.9711765 17.1464118,31.9711765 C18.1402941,31.9711765 19.1089412,31.8741176 20.0465294,31.6897059 C21.0093529,31.4994706 21.9352941,31.2160588 22.8165882,30.8511176 C22.9485882,30.7967647 23.0786471,30.7404706 23.2087059,30.6822353 L23.2475294,28.0985294 L17.5035882,25.5730588 C17.3055882,25.4876471 17.2143529,25.2547059 17.3017059,25.0567059 L17.3075294,25.0450588 L19.1225294,20.7317647 C19.1691176,20.6230588 19.2564706,20.5454118 19.3612941,20.5104706 L23.1174706,19.2700588 C23.1310588,19.2661765 23.1446471,19.2622941 23.1582353,19.2603529 L27.3861176,17.9733529 L27.3822353,17.9422941 L25.0237059,17.9325882 C24.9285882,17.9325882 24.8412353,17.8976471 24.7732941,17.8413529 L24.7732941,17.8432941 L23.2863529,16.6106471 L22.4632941,17.9325882 C22.3798235,18.0665294 22.2245294,18.1325294 22.0750588,18.1111765 L19.1458235,17.7967059 C18.9303529,17.7734118 18.7750588,17.5812353 18.7983529,17.3657647 C18.8061176,17.2822941 18.8391176,17.2085294 18.8895882,17.1483529 L21.0598235,14.4714706 L21.1646471,11.7499412 C21.1685294,11.6470588 21.2112353,11.5558235 21.2772353,11.4878824 L23.4571765,9.27105882 L23.1019412,7.22894118 C23.0650588,7.01541176 23.2087059,6.81158824 23.4222353,6.77470588 C23.4591176,6.76888235 23.496,6.76888235 23.5309412,6.77276471 L27.9471176,6.98629412 C27.8422941,6.87758824 27.7374706,6.76888235 27.6307059,6.66211765 L27.6287647,6.66017647 C26.9415882,5.973 26.1864706,5.35182353 25.377,4.81023529 C24.5772353,4.27447059 23.7211765,3.81441176 22.8165882,3.43976471 L22.7971765,3.432 C21.9217059,3.07094118 20.9996471,2.79141176 20.0445882,2.60311765 C19.437,2.48276471 18.8158235,2.39929412 18.1849412,2.35464706 Z M23.9987647,30.2978824 L24.0375882,27.8481176 C24.0375882,27.6850588 23.9405294,27.5452941 23.8007647,27.4831765 L18.1732941,25.0101176 L19.7747647,21.2015294 L23.364,20.0174118 L23.3853529,20.0115882 L27.9315882,18.6275294 C28.1179412,18.5712353 28.2305294,18.3907059 28.2072353,18.2043529 L28.1179412,17.5035882 C28.0927059,17.3017059 27.9199412,17.1561176 27.7219412,17.16 L25.1673529,17.1483529 L23.4416471,15.7177059 C23.2747059,15.5798824 23.0262353,15.6031765 22.8884118,15.7720588 C22.8748235,15.7875882 22.8612353,15.8050588 22.8515294,15.8225294 L21.9255882,17.3055882 L19.9475294,17.0920588 L21.7508824,14.8655294 C21.8071765,14.7956471 21.8362941,14.7121765 21.8382353,14.6287059 L21.9430588,11.9304706 L24.1579412,9.67676471 C24.2511176,9.58358824 24.2860588,9.45547059 24.2647059,9.33511765 L23.9599412,7.58029412 L28.6634118,7.80935294 C28.9526471,8.16458824 29.2263529,8.53147059 29.4787059,8.91194118 C30.0125294,9.70976471 30.4706471,10.56 30.8414118,11.4548824 L30.8511176,11.4762353 C31.2160588,12.3575294 31.4994706,13.2834706 31.6877647,14.2462941 C31.8741176,15.1819412 31.9711765,16.1525294 31.9711765,17.1444706 C31.9711765,18.1402941 31.8741176,19.1089412 31.6877647,20.0465294 C31.4994706,21.0093529 31.2141176,21.9372353 30.8511176,22.8185294 C30.4764706,23.7192353 30.0164118,24.5772353 29.4787059,25.3789412 C28.9390588,26.1884118 28.3178824,26.9415882 27.6307059,27.6287647 L27.6287647,27.6307059 C26.9415882,28.3178824 26.1864706,28.9390588 25.377,29.4806471 C24.9363529,29.7776471 24.4743529,30.0494118 23.9987647,30.2978824 Z M25.8157059,4.158 C24.9674118,3.59117647 24.0647647,3.10588235 23.1174706,2.71376471 L23.0961176,2.706 C22.1701765,2.32358824 21.1976471,2.02658824 20.1940588,1.83052941 C19.2079412,1.63447059 18.1868824,1.53158824 17.1464118,1.53158824 C16.104,1.53158824 15.0829412,1.63447059 14.0968235,1.83052941 C13.0854706,2.02852941 12.1090588,2.32747059 11.1753529,2.71376471 L11.1734118,2.71376471 C10.2261176,3.10588235 9.32347059,3.59117647 8.47711765,4.158 C7.62494118,4.72870588 6.82905882,5.38094118 6.105,6.105 C5.38288235,6.82517647 4.73064706,7.62105882 4.158,8.47711765 C3.59311765,9.32152941 3.10782353,10.2261176 2.71570588,11.1734118 C2.32941176,12.1051765 2.03047059,13.0835294 1.82858824,14.0948824 C1.63447059,15.0829412 1.53158824,16.1020588 1.53158824,17.1444706 C1.53158824,18.1888235 1.63447059,19.2079412 1.82858824,20.196 C2.03047059,21.2054118 2.32747059,22.1837647 2.71570588,23.1174706 C3.10588235,24.0667059 3.59311765,24.9693529 4.158,25.8137647 C4.72870588,26.6678824 5.38288235,27.4618235 6.105,28.1858824 C6.82905882,28.908 7.62494118,29.5621765 8.47905882,30.1328824 C9.32347059,30.6997059 10.2261176,31.185 11.1753529,31.5771176 C12.1090588,31.9634118 13.0854706,32.2623529 14.0948824,32.4603529 C15.0829412,32.6564118 16.1020588,32.7592941 17.1464118,32.7592941 C18.1888235,32.7592941 19.2098824,32.6564118 20.1979412,32.4603529 C21.2073529,32.2623529 22.1837647,31.9634118 23.1174706,31.5771176 L23.1174706,31.5751765 L23.1174706,31.5771176 C24.0647647,31.185 24.9674118,30.6997059 25.8137647,30.1328824 C26.6659412,29.5621765 27.4618235,28.908 28.1839412,28.1858824 L28.1858824,28.1839412 C28.908,27.4618235 29.5602353,26.6678824 30.1309412,25.8137647 C30.6977647,24.9693529 31.1830588,24.0667059 31.5751765,23.1174706 C31.9634118,22.1837647 32.2623529,21.2073529 32.4603529,20.196 C32.6564118,19.2098824 32.7592941,18.1888235 32.7592941,17.1444706 C32.7592941,16.1020588 32.6564118,15.081 32.4603529,14.0948824 C32.2604118,13.0835294 31.9634118,12.1051765 31.5751765,11.1734118 L31.5674118,11.154 C31.1752941,10.2125294 30.6938824,9.31570588 30.1309412,8.47517647 C29.5602353,7.623 28.9099412,6.82905882 28.1858824,6.10694118 L28.1839412,6.105 C27.4618235,5.38094118 26.6659412,4.72870588 25.8157059,4.158 L25.8157059,4.158 Z" id="Fill-73" fill="#403E3B"></path>
        </g>
    </g>
</svg>