<?xml version="1.0" encoding="UTF-8" standalone="no"?>
<svg width="187px" height="62px" viewBox="0 0 187 62" version="1.1" xmlns="http://www.w3.org/2000/svg" xmlns:xlink="http://www.w3.org/1999/xlink">
    <!-- Generator: Sketch 43.1 (39012) - http://www.bohemiancoding.com/sketch -->
    <title>iteris</title>
    <desc>Created with Sketch.</desc>
    <defs></defs>
    <g id="Page-1" stroke="none" stroke-width="1" fill="none" fill-rule="evenodd">
        <g id="iteris">
            <path d="M6.31904166,0.140566534 C9.75195833,0.140566534 12.560625,2.87948415 12.560625,6.58532914 C12.560625,10.2911741 9.67404167,13.030565 6.31904166,13.030565 C2.88658334,13.030565 0,10.2911741 0,6.58532914 C0,2.96041639 2.80866668,0.140566534 6.31904166,0.140566534" id="Fill-2" fill="#FFFFFF" fill-rule="nonzero"></path>
            <polygon id="Fill-3" fill="#FFFFFF" fill-rule="nonzero" points="1.17058333 60.3995938 11.4684167 60.3995938 11.4684167 18.6697914 1.17058333 18.6697914"></polygon>
            <path d="M72.3625833,26.4033171 C64.0928751,26.4033171 61.986375,32.2843938 61.4400417,34.3786931 L82.9720833,34.3786931 C82.737875,33.009471 80.788125,26.4033171 72.3625833,26.4033171 Z M92.7240417,41.951301 L61.2842083,41.951301 C61.5963333,44.2874506 63.7802918,52.5046767 73.6106251,52.5046767 C80.70975,52.5046767 84.2205832,47.9128367 84.53225,47.4296097 L91.0075833,53.310213 C89.7590833,54.9212851 85.3123333,61.527439 72.6742499,61.527439 C60.3478333,61.527439 50.8305418,52.5856091 50.8305418,39.3733013 C50.8305418,26.6446941 59.9577917,17.5414729 72.0504583,17.5414729 C85.8586666,17.5414729 92.8019583,27.9344038 92.8019583,40.421161 C92.8019583,40.904388 92.7240417,41.468074 92.7240417,41.951301 L92.7240417,41.951301 Z" id="Fill-4" fill="#FFFFFF" fill-rule="nonzero"></path>
            <path d="M107.666167,18.6697914 L107.666167,27.0479356 C108.680458,22.6170132 113.049292,17.6224051 119.914667,17.6224051 C120.850583,17.6224051 121.864417,17.5414729 122.800792,17.7023908 L122.099083,27.9344038 C121.630667,27.9344038 121.240625,27.8534716 120.850583,27.8534716 C113.438875,27.8534716 108.44625,29.8677853 108.44625,36.876234 L108.44625,60.3995938 L98.0705001,60.3995938 L98.0705001,18.6697914 L107.666167,18.6697914" id="Fill-5" fill="#FFFFFF" fill-rule="nonzero"></path>
            <path d="M133.676583,0.140566534 C137.1095,0.140566534 139.918167,2.87948415 139.918167,6.58532914 C139.918167,10.2911741 137.031583,13.030565 133.676583,13.030565 C130.244125,13.030565 127.357542,10.2911741 127.357542,6.58532914 C127.357542,2.96041639 130.166208,0.140566534 133.676583,0.140566534" id="Fill-6" fill="#FFFFFF" fill-rule="nonzero"></path>
            <polygon id="Fill-7" fill="#FFFFFF" fill-rule="nonzero" points="128.528125 60.3995938 138.825958 60.3995938 138.825958 18.6697914 128.528125 18.6697914"></polygon>
            <polygon id="path-1" points="186.627375 11.8052225 186.627375 61.5274392 165.076083 61.5274392 143.524792 61.5274392 143.524792 11.8052225"></polygon>
            <path d="M177.304417,21.6505594 L173.248167,29.2231673 C172.155959,28.4176311 167.865042,25.7591724 162.559833,25.7591724 C159.205292,25.7591724 156.006583,27.0479356 156.006583,29.142235 C156.006583,31.9620849 159.907458,32.6062297 166.772375,34.6205436 C173.793583,36.714843 179.021333,40.5820791 179.021333,47.7519188 C179.021333,54.5989762 172.936042,61.5274392 160.843833,61.5274392 C151.481917,61.5274392 145.006583,57.0965171 143.524792,56.1300629 L147.893167,47.7519188 C150.623917,49.6848271 155.070667,52.1023821 160.609625,52.1023821 C165.758542,52.1023821 168.489292,50.6517544 168.489292,48.0737547 C168.489292,45.0929869 163.027792,43.8042236 157.410917,41.9513012 C151.404,39.9374609 145.318708,37.4403934 145.318708,30.0287034 C145.318708,22.5365545 152.88625,17.541473 162.404,17.541473 C169.971083,17.541473 175.588417,20.4417818 177.304417,21.6505594" id="Fill-8" fill="#FFFFFF" fill-rule="nonzero"></path>
            <polygon id="path-1" points="186.627375 11.8052225 186.627375 61.5274392 165.076083 61.5274392 143.524792 61.5274392 143.524792 11.8052225"></polygon>
            <path d="M43.2634584,16.7879984 C46.6959166,16.7879984 49.5050417,19.526916 49.5050417,23.232761 C49.5050417,26.9386059 46.6184583,29.6779968 43.2634584,29.6779968 C39.831,29.6779968 36.9444166,26.9386059 36.9444166,23.232761 C36.9444166,19.6078482 39.7530834,16.7879984 43.2634584,16.7879984" id="Fill-13" fill="#FFFFFF" fill-rule="nonzero"></path>
            <path d="M33.9606667,5.95774926 L33.9606667,46.8654503 C33.9606667,48.8792906 34.6628334,51.8600585 38.8753751,51.8600585 C42.7767082,51.8600585 44.570625,49.6848269 45.0385833,49.0406819 L50.265875,56.6132897 C49.7195417,57.2579081 45.819125,61.527439 37.0035417,61.527439 C26.7057084,61.527439 23.6628334,54.4380582 23.6628334,48.5574549 L23.6628334,27.8534716 L16.641625,27.8534716 L16.641625,18.6697914 L23.6628334,18.6697914 L23.6628334,12.28277 L33.9606667,5.95774926" id="Fill-14" fill="#FFFFFF" fill-rule="nonzero"></path>
        </g>
    </g>
</svg>