<?xml version="1.0" encoding="UTF-8" standalone="no"?>
<svg width="32px" height="28px" viewBox="0 0 32 28" version="1.1" xmlns="http://www.w3.org/2000/svg" xmlns:xlink="http://www.w3.org/1999/xlink">
    <!-- Generator: Sketch 43.1 (39012) - http://www.bohemiancoding.com/sketch -->
    <title>Group 91</title>
    <desc>Created with Sketch.</desc>
    <defs></defs>
    <g id="Page-1" stroke="none" stroke-width="1" fill="none" fill-rule="evenodd">
        <g id="Group-91">
            <path d="M0.862142857,4.209375 L0.862142857,5.33125 L5.30771429,0.9109375 L4.17785714,0.9109375 L0.862142857,4.209375 Z M0.862142857,6.115625 L6.09657143,0.9109375 L7.22642857,0.9109375 L0.862142857,7.2390625 L0.862142857,6.115625 Z M0.862142857,8.0234375 L8.01371429,0.9109375 L9.14357143,0.9109375 L5.77914286,4.2546875 L5.77128571,4.2546875 C5.46328571,4.2546875 5.18514286,4.3796875 4.98242857,4.58125 L4.98242857,4.5828125 C4.78128571,4.7828125 4.65557143,5.059375 4.65557143,5.365625 L4.65557143,5.3734375 L0.862142857,9.1453125 L0.862142857,8.0234375 Z M0.862142857,9.9296875 L0.862142857,11.053125 L4.65557143,7.28125 L4.65557143,6.1578125 L0.862142857,9.9296875 Z M0.951714286,11.7484375 C0.970571429,11.79375 0.991,11.8390625 1.01614286,11.88125 C1.11671429,12.0625 1.26757143,12.2203125 1.46085714,12.3390625 L1.47657143,12.35 L4.995,8.8515625 L4.984,8.840625 L4.98242857,8.8390625 C4.78285714,8.640625 4.65714286,8.3671875 4.65557143,8.065625 L0.951714286,11.7484375 Z M1.96214286,12.65 L2.65828571,13.08125 L6.59471429,9.165625 L5.77128571,9.165625 C5.677,9.165625 5.58742857,9.1546875 5.501,9.1328125 L1.96214286,12.65 Z M3.14385714,13.3828125 L7.38514286,9.165625 L8.51342857,9.165625 L3.86671429,13.7859375 C3.76771429,13.7546875 3.66871429,13.709375 3.57128571,13.6484375 L3.14385714,13.3828125 Z M4.60214286,13.840625 L5.73042857,13.840625 L11.496,8.10625 L10.0612857,8.996875 C9.97014286,9.053125 9.87742857,9.096875 9.77842857,9.125 C9.681,9.153125 9.57885714,9.165625 9.472,9.165625 L9.30228571,9.165625 L4.60214286,13.840625 Z M6.51928571,13.840625 L7.64914286,13.840625 L20.6511429,0.9109375 L19.5228571,0.9109375 L6.51928571,13.840625 Z M8.43642857,13.840625 L9.56785714,13.840625 L22.5698571,0.9109375 L21.44,0.9109375 L8.43642857,13.840625 Z M10.3551429,13.840625 L23.3587143,0.9109375 L24.4885714,0.9109375 L21.1241429,4.2546875 L20.6134286,4.2546875 C20.3054286,4.2546875 20.0272857,4.3796875 19.8245714,4.58125 C19.8182857,4.5875 19.812,4.5953125 19.8057143,4.6015625 C19.6155714,4.8 19.4977143,5.0703125 19.4977143,5.365625 L19.4977143,5.8734375 L12.453,12.878125 L11.2115714,13.6484375 C11.1047143,13.7140625 10.9994286,13.7625 10.8878571,13.79375 C10.7794286,13.825 10.6631429,13.840625 10.5374286,13.840625 L10.3551429,13.840625 Z M14.2491429,11.8765625 L19.4977143,6.6578125 L19.4977143,6.8359375 C19.4977143,7.028125 19.5464286,7.2125 19.636,7.3734375 L19.636,7.375 C19.6674286,7.43125 19.7035714,7.484375 19.7444286,7.534375 L15.4277143,11.8265625 L14.6954286,11.8265625 C14.5398571,11.8265625 14.3937143,11.8421875 14.2491429,11.8765625 Z M16.2181429,11.8265625 L20.1875714,7.878125 L20.8837143,8.309375 L17.3464286,11.8265625 L16.2181429,11.8265625 Z M18.0174286,11.94375 L21.3677143,8.6125 L21.99,8.996875 L22.0654286,9.040625 L18.7387143,12.3484375 L18.3615714,12.1140625 C18.2484286,12.04375 18.1352857,11.9875 18.0174286,11.94375 Z M19.2242857,12.65 L22.7285714,9.165625 L23.8584286,9.165625 L19.9204286,13.08125 L19.2242857,12.65 Z M20.406,13.38125 L24.6457143,9.165625 L25.7755714,9.165625 L21.1304286,13.7859375 C21.0298571,13.7546875 20.9308571,13.709375 20.8334286,13.6484375 L20.406,13.38125 Z M21.8627143,13.840625 L26.6162857,9.115625 C26.7891429,9.0609375 26.9431429,8.965625 27.0688571,8.840625 L27.0704286,8.840625 C27.1961429,8.715625 27.292,8.5609375 27.3454286,8.3890625 L31.1828571,4.5734375 L31.1828571,5.696875 L22.9925714,13.840625 L21.8627143,13.840625 Z M23.7814286,13.840625 L24.9097143,13.840625 L31.1828571,7.603125 L31.1828571,6.4796875 L23.7814286,13.840625 Z M25.6985714,13.840625 L26.8284286,13.840625 L31.1828571,9.5109375 L31.1828571,8.3875 L25.6985714,13.840625 Z M27.6172857,13.840625 L27.7995714,13.840625 C27.9252857,13.840625 28.0431429,13.825 28.1515714,13.79375 C28.2615714,13.7625 28.3684286,13.7140625 28.4752857,13.6484375 L29.7135714,12.8796875 L31.1734286,11.4265625 C31.1797143,11.3734375 31.1828571,11.31875 31.1828571,11.2640625 L31.1828571,10.2953125 L27.6172857,13.840625 Z M31.1828571,3.7890625 L31.1828571,2.665625 L27.3972857,6.43125 L27.3972857,7.553125 L31.1828571,3.7890625 Z M31.1545714,1.9109375 C31.1027143,1.66875 30.9801429,1.4515625 30.8104286,1.2828125 L30.8088571,1.2828125 L30.7302857,1.209375 L27.193,4.7265625 C27.3218571,4.90625 27.3972857,5.1265625 27.3972857,5.365625 L27.3972857,5.646875 L31.1545714,1.9109375 Z M30.207,0.946875 L26.7671429,4.365625 C26.6194286,4.2953125 26.456,4.2546875 26.2815714,4.2546875 L25.7488571,4.2546875 L29.1117143,0.9109375 L29.9084286,0.9109375 C30.0105714,0.9109375 30.1111429,0.9234375 30.207,0.946875 Z M28.3244286,0.9109375 L27.1945714,0.9109375 L23.8301429,4.2546875 L24.96,4.2546875 L28.3244286,0.9109375 Z M26.4057143,0.9109375 L23.0412857,4.2546875 L21.913,4.2546875 L25.2774286,0.9109375 L26.4057143,0.9109375 Z M18.734,0.9109375 L12.5284286,7.0828125 C12.5457143,7.003125 12.5551429,6.9203125 12.5551429,6.8359375 L12.5551429,5.93125 L17.6041429,0.9109375 L18.734,0.9109375 Z M16.8168571,0.9109375 L12.5362857,5.165625 C12.4954286,4.940625 12.3838571,4.7375 12.2267143,4.58125 C12.189,4.5421875 12.1481429,4.50625 12.1041429,4.4734375 L15.687,0.9109375 L16.8168571,0.9109375 Z M14.8965714,0.9109375 L11.5305714,4.2609375 L11.4394286,4.2546875 L10.4054286,4.2546875 L13.7682857,0.9109375 L14.8965714,0.9109375 Z M12.981,0.9109375 L11.8511429,0.9109375 L8.48671429,4.2546875 L9.61657143,4.2546875 L12.981,0.9109375 Z M11.0622857,0.9109375 L9.93242857,0.9109375 L6.56957143,4.2546875 L7.69785714,4.2546875 L11.0622857,0.9109375 Z M3.39057143,0.9109375 L0.862142857,3.425 L0.862142857,2.3015625 L2.26071429,0.9109375 L3.39057143,0.9109375 L3.39057143,0.9109375 Z" id="Fill-182" fill="#ECECEC"></path>
            <path d="M6.10442857,8.5328125 L7.23271429,8.5328125 L10.8972857,4.890625 L9.76742857,4.890625 L6.10442857,8.5328125 Z M8.02157143,8.5328125 L11.6405714,4.934375 C11.6908571,4.9578125 11.738,4.990625 11.7772857,5.0296875 C11.8637143,5.115625 11.9171429,5.234375 11.9171429,5.365625 L11.9171429,5.78125 L9.15142857,8.5328125 L8.02157143,8.5328125 Z M10.4871429,7.9875 L11.9171429,6.5671875 L11.9171429,6.8359375 C11.9171429,6.9234375 11.8982857,7.003125 11.8621429,7.06875 C11.8244286,7.1359375 11.7662857,7.19375 11.6924286,7.2390625 L10.4871429,7.9875 Z M8.97857143,4.890625 L5.44442857,8.403125 L5.43342857,8.3921875 C5.347,8.3078125 5.29357143,8.1890625 5.29357143,8.05625 L5.29357143,7.43125 L7.85028571,4.890625 L8.97857143,4.890625 Z M7.05985714,4.890625 L5.29357143,6.646875 L5.29357143,5.5234375 L5.93157143,4.890625 L7.05985714,4.890625 L7.05985714,4.890625 Z" id="Fill-183" fill="#91A2A6"></path>
            <path d="M23.365,8.5328125 L24.4964286,8.5328125 L26.7592857,6.28125 L26.7592857,5.365625 C26.7592857,5.303125 26.7482857,5.2453125 26.7262857,5.190625 L23.365,8.5328125 Z M25.2837143,8.5328125 L26.7592857,7.065625 L26.7592857,8.05625 C26.7592857,8.1125 26.7498571,8.165625 26.7325714,8.215625 L26.4402857,8.5046875 C26.3915714,8.5234375 26.3381429,8.5328125 26.2815714,8.5328125 L25.2837143,8.5328125 Z M26.2407143,4.890625 L22.5761429,8.5328125 C22.529,8.5328125 22.4865714,8.5265625 22.4472857,8.515625 C22.4064286,8.5046875 22.3671429,8.4859375 22.3262857,8.4609375 L21.8297143,8.1515625 L25.1108571,4.890625 L26.2407143,4.890625 Z M24.322,4.890625 L21.3441429,7.85 L20.6495714,7.41875 L23.1921429,4.890625 L24.322,4.890625 Z M22.4048571,4.890625 L21.275,4.890625 L20.1357143,6.0234375 L20.1357143,6.8359375 C20.1357143,6.9234375 20.1545714,7.003125 20.1907143,7.06875 L20.1922857,7.06875 L20.1985714,7.0828125 L22.4048571,4.890625 Z M20.4625714,4.9140625 L20.1592857,5.215625 C20.1812857,5.15 20.2174286,5.090625 20.263,5.040625 L20.2755714,5.0296875 C20.3274286,4.9765625 20.3918571,4.9375 20.4625714,4.9140625 L20.4625714,4.9140625 Z" id="Fill-184" fill="#91A2A6"></path>
            <path d="M16.0232857,0.9109375 L2.13657143,0.9109375 C1.78457143,0.9109375 1.46714286,1.053125 1.23614286,1.2828125 C1.00514286,1.5125 0.860571429,1.8296875 0.860571429,2.178125 L0.860571429,11.2734375 C0.863714286,11.4984375 0.917142857,11.7046875 1.01614286,11.88125 C1.11671429,12.0625 1.26757143,12.2203125 1.46085714,12.340625 L3.56971429,13.6484375 C3.67657143,13.7140625 3.78342857,13.7625 3.89342857,13.79375 C4.00185714,13.825 4.11971429,13.840625 4.24542857,13.840625 L10.5358571,13.840625 C10.6631429,13.840625 10.7794286,13.825 10.8878571,13.79375 C10.9994286,13.7625 11.1047143,13.7140625 11.2115714,13.6484375 L13.6834286,12.1140625 C13.8421429,12.0171875 14.0008571,11.94375 14.169,11.896875 C14.3371429,11.8484375 14.51,11.8265625 14.6954286,11.8265625 L17.3495714,11.8265625 C17.535,11.8265625 17.7078571,11.8484375 17.876,11.896875 C18.0441429,11.94375 18.2044286,12.0171875 18.3615714,12.1140625 L20.8334286,13.6484375 C20.9387143,13.7140625 21.0455714,13.7625 21.1555714,13.79375 C21.2655714,13.825 21.3818571,13.840625 21.5091429,13.840625 L27.7995714,13.840625 C27.9252857,13.840625 28.0431429,13.825 28.1515714,13.79375 C28.2615714,13.7625 28.3684286,13.7140625 28.4752857,13.6484375 L30.5841429,12.340625 C30.7774286,12.2203125 30.9282857,12.0625 31.0288571,11.88125 C31.1294286,11.7015625 31.1828571,11.4921875 31.1828571,11.2640625 L31.1828571,2.178125 C31.1828571,1.8296875 31.0398571,1.5125 30.8088571,1.2828125 C30.5778571,1.0546875 30.2588571,0.9109375 29.9084286,0.9109375 L16.0232857,0.9109375 Z M0.860571429,12.6828125 L0.860571429,26.8828125 C0.860571429,27.0578125 0.719142857,27.2 0.543142857,27.2 C0.367142857,27.2 0.224142857,27.0578125 0.224142857,26.8828125 L0.224142857,2.178125 C0.224142857,1.6578125 0.437857143,1.184375 0.782,0.8390625 C1.134,0.490625 1.61171429,0.2765625 2.13657143,0.2765625 L29.9084286,0.2765625 C30.4348571,0.2765625 30.9141429,0.490625 31.2598571,0.8359375 C31.6055714,1.178125 31.8208571,1.6546875 31.8208571,2.178125 L31.8208571,11.2640625 C31.8208571,11.5984375 31.7375714,11.9125 31.5851429,12.1890625 C31.4311429,12.4640625 31.2064286,12.6984375 30.9204286,12.8765625 L28.8115714,14.1859375 C28.6528571,14.284375 28.4925714,14.3546875 28.326,14.403125 C28.1578571,14.4515625 27.985,14.475 27.7995714,14.475 L21.5091429,14.475 C21.3237143,14.475 21.1508571,14.4515625 20.9827143,14.403125 C20.8145714,14.3546875 20.6542857,14.284375 20.4971429,14.1859375 L18.0252857,12.6515625 C17.9184286,12.5859375 17.8115714,12.5375 17.7015714,12.50625 C17.5915714,12.475 17.4768571,12.459375 17.3495714,12.459375 L14.6954286,12.459375 C14.5681429,12.459375 14.4518571,12.475 14.3434286,12.50625 C14.2334286,12.5375 14.1265714,12.5859375 14.0197143,12.6515625 L11.5494286,14.1859375 C11.3907143,14.284375 11.2304286,14.3546875 11.0622857,14.403125 C10.8957143,14.4515625 10.7212857,14.475 10.5358571,14.475 L4.24542857,14.475 C4.06,14.475 3.88714286,14.4515625 3.719,14.403125 C3.55085714,14.3546875 3.39214286,14.284375 3.235,14.1859375 L1.12457143,12.8765625 C1.03028571,12.81875 0.942285714,12.753125 0.860571429,12.6828125 Z M9.472,9.165625 L5.77128571,9.165625 C5.46328571,9.165625 5.18357143,9.0421875 4.98242857,8.840625 C4.97614286,8.834375 4.96828571,8.8265625 4.96357143,8.8203125 C4.77342857,8.6203125 4.65557143,8.3515625 4.65557143,8.05625 L4.65557143,5.365625 C4.65557143,5.059375 4.78128571,4.7828125 4.98242857,4.5828125 C5.18514286,4.3796875 5.46328571,4.2546875 5.77128571,4.2546875 L11.4394286,4.2546875 C11.7458571,4.2546875 12.024,4.3796875 12.2251429,4.58125 C12.4294286,4.78125 12.5535714,5.059375 12.5535714,5.365625 L12.5535714,6.8359375 C12.5535714,7.028125 12.5064286,7.2125 12.4152857,7.3734375 C12.3257143,7.5375 12.1952857,7.6734375 12.0287143,7.7765625 L10.0612857,8.996875 C9.97014286,9.053125 9.87742857,9.096875 9.77842857,9.125 C9.67942857,9.153125 9.57885714,9.165625 9.472,9.165625 Z M5.77128571,8.5328125 C5.63928571,8.5328125 5.51985714,8.4796875 5.43342857,8.3921875 L5.42085714,8.3796875 C5.34071429,8.2953125 5.29357143,8.18125 5.29357143,8.05625 L5.29357143,5.365625 C5.29357143,5.234375 5.34542857,5.1140625 5.43185714,5.0296875 C5.51828571,4.94375 5.63928571,4.890625 5.77128571,4.890625 L11.4394286,4.890625 C11.5698571,4.890625 11.6908571,4.94375 11.7772857,5.0296875 C11.8621429,5.115625 11.9155714,5.234375 11.9155714,5.365625 L11.9155714,6.8359375 C11.9155714,6.9234375 11.8967143,7.003125 11.8621429,7.06875 C11.8228571,7.1359375 11.7662857,7.19375 11.6924286,7.2390625 L9.725,8.4609375 C9.68414286,8.4859375 9.64485714,8.5046875 9.604,8.515625 C9.56471429,8.5265625 9.52071429,8.5328125 9.472,8.5328125 L5.77128571,8.5328125 Z M22.5792857,8.5328125 C22.5305714,8.5328125 22.4865714,8.5265625 22.4472857,8.515625 C22.4064286,8.5046875 22.3655714,8.4859375 22.3262857,8.4609375 L20.3588571,7.2390625 C20.285,7.19375 20.2284286,7.1359375 20.1907143,7.06875 C20.153,7.003125 20.1341429,6.9234375 20.1341429,6.8359375 L20.1341429,5.365625 C20.1341429,5.234375 20.1875714,5.1140625 20.2755714,5.0296875 C20.3604286,4.94375 20.4798571,4.890625 20.6134286,4.890625 L26.2815714,4.890625 C26.4072857,4.890625 26.522,4.9390625 26.6068571,5.0171875 L26.6178571,5.0296875 C26.7058571,5.115625 26.7592857,5.234375 26.7592857,5.365625 L26.7592857,8.05625 C26.7592857,8.1875 26.7058571,8.3078125 26.6178571,8.3921875 C26.533,8.4796875 26.412,8.5328125 26.2815714,8.5328125 L22.5792857,8.5328125 Z M22.5792857,9.165625 C22.4724286,9.165625 22.3718571,9.153125 22.2728571,9.125 C22.1754286,9.096875 22.0811429,9.0546875 21.99,8.996875 L20.0225714,7.7765625 C19.856,7.6734375 19.7255714,7.5375 19.636,7.375 C19.5448571,7.2125 19.4961429,7.028125 19.4961429,6.8359375 L19.4961429,5.365625 C19.4961429,5.059375 19.6234286,4.7828125 19.8245714,4.5828125 C20.0288571,4.3796875 20.307,4.2546875 20.6134286,4.2546875 L26.2815714,4.2546875 C26.577,4.2546875 26.8488571,4.371875 27.05,4.5625 C27.0562857,4.56875 27.0625714,4.5734375 27.0688571,4.58125 C27.2715714,4.78125 27.3972857,5.059375 27.3972857,5.365625 L27.3972857,8.05625 C27.3972857,8.3625 27.2715714,8.640625 27.0688571,8.840625 C26.8677143,9.0421875 26.588,9.165625 26.2815714,9.165625 L22.5792857,9.165625 Z" id="Fill-185" fill="#403E3B"></path>
        </g>
    </g>
</svg>