<?xml version="1.0" encoding="UTF-8" standalone="no"?>
<svg width="32px" height="28px" viewBox="0 0 32 28" version="1.1" xmlns="http://www.w3.org/2000/svg" xmlns:xlink="http://www.w3.org/1999/xlink">
    <!-- Generator: Sketch 43.1 (39012) - http://www.bohemiancoding.com/sketch -->
    <title>Group 96</title>
    <desc>Created with Sketch.</desc>
    <defs></defs>
    <g id="Page-1" stroke="none" stroke-width="1" fill="none" fill-rule="evenodd">
        <g id="Group-96">
            <path d="M13.6063125,9.4111875 L11.356125,10.399125 L8.080875,13.6764375 L9.5638125,13.6764375 L13.6063125,9.631875 L13.6063125,9.4111875 Z M9.51225,11.2096875 L7.0455,13.6764375 L5.5625625,13.6764375 L8.2335,11.0034375 L8.6356875,11.3416875 C8.765625,11.451 8.9450625,11.4654375 9.0894375,11.3953125 L9.51225,11.2096875 Z M7.6725,10.531125 L6.8660625,9.854625 L3.0463125,13.6764375 L4.5271875,13.6764375 L7.6725,10.531125 Z M6.303,9.3823125 L5.4965625,8.7058125 L1.3715625,12.8308125 L1.3715625,13.6764375 L2.0109375,13.6764375 L6.303,9.3823125 Z M4.9335,8.2335 L1.3715625,11.7954375 L1.3715625,10.3145625 L2.957625,8.7285 L4.38075,7.7694375 L4.9335,8.2335 Z M10.5991875,13.6764375 L13.6063125,10.66725 L13.6063125,12.1501875 L12.082125,13.6764375 L10.5991875,13.6764375 Z M13.1154375,13.6764375 L13.6063125,13.1855625 L13.6063125,13.6764375 L13.1154375,13.6764375 L13.1154375,13.6764375 Z" id="Fill-107" fill="#FFC02B"></path>
            <path d="M1.3715625,8.790375 L2.875125,7.7776875 L9.211125,1.439625 L7.7281875,1.439625 L1.3715625,7.7983125 L1.3715625,8.790375 Z M4.7210625,6.9650625 L10.2465,1.439625 L11.727375,1.439625 L10.7848125,2.3821875 C10.6280625,2.347125 10.4630625,2.3285625 10.2939375,2.3285625 C9.6916875,2.3285625 9.1471875,2.5719375 8.7511875,2.9679375 L8.749125,2.9679375 C8.3551875,3.3639375 8.10975,3.9105 8.10975,4.51275 C8.10975,4.681875 8.130375,4.8448125 8.1654375,5.0015625 L5.5275,7.6415625 L4.7210625,6.9650625 Z M6.0905625,8.113875 L8.4789375,5.7255 C8.5573125,5.845125 8.650125,5.9565 8.749125,6.0575625 C8.897625,6.204 9.06675,6.3339375 9.252375,6.4329375 L6.8949375,8.790375 L6.0905625,8.113875 Z M7.458,9.2626875 L10.04025,6.6825 C10.12275,6.69075 10.2073125,6.6969375 10.2939375,6.6969375 C10.89825,6.6969375 11.4448125,6.4515 11.83875,6.0575625 C12.2326875,5.6615625 12.478125,5.115 12.478125,4.51275 C12.478125,4.426125 12.4719375,4.3415625 12.4636875,4.257 L13.6063125,3.1164375 L13.6063125,4.5973125 L8.2644375,9.9391875 L7.458,9.2626875 Z M8.8275,10.4115 L13.6063125,5.6326875 L13.6063125,7.115625 L11.1354375,9.5865 L8.9739375,10.5331875 L8.8275,10.4115 Z M12.981375,8.7759375 L13.6063125,8.501625 L13.6063125,8.151 L12.981375,8.7759375 Z M13.6063125,2.079 L13.6063125,1.439625 L12.76275,1.439625 L11.5066875,2.6956875 C11.6263125,2.776125 11.735625,2.866875 11.8366875,2.9679375 L11.83875,2.9679375 C11.98725,3.1164375 12.1130625,3.287625 12.214125,3.47325 L13.6063125,2.079 Z M6.6928125,1.439625 L1.3715625,6.7629375 L1.3715625,5.28 L5.2119375,1.439625 L6.6928125,1.439625 Z M4.1765625,1.439625 L1.3715625,4.244625 L1.3715625,2.7616875 L2.693625,1.439625 L4.1765625,1.439625 Z M1.65825,1.439625 L1.3715625,1.7263125 L1.3715625,1.439625 L1.65825,1.439625 L1.65825,1.439625 Z" id="Fill-108" fill="#AFDCF6"></path>
            <path d="M11.248875,3.5578125 C11.1478125,3.45675 11.03025,3.370125 10.89825,3.3061875 L9.0894375,5.115 C9.153375,5.247 9.24,5.3645625 9.3410625,5.465625 C9.4936875,5.6161875 9.6793125,5.7316875 9.887625,5.7976875 L11.5809375,4.1064375 C11.5149375,3.898125 11.397375,3.7104375 11.248875,3.5578125 Z M9.9639375,3.205125 L8.9863125,4.1806875 C9.0481875,3.9414375 9.1719375,3.7269375 9.3410625,3.5578125 C9.5101875,3.3886875 9.722625,3.2649375 9.9639375,3.205125 L9.9639375,3.205125 Z" id="Fill-109" fill="#FFC02B"></path>
            <path d="M0.952875,21.2458125 C0.721875,21.2458125 0.5341875,21.058125 0.5341875,20.827125 C0.5341875,20.596125 0.721875,20.4084375 0.952875,20.4084375 L31.35825,20.4084375 C31.5871875,20.4084375 31.774875,20.596125 31.774875,20.827125 C31.774875,21.058125 31.5871875,21.2458125 31.35825,21.2458125 L0.952875,21.2458125 Z M1.3715625,8.790375 L4.1745,6.901125 C4.3374375,6.7918125 4.549875,6.8124375 4.6880625,6.93825 L8.9739375,10.5331875 L13.6063125,8.501625 L13.6063125,1.439625 L1.3715625,1.439625 L1.3715625,8.790375 Z M13.6063125,9.4111875 L13.6063125,13.6764375 L1.3715625,13.6764375 L1.3715625,9.7989375 L4.38075,7.7694375 L8.6356875,11.3416875 C8.765625,11.451 8.9450625,11.4654375 9.0894375,11.3953125 L13.6063125,9.4111875 Z M10.2939375,2.3285625 C10.8961875,2.3285625 11.44275,2.5719375 11.8366875,2.9679375 L11.83875,2.9679375 C12.2326875,3.3639375 12.478125,3.9105 12.478125,4.51275 C12.478125,5.115 12.2326875,5.6615625 11.83875,6.0575625 C11.4448125,6.4515 10.89825,6.6969375 10.2939375,6.6969375 C9.6916875,6.6969375 9.145125,6.4515 8.749125,6.0575625 C8.3551875,5.6615625 8.10975,5.115 8.10975,4.51275 C8.10975,3.9105 8.3551875,3.3639375 8.749125,2.9679375 L8.7511875,2.9679375 C9.1471875,2.5719375 9.6916875,2.3285625 10.2939375,2.3285625 Z M11.248875,3.5578125 C11.4901875,3.8011875 11.6428125,4.1394375 11.6428125,4.51275 C11.6428125,4.884 11.4901875,5.22225 11.248875,5.465625 C11.0034375,5.709 10.66725,5.8595625 10.2939375,5.8595625 C9.9226875,5.8595625 9.5844375,5.709 9.3410625,5.465625 C9.0976875,5.22225 8.9450625,4.884 8.9450625,4.51275 C8.9450625,4.1394375 9.0976875,3.8011875 9.3410625,3.5578125 C9.5844375,3.3144375 9.920625,3.163875 10.2939375,3.163875 C10.66725,3.163875 11.0055,3.3144375 11.248875,3.5578125 Z M0.952875,0.6043125 L14.0229375,0.6043125 C14.256,0.6043125 14.441625,0.792 14.441625,1.023 L14.441625,14.0930625 C14.441625,14.3240625 14.256,14.51175 14.0229375,14.51175 L0.952875,14.51175 C0.721875,14.51175 0.5341875,14.3240625 0.5341875,14.0930625 L0.5341875,1.023 C0.5341875,0.792 0.721875,0.6043125 0.952875,0.6043125 Z M17.1744375,14.51175 C16.9434375,14.51175 16.7578125,14.3240625 16.7578125,14.0930625 C16.7578125,13.8620625 16.9434375,13.6764375 17.1744375,13.6764375 L31.35825,13.6764375 C31.5871875,13.6764375 31.774875,13.8620625 31.774875,14.0930625 C31.774875,14.3240625 31.5871875,14.51175 31.35825,14.51175 L17.1744375,14.51175 Z M17.1744375,7.7776875 C16.9434375,7.7776875 16.7578125,7.59 16.7578125,7.359 C16.7578125,7.128 16.9434375,6.942375 17.1744375,6.942375 L31.35825,6.942375 C31.5871875,6.942375 31.774875,7.128 31.774875,7.359 C31.774875,7.59 31.5871875,7.7776875 31.35825,7.7776875 L17.1744375,7.7776875 Z M17.1744375,1.4416875 C16.9434375,1.4416875 16.7578125,1.2519375 16.7578125,1.023 C16.7578125,0.792 16.9434375,0.6043125 17.1744375,0.6043125 L31.35825,0.6043125 C31.5871875,0.6043125 31.774875,0.792 31.774875,1.023 C31.774875,1.2519375 31.5871875,1.4416875 31.35825,1.4416875 L17.1744375,1.4416875 Z M0.952875,27.583875 C0.721875,27.583875 0.5341875,27.394125 0.5341875,27.163125 C0.5341875,26.932125 0.721875,26.7444375 0.952875,26.7444375 L31.35825,26.7444375 C31.5871875,26.7444375 31.774875,26.932125 31.774875,27.163125 C31.774875,27.394125 31.5871875,27.583875 31.35825,27.583875 L0.952875,27.583875 L0.952875,27.583875 Z" id="Fill-110" fill="#403E3B"></path>
        </g>
    </g>
</svg>