<?xml version="1.0" encoding="UTF-8" standalone="no"?>
<svg width="123px" height="24px" viewBox="0 0 123 24" version="1.1" xmlns="http://www.w3.org/2000/svg" xmlns:xlink="http://www.w3.org/1999/xlink">
    <!-- Generator: Sketch 43.1 (39012) - http://www.bohemiancoding.com/sketch -->
    <title>Group</title>
    <desc>Created with Sketch.</desc>
    <defs></defs>
    <g id="Page-1" stroke="none" stroke-width="1" fill="none" fill-rule="evenodd">
        <g id="March-14th-2017" transform="translate(-1142.000000, -3724.000000)">
            <g id="Group" transform="translate(1142.000000, 3724.000000)">
                <g id="Group-4">
                    <polyline id="Fill-1" fill="#20918F" points="102.989535 0.633290323 102.989535 6.51948387 112.609614 11.9930323 102.989535 17.4665806 102.989535 23.3547097 122.956794 11.9941935 102.989535 0.633290323"></polyline>
                    <path d="M6.40183861,17.648129 C4.83281013,16.0981935 4.04849051,14.1685161 4.04849051,11.8594839 C4.04849051,9.55045161 4.83864873,7.65367742 6.41818671,6.1683871 C7.99850316,4.68348387 9.95093354,3.94064516 12.2774241,3.94064516 C13.5938354,3.94064516 14.7401487,4.14696774 15.7171424,4.55845161 C16.6933576,4.97070968 17.7299051,5.69690323 18.8275633,6.73741935 L21.2961266,4.07070968 C18.9038544,1.46903226 15.9253861,0.168 12.3595538,0.168 C8.79372152,0.168 5.8425,1.2956129 3.5055,3.55045161 C1.1685,5.80529032 0,8.62374194 0,12.0058065 C0,15.387871 1.14631329,18.1846452 3.43971835,20.396129 C5.73234494,22.6076129 8.61778481,23.7135484 12.0964272,23.7135484 C15.5742911,23.7135484 18.530962,22.38 20.9668291,19.7132903 L18.4651804,17.1766452 C17.4118956,18.152129 16.4025949,18.8624516 15.4372785,19.3068387 C14.4715728,19.7512258 13.3194209,19.9734194 11.981212,19.9734194 C9.83026899,19.9734194 7.97086709,19.1984516 6.40183861,17.648129" id="Fill-3" fill="#0A0A08"></path>
                </g>
                <path d="M29.4125696,14.5912258 L32.68725,5.22503226 L35.9615411,14.5912258 L29.4125696,14.5912258 Z M37.5410791,18.135871 L39.8449937,23.3067097 L43.9923513,23.3067097 L34.7607342,0.574451613 L30.6129873,0.574451613 L21.3813703,23.3067097 L25.5287278,23.3067097 L27.8326424,18.135871 L37.5410791,18.135871 L37.5410791,18.135871 Z" id="Fill-5" fill="#0A0A08"></path>
                <polyline id="Fill-6" fill="#0A0A08" points="42.0683354 0.574451613 37.8882816 0.574451613 46.8256329 23.3067097 50.6763892 23.3067097 56.4208006 7.72916129 56.6843165 7.72916129 62.4287278 23.3067097 66.2794842 23.3067097 75.2168354 0.574451613 71.0367816 0.574451613 64.3375633 16.9327742 58.2969399 0.574451613 54.8081772 0.574451613 48.7671646 16.9327742 42.0683354 0.574451613"></polyline>
                <polygon id="Fill-7" fill="#0A0A08" points="76.5098924 23.3067097 80.3941234 23.3067097 80.3941234 0.574451613 76.5098924 0.574451613"></polygon>
                <polyline id="Fill-8" fill="#0A0A08" points="100.719873 4.08696774 100.719873 0.574451613 82.8798133 0.574451613 82.8798133 4.08696774 89.8577278 4.08696774 89.8577278 23.3067097 93.7419589 23.3067097 93.7419589 4.08696774 100.719873 4.08696774"></polyline>
                <polyline id="Fill-9" fill="#55265B" points="109.333377 11.9941935 99.0223956 17.8687742 99.0223956 6.11883871 109.333377 11.9941935"></polyline>
            </g>
        </g>
    </g>
</svg>