<?xml version="1.0" encoding="UTF-8" standalone="no"?>
<svg width="111px" height="60px" viewBox="0 0 111 60" version="1.1" xmlns="http://www.w3.org/2000/svg" xmlns:xlink="http://www.w3.org/1999/xlink">
    <!-- Generator: Sketch 43.1 (39012) - http://www.bohemiancoding.com/sketch -->
    <title>cisco-seeklogo.com</title>
    <desc>Created with Sketch.</desc>
    <defs>
        <polygon id="path-1" points="100.959761 43.0546325 0.0203669725 43.0546325 0.0203669725 0.0252981007 100.959761 0.0252981007"></polygon>
    </defs>
    <g id="Page-1" stroke="none" stroke-width="1" fill="none" fill-rule="evenodd">
        <g id="March-14th-2017" transform="translate(-933.000000, -3611.000000)">
            <g id="cisco-seeklogo.com" transform="translate(933.000000, 3611.000000)">
                <g id="Group-8" transform="translate(0.000000, 16.067713)">
                    <mask id="mask-2" fill="white">
                        <use xlink:href="#path-1"></use>
                    </mask>
                    <g id="Clip-2"></g>
                    <polygon id="Fill-1" fill="#B01C33" mask="url(#mask-2)" points="31.3780367 42.7298596 36.243367 42.7298596 36.243367 23.3149348 31.3780367 23.3149348"></polygon>
                    <path d="M75.4694771,28.877782 C75.2705596,28.7748803 73.7029817,27.840218 71.376055,27.840218 C68.2320734,27.840218 66.0500917,30.0462808 66.0500917,33.0201751 C66.0500917,35.905526 68.137367,38.2021833 71.376055,38.2021833 C73.663945,38.2021833 75.2559633,37.2873493 75.4694771,37.1728241 L75.4694771,42.3835491 C74.8581284,42.5565334 73.1978807,43.0751445 71.0372844,43.0751445 C65.5643394,43.0751445 60.7614679,39.2759851 60.7614679,33.0201751 C60.7614679,27.2210983 65.1074404,22.9699917 71.0372844,22.9699917 C73.3180459,22.9699917 75.0091835,23.5286012 75.4694771,23.6663732 L75.4694771,28.877782" id="Fill-3" fill="#B01C33" mask="url(#mask-2)"></path>
                    <path d="M24.6908807,28.877782 C24.4953578,28.7748803 22.9311743,27.840218 20.6042477,27.840218 C17.4531376,27.840218 15.2725138,30.0462808 15.2725138,33.0201751 C15.2725138,35.905526 17.3625046,38.2021833 20.6042477,38.2021833 C22.8914587,38.2021833 24.4824587,37.2873493 24.6908807,37.1728241 L24.6908807,42.3835491 C24.087,42.5565334 22.4277706,43.0751445 20.2549541,43.0751445 C14.786422,43.0751445 9.98966055,39.2759851 9.98966055,33.0201751 C9.98966055,27.2210983 14.3346147,22.9699917 20.2549541,22.9699917 C22.5435229,22.9699917 24.2339817,23.5286012 24.6908807,23.6663732 L24.6908807,28.877782" id="Fill-4" fill="#B01C33" mask="url(#mask-2)"></path>
                    <path d="M90.7735596,27.9133774 C87.8878991,27.9133774 85.7442752,30.2004624 85.7442752,33.0201751 C85.7442752,35.8460413 87.8878991,38.1307333 90.7735596,38.1307333 C93.6565046,38.1307333 95.8058991,35.8460413 95.8058991,33.0201751 C95.8058991,30.2004624 93.6565046,27.9133774 90.7735596,27.9133774 M100.959761,33.0201751 C100.959761,38.5741338 96.7020459,43.0751445 90.7735596,43.0751445 C84.8447339,43.0751445 80.5921101,38.5741338 80.5921101,33.0201751 C80.5921101,27.4740793 84.8447339,22.9699917 90.7735596,22.9699917 C96.7020459,22.9699917 100.959761,27.4740793 100.959761,33.0201751" id="Fill-5" fill="#B01C33" mask="url(#mask-2)"></path>
                    <path d="M54.692789,27.727744 C54.6208257,27.7044971 52.5715688,27.134948 50.8892569,27.134948 C48.9394587,27.134948 47.8807156,27.7926986 47.8807156,28.7266771 C47.8807156,29.9091924 49.3097982,30.3201156 50.1108991,30.5751478 L51.4524037,31.0055574 C54.6103028,32.0167977 56.0485505,34.1948274 56.0485505,36.559858 C56.0485505,41.4365797 51.7904954,43.0751445 48.0674128,43.0751445 C45.4784312,43.0751445 43.0554404,42.5958481 42.8164679,42.54491 L42.8164679,38.0767184 C43.2451927,38.1861156 45.284945,38.7997655 47.4109174,38.7997655 C49.8305138,38.7997655 50.9439083,38.0852651 50.9439083,36.986507 C50.9439083,36.0022742 49.9808899,35.4340925 48.7748257,35.051886 C48.4791651,34.9530867 48.0372018,34.8136053 47.7354312,34.7148059 C45.0256055,33.8515937 42.7675872,32.2482411 42.7675872,29.0346986 C42.7675872,25.4030537 45.4658716,22.9638382 49.9506789,22.9638382 C52.3193578,22.9638382 54.547844,23.5426177 54.692789,23.582616 L54.692789,27.727744" id="Fill-6" fill="#B01C33" mask="url(#mask-2)"></path>
                    <path d="M4.83036697,2.44981338 C4.83036697,1.11072337 3.74650459,0.0252981007 2.41552294,0.0252981007 C1.08623853,0.0252981007 0,1.11072337 0,2.44981338 L0,7.54532948 C0,8.89125681 1.08623853,9.97668208 2.41552294,9.97668208 C3.74650459,9.97668208 4.83036697,8.89125681 4.83036697,7.54532948 L4.83036697,2.44981338" id="Fill-7" fill="#004C59" mask="url(#mask-2)"></path>
                </g>
                <path d="M18.0967339,11.827204 C18.0967339,10.4891396 17.0125321,9.40200495 15.6822294,9.40200495 C14.3515872,9.40200495 13.266367,10.4891396 13.266367,11.827204 L13.266367,23.6130421 C13.266367,24.9589694 14.3515872,26.0443947 15.6822294,26.0443947 C17.0125321,26.0443947 18.0967339,24.9589694 18.0967339,23.6130421 L18.0967339,11.827204" id="Fill-9" fill="#004C59"></path>
                <path d="M31.3637798,2.67441949 C31.3637798,1.33669694 30.2785596,0.25092981 28.9482569,0.25092981 C27.6179541,0.25092981 26.5323945,1.33669694 26.5323945,2.67441949 L26.5323945,28.4569447 C26.5323945,29.8018464 27.6179541,30.8882973 28.9482569,30.8882973 C30.2785596,30.8882973 31.3637798,29.8018464 31.3637798,28.4569447 L31.3637798,2.67441949" id="Fill-10" fill="#004C59"></path>
                <path d="M44.6298073,11.827204 C44.6298073,10.4891396 43.5449266,9.40200495 42.2142844,9.40200495 C40.8839817,9.40200495 39.7994404,10.4891396 39.7994404,11.827204 L39.7994404,23.6130421 C39.7994404,24.9589694 40.8839817,26.0443947 42.2142844,26.0443947 C43.5449266,26.0443947 44.6298073,24.9589694 44.6298073,23.6130421 L44.6298073,11.827204" id="Fill-11" fill="#004C59"></path>
                <path d="M57.881578,18.517526 C57.881578,17.178436 56.8041651,16.0930107 55.4806514,16.0930107 C54.1510275,16.0930107 53.0661468,17.178436 53.0661468,18.517526 L53.0661468,23.6130421 C53.0661468,24.9589694 54.1510275,26.0443947 55.4806514,26.0443947 C56.8041651,26.0443947 57.881578,24.9589694 57.881578,23.6130421 L57.881578,18.517526" id="Fill-12" fill="#004C59"></path>
                <path d="M71.1533761,11.827204 C71.1533761,10.4891396 70.0759633,9.40200495 68.746,9.40200495 C67.4187523,9.40200495 66.3386239,10.4891396 66.3386239,11.827204 L66.3386239,23.6130421 C66.3386239,24.9589694 67.4187523,26.0443947 68.746,26.0443947 C70.0759633,26.0443947 71.1533761,24.9589694 71.1533761,23.6130421 L71.1533761,11.827204" id="Fill-13" fill="#004C59"></path>
                <path d="M84.4289083,2.67441949 C84.4289083,1.33669694 83.3508165,0.25092981 82.0215321,0.25092981 C80.690211,0.25092981 79.6138165,1.33669694 79.6138165,2.67441949 L79.6138165,28.4569447 C79.6138165,29.8018464 80.690211,30.8882973 82.0215321,30.8882973 C83.3508165,30.8882973 84.4289083,29.8018464 84.4289083,28.4569447 L84.4289083,2.67441949" id="Fill-14" fill="#004C59"></path>
                <path d="M97.7020642,11.827204 C97.7020642,10.4891396 96.6246514,9.40200495 95.2641376,9.40200495 C93.9334954,9.40200495 92.8560826,10.4891396 92.8560826,11.827204 L92.8560826,23.6130421 C92.8560826,24.9589694 93.9334954,26.0443947 95.2641376,26.0443947 C96.6246514,26.0443947 97.7020642,24.9589694 97.7020642,23.6130421 L97.7020642,11.827204" id="Fill-15" fill="#004C59"></path>
                <path d="M110.947046,18.517526 C110.947046,17.178436 109.866578,16.0930107 108.53967,16.0930107 C107.209028,16.0930107 106.129239,17.178436 106.129239,18.517526 L106.129239,23.6130421 C106.129239,24.9589694 107.209028,26.0443947 108.53967,26.0443947 C109.866578,26.0443947 110.947046,24.9589694 110.947046,23.6130421 L110.947046,18.517526" id="Fill-16" fill="#004C59"></path>
                <polyline id="Fill-17" fill="#B01C33" points="108.16322 56.2417803 108.16322 56.5460413 107.303394 56.5460413 107.303394 58.7975723 106.950028 58.7975723 106.950028 56.5460413 106.086128 56.5460413 106.086128 56.2417803 108.16322 56.2417803"></polyline>
                <polyline id="Fill-18" fill="#B01C33" points="108.343468 56.2417803 108.89711 56.2417803 109.65544 58.3377622 109.669697 58.3377622 110.404266 56.2417803 110.947046 56.2417803 110.947046 58.7975723 110.583835 58.7975723 110.583835 56.7005648 110.571954 56.7005648 109.802083 58.7975723 109.466706 58.7975723 108.714826 56.7005648 108.698193 56.7005648 108.698193 58.7975723 108.343468 58.7975723 108.343468 56.2417803"></polyline>
            </g>
        </g>
    </g>
</svg>