<?xml version="1.0" encoding="UTF-8" standalone="no"?>
<svg width="222px" height="53px" viewBox="0 0 222 53" version="1.1" xmlns="http://www.w3.org/2000/svg" xmlns:xlink="http://www.w3.org/1999/xlink">
    <!-- Generator: Sketch 43.1 (39012) - http://www.bohemiancoding.com/sketch -->
    <title>couchbase-seeklogo.com 2</title>
    <desc>Created with Sketch.</desc>
    <defs>
        <polygon id="path-1" points="111.01145 53 0.0229655172 53 0.0229655172 0.224656716 111.01145 0.224656716 221.999934 0.224656716 221.999934 53 111.01145 53"></polygon>
    </defs>
    <g id="Page-1" stroke="none" stroke-width="1" fill="none" fill-rule="evenodd">
        <g id="March-14th-2017" transform="translate(-591.000000, -3713.000000)">
            <g id="couchbase-seeklogo.com-2" transform="translate(591.000000, 3713.000000)">
                <mask id="mask-2" fill="white">
                    <use xlink:href="#path-1"></use>
                </mask>
                <g id="Clip-2"></g>
                <path d="M215.592621,35.2220597 C217.868503,35.2220597 219.1029,34.4642388 219.951476,34.026791 L221.4561,37.1359925 C220.337297,37.7735746 218.64091,38.8094478 215.168524,38.8094478 C209.536614,38.8094478 206.335221,35.1817164 206.335221,29.6416343 C206.335221,24.1411045 209.999369,20.6731642 214.66711,20.6731642 C219.951859,20.6731642 222.497969,24.4595 221.919238,30.9175896 L211.388017,30.9175896 C211.580928,33.5078657 212.892259,35.2220597 215.592621,35.2220597 Z M217.36709,27.648597 C217.328431,25.7354552 216.595448,24.1802612 214.589793,24.1802612 C212.738007,24.1802612 211.657862,25.4158731 211.349359,27.648597 L217.36709,27.648597 Z M197.963907,38.8094478 C194.955807,38.8094478 193.027086,37.8922313 191.984834,37.1747537 L193.567159,33.7863134 C194.222824,34.2648955 195.842276,35.2220597 197.694445,35.2220597 C199.429872,35.2220597 200.394424,34.7035299 200.394424,33.7475522 C200.394424,32.6313881 198.504745,32.311806 196.112886,31.1157463 C193.798345,29.9608209 192.448355,28.6449179 192.448355,26.013903 C192.448355,22.745306 194.955807,20.6727687 198.77459,20.6727687 C201.628438,20.6727687 203.403672,21.5895896 204.175314,22.0278284 L202.554331,25.3367687 C201.899048,24.9376866 200.586186,24.2601567 199.005776,24.2601567 C197.424217,24.2601567 196.729893,24.8182388 196.729893,25.7354552 C196.729893,26.8516194 198.272793,27.1296716 200.201131,27.9274403 C202.824559,29.044 204.714238,30.3191642 204.714238,33.1890746 C204.637303,36.8967015 202.091959,38.8094478 197.963907,38.8094478 Z M185.273162,38.4107612 C185.119293,37.9717313 185.041593,37.0952537 185.002934,36.5767239 C184.269952,37.4935448 182.688393,38.849 180.335193,38.849 C177.480962,38.849 175.282397,37.0956493 175.282397,33.9860522 C175.282397,29.4818433 179.756845,27.8483358 184.1934,27.8483358 L184.771748,27.8483358 L184.771748,26.8907761 C184.771748,25.4562164 184.1934,24.5789478 182.11081,24.5789478 C179.949755,24.5789478 178.484938,25.7350597 177.867548,26.172903 L175.822852,23.223097 C176.825297,22.2667239 179.062521,20.7123209 182.650117,20.7123209 C187.2792,20.7123209 189.477383,22.5459627 189.477383,27.1700149 L189.477383,33.2282313 C189.477383,35.6203507 189.709334,37.293806 189.940903,38.4103657 L185.273162,38.4103657 L185.273162,38.4107612 Z M184.771748,30.7977463 L184.1934,30.7977463 C181.608631,30.7977463 179.796269,31.5947239 179.796269,33.548209 C179.796269,34.7838209 180.760821,35.3015597 181.801924,35.3015597 C183.3831,35.3015597 184.308993,34.3455821 184.771748,33.8666045 L184.771748,30.7977463 Z M162.360466,12.8999627 L162.360466,22.4664627 C163.131724,21.6694851 164.596924,20.6731642 166.44871,20.6731642 C170.615421,20.6731642 173.546586,23.6225746 173.546586,29.6016866 C173.546586,35.5416418 169.689528,38.8102388 164.596924,38.8102388 C160.778524,38.8102388 158.464366,37.8135224 157.615024,37.4156269 L157.615024,12.8600149 L162.360466,12.8600149 L162.360466,12.8999627 Z M162.360466,34.6244254 C162.668203,34.7438731 163.36291,34.9823731 164.596924,34.9823731 C167.027441,34.9823731 168.532448,33.1487313 168.532448,29.6008955 C168.532448,26.4125896 167.489814,24.4994478 165.098338,24.4994478 C163.710072,24.4994478 162.63031,25.4158731 162.360466,25.7750075 L162.360466,34.6244254 Z M149.090224,38.4107612 L149.090224,27.2898582 C149.090224,25.5760597 148.511493,24.7387388 146.929934,24.7387388 C145.232783,24.7387388 143.921069,26.3726418 143.573907,26.8116716 L143.573907,38.371209 L138.867507,38.371209 L138.867507,12.8600149 L143.573907,12.8600149 L143.573907,23.1443881 C144.422483,22.1876194 146.042317,20.6727687 148.780955,20.6727687 C152.484528,20.6727687 153.795476,23.1040448 153.795476,26.2927463 L153.795476,38.371209 L149.090224,38.371209 L149.090224,38.4107612 Z M131.037031,38.8094478 C125.63669,38.8094478 122.319321,35.1817164 122.319321,29.7614776 C122.319321,23.9417612 126.061934,20.6731642 131.191666,20.6731642 C133.892028,20.6731642 135.512628,21.509694 136.322162,22.0282239 L134.817921,25.3767164 C134.085321,24.8985299 133.005176,24.3803955 131.345917,24.3803955 C128.72249,24.3803955 127.33499,26.4928806 127.33499,29.6420299 C127.33499,32.7903881 128.646321,35.0626642 131.462276,35.0626642 C133.390997,35.0626642 134.509034,34.3455821 135.010831,34.026791 L136.438138,37.2949925 C135.666114,37.8127313 134.123214,38.8094478 131.037031,38.8094478 Z M109.242755,21.111403 L109.242755,32.1931493 C109.242755,33.9073433 109.821486,34.7438731 111.40381,34.7438731 C113.100197,34.7438731 114.373634,33.0696269 114.721179,32.6709403 L114.721179,21.111403 L119.427962,21.111403 L119.427962,33.3089179 C119.427962,35.581194 119.658766,37.3353358 119.890334,38.3716045 L115.221828,38.3716045 C115.068341,37.8934179 114.91409,36.7772537 114.875431,36.0589851 C113.988579,37.2546493 112.252003,38.7698955 109.47509,38.7698955 C105.7719,38.7698955 104.460186,36.3386194 104.460186,33.1495224 L104.460186,21.0718507 L109.243521,21.0718507 L109.242755,21.111403 Z M93.3502345,38.8094478 C87.4867552,38.8094478 84.9410276,34.2648955 84.9410276,29.8002388 C84.9410276,25.3367687 87.4867552,20.6727687 93.3502345,20.6727687 C99.213331,20.6727687 101.875034,25.1769776 101.875034,29.6416343 C101.836376,34.0655522 99.2519897,38.8094478 93.3502345,38.8094478 Z M93.2729172,24.3001045 C90.7654655,24.3001045 89.9555483,26.4924851 89.9555483,29.6811866 C89.9555483,32.8698881 90.9587586,35.1425597 93.4658276,35.1425597 C96.0115552,35.1425597 96.8605138,32.9901269 96.8605138,29.8010299 C96.8218552,26.6119328 95.8186448,24.3001045 93.2729172,24.3001045 Z M76.647031,38.8094478 C68.8165552,38.8094478 64.8817966,32.9893358 64.8817966,26.5328284 C64.8817966,20.1150821 68.9708069,14.3353134 76.7239655,14.3353134 C79.6941724,14.3353134 81.8158034,15.0128433 83.628931,16.208903 L81.3917069,19.9956343 C80.1186517,19.158709 78.7300034,18.6401791 76.647031,18.6401791 C72.4424276,18.6401791 70.2052034,22.1081194 70.2052034,26.4129851 C70.2052034,30.8380896 72.3654931,34.5049776 76.7243483,34.5049776 C79.1931414,34.5049776 80.6591069,33.6285 81.8548448,32.7112836 L83.8991586,36.3386194 C82.7420793,37.4136493 80.0030586,38.8094478 76.647031,38.8094478 L76.647031,38.8094478 Z" id="Fill-1" fill="#0A0A08" mask="url(#mask-2)"></path>
                <path d="M42.7790172,31.2359851 C42.7790172,32.8299403 41.8917828,34.2257388 40.1559724,34.5441343 C37.1471069,35.1018209 30.8208724,35.421403 25.5361241,35.421403 C20.2513759,35.421403 13.9255241,35.1018209 10.9162759,34.5441343 C9.18046552,34.2253433 8.29323103,32.8299403 8.29323103,31.2359851 L8.29323103,20.9520075 C8.29323103,19.3576567 9.48896897,17.8823582 10.9162759,17.6434627 C11.8035103,17.4840672 13.8864828,17.3242761 15.5067,17.3242761 C16.1240897,17.3242761 16.6255034,17.8024627 16.6255034,18.5602836 L16.6255034,25.775403 L25.5744,25.5760597 L34.5236793,25.775403 L34.5236793,18.5602836 C34.5236793,17.8028582 35.0250931,17.3242761 35.6421,17.3242761 C37.2623172,17.3242761 39.3452897,17.4840672 40.2325241,17.6434627 C41.6984897,17.8823582 42.855569,19.3576567 42.855569,20.9520075 C42.7790172,24.3404478 42.7790172,27.8079925 42.7790172,31.2359851 Z M25.5361241,0.224656716 C11.4563483,0.224656716 0,12.0234851 0,26.6123284 C0,41.1620149 11.4180724,53 25.5361241,53 C39.6159,53 51.072631,41.2011716 51.072631,26.6123284 C51.072631,12.0234851 39.6155172,0.224656716 25.5361241,0.224656716 L25.5361241,0.224656716 Z" id="Fill-3" fill="#D8292D" mask="url(#mask-2)"></path>
            </g>
        </g>
    </g>
</svg>