<?xml version="1.0" encoding="UTF-8" standalone="no"?>
<svg width="152px" height="47px" viewBox="0 0 152 47" version="1.1" xmlns="http://www.w3.org/2000/svg" xmlns:xlink="http://www.w3.org/1999/xlink">
    <!-- Generator: Sketch 43.1 (39012) - http://www.bohemiancoding.com/sketch -->
    <title>Hoover_Logo_BW</title>
    <desc>Created with Sketch.</desc>
    <defs></defs>
    <g id="Page-1" stroke="none" stroke-width="1" fill="none" fill-rule="evenodd">
        <g id="March-14th-2017" transform="translate(-349.000000, -3635.000000)" fill="#0A0A08">
            <g id="Hoover_Logo_BW" transform="translate(349.000000, 3625.000000)">
                <path d="M8.07289353,24.5580115 C7.824,24.5435423 7.57906065,24.6404423 7.38574528,24.8248154 C7.14563881,25.0530346 7.00812129,25.3921846 7.00812129,25.7556692 L7.00812129,29.8504615 L7.26448383,29.8504615 L7.26448383,28.9036038 L8.6783221,28.5118385 L8.6783221,29.5648038 L8.93468464,29.5648038 L8.93468464,25.7094115 C8.93468464,24.9934038 8.6286752,24.5845385 8.07289353,24.5580115 Z M7.80466846,21.2342538 C5.94510647,21.6152769 4.27534501,22.9964308 4.27534501,22.9964308 L4.27534501,24.7559769 L3.79798787,24.7559769 L3.79798787,28.7218615 L2.4065566,27.26025 L1.03226011,29.9447308 L1.0201779,32.1107308 L0.35016442,32.8328769 L0.159704852,56.7057923 L0.744703504,56.7057923 L0.889030997,34.8123115 L0.889030997,33.6585 L1.66383019,32.3374154 L1.66383019,30.4800923 L2.45071159,30.1948731 L2.45071159,29.9333308 L1.69919811,29.9927423 L2.47861051,28.3778885 L3.08162264,29.3736346 L3.13104987,30.3735462 L3.13104987,33.1347577 L3.7030876,33.1347577 L4.41835445,31.8498462 L4.41835445,29.3736346 L4.3232345,29.2736654 L4.3232345,24.8993538 L4.99105121,24.8993538 L4.99105121,23.1860654 C5.94510647,22.3762269 7.32884906,21.9002769 7.32884906,21.9002769 L7.80466846,21.2342538 Z M10.535248,13.4515615 C10.5229461,14.0467731 10.535248,14.9515385 10.535248,14.9515385 L10.8460903,14.9399192 C10.8460903,14.9399192 10.8304933,13.5909923 10.8570741,13.4037692 C10.905403,13.0828154 11.297965,13.1181115 11.3467332,13.2018577 C11.3937439,13.2845077 11.3221294,13.1312654 11.3221294,13.1312654 C11.0716981,12.9048 10.5477695,12.8565692 10.535248,13.4515615 Z M11.0446779,15.4759385 C11.3671631,15.4899692 11.8073949,15.5116731 12.1487722,15.5574923 L12.1487722,12.3918 C11.7597251,12.2738538 11.2705054,12.2037 11.1426536,12.2037 C11.0235889,12.2037 10.5255822,12.2100577 10.0045094,12.3707538 L10.0198868,12.3707538 L10.0198868,15.5496 C10.3522574,15.5064115 10.7696429,15.4632231 11.0446779,15.4759385 Z M11.1909825,20.0920615 C10.6176267,20.0920615 7.8765027,20.1168346 5.39613477,21.2110154 L5.41964016,21.1393269 C5.41964016,21.1393269 5.57670889,16.815 9.58338949,15.9225115 L9.58338949,15.6114231 C9.62754447,15.6048462 9.6919097,15.5952 9.76352426,15.5848962 L9.76352426,12.4569115 C9.74045822,12.4665577 9.71739218,12.4735731 9.69454582,12.4836577 L9.70025741,12.4659 C9.70025741,12.4659 9.76769811,11.1299077 11.0279825,11.0501077 L11.0279825,10.4329731 L11.2070189,10.4329731 L11.2070189,11.0476962 C12.4249057,11.0998731 12.4670836,12.5136923 12.4670836,12.5136923 C12.4486307,12.5042654 12.425345,12.4957154 12.4051348,12.4869462 L12.4051348,15.6028731 C12.4670836,15.6169038 12.5226617,15.63225 12.5644003,15.6500077 L12.5644003,15.9339115 C16.29319,16.8671769 16.4856267,21.3294 16.4856267,21.3294 C15.0067642,20.5680115 11.8596779,20.0920615 11.1909825,20.0920615 Z M15.1502129,36.0867 C15.2932224,36.2818154 15.2620283,36.1632115 15.3406725,36.5613346 C15.4748949,37.2299885 15.3406725,39.8462885 15.3406725,39.8462885 C15.3406725,39.8462885 15.389221,49.6362577 15.4366712,50.4454385 C15.4830229,51.2541808 15.834066,49.3506 15.834066,49.3506 C15.834066,49.3506 15.8865687,40.6556885 15.8865687,39.4165962 C15.8865687,38.1799154 16.1042682,36.3725769 15.4830229,36.1331769 C15.4830229,36.1331769 15.0612439,35.9645885 15.1502129,36.0867 Z M16.3902871,25.1847923 C16.3902871,25.1847923 16.6767453,25.4706692 16.7241954,25.8521308 C16.7714259,26.2327154 16.8197547,30.4213385 16.8197547,30.4213385 L17.153004,30.6127269 C17.153004,27.1372615 17.343903,25.5662538 16.6284164,25.1847923 L16.3902871,25.1847923 Z M17.4067305,34.9912038 L17.663093,34.9912038 L17.663093,34.2295962 L17.4067305,34.2295962 L17.4067305,34.9912038 Z M17.8531132,37.5610269 C17.8531132,37.5610269 17.6312399,37.4286115 17.5194245,37.51455 C17.5194245,37.51455 17.6659488,37.7103231 17.7094447,37.9891846 C17.8151092,38.6637577 17.7094447,41.2741385 17.7094447,41.2741385 C17.7094447,41.2741385 17.7252615,49.6338462 17.7252615,50.4454385 C17.7252615,51.0961154 18.1230957,49.4249192 18.1230957,49.4249192 C18.1230957,49.4249192 18.2175566,42.5112577 18.2175566,41.2732615 C18.2175566,40.0357038 18.4726011,37.8002077 17.8531132,37.5610269 Z M16.595465,34.5623885 L16.8520472,34.5623885 L16.8520472,33.8007808 L16.595465,33.8007808 L16.595465,34.5623885 Z M13.1173261,56.7057923 L13.3378814,28.6137808 L12.2887062,26.0415462 L11.3348706,28.2796731 L11.1441914,28.9928308 L11.0486321,30.8979462 L10.5710553,30.9924346 L10.5710553,22.8050423 L11.1441914,22.8050423 L11.5253302,24.6136962 C11.5253302,24.6136962 12.7651846,24.0428192 13.2432008,26.13735 L13.1474218,26.8035923 L14.291717,28.4219538 L14.7686348,31.7547 L15.2459919,32.1350654 L15.2459919,22.2339462 L14.7686348,21.8531423 L14.6739542,21.1871192 L17.5350216,22.2339462 L17.5350216,23.5675269 L18.2032776,24.0428192 L18.2032776,30.5158269 L19.0617736,28.9928308 L19.9202695,31.6580192 L20.3007493,31.7547 L20.3007493,34.7055462 L20.968566,35.2764231 L21.4292278,56.7057923 L13.1173261,56.7057923 Z M10.4763747,35.9205231 L11.2863221,35.9731385 C11.2382129,35.3393423 11.0486321,34.8052962 10.261531,34.82415 C9.64050539,34.8399346 9.11723585,35.1014769 9.11723585,36.1711038 C9.11723585,37.2413885 9.29934771,48.8840769 9.29934771,48.8840769 L9.27891779,49.1307115 L9.8792938,48.5210308 L10.1152264,38.34105 L10.758659,38.1630346 L10.758659,37.7964808 L10.1415876,37.9155231 C10.1415876,37.9155231 9.99879784,35.9615192 10.4763747,35.9205231 Z M7.12103504,36.5543192 L7.97140296,36.5913692 C7.92373315,35.9450769 7.73371294,35.3983154 6.94661186,35.4191423 C6.32558625,35.4353654 5.80187736,35.7023885 5.80187736,36.7935 C5.80187736,37.8846115 5.96114286,52.5062077 5.96114286,52.5062077 L6.72320081,51.7106192 L6.82666846,39.0776654 L7.4942655,38.9360423 L7.4942655,38.5113923 L6.83875067,38.6225423 C6.83875067,38.6225423 6.64521563,36.5950962 7.12103504,36.5543192 Z M3.76261995,37.5292385 L4.63341779,37.5524769 C4.5846496,36.822 4.39397035,36.2059615 3.60730863,36.2292 C2.98628302,36.2467385 2.46301348,36.5473038 2.46301348,37.7798192 C2.46301348,39.0118962 2.41424528,56.7057923 2.41424528,56.7057923 L3.09853774,56.7057923 L3.07459299,53.9540077 L3.48868329,40.2794885 L4.15584097,40.13085 L4.15584097,39.7200115 L3.48868329,39.82305 C3.48868329,39.82305 3.28504313,37.5750577 3.76261995,37.5292385 Z M7.31478976,33.7729385 L7.57115229,33.7729385 L7.57115229,32.7346615 L7.31478976,32.7346615 L7.31478976,33.7729385 Z M6.42905391,33.9601615 L6.68541644,33.9601615 L6.68541644,32.8328769 L6.42905391,32.8328769 L6.42905391,33.9601615 Z M5.87942318,30.6127269 L6.39214825,30.6127269 L6.39214825,23.3281269 L5.87942318,23.3281269 L5.87942318,30.6127269 Z" id="Fill-1"></path>
                <polyline id="Fill-2" points="33.201035 21.8022808 36.6229367 21.8022808 36.6229367 29.8826885 45.9163531 29.8826885 45.9163531 21.8022808 49.3386941 21.8022808 49.3386941 41.2395 45.9163531 41.2395 45.9163531 33.0481615 36.6229367 33.0481615 36.6229367 41.2395 33.201035 41.2395 33.201035 21.8022808"></polyline>
                <path d="M68.511624,31.6911231 L68.511624,31.6363154 C68.511624,27.90435 65.7896119,24.8039885 61.9681186,24.8039885 C58.1464057,24.8039885 55.479752,27.8495423 55.479752,31.5810692 L55.479752,31.6363154 C55.479752,35.3678423 58.2013248,38.4405808 62.0230377,38.4405808 C65.844531,38.4405808 68.511624,35.42265 68.511624,31.6911231 Z M51.9328544,31.6911231 L51.9328544,31.6363154 C51.9328544,26.2305231 56.1122008,21.7034077 62.0230377,21.7034077 C67.9345337,21.7034077 72.0585216,26.1757154 72.0585216,31.5810692 L72.0585216,31.6363154 C72.0585216,37.04145 67.8793949,41.5687846 61.9681186,41.5687846 C56.0572817,41.5687846 51.9328544,37.0964769 51.9328544,31.6911231 L51.9328544,31.6911231 Z" id="Fill-3"></path>
                <path d="M90.9467507,31.6911231 L90.9467507,31.6363154 C90.9467507,27.90435 88.2251779,24.8039885 84.4036846,24.8039885 C80.5813127,24.8039885 77.9150984,27.8495423 77.9150984,31.5810692 L77.9150984,31.6363154 C77.9150984,35.3678423 80.6362318,38.4405808 84.4586038,38.4405808 C88.2803167,38.4405808 90.9467507,35.42265 90.9467507,31.6911231 Z M74.3682008,31.6911231 L74.3682008,31.6363154 C74.3682008,26.2305231 78.5473275,21.7034077 84.4586038,21.7034077 C90.3694407,21.7034077 94.4934286,26.1757154 94.4934286,31.5810692 L94.4934286,31.6363154 C94.4934286,37.04145 90.3145216,41.5687846 84.4036846,41.5687846 C78.4924084,41.5687846 74.3682008,37.0964769 74.3682008,31.6911231 L74.3682008,31.6911231 Z" id="Fill-4"></path>
                <polyline id="Fill-5" points="94.7785687 21.8022808 98.5624973 21.8022808 104.433573 36.7411038 110.276749 21.8022808 113.976981 21.8022808 105.907822 41.3782731 102.875187 41.3782731 94.7785687 21.8022808"></polyline>
                <polyline id="Fill-6" points="116.618372 21.8022808 131.059249 21.8022808 131.059249 24.8566038 120.041152 24.8566038 120.041152 29.9105308 129.806654 29.9105308 129.806654 32.9648538 120.041152 32.9648538 120.041152 38.1851769 131.198524 38.1851769 131.198524 41.2395 116.618372 41.2395 116.618372 21.8022808"></polyline>
                <path d="M143.271947,31.4374731 C145.721121,31.4374731 147.279067,30.1602346 147.279067,28.1889115 L147.279067,28.1334462 C147.279067,26.0507538 145.776919,24.9122885 143.244488,24.9122885 L138.263761,24.9122885 L138.263761,31.4374731 L143.271947,31.4374731 Z M134.84164,21.8022808 L143.522598,21.8022808 C145.970894,21.8022808 147.890867,22.5242077 149.143243,23.7459808 C150.172427,24.8011385 150.756767,26.2452115 150.756767,27.9389885 L150.756767,27.9946731 C150.756767,31.1877692 148.836794,33.1036269 146.137848,33.8812385 L151.396685,41.2395 L147.334646,41.2395 L142.548992,34.4643923 L138.263761,34.4643923 L138.263761,41.2395 L134.84164,41.2395 L134.84164,21.8022808 L134.84164,21.8022808 Z" id="Fill-7"></path>
                <polygon id="Fill-8" points="33.186097 56.6729077 35.1590121 56.6729077 35.1590121 45.4699962 33.186097 45.4699962"></polygon>
                <polyline id="Fill-9" points="39.3612049 45.4699962 41.1891334 45.4699962 47.2032183 53.2160769 47.2032183 45.4699962 49.1434016 45.4699962 49.1434016 56.6729077 47.491434 56.6729077 41.3013881 48.7025538 41.3013881 56.6729077 39.3612049 56.6729077 39.3612049 45.4699962"></polyline>
                <path d="M52.1112318,55.0405154 L53.2981442,53.6321769 C54.3723625,54.5604 55.4630566,55.0885269 56.842186,55.0885269 C58.0607318,55.0885269 58.8309178,54.5123885 58.8309178,53.6801885 L58.8309178,53.6484 C58.8309178,52.8479885 58.3816792,52.4156654 56.2967291,51.93555 C53.907527,51.3594115 52.5604704,50.6552423 52.5604704,48.5907462 L52.5604704,48.5587385 C52.5604704,46.6380577 54.1641092,45.3099577 56.3931671,45.3099577 C58.028659,45.3099577 59.3276065,45.8058577 60.4664097,46.7182962 L59.4080081,48.2066538 C58.3977156,47.4544731 57.3874232,47.0543769 56.3608747,47.0543769 C55.2064744,47.0543769 54.5327264,47.6465192 54.5327264,48.3826962 L54.5327264,48.4144846 C54.5327264,49.2791308 55.0458908,49.6632231 57.2112426,50.1751269 C59.5844084,50.7512654 60.8031739,51.5996885 60.8031739,53.4559154 L60.8031739,53.4881423 C60.8031739,55.5846462 59.1514259,56.8331654 56.7938571,56.8331654 C55.0779636,56.8331654 53.4587278,56.2408038 52.1112318,55.0405154" id="Fill-10"></path>
                <polyline id="Fill-11" points="67.2511199 47.2944346 63.6910418 47.2944346 63.6910418 45.4699962 72.7999299 45.4699962 72.7999299 47.2944346 69.2398518 47.2944346 69.2398518 56.6729077 67.2511199 56.6729077 67.2511199 47.2944346"></polyline>
                <polygon id="Fill-12" points="76.9228194 56.6729077 78.8950755 56.6729077 78.8950755 45.4699962 76.9228194 45.4699962"></polygon>
                <polyline id="Fill-13" points="86.5771644 47.2944346 83.0170863 47.2944346 83.0170863 45.4699962 92.1261941 45.4699962 92.1261941 47.2944346 88.5654569 47.2944346 88.5654569 56.6729077 86.5771644 56.6729077 86.5771644 47.2944346"></polyline>
                <path d="M95.7996253,51.9197654 L95.7996253,45.4699962 L97.7716617,45.4699962 L97.7716617,51.8395269 C97.7716617,53.9200269 98.8463194,55.0245115 100.610102,55.0245115 C102.358508,55.0245115 103.432507,53.9842615 103.432507,51.9197654 L103.432507,45.4699962 L105.405202,45.4699962 L105.405202,51.8237423 C105.405202,55.1685462 103.513128,56.8491692 100.578249,56.8491692 C97.6598464,56.8491692 95.7996253,55.1685462 95.7996253,51.9197654" id="Fill-14"></path>
                <polyline id="Fill-15" points="112.799295 47.2944346 109.238997 47.2944346 109.238997 45.4699962 118.348325 45.4699962 118.348325 47.2944346 114.788027 47.2944346 114.788027 56.6729077 112.799295 56.6729077 112.799295 47.2944346"></polyline>
                <polygon id="Fill-16" points="122.150047 56.6729077 124.122303 56.6729077 124.122303 45.4699962 122.150047 45.4699962"></polygon>
                <path d="M136.840257,51.1035692 L136.840257,51.0715615 C136.840257,48.8946 135.252216,47.0863846 133.022938,47.0863846 C130.79388,47.0863846 129.23857,48.8628115 129.23857,51.0397731 L129.23857,51.0715615 C129.23857,53.2480846 130.825733,55.0405154 133.055011,55.0405154 C135.284288,55.0405154 136.840257,53.2803115 136.840257,51.1035692 Z M127.169876,51.1035692 L127.169876,51.0715615 C127.169876,47.9185846 129.607407,45.27795 133.055011,45.27795 C136.503274,45.27795 138.908951,47.8867962 138.908951,51.0397731 L138.908951,51.0715615 C138.908951,54.2243192 136.471201,56.8649538 133.022938,56.8649538 C129.575334,56.8649538 127.169876,54.2563269 127.169876,51.1035692 L127.169876,51.1035692 Z" id="Fill-17"></path>
                <polyline id="Fill-18" points="141.940488 45.4699962 143.768856 45.4699962 149.78316 53.2160769 149.78316 45.4699962 151.723344 45.4699962 151.723344 56.6729077 150.071376 56.6729077 143.88133 48.7025538 143.88133 56.6729077 141.940488 56.6729077 141.940488 45.4699962"></polyline>
            </g>
        </g>
    </g>
</svg>