<?xml version="1.0" encoding="UTF-8" standalone="no"?>
<svg width="179px" height="75px" viewBox="0 0 179 75" version="1.1" xmlns="http://www.w3.org/2000/svg" xmlns:xlink="http://www.w3.org/1999/xlink">
    <!-- Generator: Sketch 43.1 (39012) - http://www.bohemiancoding.com/sketch -->
    <title>hewlett-packard-enterprise-seeklogo.com</title>
    <desc>Created with Sketch.</desc>
    <defs></defs>
    <g id="Page-1" stroke="none" stroke-width="1" fill="none" fill-rule="evenodd">
        <g id="March-14th-2017" transform="translate(-613.000000, -3800.000000)">
            <g id="hewlett-packard-enterprise-seeklogo.com" transform="translate(613.000000, 3800.000000)">
                <path d="M4.04028571,13.9348315 L57.4309133,13.9348315 L57.4309133,4.30196629 L4.04028571,4.30196629 L4.04028571,13.9348315 Z M0,17.9957865 L61.4711991,17.9957865 L61.4711991,0.241011236 L0,0.241011236 L0,17.9957865 Z" id="Fill-1" fill="#00A982"></path>
                <polyline id="Fill-2" fill="#1A1918" points="14.8632881 29.1855337 14.8632881 46.2589888 11.322274 46.2589888 11.322274 39.0851124 3.63114286 39.0851124 3.63114286 46.2589888 0.0901288056 46.2589888 0.0901288056 29.1855337 3.63114286 29.1855337 3.63114286 35.9705056 11.322274 35.9705056 11.322274 29.1855337 14.8632881 29.1855337"></polyline>
                <path d="M20.6172787,38.5841292 L25.2926581,38.5841292 C25.2096557,37.2497191 24.4626347,36.3042135 23.1069297,36.3042135 C21.9729836,36.3042135 21.0042037,37.0272472 20.6172787,38.5841292 Z M20.5066089,40.8366573 C20.7832834,42.8662921 22.2496581,43.7009831 24.0757096,43.7009831 C25.4309953,43.7009831 26.399356,43.3946629 27.6167237,42.6160112 L27.6167237,45.4525281 C26.5926089,46.2033708 25.2096557,46.5370787 23.5500281,46.5370787 C19.7872553,46.5370787 17.2141827,44.0898876 17.2141827,40.1414326 C17.2141827,36.2485955 19.648918,33.5515449 23.0243466,33.5515449 C26.6206956,33.5515449 28.4744145,36.0539326 28.4744145,39.7242978 L28.4744145,40.8366573 L20.5066089,40.8366573 L20.5066089,40.8366573 Z" id="Fill-3" fill="#1A1918"></path>
                <polyline id="Fill-4" fill="#1A1918" points="41.8084473 41.7539326 44.0218431 33.8296348 47.3419368 33.8296348 43.5791639 46.2589888 40.4254941 46.2589888 38.4057705 38.6401685 36.386466 46.2589888 33.232377 46.2589888 29.4700234 33.8296348 32.9003677 33.8296348 35.1137635 41.7539326 37.1330679 33.8296348 39.7614754 33.8296348 41.8084473 41.7539326"></polyline>
                <path d="M59.9193068,38.5841292 L64.5946862,38.5841292 C64.5116838,37.2497191 63.7646628,36.3042135 62.4089578,36.3042135 C61.2750117,36.3042135 60.3062319,37.0272472 59.9193068,38.5841292 Z M59.808637,40.8366573 C60.0853115,42.8662921 61.5516862,43.7009831 63.3777377,43.7009831 C64.7330234,43.7009831 65.7013841,43.3946629 66.9187518,42.6160112 L66.9187518,45.4525281 C65.894637,46.2033708 64.5116838,46.5370787 62.8520562,46.5370787 C59.0892834,46.5370787 56.5162108,44.0898876 56.5162108,40.1414326 C56.5162108,36.2485955 58.9509461,33.5515449 62.3263747,33.5515449 C65.9227237,33.5515449 67.7764426,36.0539326 67.7764426,39.7242978 L67.7764426,40.8366573 L59.808637,40.8366573 L59.808637,40.8366573 Z" id="Fill-5" fill="#1A1918"></path>
                <path d="M98.8390211,32.2167135 L95.6576838,32.2167135 L95.6576838,37.3053371 L98.8390211,37.3053371 C100.665073,37.3053371 101.550431,36.2485955 101.550431,34.7747191 C101.550431,33.2452247 100.665073,32.2167135 98.8390211,32.2167135 Z M95.6576838,40.3360955 L95.6576838,46.2589888 L92.1443372,46.2589888 L92.1443372,29.1855337 L99.0607799,29.1855337 C102.657129,29.1855337 105.036529,31.1321629 105.036529,34.7747191 C105.036529,38.3894663 102.657129,40.3360955 99.0607799,40.3360955 L95.6576838,40.3360955 L95.6576838,40.3360955 Z" id="Fill-6" fill="#1A1918"></path>
                <path d="M113.446176,41.9768258 C113.141834,41.3094101 112.229227,40.8922753 111.260867,40.8922753 C110.181836,40.8922753 109.075138,41.3650281 109.075138,42.4213483 C109.075138,43.5063202 110.181836,43.9508427 111.260867,43.9508427 C112.229227,43.9508427 113.141834,43.5337079 113.446176,42.8662921 L113.446176,41.9768258 Z M113.446176,38.5011236 C113.446176,37.3053371 112.422899,36.5544944 110.67985,36.5544944 C109.435234,36.5544944 108.272782,36.9160112 107.304841,37.555618 L107.304841,34.5800562 C108.190199,34.0242978 109.794492,33.5515449 111.426871,33.5515449 C114.829548,33.5515449 116.738602,35.3030899 116.738602,38.3338483 L116.738602,46.2589888 L113.446176,46.2589888 L113.446176,45.591573 C113.031583,46.0087079 111.813796,46.4814607 110.458511,46.4814607 C107.968859,46.4814607 105.893801,45.0358146 105.893801,42.4495787 C105.893801,40.0858146 107.968859,38.4728933 110.67985,38.4728933 C111.758881,38.4728933 112.948581,38.8348315 113.446176,39.195927 L113.446176,38.5011236 L113.446176,38.5011236 Z" id="Fill-7" fill="#1A1918"></path>
                <path d="M125.485288,33.5515449 C126.730323,33.5515449 127.947272,33.8296348 128.83263,34.5244382 L128.83263,37.6664326 C128.002607,36.9160112 127.006578,36.5544944 125.899881,36.5544944 C124.074248,36.5544944 122.635541,37.8337079 122.635541,40.0580056 C122.635541,42.2549157 124.074248,43.5615169 125.899881,43.5615169 C127.006578,43.5615169 128.002607,43.1726124 128.83263,42.4495787 L128.83263,45.563764 C127.947272,46.2589888 126.730323,46.5370787 125.485288,46.5370787 C121.971522,46.5370787 119.232864,44.034691 119.232864,40.0580056 C119.232864,36.0539326 121.971522,33.5515449 125.485288,33.5515449" id="Fill-8" fill="#1A1918"></path>
                <polyline id="Fill-9" fill="#1A1918" points="143.527398 46.2589888 139.516037 46.2589888 135.061998 40.5307584 135.061998 46.2589888 131.631234 46.2589888 131.631234 28.1844101 135.061998 28.1844101 135.061998 38.7514045 139.294279 33.8296348 143.416728 33.8296348 138.271002 39.5296348 143.527398 46.2589888"></polyline>
                <path d="M151.577787,41.9768258 C151.273445,41.3094101 150.360838,40.8922753 149.392478,40.8922753 C148.313447,40.8922753 147.206749,41.3650281 147.206749,42.4213483 C147.206749,43.5063202 148.313447,43.9508427 149.392478,43.9508427 C150.360838,43.9508427 151.273445,43.5337079 151.577787,42.8662921 L151.577787,41.9768258 Z M151.577787,38.5011236 C151.577787,37.3053371 150.554511,36.5544944 148.811461,36.5544944 C147.566845,36.5544944 146.404393,36.9160112 145.436452,37.555618 L145.436452,34.5800562 C146.32181,34.0242978 147.926103,33.5515449 149.558482,33.5515449 C152.961159,33.5515449 154.869794,35.3030899 154.869794,38.3338483 L154.869794,46.2589888 L151.577787,46.2589888 L151.577787,45.591573 C151.163194,46.0087079 149.945407,46.4814607 148.590122,46.4814607 C146.100471,46.4814607 144.025412,45.0358146 144.025412,42.4495787 C144.025412,40.0858146 146.100471,38.4728933 148.811461,38.4728933 C149.890492,38.4728933 151.079773,38.8348315 151.577787,39.195927 L151.577787,38.5011236 L151.577787,38.5011236 Z" id="Fill-10" fill="#1A1918"></path>
                <path d="M165.636204,37.2219101 C165.165857,36.9433989 164.557173,36.8043539 163.920822,36.8043539 C162.759208,36.8043539 161.818515,37.416573 161.569508,38.5567416 L161.569508,46.2589888 L158.138745,46.2589888 L158.138745,33.8296348 L161.569508,33.8296348 L161.569508,35.052809 C162.09519,34.1633427 163.118466,33.5515449 164.336253,33.5515449 C164.91685,33.5515449 165.442532,33.6623596 165.636204,33.7735955 L165.636204,37.2219101" id="Fill-11" fill="#1A1918"></path>
                <path d="M175.485396,38.0001404 C175.098052,37.1662921 174.157358,36.5544944 173.161749,36.5544944 C171.30803,36.5544944 170.201752,38.0557584 170.201752,40.0580056 C170.201752,42.0324438 171.30803,43.5337079 173.161749,43.5337079 C174.185445,43.5337079 175.098052,42.9497191 175.485396,42.0876404 L175.485396,38.0001404 Z M175.485396,45.2300562 C174.932466,45.8970506 173.715098,46.5370787 172.387061,46.5370787 C168.790712,46.5370787 166.770988,43.6171348 166.770988,40.0580056 C166.770988,36.4988764 168.790712,33.5515449 172.387061,33.5515449 C173.715098,33.5515449 174.932466,34.1907303 175.485396,34.8581461 L175.485396,28.1844101 L178.943407,28.1844101 L178.943407,46.2589888 L175.485396,46.2589888 L175.485396,45.2300562 L175.485396,45.2300562 Z" id="Fill-12" fill="#1A1918"></path>
                <path d="M54.6771639,44.1383427 C53.6434075,44.1383427 53.0141827,43.5699438 52.9936417,42.4668539 L53.0452037,42.4668539 L53.0452037,29.3077247 L49.6144403,29.3077247 L49.6144403,42.636236 C49.6144403,45.4449438 51.3574895,47.0578652 53.9854778,47.0578652 C54.7878337,47.0578652 55.3965176,46.9470506 55.8945316,46.723736 L55.8945316,43.8042135 C55.5348548,44.0549157 55.0921756,44.1383427 54.6771639,44.1383427" id="Fill-13" fill="#1A1918"></path>
                <path d="M82.9482646,37.1730337 L86.0704941,37.1730337 L86.0704941,34.3643258 L82.9482646,34.3643258 L82.9482646,29.3077247 L79.5179204,29.3077247 L79.5179204,34.3643258 L74.5641897,34.3643258 L74.5641897,29.3077247 L71.1338454,29.3077247 L71.1338454,34.3643258 L68.8831405,34.3643258 L68.8831405,37.1730337 L71.1338454,37.1730337 L71.1338454,42.636236 C71.1338454,45.4449438 72.8768946,47.0578652 75.5048829,47.0578652 C76.3068197,47.0578652 76.9155035,46.9470506 77.4135176,46.723736 L77.4135176,43.8042135 C77.05426,44.0549157 76.6115808,44.1383427 76.1965691,44.1383427 C75.1623934,44.1383427 74.5331686,43.5699438 74.5126276,42.4668539 L74.5641897,42.4668539 L74.5641897,37.1730337 L79.5179204,37.1730337 L79.5179204,42.636236 C79.5179204,45.4449438 81.2605504,47.0578652 83.8885386,47.0578652 C84.6908946,47.0578652 85.2999977,46.9470506 85.7980117,46.723736 L85.7980117,43.8042135 C85.4379157,44.0549157 84.9956557,44.1383427 84.580644,44.1383427 C83.5464684,44.1383427 82.9172436,43.5699438 82.8967026,42.4668539 L82.9482646,42.4668539 L82.9482646,37.1730337" id="Fill-14" fill="#1A1918"></path>
                <polyline id="Fill-15" fill="#1A1918" points="11.1826792 53.0330056 11.1826792 54.994382 2.45737237 54.994382 2.45737237 60.4301966 10.3744543 60.4301966 10.3744543 62.391573 2.45737237 62.391573 2.45737237 68.2470506 11.1826792 68.2470506 11.1826792 70.2366573 0.283381733 70.2366573 0.283381733 53.0330056 11.1826792 53.0330056"></polyline>
                <path d="M14.472171,57.7963483 L16.5631593,57.7963483 L16.5631593,59.3654494 C17.2879625,58.3845506 18.6260609,57.544382 20.2148431,57.544382 C23.0306347,57.544382 24.5636628,59.3654494 24.5636628,62.0831461 L24.5636628,70.2366573 L22.445007,70.2366573 L22.445007,62.419382 C22.445007,60.6821629 21.5806089,59.4775281 19.7130562,59.4775281 C18.2634496,59.4775281 17.009192,60.4580056 16.5631593,61.8029494 L16.5631593,70.2366573 L14.472171,70.2366573 L14.472171,57.7963483" id="Fill-16" fill="#1A1918"></path>
                <path d="M38.0284871,62.727809 L44.4117026,62.727809 C44.328281,60.9063202 43.408548,59.3376404 41.4014005,59.3376404 C39.7568642,59.3376404 38.4187658,60.4301966 38.0284871,62.727809 Z M37.9165597,64.3807584 C38.0004005,67.266573 39.8126183,68.6397472 42.0700304,68.6397472 C43.4643021,68.6397472 44.4678759,68.3035112 45.5825386,67.4629213 L45.5825386,69.3960674 C44.5793841,70.180618 43.2970398,70.4890449 41.8197658,70.4890449 C38.2515035,70.4890449 35.8540773,68.0515449 35.8540773,64.1287921 C35.8540773,60.2620787 38.0842412,57.544382 41.3733138,57.544382 C44.7185597,57.544382 46.4469368,59.981882 46.4469368,63.6244382 L46.4469368,64.3807584 L37.9165597,64.3807584 L37.9165597,64.3807584 Z" id="Fill-17" fill="#1A1918"></path>
                <path d="M55.646363,59.8976124 C55.3118384,59.6738764 54.7823841,59.5613764 54.2525105,59.5613764 C52.9424988,59.5613764 51.7993302,60.4301966 51.3813841,61.8872191 L51.3813841,70.2366573 L49.290815,70.2366573 L49.290815,57.7963483 L51.3813841,57.7963483 L51.3813841,59.4214888 C51.9108384,58.3567416 53.0816745,57.544382 54.4478595,57.544382 C54.9773138,57.544382 55.4233466,57.6282303 55.646363,57.740309 L55.646363,59.8976124" id="Fill-18" fill="#1A1918"></path>
                <path d="M59.9105035,66.5384831 C60.551466,67.8269663 61.7780562,68.5832865 63.0880679,68.5832865 C65.4574075,68.5832865 66.8516792,66.6501404 66.8516792,64.0162921 C66.8516792,61.3824438 65.4574075,59.4492978 63.0880679,59.4492978 C61.7780562,59.4492978 60.551466,60.205618 59.9105035,61.4949438 L59.9105035,66.5384831 Z M59.9105035,75 L57.8199344,75 L57.8199344,57.7963483 L59.9105035,57.7963483 L59.9105035,59.2533708 C60.551466,58.3567416 61.8614778,57.544382 63.3949251,57.544382 C67.0466089,57.544382 68.9699157,60.5705056 68.9699157,64.0162921 C68.9699157,67.4629213 67.0466089,70.4890449 63.3949251,70.4890449 C61.8614778,70.4890449 60.551466,69.676264 59.9105035,68.7796348 L59.9105035,75 L59.9105035,75 Z" id="Fill-19" fill="#1A1918"></path>
                <path d="M78.5889649,59.8976124 C78.2544403,59.6738764 77.7249859,59.5613764 77.1951124,59.5613764 C75.8846815,59.5613764 74.7419321,60.4301966 74.3239859,61.8872191 L74.3239859,70.2366573 L72.2334169,70.2366573 L72.2334169,57.7963483 L74.3239859,57.7963483 L74.3239859,59.4214888 C74.8538595,58.3567416 76.0242763,57.544382 77.3900422,57.544382 C77.9199157,57.544382 78.3659485,57.6282303 78.5889649,57.740309 L78.5889649,59.8976124" id="Fill-20" fill="#1A1918"></path>
                <path d="M81.18174,70.2366573 L83.2727283,70.2366573 L83.2727283,57.7963483 L81.18174,57.7963483 L81.18174,70.2366573 Z M82.2129813,55.3866573 C81.4885972,55.3866573 80.8753021,54.7702247 80.8753021,54.0421348 C80.8753021,53.2853933 81.4885972,52.6967697 82.2129813,52.6967697 C82.9658712,52.6967697 83.5791663,53.2853933 83.5791663,54.0421348 C83.5791663,54.7702247 82.9658712,55.3866573 82.2129813,55.3866573 L82.2129813,55.3866573 Z" id="Fill-21" fill="#1A1918"></path>
                <path d="M86.2830304,67.0146067 C87.4261991,68.0793539 88.847719,68.6957865 90.3530796,68.6957865 C91.7192646,68.6957865 92.9177681,68.1914326 92.9177681,66.9585674 C92.9177681,66.0337079 92.2206323,65.5293539 91.133637,65.165309 L89.4333466,64.5766854 C87.5657939,63.9606742 86.3111171,63.0640449 86.3111171,61.0466292 C86.3111171,58.8610955 88.2344239,57.544382 90.6876042,57.544382 C92.0814567,57.544382 93.3638009,57.9366573 94.3673747,58.6369382 L94.3673747,60.8224719 C93.3357143,59.954073 92.1929649,59.3376404 90.6876042,59.3376404 C89.40526,59.3376404 88.3459321,59.8976124 88.3459321,60.9623596 C88.3459321,61.9710674 89.0154005,62.3073034 90.1858173,62.727809 L92.0814567,63.3720506 C93.9490094,64.0162921 94.9806698,65.1092697 94.9806698,66.8747191 C94.9806698,69.1719101 92.9458548,70.4890449 90.3530796,70.4890449 C88.73663,70.4890449 87.2031827,69.9842697 86.2830304,69.2561798 L86.2830304,67.0146067" id="Fill-22" fill="#1A1918"></path>
                <path d="M99.2456487,62.727809 L105.629283,62.727809 C105.545443,60.9063202 104.62571,59.3376404 102.618562,59.3376404 C100.973607,59.3376404 99.6359274,60.4301966 99.2456487,62.727809 Z M99.1337213,64.3807584 C99.2175621,67.266573 101.02978,68.6397472 103.287611,68.6397472 C104.681464,68.6397472 105.684618,68.3035112 106.800119,67.4629213 L106.800119,69.3960674 C105.796546,70.180618 104.513782,70.4890449 103.036508,70.4890449 C99.4682459,70.4890449 97.0712389,68.0515449 97.0712389,64.1287921 C97.0712389,60.2620787 99.3014028,57.544382 102.590895,57.544382 C105.935721,57.544382 107.664098,59.981882 107.664098,63.6244382 L107.664098,64.3807584 L99.1337213,64.3807584 L99.1337213,64.3807584 Z" id="Fill-23" fill="#1A1918"></path>
                <path d="M33.1380562,68.6397472 C31.911466,68.6397472 31.1032412,67.855618 31.1032412,66.3699438 L31.1032412,65.2955056 L31.1548033,65.2955056 L31.1548033,59.5752809 L34.4384262,59.5752809 L34.4384262,57.8195225 L31.1548033,57.8195225 L31.1548033,54.7297753 L29.0403396,54.7297753 L29.0403396,57.8195225 L26.1943653,57.8195225 L26.1943653,59.5752809 L29.0403396,59.5752809 L29.0403396,66.5389045 C29.0403396,69.0324438 30.6572084,70.4890449 32.8311991,70.4890449 C33.5006674,70.4890449 33.9743677,70.4047753 34.4484871,70.2092697 L34.4484871,68.3030899 C34.0582084,68.5558989 33.584089,68.6397472 33.1380562,68.6397472" id="Fill-24" fill="#1A1918"></path>
            </g>
        </g>
    </g>
</svg>