<?xml version="1.0" encoding="UTF-8" standalone="no"?>
<svg width="95px" height="31px" viewBox="0 0 95 31" version="1.1" xmlns="http://www.w3.org/2000/svg" xmlns:xlink="http://www.w3.org/1999/xlink">
    <!-- Generator: Sketch 43.1 (39012) - http://www.bohemiancoding.com/sketch -->
    <title>Iteris_Logo_CMYK</title>
    <desc>Created with Sketch.</desc>
    <defs>
        <polygon id="path-1" points="21.9307966 0.224869231 21.9307966 25.2769231 10.9822794 25.2769231 0.0337622549 25.2769231 0.0337622549 0.224869231 21.9307966 0.224869231"></polygon>
    </defs>
    <g id="Page-1" stroke="none" stroke-width="1" fill="none" fill-rule="evenodd">
        <g id="March-14th-2017" transform="translate(-371.000000, -3813.000000)">
            <g id="Iteris_Logo_CMYK" transform="translate(371.000000, 3813.000000)">
                <path d="M3.21020833,0.0708230769 C4.95420343,0.0708230769 6.38106618,1.4508 6.38106618,3.31795385 C6.38106618,5.18510769 4.9146201,6.56532308 3.21020833,6.56532308 C1.46644608,6.56532308 0,5.18510769 0,3.31795385 C0,1.49157692 1.42686275,0.0708230769 3.21020833,0.0708230769" id="Fill-2" fill="#474845"></path>
                <polygon id="Fill-3" fill="#474845" points="0.594681373 30.4317462 5.82620098 30.4317462 5.82620098 9.40659231 0.594681373 9.40659231"></polygon>
                <path d="M36.7617402,13.3030538 C32.5605515,13.3030538 31.4904044,16.2661769 31.2128554,17.3213692 L42.1515931,17.3213692 C42.0326103,16.6315 41.0420956,13.3030538 36.7617402,13.3030538 Z M47.1057966,21.1367538 L31.1336887,21.1367538 C31.2922549,22.3138 32.4017525,26.4539692 37.3957721,26.4539692 C41.0022794,26.4539692 42.7858578,24.1404154 42.9441912,23.8969462 L46.233799,26.8598308 C45.5995343,27.6715538 43.3404902,31 36.9200735,31 C30.6579902,31 25.8230025,26.4947462 25.8230025,19.8378538 C25.8230025,13.4246692 30.4598407,8.8381 36.603174,8.8381 C43.6180392,8.8381 47.1453799,14.0744769 47.1453799,20.3658077 C47.1453799,20.6092769 47.1057966,20.8932846 47.1057966,21.1367538 L47.1057966,21.1367538 Z" id="Fill-4" fill="#474845"></path>
                <path d="M54.6967157,9.40659231 L54.6967157,13.6278385 C55.2119975,11.3953615 57.4314583,8.87887692 60.9192157,8.87887692 C61.3946814,8.87887692 61.9097304,8.8381 62.3854289,8.91917692 L62.0289461,14.0744769 C61.7909804,14.0744769 61.5928309,14.0337 61.3946814,14.0337 C57.629375,14.0337 55.0930147,15.0485923 55.0930147,18.5797308 L55.0930147,30.4317462 L49.8219118,30.4317462 L49.8219118,9.40659231 L54.6967157,9.40659231" id="Fill-5" fill="#474845"></path>
                <path d="M67.9105637,0.0708230769 C69.6545588,0.0708230769 71.0814216,1.4508 71.0814216,3.31795385 C71.0814216,5.18510769 69.6149755,6.56532308 67.9105637,6.56532308 C66.1668015,6.56532308 64.7003554,5.18510769 64.7003554,3.31795385 C64.7003554,1.49157692 66.1272181,0.0708230769 67.9105637,0.0708230769" id="Fill-6" fill="#474845"></path>
                <polygon id="Fill-7" fill="#474845" points="65.2950368 30.4317462 70.5265564 30.4317462 70.5265564 9.40659231 65.2950368 9.40659231"></polygon>
                <g id="Group-11" transform="translate(72.879902, 5.723077)">
                    <mask id="mask-2" fill="white">
                        <use xlink:href="#path-1"></use>
                    </mask>
                    <g id="Clip-9"></g>
                    <path d="M17.1945343,5.18534615 L15.1338725,9.00073077 C14.5790074,8.59486923 12.3991299,7.25543077 9.70397059,7.25543077 C7.99979167,7.25543077 6.37477941,7.90476154 6.37477941,8.95995385 C6.37477941,10.3807077 8.35650735,10.7052538 11.8440319,11.7201462 C15.4109559,12.7753385 18.0667647,14.7238077 18.0667647,18.3362615 C18.0667647,21.7860846 14.9753064,25.2769231 8.83220588,25.2769231 C4.07615196,25.2769231 0.786544118,23.0444462 0.0337622549,22.5575077 L2.2529902,18.3362615 C3.64026961,19.3101385 5.89931373,20.5282 8.71322304,20.5282 C11.3289828,20.5282 12.7162623,19.7973154 12.7162623,18.4984154 C12.7162623,16.9965846 9.94170343,16.3472538 7.08821078,15.4136769 C4.03656863,14.3990231 0.945110294,13.1409 0.945110294,9.40659231 C0.945110294,5.63174615 4.78958333,3.11502308 9.62480392,3.11502308 C13.4690441,3.11502308 16.3227696,4.57631538 17.1945343,5.18534615" id="Fill-8" fill="#474845" mask="url(#mask-2)"></path>
                    <path d="M21.6397426,2.32547692 C21.6411397,1.69522308 21.4250613,1.20923846 21.0471569,0.884930769 C20.6697181,0.5611 20.2347672,0.431138462 19.7506863,0.536776923 C18.6281495,0.781915385 18.0956373,2.13303846 18.7231495,3.1279 C19.1774265,3.84805385 20.0408088,4.10773846 20.7474877,3.71952308 C21.3340196,3.39736154 21.6141299,2.87322308 21.6397426,2.32547692 Z M19.9052941,0.224869231 L20.214277,0.224869231 C20.3442034,0.2542 20.476924,0.274230769 20.6033578,0.314769231 C21.5244853,0.610938462 22.072598,1.56883846 21.8988971,2.57204615 C21.7421936,3.47748462 20.9670588,4.16210769 20.1057721,4.18333077 C19.1853431,4.20622308 18.386924,3.53209231 18.2053064,2.60829231 C18.1871446,2.51600769 18.1743382,2.42253077 18.1589706,2.32976923 L18.1589706,2.07652308 C18.1640931,2.05100769 18.171777,2.02573077 18.1741054,1.99997692 C18.2497794,1.14413846 18.8644853,0.438053846 19.6864216,0.264453846 C19.7590686,0.249192308 19.8324142,0.237984615 19.9052941,0.224869231 L19.9052941,0.224869231 Z" id="Fill-10" fill="#474845" mask="url(#mask-2)"></path>
                </g>
                <path d="M92.45875,7.07372308 L92.45875,7.8089 C92.6804167,7.8089 92.8960294,7.81152308 93.1114093,7.80842308 C93.3726593,7.80436923 93.4907108,7.67464615 93.4832598,7.40709231 C93.4783701,7.22657692 93.3877941,7.11354615 93.2145588,7.08683846 C93.1288725,7.07372308 93.040625,7.07515385 92.9533088,7.0742 C92.7896201,7.07253077 92.6259314,7.07372308 92.45875,7.07372308 Z M92.1891176,6.84599231 L92.439424,6.84599231 C92.6659804,6.84623077 92.8925368,6.84265385 93.1190931,6.8479 C93.2159559,6.85004615 93.3149142,6.8603 93.40875,6.88438462 C93.5808211,6.9285 93.6874632,7.04773077 93.7275123,7.22466923 C93.7854902,7.48006154 93.7521936,7.70755385 93.5275,7.87233077 C93.5151593,7.88139231 93.5049142,7.89307692 93.4774387,7.91883077 C93.4914093,7.92312308 93.5021201,7.92503077 93.5116667,7.9298 C93.665576,8.00610769 93.7158701,8.13821538 93.7156373,8.30561538 C93.7154044,8.43438462 93.7237868,8.56386923 93.7403186,8.69144615 C93.7475368,8.7482 93.784326,8.8009 93.8066789,8.85574615 C93.8166912,8.88006923 93.8239093,8.90558462 93.83625,8.94206923 C93.7296078,8.94206923 93.637402,8.94445385 93.5456618,8.93968462 C93.5284314,8.93896923 93.5021201,8.91083077 93.4981618,8.89175385 C93.4776716,8.78897692 93.4578799,8.68572308 93.4481005,8.58175385 C93.4387868,8.48255385 93.4501961,8.38096923 93.4378554,8.28224615 C93.4187623,8.13034615 93.3435539,8.04998462 93.1952328,8.04402308 C92.9516789,8.03424615 92.7074265,8.0414 92.4545588,8.0414 L92.4545588,8.93801538 L92.1891176,8.93801538 L92.1891176,6.84599231 L92.1891176,6.84599231 Z" id="Fill-12" fill="#474845"></path>
                <path d="M21.9787623,8.45846923 C23.7225245,8.45846923 25.1496201,9.83844615 25.1496201,11.7056 C25.1496201,13.5727538 23.683174,14.9529692 21.9787623,14.9529692 C20.235,14.9529692 18.7685539,13.5727538 18.7685539,11.7056 C18.7685539,9.87922308 20.1954167,8.45846923 21.9787623,8.45846923" id="Fill-13" fill="#474845"></path>
                <path d="M17.2527451,3.00175385 L17.2527451,23.6127 C17.2527451,24.6273538 17.6094608,26.1291846 19.7495221,26.1291846 C21.7314828,26.1291846 22.6428309,25.0332154 22.8805637,24.7086692 L25.5361397,28.5240538 C25.2585907,28.8488385 23.2770956,31 18.7985907,31 C13.5670711,31 12.0212255,27.4280846 12.0212255,24.4652 L12.0212255,14.0337 L8.45430147,14.0337 L8.45430147,9.40659231 L12.0212255,9.40659231 L12.0212255,6.18855385 L17.2527451,3.00175385" id="Fill-14" fill="#474845"></path>
            </g>
        </g>
    </g>
</svg>