<?xml version="1.0" encoding="UTF-8" standalone="no"?>
<svg width="199px" height="41px" viewBox="0 0 199 41" version="1.1" xmlns="http://www.w3.org/2000/svg" xmlns:xlink="http://www.w3.org/1999/xlink">
    <!-- Generator: Sketch 43.1 (39012) - http://www.bohemiancoding.com/sketch -->
    <title>mcafee-new-seeklogo.com</title>
    <desc>Created with Sketch.</desc>
    <defs>
        <polygon id="path-1" points="51.3961088 24.2932394 51.3961088 0.268751473 0.505655408 0.268751473 0.505655408 24.2932394 51.3961088 24.2932394"></polygon>
    </defs>
    <g id="Page-1" stroke="none" stroke-width="1" fill="none" fill-rule="evenodd">
        <g id="March-14th-2017" transform="translate(-899.000000, -3722.000000)">
            <g id="mcafee-new-seeklogo.com" transform="translate(899.000000, 3722.000000)">
                <path d="M0,0.6636 L0.0456918429,0.6636 C5.8281148,3.3426 11.6177523,6.0012 17.3875498,8.703 C17.3172085,11.3112 17.3172085,13.9248 17.385145,16.5336 C13.9564532,15.0024 10.5656375,13.3836 7.15257704,11.8152 C7.18263746,17.2386 7.15257704,22.659 7.17001208,28.0824 C10.575858,29.661 13.9943293,31.2198 17.3875498,32.8284 C17.324423,35.4474 17.2895529,38.0682 17.4152054,40.6842 C11.6027221,38.0178 5.81248338,35.3034 0.00480966767,32.6298 C0,21.9744 0.0102205438,11.319 0,0.6636" id="Fill-1" fill="#AD252A"></path>
                <path d="M34.6644773,0.6636 L34.7576647,0.6636 C34.7624743,11.334 34.793136,22.0044 34.7450393,32.6748 C28.9475861,35.301 23.1928187,38.0154 17.4152054,40.6842 C17.2895529,38.0682 17.324423,35.4474 17.3875498,32.8284 C20.8036163,31.2396 24.2220876,29.6514 27.6459698,28.08 C27.6658097,22.6542 27.6429637,17.2308 27.6585952,11.805 C24.234713,13.3812 20.8390876,15.0228 17.385145,16.5336 C17.3172085,13.9248 17.3172085,11.3112 17.3875498,8.703 C23.1399124,6.0114 28.9349607,3.4056 34.6644773,0.6636" id="Fill-2" fill="#5D1C1B"></path>
                <path d="M48.2175196,0.5538 C52.8660634,3.9936 57.4610997,7.5096 62.0873988,10.9794 C66.7209124,7.5096 71.3123414,3.9858 75.9687009,0.546 C75.9837311,11.247 75.9530695,21.9474 75.9416465,32.6442 C73.586713,32.6292 71.2353867,32.6442 68.8840604,32.637 C68.8804532,26.5374 68.8882689,20.4378 68.8804532,14.3388 C66.6060816,16.0086 64.3503474,17.7096 62.0759758,19.3758 C59.812426,17.6904 57.5530846,16.0014 55.278713,14.331 C55.2630816,20.4306 55.3015589,26.526 55.2594743,32.6256 C52.908148,32.6064 50.5568218,32.6214 48.2060967,32.61 C48.2133112,21.9246 48.1904653,11.2392 48.2175196,0.5538" id="Fill-3" fill="#A7262A"></path>
                <g id="Group-7" transform="translate(101.604230, 0.600000)" fill="#A7262A">
                    <path d="M15.3001541,12.783 C14.3123686,15.2484 13.2975287,17.7096 12.3175589,20.178 C14.2931299,20.1858 16.2729094,20.1858 18.2526888,20.178 C17.284142,17.7096 16.292148,15.2442 15.3001541,12.783 Z M10.5746556,0.1452 C12.7732749,0.1374 14.9749003,0.1524 17.1765257,0.1338 C21.618855,10.7652 26.0034683,21.42 30.4187432,32.0598 C27.9375559,32.0634 25.4521601,32.0634 22.9667644,32.0634 C22.2350937,30.2442 21.5154471,28.4256 20.7765619,26.61 C17.096565,26.6178 13.416568,26.6136 9.73236254,26.6136 C8.99708459,28.4214 8.27322961,30.2292 7.54576737,32.037 C5.06818731,32.037 2.59481571,32.0406 0.11723565,32.037 C4.18741692,22.815 8.25038369,13.5894 12.3175589,4.368 C11.7391964,2.958 11.1530181,1.5516 10.5746556,0.1452 L10.5746556,0.1452 Z" id="Fill-4"></path>
                    <path d="M39.2492931,0.6918 C41.9529275,-0.1416 44.9433384,0.0648 47.5549879,1.131 C46.6742175,3.1068 45.7513625,5.0634 44.8633776,7.0356 C43.6339063,6.5538 42.0906042,5.958 40.9038187,6.852 C39.4753474,8.0406 40.0765559,10.089 39.9575166,11.7018 L44.1852145,11.7018 C44.1816073,13.7196 44.2008459,15.741 44.1659758,17.7588 C42.7645589,17.763 41.3589335,17.7588 39.9575166,17.763 C39.9539094,22.5288 39.9575166,27.294 39.9539094,32.0598 C37.7823444,32.0634 35.6113807,32.0634 33.4398157,32.0598 C33.4362085,27.2868 33.4398157,22.5132 33.4398157,17.7402 C32.4862991,17.7324 31.5369909,17.7402 30.5870816,17.7324 L30.5870816,11.7054 C31.5448066,11.6982 32.5055378,11.7054 33.4632628,11.7018 C33.4632628,9.6114 33.302139,7.4328 34.1372175,5.4612 C34.9909335,3.195 36.9322356,1.4022 39.2492931,0.6918" id="Fill-6"></path>
                </g>
                <path d="M86.0016677,9.5652 C89.3792568,8.205 93.3652689,8.1324 96.6929577,9.684 C98.9793535,10.7466 100.702417,12.6726 102.088804,14.7282 C100.300208,15.8022 98.4965831,16.857 96.7049819,17.9196 C95.5867341,16.047 93.7596616,14.3388 91.4239668,14.4342 C88.0313474,14.2392 84.9790121,17.289 85.1707976,20.6712 C85.0631813,24.0036 88.0998852,26.9346 91.427574,26.7516 C93.7410242,26.82 95.5939486,25.1502 96.6929577,23.2698 C98.4815529,24.3288 100.273755,25.3836 102.054535,26.4498 C100.794402,28.5516 98.9907764,30.3552 96.754281,31.3986 C92.3011299,33.5466 86.5529758,32.8968 82.8080483,29.6256 C79.7599215,26.9652 78.2316495,22.7046 78.890574,18.7182 C79.4995982,14.7246 82.2332931,11.094 86.0016677,9.5652" id="Fill-8" fill="#A7262A"></path>
                <g id="Group-12" transform="translate(147.296073, 8.400000)">
                    <mask id="mask-2" fill="white">
                        <use xlink:href="#path-1"></use>
                    </mask>
                    <g id="Clip-10"></g>
                    <path d="M7.39666767,9.2634 C10.8199486,9.2862 14.2438308,9.2826 17.6671118,9.2676 C16.7406495,7.3524 14.8642779,5.8548 12.6620514,5.8662 C10.3684411,5.6826 8.24677644,7.1772 7.39666767,9.2634 Z M2.9777855,4.9338 C6.81830514,-0.222 14.9520544,-1.2918 20.0142296,2.6676 C23.7940272,5.3388 25.2531601,10.1808 24.9236979,14.6328 C19.0228369,14.6328 13.1255831,14.6442 7.22832931,14.6256 C8.17042296,17.415 11.2606344,19.215 14.1596616,18.5538 C15.5496556,18.321 16.7214109,17.484 17.7627039,16.5822 C19.5284532,17.541 21.2972085,18.4968 23.0587492,19.4712 C21.2016163,21.4854 18.8809517,23.1402 16.2043716,23.8434 C11.4139426,25.1352 5.77280363,23.526 2.83950755,19.4136 C-0.323450151,15.2448 -0.265734139,9.042 2.9777855,4.9338 L2.9777855,4.9338 Z" id="Fill-9" fill="#A7262A" mask="url(#mask-2)"></path>
                    <path d="M33.8726858,9.2862 C37.296568,9.3132 40.7234562,9.3096 44.1473384,9.2904 C43.1781903,7.215 41.0451027,5.7018 38.6979849,5.8812 C36.5420514,5.8662 34.68071,7.3524 33.8726858,9.2862 Z M28.826142,5.8584 C31.8892991,0.7794 38.9853625,-1.1544 44.2928308,1.3794 C47.3295347,2.7552 49.7457915,5.4378 50.7299698,8.6256 C51.3846858,10.5588 51.4117402,12.6192 51.3925015,14.6328 C45.4952477,14.6562 39.5937855,14.5908 33.6965317,14.6676 C34.6350181,17.3082 37.4685136,19.089 40.2641329,18.6306 C41.7918036,18.4626 43.1096526,17.5908 44.2393233,16.5972 C45.9966556,17.5452 47.7431662,18.5118 49.5083142,19.452 C47.3523807,21.9744 44.3000453,23.7936 40.9801722,24.1908 C36.8829366,24.7068 32.4520302,23.2662 29.7910816,20.0328 C26.455577,16.158 26.0341299,10.1466 28.826142,5.8584 L28.826142,5.8584 Z" id="Fill-11" fill="#A7262A" mask="url(#mask-2)"></path>
                </g>
            </g>
        </g>
    </g>
</svg>