<?xml version="1.0" encoding="UTF-8" standalone="no"?>
<svg width="115px" height="32px" viewBox="0 0 115 32" version="1.1" xmlns="http://www.w3.org/2000/svg" xmlns:xlink="http://www.w3.org/1999/xlink">
    <!-- Generator: Sketch 43.1 (39012) - http://www.bohemiancoding.com/sketch -->
    <title>riverbed</title>
    <desc>Created with Sketch.</desc>
    <defs></defs>
    <g id="Page-1" stroke="none" stroke-width="1" fill="none" fill-rule="evenodd">
        <g id="March-14th-2017" transform="translate(-933.000000, -3808.000000)">
            <g id="riverbed" transform="translate(933.000000, 3808.000000)">
                <path d="M0.403712199,9.19028571 L5.01412898,9.19028571 L5.01412898,11.5645714 C6.91239782,9.93771429 8.44744305,8.92514286 11.1149949,8.92514286 L11.1149949,13.6794286 C10.6619922,13.5022857 10.2095764,13.4142857 9.7131512,13.4142857 C7.76969946,13.4142857 5.01412898,14.6034286 5.01412898,18.2554286 L5.01412898,31.5051429 L0.403712199,31.5051429 L0.403712199,9.19028571" id="Fill-1" fill="#E5722A"></path>
                <path d="M12.9663204,2.41257143 C12.9663204,1.17771429 14.0031801,0.168 15.272409,0.168 C16.5375304,0.168 17.5784976,1.17771429 17.5784976,2.41257143 C17.5784976,3.64685714 16.5375304,4.656 15.272409,4.656 C14.0031801,4.656 12.9663204,3.64685714 12.9663204,2.41257143" id="Fill-2" fill="#8A8B8A"></path>
                <polygon id="Fill-3" fill="#E5722A" points="12.9651469 31.5034286 17.5784976 31.5034286 17.5784976 9.18914286 12.9651469 9.18914286"></polygon>
                <polyline id="Fill-4" fill="#E5722A" points="29.4627754 31.5051429 25.3951403 31.5051429 19.4304099 9.18971429 24.3107506 9.18971429 27.3843618 23.4491429 27.4741408 23.4491429 30.547752 9.18971429 35.4292662 9.18971429 29.4627754 31.5051429"></polyline>
                <path d="M40.4903385,18.5222857 L45.011563,18.5222857 L45.011563,15.9668571 C45.011563,14.2948571 44.1513274,13.4142857 42.7494838,13.4142857 C41.3494005,13.4142857 40.4903385,14.2948571 40.4903385,15.9668571 L40.4903385,18.5222857 Z M40.4903385,22.0417143 L40.4903385,25.0777143 C40.4903385,26.4862857 41.3494005,27.28 42.7494838,27.28 C44.5133775,27.28 44.9206104,26.004 45.011563,25.0337143 L49.6208062,25.0337143 C49.6208062,26.8828571 48.941889,28.5994286 47.7665467,29.7885714 C46.547195,31.02 44.8730803,31.7685714 42.7494838,31.7685714 C39.94697,31.7685714 37.8239602,30.4908571 36.7383969,28.5554286 C36.1081834,27.4108571 35.8810953,25.8274286 35.8810953,24.0245714 L35.8810953,16.6702857 C35.8810953,14.8674286 36.1081834,13.2822857 36.7383969,12.1371429 C37.8239602,10.2017143 39.94697,8.92514286 42.7494838,8.92514286 C47.0007845,8.92514286 49.6208062,11.9617143 49.6208062,15.88 L49.6208062,22.0417143 L40.4903385,22.0417143 L40.4903385,22.0417143 Z" id="Fill-5" fill="#E5722A"></path>
                <path d="M51.5026449,9.19028571 L56.1130617,9.19028571 L56.1130617,11.5645714 C58.0125041,9.93771429 59.5463758,8.92514286 62.2145144,8.92514286 L62.2145144,13.6794286 C61.7626853,13.5022857 61.3096827,13.4142857 60.8138443,13.4142857 C58.8715661,13.4142857 56.1130617,14.6034286 56.1130617,18.2554286 L56.1130617,31.5051429 L51.5026449,31.5051429 L51.5026449,9.19028571" id="Fill-6" fill="#E5722A"></path>
                <path d="M73.2414906,16.056 C73.2414906,14.6485714 72.7438918,13.4142857 70.9823453,13.4142857 C69.6714542,13.4142857 68.6780171,14.4262857 68.6780171,15.8342857 L68.6780171,24.5068571 C68.6780171,26.136 69.5816752,27.28 70.9823453,27.28 C72.5649206,27.28 73.2414906,26.0468571 73.2414906,24.2417143 L73.2414906,16.056 Z M64.0687739,0.167428571 L68.6780171,0.167428571 L68.6780171,11.2137143 L68.7689697,11.2137143 C69.7606465,9.76114286 71.207673,8.92342857 73.0149893,8.92342857 C75.230712,8.92342857 76.3620451,9.76114286 77.1283941,10.9502857 C77.7151851,11.8737143 77.8519074,13.1508571 77.8519074,16.3645714 L77.8519074,24.8582857 C77.8519074,27.3222857 77.6265796,28.688 77.0820376,29.6554286 C76.2705057,31.108 74.9138449,31.7685714 73.0613458,31.7685714 C70.755844,31.7685714 69.8527726,30.7571429 68.6780171,29.48 L68.6780171,31.5051429 L64.0687739,31.5051429 L64.0687739,0.167428571 L64.0687739,0.167428571 Z" id="Fill-7" fill="#E5722A"></path>
                <path d="M84.3283195,18.5222857 L88.8495441,18.5222857 L88.8495441,15.9668571 C88.8495441,14.2948571 87.9881349,13.4142857 86.586878,13.4142857 C85.1867947,13.4142857 84.3283195,14.2948571 84.3283195,15.9668571 L84.3283195,18.5222857 Z M84.3283195,22.0417143 L84.3283195,25.0777143 C84.3283195,26.4862857 85.1867947,27.28 86.586878,27.28 C88.3519453,27.28 88.759765,26.004 88.8495441,25.0337143 L93.459374,25.0337143 C93.459374,26.8828571 92.7816305,28.5994286 91.6045277,29.7885714 C90.3851761,31.02 88.7139953,31.7685714 86.586878,31.7685714 C83.7855378,31.7685714 81.6619413,30.4908571 80.5775515,28.5554286 C79.944404,27.4108571 79.7190763,25.8274286 79.7190763,24.0245714 L79.7190763,16.6702857 C79.7190763,14.8674286 79.944404,13.2822857 80.5775515,12.1371429 C81.6619413,10.2017143 83.7855378,8.92514286 86.586878,8.92514286 C90.8364183,8.92514286 93.459374,11.9617143 93.459374,15.88 L93.459374,22.0417143 L84.3283195,22.0417143 L84.3283195,22.0417143 Z" id="Fill-8" fill="#E5722A"></path>
                <path d="M99.944588,24.2417143 C99.944588,26.0468571 100.621745,27.28 102.20256,27.28 C103.605577,27.28 104.509822,26.136 104.509822,24.5057143 L104.509822,15.8337143 C104.509822,14.4245714 103.512864,13.4137143 102.20256,13.4137143 C100.442774,13.4137143 99.944588,14.6468571 99.944588,16.056 L99.944588,24.2417143 Z M104.509822,29.48 C103.335066,30.7548571 102.429648,31.7685714 100.122386,31.7685714 C98.2704733,31.7685714 96.9167465,31.108 96.104041,29.6554286 C95.5589122,28.688 95.3341713,27.3234286 95.3341713,24.8594286 L95.3341713,16.3645714 C95.3341713,13.1508571 95.4708936,11.8742857 96.0559242,10.9497143 C96.8246204,9.76171429 97.9553666,8.92457143 100.171676,8.92457143 C101.975472,8.92457143 103.423672,9.76171429 104.416522,11.2131429 L104.509822,11.2131429 L104.509822,0.166857143 L109.117892,0.166857143 L109.117892,31.5034286 L104.509822,31.5034286 L104.509822,29.48 L104.509822,29.48 Z" id="Fill-9" fill="#E5722A"></path>
                <path d="M109.953482,2.14742857 C109.953482,3.27485714 110.891174,4.18742857 112.047739,4.18742857 C113.205478,4.18742857 114.14317,3.27485714 114.14317,2.14742857 C114.14317,1.02114286 113.205478,0.108571429 112.047739,0.108571429 C110.891174,0.108571429 109.953482,1.02114286 109.953482,2.14742857 L109.953482,2.14742857 Z M113.728895,2.14742857 C113.728895,3.06628571 112.972522,3.81657143 112.047739,3.81657143 C111.121783,3.81657143 110.369517,3.06628571 110.369517,2.14742857 C110.369517,1.22914286 111.121783,0.478857143 112.047739,0.478857143 C112.972522,0.478857143 113.728895,1.22914286 113.728895,2.14742857 L113.728895,2.14742857 Z M111.254984,3.33771429 L111.637572,3.33771429 L111.637572,2.30514286 L111.931554,2.30514286 L112.632183,3.33771429 L113.095161,3.33771429 L112.394532,2.29428571 C112.736632,2.25428571 113.020052,2.07542857 113.020052,1.63028571 C113.020052,1.17828571 112.742499,0.96 112.180354,0.96 L111.254984,0.96 L111.254984,3.33771429 Z M111.637572,1.29714286 L112.19385,1.29714286 C112.454385,1.29714286 112.638637,1.39257143 112.638637,1.612 C112.638637,1.86628571 112.447344,1.968 112.071211,1.968 L111.637572,1.968 L111.637572,1.29714286 L111.637572,1.29714286 Z" id="Fill-10" fill="#E5722A"></path>
            </g>
        </g>
    </g>
</svg>