<?xml version="1.0" encoding="UTF-8" standalone="no"?>
<svg width="219px" height="53px" viewBox="0 0 219 53" version="1.1" xmlns="http://www.w3.org/2000/svg" xmlns:xlink="http://www.w3.org/1999/xlink">
    <!-- Generator: Sketch 43.1 (39012) - http://www.bohemiancoding.com/sketch -->
    <title>WE_logo_tagline_orange</title>
    <desc>Created with Sketch.</desc>
    <defs></defs>
    <g id="Page-1" stroke="none" stroke-width="1" fill="none" fill-rule="evenodd">
        <g id="March-14th-2017" transform="translate(-1127.000000, -3791.000000)">
            <g id="WE_logo_tagline_orange" transform="translate(1127.000000, 3791.000000)">
                <g id="Group-17" transform="translate(135.000000, 24.000000)"></g>
                <g id="Group-29">
                    <path d="M40.2242546,39.7058775 L28.7625102,39.7058775 L20.9487926,35.1479635 C20.7158957,35.0137839 20.4560263,34.9597976 20.2101619,34.983908 C19.9565169,34.9597976 19.7007971,35.0137839 19.4689376,35.1479635 L13.1724215,38.8200823 L13.1724215,27.683174 C13.1724215,26.9824 12.6111866,26.4126607 11.9187203,26.4126607 C11.2241792,26.4126607 10.6629443,26.9824 10.6629443,27.683174 L10.6629443,41.0696875 C10.6629443,41.7709856 11.2241792,42.3360076 11.9187203,42.3360076 C12.2626193,42.3360076 12.5769523,42.1971108 12.8041436,41.9670137 L20.2101619,37.6486314 L27.64419,41.9879792 C27.698135,42.0194276 27.7546734,42.0451104 27.8148428,42.066076 C27.9989818,42.1787659 28.2194299,42.2453316 28.4533642,42.2453316 L40.2242546,42.2453316 C40.9151648,42.2453316 41.4826241,41.6776889 41.4826241,40.9779631 C41.4826241,40.2745684 40.9151648,39.7058775 40.2242546,39.7058775 Z M40.2242546,32.874248 L28.4533642,32.874248 C27.7603791,32.874248 27.1949946,33.4455596 27.1949946,34.143713 C27.1949946,34.8486801 27.7603791,35.4126538 28.4533642,35.4126538 L40.2242546,35.4126538 C40.9151648,35.4126538 41.4826241,34.8486801 41.4826241,34.143713 C41.4826241,33.4455596 40.9151648,32.874248 40.2242546,32.874248 Z M40.2242546,26.4126607 L28.4533642,26.4126607 C27.7603791,26.4126607 27.1949946,26.9824 27.1949946,27.683174 C27.1949946,28.383948 27.7603791,28.9521148 28.4533642,28.9521148 L40.2242546,28.9521148 C40.9151648,28.9521148 41.4826241,28.383948 41.4826241,27.683174 C41.4826241,26.9824 40.9151648,26.4126607 40.2242546,26.4126607 Z M42.4292541,52.5210793 L8.84437722,52.5210793 C3.95924763,52.5210793 0,48.5203253 0,43.5860795 L0,0.341980198 L42.4292541,0.341980198 C47.3117902,0.341980198 51.2700005,4.34168593 51.2700005,9.27488346 L51.2700005,43.5860795 C51.2700005,48.5203253 47.3117902,52.5210793 42.4292541,52.5210793 L42.4292541,52.5210793 Z" id="Fill-2" fill="#E56F3A"></path>
                    <g id="Group-30" transform="translate(63.000000, 23.000000)" fill="#E56F3A">
                        <path d="M25.9429364,3.72992283 L20.1815885,23.0480853 C20.0014377,23.6505024 19.4401184,24.029828 18.8447166,23.9981589 C18.2500103,24.029828 17.688691,23.6505024 17.5085402,23.0480853 L13.0012923,7.92854423 L8.49126221,23.0480853 C8.31111141,23.6505024 7.74909656,24.029828 7.15369468,23.9981589 C6.55968393,24.029828 5.99766907,23.6505024 5.8189094,23.0480853 L0.0568660051,3.72992283 C-0.154585129,3.01983081 0.241885747,2.27173584 0.943708753,2.05779335 C1.64414063,1.8431471 2.3842196,2.24499303 2.5963663,2.95508505 L7.15369468,18.2386018 L11.7124142,2.95508505 C11.887696,2.36744696 12.4239751,1.9930476 13.0012923,2.00149269 C13.5765229,1.9930476 14.1121063,2.36744696 14.2873882,2.95508505 L18.8447166,18.2386018 L23.4041316,2.95508505 C23.6141916,2.24499303 24.3556617,1.8431471 25.0560936,2.05779335 C25.7572211,2.27173584 26.1550831,3.01983081 25.9429364,3.72992283" id="Fill-1"></path>
                        <path d="M37.176739,13.9389925 C37.176739,11.4257041 35.7668372,8.51543038 32.6566173,8.51543038 C29.1647075,8.37691392 27.9131517,11.2586275 27.8184207,13.9389925 L37.176739,13.9389925 Z M27.8184207,16.1245537 C27.8184207,19.1340738 29.6763933,21.4831416 32.8495367,21.4831416 C36.5972894,21.4831416 37.5632693,19.1033717 38.6205227,19.1033717 C39.1294427,19.1033717 39.6452773,19.5681872 39.6452773,20.393574 C39.6452773,21.8180087 36.1519845,24 32.8163463,24 C27.3710413,24 25,19.6645775 25,14.997858 C25,10.2340341 27.8834186,6 32.6566173,6 C37.305352,6 40,10.3339944 40,14.5708846 C40,15.598334 39.6452773,16.1245537 38.4269119,16.1245537 L27.8184207,16.1245537 L27.8184207,16.1245537 Z" id="Fill-3"></path>
                        <path d="M50.3476728,21.4765101 C53.8815233,21.4765101 55.1212976,17.9622371 55.1212976,14.9741387 C55.1212976,11.9910515 53.8815233,8.47463087 50.3476728,8.47463087 C46.8187588,8.47463087 45.5811001,11.9910515 45.5811001,14.9741387 C45.5811001,17.9622371 46.8187588,21.4765101 50.3476728,21.4765101 Z M43,1.55991051 C43,0.594183445 43.5507757,0 44.4351199,0 C45.3152327,0 45.8723554,0.594183445 45.8723554,1.55991051 L45.8723554,8.33574944 L45.9393512,8.33574944 C46.6875882,7.24474273 48.2926657,5.95257271 50.5789845,5.95257271 C55.2849083,5.95257271 58,10.2979866 58,14.9741387 C58,19.6531544 55.2849083,24 50.5789845,24 C48.2926657,24 46.7524683,23.1710067 45.9393512,21.5781655 L45.8723554,21.5781655 L45.8723554,22.4386577 C45.8723554,23.4043848 45.3152327,24 44.4351199,24 C43.5507757,24 43,23.4043848 43,22.4386577 L43,1.55991051 L43,1.55991051 Z" id="Fill-4"></path>
                    </g>
                    <g id="Group-22" transform="translate(125.000000, 23.000000)" fill="#9E9F9E">
                        <path d="M15.1323117,13.3090494 C15.9340285,13.3090494 16.5882353,12.670546 16.5882353,11.8803619 C16.5882353,11.0952338 15.9340285,10.4567304 15.1323117,10.4567304 L2.54085948,10.4567304 L2.54085948,4.03341489 L15.1323117,4.03341489 C15.9340285,4.03341489 16.5882353,3.3934669 16.5882353,2.60761654 C16.5882353,1.81959931 15.9340285,1.18181818 15.1323117,1.18181818 L1.48321289,1.18181818 C0.826793462,1.18181818 0.276581221,1.60796865 0.0936688401,2.19302269 C0.0914561903,2.20241245 0.0899810905,2.21252449 0.0855557909,2.22046967 C0.0523660445,2.33892505 0.0302395468,2.45954731 0.028026897,2.58811474 C0.0221264977,2.64662014 0,2.6950135 0,2.75496348 L0,21.2787855 C0,21.3546258 0.0243391474,21.4145758 0.0339272964,21.487527 C0.0324521966,21.5164185 0.0243391474,21.5453101 0.0243391474,21.5727571 C0.0243391474,22.3636634 0.677808378,23 1.48321289,23 L15.1323117,23 C15.9340285,23 16.5882353,22.3636634 16.5882353,21.5727571 C16.5882353,20.7883513 15.9340285,20.1469587 15.1323117,20.1469587 L2.54085948,20.1469587 L2.54085948,13.3090494 L15.1323117,13.3090494" id="Fill-35"></path>
                        <path d="M17.6941176,7.05065811 C17.6941176,6.12150301 18.2705882,5.54545455 19.1867647,5.54545455 C20.1066176,5.54545455 20.6823529,6.12150301 20.6823529,7.05065811 L20.6823529,7.72502254 L20.7551471,7.7907973 C22.0860294,6.18520068 23.9595588,5.54545455 25.7632353,5.54545455 C28.5580882,5.54545455 32.0705882,7.21267174 32.0705882,12.0259998 L32.0705882,21.4899499 C32.0705882,22.4239515 31.4919118,23 30.5720588,23 C29.6507353,23 29.0713235,22.4239515 29.0713235,21.4899499 L29.0713235,12.1887058 C29.0713235,9.199762 26.8536765,7.98465977 24.8816176,7.98465977 C22.9014706,7.98465977 20.6823529,9.199762 20.6823529,12.1887058 L20.6823529,21.4899499 C20.6823529,22.4239515 20.1066176,23 19.1867647,23 C18.2705882,23 17.6941176,22.4239515 17.6941176,21.4899499 L17.6941176,7.05065811" id="Fill-36"></path>
                        <path d="M46.85164,13.2438715 C46.85164,10.8067434 45.3972479,7.98465977 42.1908773,7.98465977 C38.5848699,7.85034077 37.295328,10.6447297 37.1939916,13.2438715 L46.85164,13.2438715 Z M37.1939916,15.3632036 C37.1939916,18.2815261 39.1151022,20.55941 42.3878411,20.55941 C46.2557532,20.55941 47.2491357,18.2517544 48.3424275,18.2517544 C48.8676643,18.2517544 49.3971829,18.7024846 49.3971829,19.5028596 C49.3971829,20.8841297 45.7947437,23 42.3507319,23 C36.7301276,23 34.2823529,18.795954 34.2823529,14.2706502 C34.2823529,9.65118459 37.2582189,5.54545455 42.1908773,5.54545455 C46.9858037,5.54545455 49.7647059,9.74811583 49.7647059,13.8566153 C49.7647059,14.8529299 49.3971829,15.3632036 48.1440364,15.3632036 L37.1939916,15.3632036 L37.1939916,15.3632036 Z" id="Fill-37"></path>
                        <path d="M51.9764706,7.05065811 C51.9764706,6.12150301 52.5604251,5.54545455 53.4776467,5.54545455 C54.4000294,5.54545455 54.981772,6.12150301 54.981772,7.05065811 L54.981772,8.49562583 L55.0510797,8.49562583 C55.73236,7.18428474 57.4045935,5.54545455 59.1498213,5.54545455 C60.2130315,5.54545455 60.8235294,6.18520068 60.8235294,6.98765281 C60.8235294,7.7907973 60.2130315,8.30384047 58.9433727,8.52539757 C57.1686523,8.817576 54.981772,10.0693736 54.981772,13.3712668 L54.981772,21.4899499 C54.981772,22.4239515 54.4000294,23 53.4776467,23 C52.5604251,23 51.9764706,22.4239515 51.9764706,21.4899499 L51.9764706,7.05065811" id="Fill-38"></path>
                        <path d="M64.4287386,0.551634881 C64.4287386,-0.408764988 64.9542035,-1 65.7983158,-1 C66.6410807,-1 67.1739561,-0.408764988 67.1739561,0.551634881 L67.1739561,5.19725685 L68.296969,5.19725685 C69.1983435,5.19725685 69.6705882,5.65853441 69.6705882,6.45327423 C69.6705882,7.24658594 69.1983435,7.7107197 68.296969,7.7107197 L67.1739561,7.7107197 L67.1739561,21.4426527 C67.1739561,22.4059088 66.6410807,23 65.7983158,23 C64.9542035,23 64.4287386,22.4059088 64.4287386,21.4426527 L64.4287386,7.7107197 L63.303031,7.7107197 C62.3982882,7.7107197 61.9294118,7.24658594 61.9294118,6.45327423 C61.9294118,5.65853441 62.3982882,5.19725685 63.303031,5.19725685 L64.4287386,5.19725685 L64.4287386,0.551634881" id="Fill-39"></path>
                        <path d="M75.9968631,21.4397747 C75.9968631,22.4048109 75.4789573,23 74.6467273,23 C73.8158234,23 73.2932758,22.4048109 73.2932758,21.4397747 L73.2932758,6.52070106 C73.2932758,5.56067245 73.8158234,4.96548332 74.6467273,4.96548332 C75.4789573,4.96548332 75.9968631,5.56067245 75.9968631,6.52070106 L75.9968631,21.4397747 Z M74.6467273,-1 C75.5711326,-1 76.3058824,-0.205937584 76.3058824,0.789859608 C76.3058824,1.77921846 75.5711326,2.57900385 74.6467273,2.57900385 C73.7282901,2.57900385 72.9882353,1.77921846 72.9882353,0.789859608 C72.9882353,-0.205937584 73.7282901,-1 74.6467273,-1 L74.6467273,-1 Z" id="Fill-40"></path>
                        <path d="M86.3392841,20.55941 C89.949548,20.55941 91.2217637,17.1605856 91.2217637,14.2706502 C91.2217637,11.3855613 89.949548,7.98465977 86.3392841,7.98465977 C82.7304635,7.98465977 81.4560829,11.3855613 81.4560829,14.2706502 C81.4560829,17.1605856 82.7304635,20.55941 86.3392841,20.55941 Z M94,21.6173452 C94,22.6143522 93.1946723,23 92.6245926,23 C92.0278131,23 91.2527934,22.6143522 91.2527934,21.6173452 L91.2527934,20.4327071 L91.1885692,20.4327071 C89.9185184,22.1663914 88.2429172,23 86.3392841,23 C81.3254697,23 78.5176471,18.795954 78.5176471,14.2706502 C78.5176471,9.74811583 81.3254697,5.54545455 86.3392841,5.54545455 C88.3778601,5.54545455 89.8131619,6.37560131 91.1885692,7.82403087 L91.2527934,7.82403087 L91.2527934,6.92257041 C91.2527934,5.92833291 92.0278131,5.54545455 92.6245926,5.54545455 C93.1946723,5.54545455 94,5.92833291 94,6.92257041 L94,21.6173452 L94,21.6173452 Z" id="Fill-41"></path>
                    </g>
                </g>
            </g>
        </g>
    </g>
</svg>