<?xml version="1.0" encoding="UTF-8" standalone="no"?>
<svg width="146px" height="30px" viewBox="0 0 146 30" version="1.1" xmlns="http://www.w3.org/2000/svg" xmlns:xlink="http://www.w3.org/1999/xlink">
    <!-- Generator: Sketch 43.1 (39012) - http://www.bohemiancoding.com/sketch -->
    <title>WEKA-LogoCMYK_BlackGreen_NoTagline</title>
    <desc>Created with Sketch.</desc>
    <defs>
        <polygon id="path-1" points="38.9921875 11.1138 38.9921875 22.0656 0.110679688 22.0656 0.110679687 0.162 38.9921875 0.162 38.9921875 11.1138"></polygon>
        <polygon id="path-3" points="-3.51975449e-16 21.66072 -3.51975449e-16 0.230810109 32.865883 0.230810109 32.865883 21.66072 -8.92135771e-16 21.66072"></polygon>
    </defs>
    <g id="Page-1" stroke="none" stroke-width="1" fill="none" fill-rule="evenodd">
        <g id="March-14th-2017" transform="translate(-342.000000, -3723.000000)">
            <g id="WEKA-LogoCMYK_BlackGreen_NoTagline" transform="translate(342.000000, 3723.000000)">
                <path d="M59.7820469,7.91112 C58.6231797,7.91112 57.6839766,8.84184 57.6839766,9.99024 L57.6839766,27.26112 C57.6839766,28.40952 58.6231797,29.34048 59.7820469,29.34048 C60.9406719,29.34048 61.879875,28.40952 61.879875,27.26112 L61.879875,9.99024 C61.879875,8.84184 60.9406719,7.91112 59.7820469,7.91112" id="Fill-1" fill="#1A1918"></path>
                <path d="M75.4794297,8.69496 C74.6622891,7.88088 73.3329219,7.87776 72.512875,8.68752 L63.9280547,17.15256 C63.5320781,17.54208 63.30975,18.07296 63.30975,18.62616 C63.30975,19.17888 63.5320781,19.71 63.9280547,20.09952 L72.512875,28.56288 C72.9221719,28.96728 73.4564375,29.16864 73.9923984,29.16864 C74.5312656,29.16864 75.0701328,28.96416 75.4794297,28.55568 C76.2965703,27.7416 76.2934219,26.42568 75.4719219,25.61592 L68.3830937,18.62616 L75.4719219,11.63616 C76.2934219,10.82496 76.2965703,9.50904 75.4794297,8.69496" id="Fill-2" fill="#1A1918"></path>
                <g id="Group-6" transform="translate(106.320312, 7.920000)">
                    <mask id="mask-2" fill="white">
                        <use xlink:href="#path-1"></use>
                    </mask>
                    <g id="Clip-4"></g>
                    <path d="M28.2669141,0.162 C22.3526953,0.162 17.5413984,4.93008 17.5413984,10.79064 C17.5413984,16.65264 22.3526953,21.42072 28.2669141,21.42072 C34.1808906,21.42072 38.9921875,16.65264 38.9921875,10.79064 C38.9921875,4.93008 34.1808906,0.162 28.2669141,0.162 M28.2669141,17.26248 C24.6670391,17.26248 21.7372969,14.3592 21.7372969,10.79064 C21.7372969,7.22352 24.6670391,4.32024 28.2669141,4.32024 C31.868,4.32024 34.7962891,7.22352 34.7962891,10.79064 C34.7962891,14.3592 31.868,17.26248 28.2669141,17.26248" id="Fill-3" fill="#1A1918" mask="url(#mask-2)"></path>
                    <path d="M2.76820313,16.81296 C2.06876563,16.81296 1.38579688,17.09304 0.888101563,17.58336 C0.396460937,18.07512 0.110679687,18.75336 0.110679687,19.44648 C0.110679687,20.1396 0.396460937,20.81952 0.888101563,21.3096 C1.38264844,21.79992 2.06876563,22.08 2.76820313,22.08 C3.46739844,22.08 4.15351563,21.79992 4.6480625,21.3096 C5.14285156,20.81952 5.42548437,20.1396 5.42548437,19.44648 C5.42548437,18.75336 5.14285156,18.07512 4.6480625,17.58336 C4.15351563,17.09304 3.46739844,16.81296 2.76820313,16.81296" id="Fill-5" fill="#00A260" mask="url(#mask-2)"></path>
                </g>
                <path d="M117.833422,0.12024 C117.136891,0.12024 116.451016,0.40032 115.956227,0.89064 C115.461437,1.38216 115.175898,2.06064 115.175898,2.75376 C115.175898,3.44664 115.461437,4.12656 115.956227,4.61664 C116.451016,5.10696 117.133984,5.38704 117.833422,5.38704 C118.535523,5.38704 119.217281,5.10696 119.713523,4.61664 C120.208312,4.12368 120.493609,3.44664 120.493609,2.75376 C120.493609,2.06064 120.208312,1.38216 119.713523,0.89064 C119.217281,0.40032 118.532859,0.12024 117.833422,0.12024" id="Fill-7" fill="#00A260"></path>
                <path d="M44.5821172,16.19976 C43.4234922,16.19976 42.4840469,17.13048 42.4840469,18.27864 C42.4840469,19.4268 43.4234922,20.35776 44.5821172,20.35776 L50.6433438,20.35776 C51.8005156,20.35776 52.7414141,19.4268 52.7414141,18.27864 C52.7414141,17.13048 51.8005156,16.19976 50.6433438,16.19976 L44.5821172,16.19976" id="Fill-8" fill="#1A1918"></path>
                <path d="M54.1388359,9.99024 C54.1388359,8.84208 53.1996328,7.91136 52.0410078,7.91136 L38.0442656,7.91136 C36.8841875,7.91136 35.9447422,8.84208 35.9447422,9.99024 L35.9447422,27.26136 C35.9447422,28.40976 36.8841875,29.34048 38.0442656,29.34048 L52.0410078,29.34048 C53.1996328,29.34048 54.1388359,28.40976 54.1388359,27.26136 C54.1388359,26.1132 53.1996328,25.18248 52.0410078,25.18248 L40.1420938,25.18248 L40.1420938,12.06936 L52.0410078,12.06936 C53.1996328,12.06936 54.1388359,11.1384 54.1388359,9.99024" id="Fill-9" fill="#1A1918"></path>
                <path d="M117.834633,7.91112 C116.676008,7.91112 115.736805,8.84184 115.736805,9.99024 L115.736805,27.26112 C115.736805,28.40952 116.676008,29.34048 117.834633,29.34048 C118.993258,29.34048 119.932703,28.40952 119.932703,27.26112 L119.932703,9.99024 C119.932703,8.84184 118.993258,7.91112 117.834633,7.91112" id="Fill-10" fill="#1A1918"></path>
                <path d="M92.163,8.95848 C91.7890625,8.31072 91.0942266,7.91088 90.34175,7.91088 C89.5895156,7.91088 88.8946797,8.31072 88.5207422,8.95848 L78.5532734,26.2296 C77.9792891,27.22608 78.3282812,28.49688 79.3338437,29.06736 C80.3391641,29.63616 81.6215469,29.29056 82.1972266,28.29384 L84.4558672,24.37968 L90.6217187,24.37968 C91.7803438,24.37968 92.7195469,23.44872 92.7195469,22.30056 C92.7195469,21.1524 91.7803438,20.22144 90.6217187,20.22144 L86.8557031,20.22144 L90.34175,14.17848 L98.4862734,28.29384 C98.8735313,28.96512 99.5819297,29.34144 100.309219,29.34144 C100.66257,29.34144 101.020039,29.2524 101.349898,29.06736 C102.355461,28.49688 102.704453,27.22608 102.128773,26.2296 L92.163,8.95848" id="Fill-11" fill="#1A1918"></path>
                <g id="Group-15" transform="translate(0.000000, 7.680000)">
                    <mask id="mask-4" fill="white">
                        <use xlink:href="#path-3"></use>
                    </mask>
                    <g id="Clip-13"></g>
                    <path d="M31.6873281,0.4416 C30.6464063,-0.06168 29.3889688,0.3672 28.8811016,1.39872 L22.2662344,14.83872 L15.6513672,1.39872 C15.1435,0.3672 13.8892109,-0.06168 12.8468359,0.4416 C11.8044609,0.94512 11.373125,2.18952 11.8795391,3.22248 L20.3803203,20.49216 C20.7322188,21.20712 21.4653203,21.66072 22.2662344,21.66072 C23.0686016,21.66072 23.8004922,21.20712 24.1521484,20.49216 L32.6531719,3.22248 C33.1610391,2.18952 32.72825,0.94512 31.6873281,0.4416" id="Fill-12" fill="#1A1918" mask="url(#mask-4)"></path>
                    <path d="M13.7073281,13.26624 C12.6666484,12.76272 11.4109063,13.1916 10.9013438,14.22312 L10.5995781,14.83872 L3.98471094,1.39896 C3.47684375,0.36744 2.22085938,-0.06144 1.17848438,0.44184 C0.1375625,0.94512 -0.295226563,2.18976 0.212640625,3.22128 L8.71342188,20.49216 C9.06532031,21.20712 9.79721094,21.66072 10.5995781,21.66072 C11.4019453,21.66072 12.1335938,21.20712 12.4854922,20.49216 L14.6731719,16.04688 C15.1812813,15.01392 14.7499453,13.76952 13.7073281,13.26624" id="Fill-14" fill="#1A1918" mask="url(#mask-4)"></path>
                </g>
            </g>
        </g>
    </g>
</svg>